<?xml version="1.0" encoding="UTF-8" standalone="no"?><!DOCTYPE svg PUBLIC "-//W3C//DTD SVG 1.1//EN" "http://www.w3.org/Graphics/SVG/1.1/DTD/svg11.dtd"><svg width="100%" height="100%" viewBox="0 0 913 321" version="1.1" xmlns="http://www.w3.org/2000/svg" xmlns:xlink="http://www.w3.org/1999/xlink" xml:space="preserve" xmlns:serif="http://www.serif.com/" style="fill-rule:evenodd;clip-rule:evenodd;stroke-linejoin:round;stroke-miterlimit:10;"><g transform="matrix(-1.83697e-16,-1,1,-1.83697e-16,-169.825,206.293)"><text x="18.234px" y="188.059px" style="font-family:'Tahoma', sans-serif;font-size:24px;">Expected</text></g><rect x="28.209" y="1.85" width="123.871" height="52.8" style="fill:#eaecf0;"/><rect x="152.08" y="1.85" width="126.806" height="52.8" style="fill:#eaecf0;"/><rect x="278.886" y="1.85" width="59.205" height="52.8" style="fill:#eaecf0;"/><rect x="338.091" y="1.85" width="103.295" height="52.8" style="fill:#eaecf0;"/><rect x="28.209" y="54.65" width="123.871" height="31.2" style="fill:#f8f9fa;"/><rect x="152.08" y="54.65" width="126.806" height="31.2" style="fill:#f8f9fa;"/><rect x="278.886" y="54.65" width="59.205" height="31.2" style="fill:#f8f9fa;"/><rect x="338.091" y="54.65" width="103.295" height="31.2" style="fill:#f8f9fa;"/><rect x="28.209" y="85.85" width="123.871" height="31.2" style="fill:#f8f9fa;"/><rect x="152.08" y="85.85" width="126.806" height="31.2" style="fill:#f8f9fa;"/><rect x="278.886" y="85.85" width="59.205" height="31.2" style="fill:#f8f9fa;"/><rect x="338.091" y="85.85" width="103.295" height="31.2" style="fill:#f8f9fa;"/><rect x="28.209" y="117.05" width="123.871" height="52.8" style="fill:#f5deb3;"/><rect x="152.08" y="117.05" width="126.806" height="52.8" style="fill:#f8f9fa;"/><rect x="278.886" y="117.05" width="59.205" height="52.8" style="fill:#f8f9fa;"/><rect x="338.091" y="117.05" width="103.295" height="52.8" style="fill:#f8f9fa;"/><rect x="28.209" y="169.85" width="123.871" height="31.2" style="fill:#f8f9fa;"/><rect x="152.08" y="169.85" width="126.806" height="31.2" style="fill:#f8f9fa;"/><rect x="278.886" y="169.85" width="59.205" height="31.2" style="fill:#f8f9fa;"/><rect x="338.091" y="169.85" width="103.295" height="31.2" style="fill:#f8f9fa;"/><rect x="28.209" y="201.05" width="123.871" height="31.2" style="fill:#f8f9fa;"/><rect x="152.08" y="201.05" width="126.806" height="31.2" style="fill:#f8f9fa;"/><rect x="278.886" y="201.05" width="59.205" height="31.2" style="fill:#f8f9fa;"/><rect x="338.091" y="201.05" width="103.295" height="31.2" style="fill:#f8f9fa;"/><rect x="28.209" y="232.25" width="123.871" height="52.8" style="fill:#f8f9fa;"/><rect x="152.08" y="232.25" width="126.806" height="52.8" style="fill:#f5deb3;"/><rect x="278.886" y="232.25" width="59.205" height="52.8" style="fill:#f8f9fa;"/><rect x="338.091" y="232.25" width="103.295" height="52.8" style="fill:#f8f9fa;"/><rect x="28.209" y="285.05" width="123.871" height="31.2" style="fill:#f8f9fa;"/><rect x="152.08" y="285.05" width="126.806" height="31.2" style="fill:#f8f9fa;"/><rect x="278.886" y="285.05" width="59.205" height="31.2" style="fill:#f8f9fa;"/><rect x="338.091" y="285.05" width="103.295" height="31.2" style="fill:#f8f9fa;"/><path d="M152.08,1.35l0,315.4" style="fill:none;stroke:#a2a9b1;stroke-width:1px;"/><path d="M278.886,1.35l0,315.4" style="fill:none;stroke:#a2a9b1;stroke-width:1px;"/><path d="M338.091,1.35l0,315.4" style="fill:none;stroke:#a2a9b1;stroke-width:1px;"/><path d="M27.71,54.65l414.176,0" style="fill:none;stroke:#a2a9b1;stroke-width:1px;"/><path d="M27.71,85.85l414.176,-0" style="fill:none;stroke:#a2a9b1;stroke-width:1px;"/><path d="M27.71,117.05l414.176,-0" style="fill:none;stroke:#a2a9b1;stroke-width:1px;"/><path d="M27.71,169.85l414.176,0" style="fill:none;stroke:#a2a9b1;stroke-width:1px;"/><path d="M27.71,201.05l414.176,-0" style="fill:none;stroke:#a2a9b1;stroke-width:1px;"/><path d="M27.71,232.25l414.176,-0" style="fill:none;stroke:#a2a9b1;stroke-width:1px;"/><path d="M27.71,285.05l414.176,-0" style="fill:none;stroke:#a2a9b1;stroke-width:1px;"/><path d="M28.209,1.35l0,315.4" style="fill:none;stroke:#a2a9b1;stroke-width:1px;"/><path d="M441.386,1.35l0,315.4" style="fill:none;stroke:#a2a9b1;stroke-width:1px;"/><path d="M27.71,1.85l414.176,-0" style="fill:none;stroke:#a2a9b1;stroke-width:1px;"/><path d="M27.71,316.25l414.176,0" style="fill:none;stroke:#a2a9b1;stroke-width:1px;"/><text x="360.699px" y="25.059px" style="font-family:'Tahoma', sans-serif;font-size:18px;">Integer</text><text x="368.825px" y="47.059px" style="font-family:'Tahoma', sans-serif;font-size:18px;">v<tspan x="377.447px 386.896px " y="47.059px 47.059px ">al</tspan>ue</text><text x="179.776px" y="35.059px" style="font-family:'Tahoma', sans-serif;font-size:18px;">Thread 2</text><text x="54.438px" y="35.059px" style="font-family:'Tahoma', sans-serif;font-size:18px;">Thread 1</text><g><text x="347.691px" y="77.059px" style="font-family:'Tahoma', sans-serif;font-size:18px;">0</text></g><g><text x="347.691px" y="109.059px" style="font-family:'Tahoma', sans-serif;font-size:18px;">0</text></g><g><text x="288.486px" y="109.059px" style="font-family:'Tahoma', sans-serif;font-size:18px;">←</text></g><g><text x="37.809px" y="109.059px" style="font-family:'Tahoma', sans-serif;font-size:18px;">read v<tspan x="87.327px 96.775px " y="109.059px 109.059px ">al</tspan>ue</text></g><g><text x="347.691px" y="151.059px" style="font-family:'Tahoma', sans-serif;font-size:18px;">0</text></g><g><text x="37.809px" y="140.059px" style="font-family:'Tahoma', sans-serif;font-size:18px;">increase</text></g><g><text x="37.809px" y="162.059px" style="font-family:'Tahoma', sans-serif;font-size:18px;">v<tspan x="46.432px 55.88px " y="162.059px 162.059px ">al</tspan>ue</text></g><g><text x="347.691px" y="193.059px" style="font-family:'Tahoma', sans-serif;font-size:18px;">1</text></g><g><text x="288.486px" y="193.059px" style="font-family:'Tahoma', sans-serif;font-size:18px;">→</text></g><g><text x="37.809px" y="193.059px" style="font-family:'Tahoma', sans-serif;font-size:18px;">write back</text></g><g><text x="347.691px" y="224.059px" style="font-family:'Tahoma', sans-serif;font-size:18px;">1</text></g><g><text x="288.486px" y="224.059px" style="font-family:'Tahoma', sans-serif;font-size:18px;">←</text></g><g><text x="161.68px" y="224.059px" style="font-family:'Tahoma', sans-serif;font-size:18px;">read v<tspan x="211.198px 220.646px " y="224.059px 224.059px ">al</tspan>ue</text></g><g><text x="347.691px" y="266.059px" style="font-family:'Tahoma', sans-serif;font-size:18px;">1</text></g><g><text x="161.68px" y="255.059px" style="font-family:'Tahoma', sans-serif;font-size:18px;">increase</text></g><g><text x="161.68px" y="277.059px" style="font-family:'Tahoma', sans-serif;font-size:18px;">v<tspan x="170.302px 179.751px " y="277.059px 277.059px ">al</tspan>ue</text></g><g><text x="347.691px" y="308.059px" style="font-family:'Tahoma', sans-serif;font-size:18px;">2</text></g><g><text x="288.486px" y="308.059px" style="font-family:'Tahoma', sans-serif;font-size:18px;">→</text></g><g><text x="161.68px" y="308.059px" style="font-family:'Tahoma', sans-serif;font-size:18px;">write back</text></g><g transform="matrix(-1.83697e-16,-1,1,-1.83697e-16,306.469,648.587)"><text x="477.528px" y="171.059px" style="font-family:'Tahoma', sans-serif;font-size:24px;">Actual</text></g><rect x="492.209" y="1" width="104.941" height="52.8" style="fill:#eaecf0;"/><rect x="597.15" y="1" width="150.118" height="52.8" style="fill:#eaecf0;"/><rect x="747.268" y="1" width="59.764" height="52.8" style="fill:#eaecf0;"/><rect x="807.032" y="1" width="104.942" height="52.8" style="fill:#eaecf0;"/><rect x="492.209" y="53.8" width="104.941" height="33.464" style="fill:#f8f9fa;"/><rect x="597.15" y="53.8" width="150.118" height="33.464" style="fill:#f8f9fa;"/><rect x="747.268" y="53.8" width="59.764" height="33.464" style="fill:#f8f9fa;"/><rect x="807.032" y="53.8" width="104.942" height="33.464" style="fill:#f8f9fa;"/><rect x="492.209" y="87.264" width="104.941" height="33.464" style="fill:#f8f9fa;"/><rect x="597.15" y="87.264" width="150.118" height="33.464" style="fill:#f8f9fa;"/><rect x="747.268" y="87.264" width="59.764" height="33.464" style="fill:#f8f9fa;"/><rect x="807.032" y="87.264" width="104.942" height="33.464" style="fill:#f8f9fa;"/><rect x="492.209" y="120.728" width="104.941" height="33.464" style="fill:#f8f9fa;"/><rect x="597.15" y="120.728" width="150.118" height="33.464" style="fill:#f8f9fa;"/><rect x="747.268" y="120.728" width="59.764" height="33.464" style="fill:#f8f9fa;"/><rect x="807.032" y="120.728" width="104.942" height="33.464" style="fill:#f8f9fa;"/><rect x="492.209" y="154.192" width="104.941" height="52.8" style="fill:#f5deb3;"/><rect x="597.15" y="154.192" width="150.118" height="52.8" style="fill:#f8f9fa;"/><rect x="747.268" y="154.192" width="59.764" height="52.8" style="fill:#f8f9fa;"/><rect x="807.032" y="154.192" width="104.942" height="52.8" style="fill:#f8f9fa;"/><rect x="492.209" y="206.992" width="104.941" height="45.936" style="fill:#f8f9fa;"/><rect x="597.15" y="206.992" width="150.118" height="45.936" style="fill:#f5deb3;"/><rect x="747.268" y="206.992" width="59.764" height="45.936" style="fill:#f8f9fa;"/><rect x="807.032" y="206.992" width="104.942" height="45.936" style="fill:#f8f9fa;"/><rect x="492.209" y="252.928" width="104.941" height="33.463" style="fill:#f8f9fa;"/><rect x="597.15" y="252.928" width="150.118" height="33.463" style="fill:#f8f9fa;"/><rect x="747.268" y="252.928" width="59.764" height="33.463" style="fill:#f8f9fa;"/><rect x="807.032" y="252.928" width="104.942" height="33.463" style="fill:#f8f9fa;"/><rect x="492.209" y="286.391" width="104.941" height="33.464" style="fill:#f8f9fa;"/><rect x="597.15" y="286.391" width="150.118" height="33.464" style="fill:#f8f9fa;"/><rect x="747.268" y="286.391" width="59.764" height="33.464" style="fill:#f8f9fa;"/><rect x="807.032" y="286.391" width="104.942" height="33.464" style="fill:#f8f9fa;"/><path d="M597.15,0.5l0,319.855" style="fill:none;stroke:#a2a9b1;stroke-width:1px;"/><path d="M747.268,0.5l0,319.855" style="fill:none;stroke:#a2a9b1;stroke-width:1px;"/><path d="M807.032,0.5l0,319.855" style="fill:none;stroke:#a2a9b1;stroke-width:1px;"/><path d="M491.709,53.8l420.765,0" style="fill:none;stroke:#a2a9b1;stroke-width:1px;"/><path d="M491.709,87.264l420.765,0" style="fill:none;stroke:#a2a9b1;stroke-width:1px;"/><path d="M491.709,120.728l420.765,-0" style="fill:none;stroke:#a2a9b1;stroke-width:1px;"/><path d="M491.709,154.192l420.765,-0" style="fill:none;stroke:#a2a9b1;stroke-width:1px;"/><path d="M491.709,206.992l420.765,0" style="fill:none;stroke:#a2a9b1;stroke-width:1px;"/><path d="M491.709,252.928l420.765,0" style="fill:none;stroke:#a2a9b1;stroke-width:1px;"/><path d="M491.709,286.391l420.765,-0" style="fill:none;stroke:#a2a9b1;stroke-width:1px;"/><path d="M492.209,0.5l0,319.855" style="fill:none;stroke:#a2a9b1;stroke-width:1px;"/><path d="M911.974,0.5l0,319.855" style="fill:none;stroke:#a2a9b1;stroke-width:1px;"/><path d="M491.709,1l420.765,0" style="fill:none;stroke:#a2a9b1;stroke-width:1px;"/><path d="M491.709,319.855l420.765,0" style="fill:none;stroke:#a2a9b1;stroke-width:1px;"/><text x="830.463px" y="24.059px" style="font-family:'Tahoma', sans-serif;font-size:18px;">Integer</text><text x="838.59px" y="46.059px" style="font-family:'Tahoma', sans-serif;font-size:18px;">v<tspan x="847.212px 856.661px " y="46.059px 46.059px ">al</tspan>ue</text><text x="636.502px" y="35.059px" style="font-family:'Tahoma', sans-serif;font-size:18px;">Thread 2</text><text x="508.973px" y="35.059px" style="font-family:'Tahoma', sans-serif;font-size:18px;">Thread 1</text><g><text x="816.633px" y="78.059px" style="font-family:'Tahoma', sans-serif;font-size:18px;">0</text></g><g><text x="816.633px" y="111.059px" style="font-family:'Tahoma', sans-serif;font-size:18px;">0</text></g><g><text x="756.868px" y="111.059px" style="font-family:'Tahoma', sans-serif;font-size:18px;">←</text></g><g><text x="501.809px" y="111.059px" style="font-family:'Tahoma', sans-serif;font-size:18px;">read v<tspan x="551.327px 560.775px " y="111.059px 111.059px ">al</tspan>ue</text></g><g><text x="816.633px" y="145.059px" style="font-family:'Tahoma', sans-serif;font-size:18px;">0</text></g><g><text x="756.868px" y="145.059px" style="font-family:'Tahoma', sans-serif;font-size:18px;">←</text></g><g><text x="606.75px" y="145.059px" style="font-family:'Tahoma', sans-serif;font-size:18px;">read v<tspan x="656.268px 665.716px " y="145.059px 145.059px ">al</tspan>ue</text></g><g><text x="816.633px" y="188.059px" style="font-family:'Tahoma', sans-serif;font-size:18px;">0</text></g><g><text x="501.809px" y="177.059px" style="font-family:'Tahoma', sans-serif;font-size:18px;">increase</text></g><g><text x="501.809px" y="199.059px" style="font-family:'Tahoma', sans-serif;font-size:18px;">v<tspan x="510.431px 519.88px " y="199.059px 199.059px ">al</tspan>ue</text></g><g><text x="816.633px" y="237.059px" style="font-family:'Tahoma', sans-serif;font-size:18px;">0</text></g><g><text x="606.75px" y="237.059px" style="font-family:'Tahoma', sans-serif;font-size:18px;">increase v<tspan x="686.283px 695.731px " y="237.059px 237.059px ">al</tspan>ue</text></g><g><text x="816.633px" y="277.059px" style="font-family:'Tahoma', sans-serif;font-size:18px;">1</text></g><g><text x="756.868px" y="277.059px" style="font-family:'Tahoma', sans-serif;font-size:18px;">→</text></g><g><text x="501.809px" y="277.059px" style="font-family:'Tahoma', sans-serif;font-size:18px;">write back</text></g><g><text x="816.633px" y="310.059px" style="font-family:'Tahoma', sans-serif;font-size:18px;">1</text></g><g><text x="756.868px" y="310.059px" style="font-family:'Tahoma', sans-serif;font-size:18px;">→</text></g><g><text x="606.75px" y="310.059px" style="font-family:'Tahoma', sans-serif;font-size:18px;">write back</text></g></svg>