<?xml version="1.0" encoding="UTF-8" standalone="no"?><!DOCTYPE svg PUBLIC "-//W3C//DTD SVG 1.1//EN" "http://www.w3.org/Graphics/SVG/1.1/DTD/svg11.dtd"><svg width="100%" height="100%" viewBox="0 0 670 278" version="1.1" xmlns="http://www.w3.org/2000/svg" xmlns:xlink="http://www.w3.org/1999/xlink" xml:space="preserve" xmlns:serif="http://www.serif.com/" style="fill-rule:evenodd;clip-rule:evenodd;stroke-linejoin:round;"><path d="M11.138,105.918l55.122,0c3.048,0 4.877,0 6.096,0.509c1.758,0.64 3.143,2.025 3.783,3.783c0.509,1.219 0.509,3.048 0.509,6.096l-0,32.007c-0,3.049 -0,4.878 -0.509,6.097c-0.64,1.758 -2.025,3.143 -3.783,3.783c-1.219,0.509 -3.048,0.509 -6.097,0.509l-55.121,-0c-3.048,-0 -4.877,-0 -6.097,-0.509c-1.757,-0.64 -3.142,-2.025 -3.782,-3.783c-0.509,-1.219 -0.509,-3.048 -0.509,-6.097l-0,-32.007c-0,-3.048 -0,-4.877 0.509,-6.096c0.64,-1.758 2.025,-3.143 3.782,-3.783c1.22,-0.509 3.049,-0.509 6.097,-0.509Z" style="fill:#fff;fill-rule:nonzero;stroke:#4285f4;stroke-width:1.5px;"/><path d="M282.001,210.56l100.968,0c2.191,0 3.505,0 4.382,0.366c1.263,0.46 2.258,1.455 2.718,2.718c0.365,0.876 0.365,2.19 0.365,4.381l0,44.157c-0.055,3.917 0.034,4.673 -0.932,5.768c-3.634,4.12 -10.945,-7.042 -29.118,-6.91c-23.352,0.169 -31.727,14.584 -55.807,15.241c-15.115,0.413 -29.215,-8.454 -29.675,-9.718c-0.365,-0.876 -0.365,-2.19 -0.365,-4.381l-0,-44.157c-0,-2.191 -0,-3.505 0.365,-4.381c0.46,-1.263 1.455,-2.258 2.718,-2.718c0.876,-0.366 2.191,-0.366 4.381,-0.366Z" style="fill:#fff;fill-rule:nonzero;stroke:#4285f4;stroke-width:1.5px;"/><path d="M129.237,104.102l93.122,0c3.048,0 4.877,0 6.096,0.509c1.758,0.64 3.143,2.025 3.783,3.783c0.509,1.219 0.509,3.048 0.509,6.097l-0,32.007c-0,3.048 -0,4.877 -0.509,6.096c-0.64,1.758 -2.025,3.143 -3.783,3.783c-1.219,0.509 -3.048,0.509 -6.096,0.509l-93.122,-0c-3.048,-0 -4.877,-0 -6.097,-0.509c-1.757,-0.64 -3.142,-2.025 -3.782,-3.783c-0.509,-1.219 -0.509,-3.048 -0.509,-6.096l-0,-32.007c-0,-3.049 -0,-4.878 0.509,-6.097c0.64,-1.758 2.025,-3.143 3.782,-3.783c1.22,-0.509 3.049,-0.509 6.097,-0.509Z" style="fill:#fff;fill-rule:nonzero;stroke:#4285f4;stroke-width:1.5px;"/><path d="M565.606,104.137l93.121,0c3.049,0 4.878,0 6.097,0.509c1.758,0.64 3.143,2.025 3.782,3.783c0.509,1.219 0.509,3.048 0.509,6.097l0,31.937c0,3.048 0,4.877 -0.509,6.096c-0.639,1.758 -2.024,3.143 -3.782,3.783c-1.219,0.509 -3.048,0.509 -6.097,0.509l-93.121,-0c-3.049,-0 -4.878,-0 -6.097,-0.509c-1.758,-0.64 -3.143,-2.025 -3.782,-3.783c-0.509,-1.219 -0.509,-3.048 -0.509,-6.096l-0,-31.937c-0,-3.049 -0,-4.878 0.509,-6.097c0.639,-1.758 2.024,-3.143 3.782,-3.783c1.219,-0.509 3.048,-0.509 6.097,-0.509Z" style="fill:#fff;fill-rule:nonzero;stroke:#4285f4;stroke-width:1.5px;"/><path d="M285.336,103.821l93.121,-0c3.049,-0 4.878,-0 6.097,0.509c1.758,0.639 3.143,2.024 3.783,3.782c0.509,1.219 0.509,3.048 0.509,6.097l-0,32.13c-0,3.048 -0,4.878 -0.509,6.097c-0.64,1.758 -2.025,3.142 -3.783,3.782c-1.219,0.509 -3.048,0.509 -6.097,0.509l-93.121,0c-3.048,0 -4.877,0 -6.097,-0.509c-1.757,-0.64 -3.142,-2.024 -3.782,-3.782c-0.509,-1.219 -0.509,-3.049 -0.509,-6.097l-0,-32.13c-0,-3.049 -0,-4.878 0.509,-6.097c0.64,-1.758 2.025,-3.143 3.782,-3.782c1.22,-0.51 3.049,-0.51 6.097,-0.51Z" style="fill:#fff;fill-rule:nonzero;stroke:#4285f4;stroke-width:1.5px;"/><path d="M332.98,202.69l0,-17.25l279.151,0l-0,-27.9" style="fill:none;fill-rule:nonzero;stroke:#4285f4;stroke-width:1.5px;"/><path d="M329.08,202.09l3.9,7.8l3.9,-7.8l-7.8,0Z" style="fill:#4285f4;fill-rule:nonzero;"/><path d="M555.218,131.31l-157.752,-0" style="fill:none;fill-rule:nonzero;stroke:#4285f4;stroke-width:1.5px;"/><path d="M397.466,127.41l-7.8,3.9l7.8,3.9l0,-7.8Z" style="fill:#4285f4;fill-rule:nonzero;"/><path d="M274.948,131.31l-33.673,-0" style="fill:none;fill-rule:nonzero;stroke:#4285f4;stroke-width:1.5px;"/><path d="M241.275,127.41l-7.8,3.9l7.8,3.9l0,-7.8Z" style="fill:#4285f4;fill-rule:nonzero;"/><path d="M175.731,96.29l-0,-19.55l131.8,0l-0,-17.781" style="fill:none;fill-rule:nonzero;stroke:#4285f4;stroke-width:1.5px;"/><path d="M171.831,95.54l3.9,7.8l3.9,-7.8l-7.8,0Z" style="fill:#4285f4;fill-rule:nonzero;"/><path d="M118.87,131.31l-35.289,-0" style="fill:none;fill-rule:nonzero;stroke:#4285f4;stroke-width:1.5px;"/><path d="M85.291,127.41l-7.8,3.9l7.8,3.9l-0,-7.8Z" style="fill:#4285f4;fill-rule:nonzero;"/><path d="M331.283,0.75c-12.432,0 -24.862,0.655 -34.347,1.968c-18.971,2.627 -18.971,6.885 -0,9.511c18.971,2.627 49.723,2.627 68.694,0c18.971,-2.626 18.971,-6.884 -0,-9.511c-9.486,-1.313 -21.915,-1.968 -34.347,-1.968Zm-48.574,9.773l0,41.884c0,3.708 21.747,7.091 48.574,7.091c26.827,0 48.573,-3.383 48.574,-7.091l-0,-41.884c-6.908,2.796 -26.052,4.797 -48.574,4.797c-22.522,-0 -41.666,-2.001 -48.574,-4.797Z" style="fill:#fff;fill-rule:nonzero;stroke:#4285f4;stroke-width:1.5px;"/><path d="M332.98,186.803l0,-30.466" style="fill:none;fill-rule:nonzero;stroke:#4285f4;stroke-width:1.5px;"/><path d="M614.57,103.375l-0.165,-26.195l-282.19,-0.113" style="fill:none;fill-rule:nonzero;stroke:#4285f4;stroke-width:1.5px;"/><path d="M331.673,104.593l0,-38.185" style="fill:none;fill-rule:nonzero;stroke:#4285f4;stroke-width:1.5px;"/><path d="M335.573,68.118l-3.9,-7.8l-3.9,7.8l7.8,-0Z" style="fill:#4285f4;fill-rule:nonzero;"/><path d="M175.864,156.851l0,27.753l157.116,0.829l-0.619,0.365" style="fill:none;fill-rule:nonzero;stroke:#4285f4;stroke-width:1.5px;"/><text x="22.92px" y="127.298px" style="font-family:'ArialMT', 'Arial', sans-serif;font-size:14px;fill:#535353;">User</text><text x="10.461px" y="146.407px" style="font-family:'ArialMT', 'Arial', sans-serif;font-size:14px;fill:#535353;">Interface</text><text x="136.469px" y="135.298px" style="font-family:'ArialMT', 'Arial', sans-serif;font-size:14px;fill:#535353;">W<tspan x="149.431px 157.217px " y="135.298px 135.298px ">eb</tspan> Server</text><text x="580.146px" y="135.298px" style="font-family:'ArialMT', 'Arial', sans-serif;font-size:14px;fill:#535353;">Scheduler</text><text x="307.468px" y="135.078px" style="font-family:'ArialMT', 'Arial', sans-serif;font-size:14px;fill:#535353;">W<tspan x="320.429px 328.216px " y="135.078px 135.078px ">or</tspan>kers</text><text x="305.098px" y="31.683px" style="font-family:'ArialMT', 'Arial', sans-serif;font-size:12px;fill:#535353;">Metadata</text><text x="305.098px" y="48.404px" style="font-family:'ArialMT', 'Arial', sans-serif;font-size:12px;fill:#535353;">Database</text><text x="285.666px" y="246.897px" style="font-family:'ArialMT', 'Arial', sans-serif;font-size:14px;fill:#535353;">DAG Directory</text></svg>