<?xml version="1.0" encoding="UTF-8"?>
<!-- Created with Inkscape (http://www.inkscape.org/) -->
<svg width="469.51" height="114.67" version="1.1" viewBox="0 0 469.51 114.67" xmlns="http://www.w3.org/2000/svg">
 <defs>
  <filter id="filter214" x="-.12096" y="-.37498" width="1.2671" height="1.9062" color-interpolation-filters="sRGB">
   <feFlood flood-color="rgb(0,0,0)" flood-opacity=".50196" in="SourceGraphic" result="flood"/>
   <feGaussianBlur in="SourceGraphic" result="blur" stdDeviation="2.000000"/>
   <feOffset dx="1.000000" dy="2.000000" in="blur" result="offset"/>
   <feComposite in="flood" in2="offset" operator="in" result="comp1"/>
   <feComposite in="comp1" in2="comp1" operator="atop" result="comp2"/>
  </filter>
  <filter id="filter233" x="-.17136" y="-.53122" width="1.2923" height="1.9062" color-interpolation-filters="sRGB">
   <feFlood flood-color="rgb(0,0,0)" flood-opacity=".50196" in="SourceGraphic" result="flood"/>
   <feGaussianBlur in="SourceGraphic" result="blur" stdDeviation="2.000000"/>
   <feOffset dx="-2.000000" dy="-2.000000" in="blur" result="offset"/>
   <feComposite in="flood" in2="offset" operator="in" result="comp1"/>
   <feComposite in="comp1" in2="comp1" operator="atop" result="comp2"/>
  </filter>
  <filter id="filter302" x="-.052469" y="-.06298" width="1.1268" height="1.1522" color-interpolation-filters="sRGB">
   <feFlood flood-color="rgb(0,0,0)" flood-opacity=".50196" in="SourceGraphic" result="flood"/>
   <feGaussianBlur in="SourceGraphic" result="blur" stdDeviation="2.000000"/>
   <feOffset dx="2.000000" dy="2.000000" in="blur" result="offset"/>
   <feComposite in="flood" in2="offset" operator="in" result="comp1"/>
   <feComposite in="comp1" in2="comp1" operator="atop" result="comp2"/>
  </filter>
 </defs>
 <text x="10.071586" y="106.32533" font-size="16px" stroke-width="1.3333" xml:space="preserve"><tspan x="10.071586" y="106.32533" fill="#a12e9d" font-family="Arial" font-size="18.667px" stroke-width="1.3333">E-commerce website</tspan></text>
 <g transform="translate(-457.42 -192.29)">
  <g>
   <path transform="matrix(1 0 0 .97182 0 8.0038)" d="m514.75 200.98h79.747c1.7213 0 2.7547 0 3.444 0.32578 0.992 0.40874 1.7747 1.2926 2.136 2.4162 0.288 0.77976 0.288 1.9472 0.288 3.8958v62.939c0 1.9472 0 3.116-0.288 3.8958-0.36133 1.1236-1.144 2.0075-2.136 2.4162-0.68933 0.32578-1.7227 0.32578-3.444 0.32578h-79.747c-1.7213 0-2.7547 0-3.444-0.32578-0.992-0.40873-1.7747-1.2926-2.136-2.4162-0.288-0.77977-0.288-1.9487-0.288-3.8958v-62.939c0-1.9486 0-3.116 0.288-3.8958 0.36134-1.1236 1.144-2.0075 2.136-2.4162 0.68934-0.32578 1.7227-0.32578 3.444-0.32578z" fill="#fff" filter="url(#filter302)"/>
   <path d="m514.75 209.38h79.747c1.7213 0 2.7547 0 3.444 0.28989 0.992 0.36371 1.7747 1.1502 2.136 2.15 0.288 0.69385 0.288 1.7326 0.288 3.4666v56.005c0 1.7326 0 2.7727-0.288 3.4666-0.36133 0.99984-1.144 1.7863-2.136 2.15-0.68933 0.28989-1.7227 0.28989-3.444 0.28989h-79.747c-1.7213 0-2.7547 0-3.444-0.28989-0.992-0.3637-1.7747-1.1502-2.136-2.15-0.288-0.69386-0.288-1.734-0.288-3.4666v-56.005c0-1.734 0-2.7727 0.288-3.4666 0.36134-0.99986 1.144-1.7863 2.136-2.15 0.68934-0.28989 1.7227-0.28989 3.444-0.28989z" fill="#fff"/>
   <path transform="matrix(1.3333 0 0 -1.3333 0 540)" d="m386.24 243.69h38.615c0.577 0 0.923 0 1.154-0.096 0.332-0.122 0.594-0.384 0.715-0.716 0.097-0.231 0.097-0.577 0.097-1.154v-11.327c0-0.577 0-0.923-0.097-1.154-0.121-0.333-0.383-0.595-0.715-0.716-0.231-0.096-0.577-0.096-1.154-0.096h-38.615c-0.577 0-0.923 0-1.154 0.096-0.333 0.121-0.595 0.383-0.716 0.716-0.096 0.231-0.096 0.577-0.096 1.154v11.327c0 0.577 0 0.923 0.096 1.154 0.121 0.332 0.383 0.594 0.716 0.716 0.231 0.096 0.577 0.096 1.154 0.096z" fill="#cdd8fa"/>
  </g>
  <path transform="matrix(1.3333 0 0 1.3333 512.37 215.08)" d="m1.9658 0h38.615c0.5769 0 0.923 0 1.1537 0.096334 0.3327 0.12107 0.5947 0.38311 0.7158 0.71575 0.0963 0.23075 0.0963 0.57687 0.0963 1.1537v11.327c0 0.5769 0 0.923-0.0963 1.1538-0.1211 0.3326-0.3831 0.5946-0.7158 0.7157-0.2307 0.0964-0.5768 0.0964-1.1537 0.0964h-38.615c-0.57687 0-0.92299 0-1.1537-0.0964-0.33264-0.1211-0.59468-0.3831-0.71575-0.7157-0.096334-0.2308-0.096334-0.5769-0.096334-1.1538v-11.327c0-0.57687 0-0.92299 0.096334-1.1537 0.12107-0.33264 0.38311-0.59468 0.71575-0.71575 0.23075-0.096334 0.57687-0.096334 1.1537-0.096334z" fill="none" stroke="#cdd8fa" stroke-linejoin="round" stroke-width="2"/>
  <path transform="matrix(1.3333 0 0 -1.3333 0 540)" d="m386.24 225.66h38.275c0.577 0 0.923 0 1.154-0.097 0.332-0.121 0.594-0.383 0.716-0.715 0.096-0.231 0.096-0.577 0.096-1.154v-21.574c0-0.577 0-0.923-0.096-1.154-0.122-0.333-0.384-0.595-0.716-0.716-0.231-0.096-0.577-0.096-1.154-0.096h-38.275c-0.577 0-0.923 0-1.154 0.096-0.333 0.121-0.595 0.383-0.716 0.716-0.096 0.231-0.096 0.577-0.096 1.154v21.574c0 0.577 0 0.923 0.096 1.154 0.121 0.332 0.383 0.594 0.716 0.715 0.231 0.097 0.577 0.097 1.154 0.097z" fill="#cdd8fa"/>
  <path transform="matrix(1.3333 0 0 1.3333 512.37 239.12)" d="m1.9658 0h38.275c0.5768 0 0.9229 0 1.1537 0.096334 0.3326 0.12107 0.5947 0.38311 0.7157 0.71575 0.0964 0.23075 0.0964 0.57687 0.0964 1.1537v21.574c0 0.5769 0 0.923-0.0964 1.1537-0.121 0.3327-0.3831 0.5947-0.7157 0.7158-0.2308 0.0963-0.5769 0.0963-1.1537 0.0963h-38.275c-0.57687 0-0.92299 0-1.1537-0.0963-0.33264-0.1211-0.59468-0.3831-0.71575-0.7158-0.096334-0.2307-0.096334-0.5768-0.096334-1.1537v-21.574c0-0.57687 0-0.92299 0.096334-1.1537 0.12107-0.33264 0.38311-0.59468 0.71575-0.71575 0.23075-0.096334 0.57687-0.096334 1.1537-0.096334z" fill="none" stroke="#cdd8fa" stroke-linejoin="round" stroke-width="2"/>
  <path transform="matrix(1.3333 0 0 -1.3333 0 540)" d="m431.92 243.69h13.778c0.577 0 0.923 0 1.154-0.096 0.333-0.122 0.595-0.384 0.716-0.716 0.096-0.231 0.096-0.577 0.096-1.154v-40.197c0-0.577 0-0.923-0.096-1.154-0.121-0.333-0.383-0.595-0.716-0.716-0.231-0.096-0.577-0.096-1.154-0.096h-13.778c-0.577 0-0.923 0-1.153 0.096-0.333 0.121-0.595 0.383-0.716 0.716-0.096 0.231-0.096 0.577-0.096 1.154v40.197c0 0.577 0 0.923 0.096 1.154 0.121 0.332 0.383 0.594 0.716 0.716 0.23 0.096 0.576 0.096 1.153 0.096z" fill="#cdd8fa"/>
  <path transform="matrix(1.3333 0 0 1.3333 573.27 215.08)" d="m1.9658 0h13.778c0.5769 0 0.923 0 1.1537 0.096334 0.3327 0.12107 0.5947 0.38311 0.7158 0.71575 0.0963 0.23075 0.0963 0.57687 0.0963 1.1537v40.197c0 0.5769 0 0.923-0.0963 1.1537-0.1211 0.3327-0.3831 0.5947-0.7158 0.7158-0.2307 0.0963-0.5768 0.0963-1.1537 0.0963h-13.778c-0.57687 0-0.92299 0-1.1537-0.0963-0.33264-0.1211-0.59468-0.3831-0.71575-0.7158-0.096334-0.2307-0.096334-0.5768-0.096334-1.1537v-40.197c0-0.57687 0-0.92299 0.096334-1.1537 0.12107-0.33264 0.38311-0.59468 0.71575-0.71575 0.23075-0.096334 0.57687-0.096334 1.1537-0.096334z" fill="none" stroke="#cdd8fa" stroke-linejoin="round" stroke-width="2"/>
  <path transform="matrix(1.3333 0 0 -1.3333 0 540)" d="m432.79 241.65h5.54c0.232 0 0.371 0 0.464-0.039 0.134-0.048 0.239-0.154 0.288-0.287 0.039-0.093 0.039-0.232 0.039-0.464v-16.164c0-0.232 0-0.371-0.039-0.464-0.049-0.134-0.154-0.239-0.288-0.288-0.093-0.039-0.232-0.039-0.464-0.039h-5.54c-0.232 0-0.371 0-0.464 0.039-0.134 0.049-0.239 0.154-0.288 0.288-0.039 0.093-0.039 0.232-0.039 0.464v16.164c0 0.232 0 0.371 0.039 0.464 0.049 0.133 0.154 0.239 0.288 0.287 0.093 0.039 0.232 0.039 0.464 0.039z" fill="#a0c1f9"/>
  <path transform="matrix(1.3333 0 0 1.3333 575.99 217.8)" d="m0.79047 0h5.5402c0.23197 0 0.37114 0 0.46393 0.038737 0.13376 0.048684 0.23912 0.15405 0.28781 0.28781 0.03874 0.092785 0.03874 0.23196 0.03874 0.46393v16.164c0 0.232 0 0.3712-0.03874 0.4639-0.04869 0.1338-0.15405 0.2392-0.28781 0.2879-0.09279 0.0387-0.23196 0.0387-0.46393 0.0387h-5.5402c-0.23196 0-0.37114 0-0.46393-0.0387-0.13376-0.0487-0.23913-0.1541-0.28781-0.2879-0.038737-0.0927-0.038737-0.2319-0.038737-0.4639v-16.164c0-0.23196 0-0.37114 0.038737-0.46393 0.048684-0.13376 0.15405-0.23913 0.28781-0.28781 0.092785-0.038737 0.23196-0.038737 0.46393-0.038737z" fill="none" stroke="#cdd8fa" stroke-linejoin="round" stroke-width="2"/>
  <path transform="matrix(1.3333 0 0 -1.3333 0 540)" d="m432.79 222.17h12.045c0.232 0 0.371 0 0.464-0.039 0.133-0.049 0.239-0.154 0.287-0.288 0.039-0.093 0.039-0.232 0.039-0.464v-7.55c0-0.232 0-0.371-0.039-0.463-0.048-0.134-0.154-0.24-0.287-0.288-0.093-0.039-0.232-0.039-0.464-0.039h-12.045c-0.232 0-0.371 0-0.464 0.039-0.134 0.048-0.239 0.154-0.288 0.288-0.039 0.092-0.039 0.231-0.039 0.463v7.55c0 0.232 0 0.371 0.039 0.464 0.049 0.134 0.154 0.239 0.288 0.288 0.093 0.039 0.232 0.039 0.464 0.039z" fill="#a0c1f9"/>
  <path transform="matrix(1.3333 0 0 1.3333 575.99 243.78)" d="m0.79047 0h12.045c0.2319 0 0.3711 0 0.4639 0.038737 0.1338 0.048684 0.2391 0.15405 0.2878 0.28781 0.0388 0.092785 0.0388 0.23196 0.0388 0.46393v7.5498c0 0.23197 0 0.37115-0.0388 0.46393-0.0487 0.13376-0.154 0.23913-0.2878 0.28781-0.0928 0.03874-0.232 0.03874-0.4639 0.03874h-12.045c-0.23196 0-0.37114 0-0.46393-0.03874-0.13376-0.04868-0.23913-0.15405-0.28781-0.28781-0.038737-0.09278-0.038737-0.23196-0.038737-0.46393v-7.5498c0-0.23196 0-0.37114 0.038737-0.46393 0.048684-0.13376 0.15405-0.23913 0.28781-0.28781 0.092785-0.038737 0.23196-0.038737 0.46393-0.038737z" fill="none" stroke="#cdd8fa" stroke-linejoin="round" stroke-width="2"/>
  <path transform="matrix(1.3333 0 0 -1.3333 0 540)" d="m389.62 240.85c0.958-0.958 0.958-2.511 0-3.468-0.958-0.958-2.51-0.958-3.468 0-0.957 0.957-0.957 2.51 0 3.468 0.958 0.957 2.51 0.957 3.468 0z" fill="#a7a7a7"/>
  <path transform="matrix(1.3333 0 0 1.3333 513.91 217.91)" d="m4.1862 0.71823c0.95764 0.95764 0.95764 2.5103 0 3.4679s-2.5103 0.95764-3.4679 0-0.95764-2.5103 0-3.4679 2.5103-0.95764 3.4679 0z" fill="none" stroke="#a7a7a7" stroke-linejoin="round" stroke-width="2"/>
  <path transform="matrix(1.3333 0 0 -1.3333 0 540)" d="m386.23 222.83h13.118c0.232 0 0.372 0 0.464-0.038 0.134-0.049 0.239-0.154 0.288-0.288 0.039-0.093 0.039-0.232 0.039-0.464v-7.55c0-0.232 0-0.371-0.039-0.464-0.049-0.134-0.154-0.239-0.288-0.288-0.092-0.038-0.232-0.038-0.464-0.038h-13.118c-0.232 0-0.371 0-0.463 0.038-0.134 0.049-0.24 0.154-0.288 0.288-0.039 0.093-0.039 0.232-0.039 0.464v7.55c0 0.232 0 0.371 0.039 0.464 0.048 0.134 0.154 0.239 0.288 0.288 0.092 0.038 0.231 0.038 0.463 0.038z" fill="#a0c1f9"/>
  <path transform="matrix(1.3333 0 0 1.3333 513.91 242.89)" d="m0.79047 0h13.118c0.2319 0 0.3711 0 0.4639 0.038737 0.1337 0.048684 0.2391 0.15405 0.2878 0.28781 0.0387 0.092785 0.0387 0.23196 0.0387 0.46393v7.5498c0 0.23197 0 0.37115-0.0387 0.46393-0.0487 0.13376-0.1541 0.23913-0.2878 0.28781-0.0928 0.03874-0.232 0.03874-0.4639 0.03874h-13.118c-0.23196 0-0.37114 0-0.46393-0.03874-0.13376-0.04868-0.23913-0.15405-0.28781-0.28781-0.038737-0.09278-0.038737-0.23196-0.038737-0.46393v-7.5498c0-0.23196 0-0.37114 0.038737-0.46393 0.048684-0.13376 0.15405-0.23913 0.28781-0.28781 0.092785-0.038737 0.23196-0.038737 0.46393-0.038737z" fill="none" stroke="#cdd8fa" stroke-linejoin="round" stroke-width="2"/>
  <path transform="matrix(1.3333 0 0 -1.3333 0 540)" d="m399.24 240.73c0.958-0.958 0.958-2.51 0-3.468-0.957-0.958-2.51-0.958-3.468 0-0.957 0.958-0.957 2.51 0 3.468 0.958 0.957 2.511 0.957 3.468 0z" fill="#a7a7a7"/>
  <g fill="none" stroke="#a7a7a7" stroke-linejoin="round">
   <path transform="matrix(1.3333 0 0 1.3333 526.75 218.07)" d="m4.1862 0.71823c0.95764 0.95764 0.95764 2.5103 0 3.4679s-2.5103 0.95764-3.4679 0-0.95764-2.5103 0-3.4679 2.5103-0.95764 3.4679 0z" stroke-width="2"/>
   <g stroke-width="8">
    <path transform="matrix(1.3333 0 0 1.3333 535.74 243.81)" d="m0 0h20.581"/>
    <path transform="matrix(1.3333 0 0 1.3333 535.74 247.05)" d="m0 0h16.682"/>
    <path transform="matrix(1.3333 0 0 1.3333 515.16 232.46)" d="m0 0h34.753"/>
   </g>
  </g>
  <path transform="matrix(1.3333 0 0 -1.3333 0 540)" d="m386.34 211.98h13.118c0.232 0 0.371 0 0.464-0.039 0.133-0.048 0.239-0.154 0.287-0.288 0.039-0.092 0.039-0.232 0.039-0.463v-7.55c0-0.232 0-0.371-0.039-0.464-0.048-0.134-0.154-0.239-0.287-0.288-0.093-0.039-0.232-0.039-0.464-0.039h-13.118c-0.232 0-0.371 0-0.464 0.039-0.134 0.049-0.239 0.154-0.288 0.288-0.039 0.093-0.039 0.232-0.039 0.464v7.55c0 0.231 0 0.371 0.039 0.463 0.049 0.134 0.154 0.24 0.288 0.288 0.093 0.039 0.232 0.039 0.464 0.039z" fill="#a0c1f9"/>
  <path transform="matrix(1.3333 0 0 1.3333 514.07 257.35)" d="m0.79047 0h13.118c0.2319 0 0.3711 0 0.4639 0.038737 0.1337 0.048684 0.2391 0.15405 0.2878 0.28781 0.0387 0.092785 0.0387 0.23196 0.0387 0.46393v7.5498c0 0.23197 0 0.37115-0.0387 0.46393-0.0487 0.13376-0.1541 0.23913-0.2878 0.28781-0.0928 0.03874-0.232 0.03874-0.4639 0.03874h-13.118c-0.23196 0-0.37114 0-0.46393-0.03874-0.13376-0.04868-0.23913-0.15405-0.28781-0.28781-0.038737-0.09278-0.038737-0.23196-0.038737-0.46393v-7.5498c0-0.23196 0-0.37114 0.038737-0.46393 0.048684-0.13376 0.15405-0.23913 0.28781-0.28781 0.092785-0.038737 0.23196-0.038737 0.46393-0.038737z" fill="none" stroke="#cdd8fa" stroke-linejoin="round" stroke-width="2"/>
  <path transform="matrix(1.3333 0 0 1.3333 535.74 263.44)" d="m0 0h16.682" fill="none" stroke="#a7a7a7" stroke-linejoin="round" stroke-width="8"/>
  <path transform="matrix(1.3333 0 0 -1.3333 0 540)" d="m409.37 241.1c0.958-0.957 0.958-2.51 0-3.468-0.957-0.957-2.51-0.957-3.468 0-0.957 0.958-0.957 2.511 0 3.468 0.958 0.958 2.511 0.958 3.468 0z" fill="#a7a7a7"/>
  <path transform="matrix(1.3333 0 0 1.3333 540.25 217.57)" d="m4.1862 0.71823c0.95764 0.95764 0.95764 2.5103 0 3.4679s-2.5103 0.95764-3.4679 0-0.95764-2.5103 0-3.4679 2.5103-0.95764 3.4679 0z" fill="none" stroke="#a7a7a7" stroke-linejoin="round" stroke-width="2"/>
  <path transform="matrix(1.3333 0 0 -1.3333 0 540)" d="m419.06 241.1c0.958-0.957 0.958-2.51 0-3.468-0.957-0.957-2.51-0.957-3.468 0-0.957 0.958-0.957 2.511 0 3.468 0.958 0.958 2.511 0.958 3.468 0z" fill="#a7a7a7"/>
  <path transform="matrix(1.3333 0 0 1.3333 553.17 217.57)" d="m4.1862 0.71823c0.95764 0.95764 0.95764 2.5103 0 3.4679s-2.5103 0.95764-3.4679 0-0.95764-2.5103 0-3.4679 2.5103-0.95764 3.4679 0z" fill="none" stroke="#a7a7a7" stroke-linejoin="round" stroke-width="2"/>
  <g>
   <path d="m510.64 204c-1.6818 0-3.0488 1.2941-3.0488 2.8871l2e-3 38.094c-6e-4 -1.3e-4 -1e-3 1.3e-4 -2e-3 0l2e-3 30.697c0 1.5916 0.71863 3.2892 2.4004 3.2771 31.375-0.31828 55.252-0.3815 89.035-0.38999 1.6818-6.9e-4 3.0488-1.2955 3.0488-2.8871v-68.791c0-1.593-1.3671-2.8852-3.0488-2.8852zm3.3e-4 5.904h88.388v65.774c-24.107 0.012-80.389 0.32814-89.037 0.38999 0.14513-20.177 0.31947-45.989 0.64877-66.164z" fill="#4185f3" stroke-width=".9728"/>
   <g stroke-width=".49299">
    <path d="m512.55 207.98c-0.51844-0.65909-0.52195-1.4536-9e-3 -2.0044 1.0126-1.087 2.7324-0.45846 2.749 1.0047 0.0154 1.355-1.9086 2.0569-2.7402 0.99971z" fill="#f00"/>
    <path d="m517.08 208.02c-0.51844-0.65909-0.52195-1.4536-9e-3 -2.0044 1.0126-1.087 2.7324-0.45846 2.749 1.0047 0.0154 1.355-1.9086 2.0569-2.7402 0.99971z" fill="#ff0"/>
    <path d="m521.74 207.95c-0.51844-0.65909-0.52195-1.4536-9e-3 -2.0044 1.0126-1.087 2.7324-0.45846 2.749 1.0047 0.0154 1.355-1.9086 2.0569-2.7402 0.99971z" fill="#0f0"/>
   </g>
  </g>
 </g>
 <text x="318.22491" y="105.83733" font-size="16px" stroke-width="1.3333" xml:space="preserve"><tspan x="318.22491" y="105.83733" fill="#4185f3" font-family="Arial" font-size="18.667px" stroke-width="1.3333">Payment system</tspan></text>
 <path d="m31.908 1.3333h405.7c8.972 0 14.355 0 17.944 1.4982 5.1733 1.883 9.2493 5.9583 11.132 11.132 1.4973 3.5887 1.4973 8.9717 1.4973 17.943v50.853c0 8.9717 0 14.355-1.4973 17.943-1.8827 5.1733-5.9587 9.2487-11.132 11.132-3.5893 1.4983-8.972 1.4983-17.944 1.4983h-405.7c-8.9717 0-14.355 0-17.943-1.4983-5.1734-1.8829-9.2487-5.9583-11.132-11.132-1.4982-3.5887-1.4982-8.9717-1.4982-17.943v-50.853c0-8.9717 0-14.355 1.4982-17.943 1.883-5.1734 5.9583-9.2487 11.132-11.132 3.5887-1.4982 8.9717-1.4982 17.943-1.4982z" fill="none" stroke="#a7a7a7" stroke-dasharray="5.33333, 5.33333" stroke-width="2.6667"/>
 <g transform="matrix(1.0338 0 0 1.0338 204.06 3.6372)" fill="#707070">
  <path d="m15.994 4.4473c-1.298 0-2.3906 1.0926-2.3906 2.3906v61.113c0 1.298 1.0926 2.3906 2.3906 2.3906h41.73c1.298 0 2.3887-1.0926 2.3887-2.3906v-50.521c0-7.166-5.8144-12.982-12.98-12.982zm0.60938 3h30.529c5.5559 0 9.9805 4.4265 9.9805 9.9824v49.912h-40.51z" color="#000000" stroke-linecap="round" stroke-linejoin="round" style="-inkscape-stroke:none;paint-order:markers fill stroke"/>
  <rect x="23.25" y="14.092" width="27.5" height="2.3" ry="1.1657" style="paint-order:markers fill stroke"/>
  <rect x="23.25" y="25.075" width="27.5" height="2.3" ry="1.1657" style="paint-order:markers fill stroke"/>
  <rect x="23.25" y="35.85" width="27.5" height="2.3" ry="1.1657" style="paint-order:markers fill stroke"/>
  <path d="m42.715 51.273v1.1133h1.252v5.4336h-1.207v1.1133h3.957v-1.1133h-1.209v-5.4336h1.1641v-1.1133h-2.7051z" style="paint-order:markers fill stroke"/>
  <path d="m35.514 58.908v-7.6354h2.474q1.4063 0 1.8333 0.11458 0.65625 0.17188 1.099 0.75 0.44271 0.57292 0.44271 1.4844 0 0.70313-0.25521 1.1823t-0.65104 0.75521q-0.39063 0.27083-0.79688 0.35938-0.55209 0.10938-1.599 0.10938h-1.0052v2.8802zm1.5417-6.3438v2.1667h0.84375q0.91146 0 1.2188-0.11979 0.30729-0.11979 0.47917-0.375 0.17708-0.25521 0.17708-0.59375 0-0.41667-0.24479-0.6875t-0.61979-0.33854q-0.27604-0.05208-1.1094-0.05208z" stroke-linecap="round" stroke-linejoin="round" stroke-width="3" style="paint-order:markers fill stroke" aria-label="P"/>
  <path d="m34.299 58.908h-1.6771l-0.66667-1.7344h-3.0521l-0.63021 1.7344h-1.6354l2.974-7.6354h1.6302zm-2.8386-3.0208-1.0521-2.8333-1.0313 2.8333z" stroke-linecap="round" stroke-linejoin="round" stroke-width="3" style="paint-order:markers fill stroke" aria-label="A"/>
 </g>
 <g stroke-dasharray="2.66667, 2.66667">
  <path d="m196.5 35.248v12.801l12.799-6.4004zm-26.885 5.0664v2.666h3.5547v-2.666zm7.1133 0v2.666h3.5547v-2.666zm7.1094 0v2.666h3.5566v-2.666zm7.1113 0v2.666h3.5547v-2.666z" fill="#a12e9d" filter="url(#filter233)" stroke-width="1.3333"/>
  <path d="m179.02 48.5-12.801 6.4004 12.801 6.4004zm1.9961 5.0664v2.666h3.5547v-2.666zm7.1094 0v2.666h3.5566v-2.666zm7.1113 0v2.666h3.5547v-2.666zm7.1113 0v2.666h3.5547v-2.666z" fill="#4185f3" filter="url(#filter214)" stroke-width="1.3333"/>
  <path d="m204.9 54.9h-28.217" fill="none" stroke="#4185f3" stroke-width="2.6667"/>
 </g>
 <path d="m178.02 48.5-12.8 6.4 12.8 6.4z" fill="#4185f3"/>
 <path d="m169.22 41.648h28.217" fill="none" stroke="#a12e9d" stroke-dasharray="2.66667, 2.66667" stroke-width="2.6667"/>
 <path d="m196.1 48.048 12.8-6.4-12.8-6.4z" fill="#a12e9d"/>
 <g transform="translate(150.82 -195.39)">
  <path d="m155.28 230.63v12.801l12.799-6.4004zm-26.885 5.0664v2.666h3.5547v-2.666zm7.1133 0v2.666h3.5547v-2.666zm7.1094 0v2.666h3.5566v-2.666zm7.1113 0v2.666h3.5547v-2.666z" fill="#a12e9d" filter="url(#filter233)" stroke-dasharray="2.66667, 2.66667" stroke-width="1.3333"/>
  <path d="m137.79 243.89-12.801 6.4004 12.801 6.4004zm1.9961 5.0664v2.666h3.5547v-2.666zm7.1094 0v2.666h3.5566v-2.666zm7.1113 0v2.666h3.5547v-2.666zm7.1113 0v2.666h3.5547v-2.666z" fill="#4185f3" filter="url(#filter214)" stroke-dasharray="2.66667, 2.66667" stroke-width="1.3333"/>
  <path transform="matrix(-1.3333 0 0 -1.3333 163.68 250.29)" d="m0 0h21.163" fill="none" stroke="#4185f3" stroke-dasharray="2, 2" stroke-width="2"/>
  <path transform="matrix(1.3333 0 0 -1.3333 0 540)" d="m102.6 222.08-9.6001-4.8 9.6001-4.8z" fill="#4185f3"/>
  <path transform="matrix(1.3333 0 0 1.3333 127.99 237.03)" d="m0 0h21.163" fill="none" stroke="#a12e9d" stroke-dasharray="2, 2" stroke-width="2"/>
  <path transform="matrix(1.3333 0 0 -1.3333 0 540)" d="m116.16 222.42 9.6 4.8-9.6 4.8z" fill="#a12e9d"/>
 </g>
 <g transform="matrix(1.0801 0 0 1.0801 346.23 4.2943)" fill="#707070">
  <rect x="39.346" y="42.845" width="2.4726" height="2.4726" rx=".40621" ry=".49938" style="paint-order:stroke fill markers"/>
  <g stroke-width=".12363">
   <path d="m39.397 60.384c-0.01311-0.61435-0.0164-1.1708-0.03929-1.7264-0.01629-0.39476 0.15478-0.56122 0.54828-0.55578 2.1341 0.02961 1.7605-0.2716 1.7933 1.6637 0.01992 1.174 0.03864 2.3486 0.02439 3.5225-0.01664 1.3753-0.23475 2.7182-0.94716 3.9205-1.1308 1.9085-2.9854 2.5631-5.0398 2.5954-6.1174 0.09619-12.236 0.09294-18.355 0.01855-2.0279-0.02468-3.7503-0.66094-5.023-2.3064-0.49981-0.64624-0.80157-1.3822-1.0328-2.1592-0.17075-0.5737-0.31231-0.60104-0.7427-0.18224-0.53148 0.51719-1.0634 1.0349-1.5723 1.5739-0.36848 0.39036-0.66871 0.36212-1.0349-0.01364-1.3227-1.3573-1.292-1.0557-0.026768-2.347 1.4848-1.5155 2.9942-3.0069 4.4775-4.5239 2.2518-2.3031 2.4372-4.9697 0.54748-7.5934-0.10833-0.15042-0.22298-0.29682-0.32291-0.45266-0.44573-0.69512-0.41181-1.1048 0.17861-1.7001 1.6538-1.6675 3.317-3.3256 4.9745-4.9894 0.81202-0.81506 0.73086-1.5519-0.23264-2.1615-0.52318-0.33101-0.9519-0.25695-1.5328 0.31378-1.4549 1.4293-2.8947 2.8739-4.3492 4.3036-1.0147 0.99736-0.74956 0.99841-1.7672-0.0045-0.82175-0.8098-0.90014-0.92907 4.975e-4 -1.5859 1.3994-1.0206 1.2795-2.4045 1.2219-3.8253-0.01102-0.27203-0.14372-0.43173-0.41522-0.4332-1.1503-0.0063-2.3061-0.17219-3.4478 0.09649-1.1047 0.25999-1.6968 0.89915-1.8597 2.0325-0.061283 0.42648-0.09715 0.86062-0.09696 1.2913 0.00149 2.9871 0.00149 5.9743 0.035009 8.9611 0.00765 0.68663-0.15762 1.2284-0.68987 1.6924-0.57324 0.49973-1.0977 1.0578-1.6208 1.6117-0.28118 0.29771-0.50623 0.36799-0.80612 0.02617-0.29826-0.33997-0.62532-0.65705-0.95997-0.96198-0.28479-0.25949-0.26685-0.48001 0.018676-0.70927 0.015988-0.01282 0.027365-0.03179 0.044109-0.0431 1.4568-0.98859 1.7154-2.3841 1.6614-4.0642-0.087108-2.7131-0.16833-5.4381 0.072417-8.1519 0.20317-2.2903 1.7916-3.8641 4.0689-4.0913 1.0482-0.10462 2.099-0.07432 3.1493-0.08367 0.76682-0.0068 0.85254-0.08691 0.85314-0.85356 3e-3 -3.9142-3e-3 -7.8284 0.0045-11.743 0.0025-1.256 0.038-2.5094 0.2033-3.7602 0.33499-2.5347 2.2121-4.026 4.3166-4.5097 0.86961-0.1999 1.7511-0.26074 2.6383-0.25958 5.4181 7e-3 10.836 0.01396 16.254 0.03195 1.0922 0.0035 2.192 0.03735 3.2409 0.37926 2.3861 0.77791 3.5788 2.5266 3.866 4.9412 0.23439 1.9708 0.0678 3.9515 0.05635 5.9281-2e-3 0.3556-0.1564 0.54076-0.52204 0.52631-0.02056-1e-3 -0.04118 0.0014-0.06177 0.0014-2.1089-0.02727-1.774 0.29826-1.7908-1.7197-0.01197-1.4403 0.13741-2.8869-0.09364-4.3186-0.37451-2.3205-1.5276-3.2948-3.8633-3.3011-5.9537-0.0161-11.907-0.02752-17.861-0.03994-0.87865-2e-3 -1.728 0.11192-2.4622 0.65474-0.99478 0.73544-1.5047 1.7063-1.503 2.9592 0.0078 5.7065 0.0015 11.413 0.0069 17.12 2.48e-4 0.20811-0.09879 0.49748 0.19636 0.58369 0.22371 0.06534 0.36611-0.12954 0.50411-0.28868 1.1764-1.3566 3.4235-1.6278 4.8882-0.59329 1.5441 1.0906 1.9922 3.1288 1.0487 4.7819-0.30878 0.54098-0.71171 1.0066-1.1535 1.4437-0.98108 0.97076-1.9622 1.9417-2.9279 2.9277-0.84806 0.86575-0.84122 0.87589-0.34352 1.961 0.47659 1.0391 0.79725 2.1217 0.8707 3.2648 0.14656 2.281-0.68147 4.2387-2.2451 5.8177-1.2536 1.266-0.96128 2.6384-0.54965 4.0158 0.39162 1.3104 1.4198 1.9718 2.7798 2.0944 0.49192 0.04437 0.98471 0.11298 1.4771 0.11312 5.6651 8.06e-4 11.33-4e-3 16.995-0.02097 0.49148-8.07e-4 0.992-0.05066 1.4723-0.15288 1.5567-0.33136 2.434-1.3334 2.6793-2.9989 0.19009-1.2903 0.17835-2.587 0.1237-3.9434z"/>
   <path d="m26.361 29.968c-1.0892 1e-3 -1.0857 1e-3 -1.0912 1.1033-0.04247 8.5871-0.05383 17.174-3e-3 25.762 0.0091 1.5295 0.04521 1.2873 1.3162 1.2988 1.07 0.0097 1.07 1e-3 1.0714-1.0439 2e-3 -1.4609-0.01271-1.4155 1.3945-0.96054 4.8447 1.5665 9.2556 0.80019 13.16-2.5424 5.4102-4.6322 5.7223-13.816 0.1567-18.943-4.0551-3.4991-8.5863-4.2856-13.58-2.5788-1.1337 0.38746-1.1293 0.40679-1.1305-0.7751-0.0014-1.3214-0.0014-1.3214-1.2935-1.3201zm7.3753 3.5075c1.7569 0.0446 3.4944 0.59598 5.1956 1.6569 3.54 2.2078 5.228 5.4847 5.0442 9.6832-0.01168 0.26698-0.05455 0.5324-0.09127 0.85213-0.99236 5.426-5.5557 9.1573-10.92 8.9605-1.6804-0.06166-3.2331-0.56734-4.6832-1.4167-0.42096-0.24655-0.61216-0.57151-0.61163-1.0528 0.0015-1.071-0.0304-2.1422-0.02682-3.2132 0.0144-4.305 0.04287-8.61 0.04998-12.915 1e-3 -0.57035 0.24908-0.90985 0.73115-1.1716 1.7792-0.96595 3.5555-1.4282 5.3124-1.3836z"/>
   <path d="m34.937 49.778c-0.15754 0.15868-0.21917 0.32157-0.20194 0.48434 0.07525 0.71104-0.2905 0.91326-0.92386 0.84231-0.16266-0.01823-0.3291-0.0025-0.4938-0.0025-0.93319-0.0015-0.94176 5.4e-5 -1.1175-0.91341-0.08458-0.43959-0.4151-0.64362-0.74352-0.8551-0.82385-0.5305-1.3329-1.2599-1.4841-2.2405-0.05852-0.37954 0.05256-0.59528 0.43784-0.66296 0.84752-0.14888 1.6313-0.16273 2.2011 0.67095 0.3185 0.466 1.0829 0.53706 1.557 0.22718 0.62467-0.40828 0.61513-1.163-0.05715-1.55-0.81997-0.47203-1.6931-0.85398-2.5005-1.3452-1.6288-0.99091-2.1313-2.9353-1.2248-4.5657 0.29851-0.53691 0.76175-0.91524 1.2592-1.2491 0.38453-0.25805 0.65084-0.55935 0.60943-1.0581-0.03254-0.39213 0.16998-0.5657 0.5545-0.55812 0.28808 0.0057 0.57642-0.0025 0.86464-2e-3 0.89765 0.0015 0.90636 3.23e-4 1.0647 0.90423 0.07771 0.44364 0.40892 0.64215 0.73878 0.85481 0.8223 0.53014 1.3234 1.2694 1.4911 2.2405 0.07097 0.41114-0.06909 0.61653-0.48176 0.68794-0.88744 0.15358-1.67 0.09645-2.2201-0.77133-0.27215-0.42935-0.7525-0.3758-1.1805-0.25267-0.39917 0.11484-0.69299 0.36772-0.74491 0.81307-0.05403 0.46357 0.2276 0.72548 0.59264 0.91954 0.76322 0.40574 1.5451 0.77856 2.293 1.2104 1.4195 0.81972 2.0245 2.236 1.6791 3.835-0.16569 0.76694-0.65816 1.3116-1.2371 1.7916-0.2214 0.18358-0.4634 0.3423-0.73132 0.54497z"/>
  </g>
  <g transform="matrix(.12363 0 0 .12363 -.85401 1.8284)">
   <path d="m235.97 19.326c-1.9994 6e-5 -4.007-0.0602-5.998 0.08008-6.0218 0.42427-9.034 3.1192-9.0664 9.0762-0.13813 25.496-0.11553 50.992-2e-3 76.488 0.0203 4.5557 2.1402 8.1241 7.0527 8.9805 2.2735 0.39634 4.6487 0.26536 6.9785 0.26563 95.822 0.0109 191.64-0.0149 287.47 0.041 13.202 8e-3 11.234-1.8845 11.385 11.322 0.0822 7.1787 3.6e-4 7.189-7.0117 7.1894-51.327 4e-3 -102.65 3e-3 -153.98 4e-3 -1.6664 0-3.3366 0.0728-5 4e-3 -4.4386-0.18393-5.7035 2.6364-5.0078 6.1445 0.90598 4.5687-3.5848 11.275 4.6543 13.143 1.9064 0.43217 3.985 0.12486 5.9844 0.125 60.659 4e-3 121.32-3.8e-4 181.98 0.0117 6.8016 1e-3 7.0115 0.2246 7.0215 7.0215 0.0193 13.832 0.0119 27.664 4e-3 41.496-5e-3 8.1159-0.0163 8.1265-8.3828 8.127-59.66 4e-3 -119.32-0.0108-178.98 0.0137-13.689 6e-3 -12.049-1.2419-12.123 11.945-0.0422 7.4961 0.0489 7.5537 7.4941 7.5547 50.994 9e-3 101.99-9e-3 152.98 0.0156 11.294 6e-3 10.355-1.1288 10.377 10.598 0.014 7.6239-0.19152 7.8154-7.8711 7.8164-44.495 7e-3 -88.99 3e-3 -133.48 4e-3 -10.533 1.9e-4 -10.532 7.2e-4 -10.52 10.625 0.0101 8.5987 0.0106 8.6106 8.4453 8.6113 54.993 4e-3 109.99-2e-3 164.98 0.01 6.8537 1e-3 7.0638 0.21664 7.0742 6.9766 0.0219 14.332 0.0182 28.664 4e-3 42.996-7e-3 6.8893-0.028 6.915-6.9453 6.916-47.661 8e-3 -95.322-0.0336-142.98 0.0293-13.158 0.0174-11.47-1.7532-11.568 11.795-0.05 6.8506 0.0466 6.9082 7.0254 6.9102 37.829 0.0131 75.659-0.0181 113.49 0.0215 13.807 0.0145 12.283-1.3888 12.346 12.264 0.0315 6.875-0.064 6.9355-7.0293 6.9375-37.995 0.01-75.991 5e-3 -113.99 6e-3 -11.899 1.2e-4 -11.898-1.8e-4 -11.861 11.869 0.0228 7.3386 0.0226 7.3527 7.5391 7.3535 49.161 5e-3 98.322 0.0657 147.48-0.0898 5.0475-0.016 6.6829 1.5665 6.5879 6.5879-0.26773 14.16-0.0803 28.327-0.0977 42.492-9e-3 7.0815-0.0339 7.1009-7.3242 7.1016-59.326 5e-3 -118.65-0.0821-177.98 0.0566-16.482 0.0385-13.896-3.1593-14.227 14.697-0.07 3.7842 1.5753 4.9327 5.1055 4.875 8.1634-0.1336 16.33-0.0362 24.996-0.0332 21.83 2e-3 43.16 0.0742 64.488-0.0547 4.317-0.0261 7.6129 1.3038 10.635 4.3945 9.6689 9.8894 19.582 19.542 29.281 29.402 2.6461 2.6898 5.5641 3.8985 9.3223 3.8633 11.998-0.1122 23.998 0.012 35.996-0.0586 7.5021-0.0441 10.229-2.7894 10.316-10.297 0.0857-7.3315 0.15057-14.667-0.0117-21.996-0.0909-4.1023 1.6576-5.7813 5.6602-5.6387 3.495 0.12459 6.9985 0.0268 10.498 0.0137 10.088-0.038 12.596-2.5526 12.607-12.816 0.0239-22.164 0.0109-44.328 6e-3 -66.492-3e-3 -14.245-1.0013-15.223-15.449-15.23-14.168-6e-3 -14.092-3e-3 -13.32-14.035 0.19709-3.5834 1.7538-5.1583 5.2207-5.1543 4.3326 5e-3 8.6681 0.0736 12.996-0.0781 6.759-0.23691 10.375-3.4092 10.426-10.18 0.19097-25.328 0.15685-50.659 0.0273-75.988-0.0296-5.7876-2.9639-8.4225-8.8144-8.6055-5.1614-0.16139-10.331-0.11285-15.496-0.0606-2.8273 0.0286-4.4137-0.96756-4.3242-4.0566 0.101-3.4966 0.0888-7.0005 8e-3 -10.498-0.071-3.0667 1.5745-4.1252 4.3535-4.1192 3.9993 9e-3 7.9987-0.0153 11.998-0.0332 9.8673-0.0441 12.353-2.5175 12.365-12.516 0.028-22.331 0.012-44.662 0.0117-66.992-1.8e-4 -14.82-0.99249-15.679-15.93-15.838-14.663-0.15626-12.678 2.8274-12.795-14.125-0.0214-3.1052 1.3803-4.6285 4.5156-4.6055 3.9991 0.0293 7.9986-5e-3 11.998-0.0176 9.5998-0.0296 12.175-2.5201 12.195-12.057 0.041-18.831 0.0177-37.661 0.0137-56.492-1e-3 -5.4992 0.15643-11.008-0.0918-16.496-0.28217-6.2364-3.2528-9.1366-9.2773-9.5469-1.8256-0.12432-3.6633-0.07027-5.4961-0.07031-110.32-0.0026-220.64-0.0029-330.96 0zm320.51 18.764c4.597-0.0048 6.0814 1.4234 6.0098 6.0098-0.23169 14.827-0.27863 29.664 0.0195 44.488 0.10223 5.0846-1.5176 6.4974-6.5488 6.4844-60.487-0.15677-120.97-0.10008-181.96-0.09961-42.658-3.28e-4 -84.816 0.0025-126.97-0.0059-6.658-0.0013-6.6872-0.02518-6.6953-6.6504-0.0181-14.83 0.12556-29.663-0.084-44.49-0.0623-4.4066 1.4796-5.7284 5.7969-5.7246 103.48 0.09037 206.96 0.09539 310.44-0.01172zm-29.994 417.29c0.80808-2e-3 1.5568 8e-3 2.3027 0.0527 3.0825-0.181 4.7257 2.0012 5.3945 4.8301 0.51715 2.9725 0.31663 6.4297 0.37695 10.854 0.087 6.3818-1.0175 4.4923-8.4043 4.8203-18.082-0.0354-23.059-3.8839-30.01-15.807-2.099-3.6005-1.0429-4.7572 2.752-4.7383 8.1498 0.0407 16.301 2e-3 24.926-2e-3 0.98575 3e-3 1.854-8e-3 2.6621-0.01z"/>
   <rect x="524.46" y="56.931" width="20" height="20" rx="3.2857" ry="4.0393" style="paint-order:stroke fill markers"/>
   <rect x="486.58" y="56.931" width="20" height="20" rx="3.2857" ry="4.0393" style="paint-order:stroke fill markers"/>
   <rect x="419.57" y="56.931" width="49" height="20" rx="3.2857" ry="4.0393" style="paint-order:stroke fill markers"/>
   <g transform="translate(0,114.01)">
    <rect x="524.46" y="56.931" width="20" height="20" rx="3.2857" ry="4.0393" style="paint-order:stroke fill markers"/>
    <rect x="486.58" y="56.931" width="20" height="20" rx="3.2857" ry="4.0393" style="paint-order:stroke fill markers"/>
    <rect x="419.57" y="56.931" width="49" height="20" rx="3.2857" ry="4.0393" style="paint-order:stroke fill markers"/>
   </g>
   <g transform="translate(0,227.66)">
    <rect x="524.46" y="56.931" width="20" height="20" rx="3.2857" ry="4.0393" style="paint-order:stroke fill markers"/>
    <rect x="486.58" y="56.931" width="20" height="20" rx="3.2857" ry="4.0393" style="paint-order:stroke fill markers"/>
    <rect x="419.57" y="56.931" width="49" height="20" rx="3.2857" ry="4.0393" style="paint-order:stroke fill markers"/>
   </g>
   <g transform="translate(0,341.52)">
    <rect x="524.46" y="56.931" width="20" height="20" rx="3.2857" ry="4.0393" style="paint-order:stroke fill markers"/>
    <rect x="486.58" y="56.931" width="20" height="20" rx="3.2857" ry="4.0393" style="paint-order:stroke fill markers"/>
    <rect x="419.57" y="56.931" width="49" height="20" rx="3.2857" ry="4.0393" style="paint-order:stroke fill markers"/>
   </g>
  </g>
  <rect x="25.231" y="62.68" width="2.4726" height="2.4726" rx=".40621" ry=".49938" style="paint-order:stroke fill markers"/>
  <rect x="22.886" y="22.953" width="2.4726" height="2.4726" rx=".40621" ry=".49938" style="paint-order:stroke fill markers"/>
  <rect x="27.583" y="22.953" width="2.4726" height="2.4726" rx=".40621" ry=".49938" style="paint-order:stroke fill markers"/>
 </g>
</svg>
