<?xml version="1.0" encoding="UTF-8"?>
<!-- Created with Inkscape (http://www.inkscape.org/) -->
<svg width="576.94" height="115.19" version="1.1" viewBox="0 0 576.94 115.19" xmlns="http://www.w3.org/2000/svg">
 <defs>
  <filter id="filter214" x="-.12096" y="-.37498" width="1.2671" height="1.9062" color-interpolation-filters="sRGB">
   <feFlood flood-color="rgb(0,0,0)" flood-opacity=".50196" in="SourceGraphic" result="flood"/>
   <feGaussianBlur in="SourceGraphic" result="blur" stdDeviation="2.000000"/>
   <feOffset dx="1.000000" dy="2.000000" in="blur" result="offset"/>
   <feComposite in="flood" in2="offset" operator="in" result="comp1"/>
   <feComposite in="comp1" in2="comp1" operator="atop" result="comp2"/>
  </filter>
  <filter id="filter233" x="-.17136" y="-.53122" width="1.2923" height="1.9062" color-interpolation-filters="sRGB">
   <feFlood flood-color="rgb(0,0,0)" flood-opacity=".50196" in="SourceGraphic" result="flood"/>
   <feGaussianBlur in="SourceGraphic" result="blur" stdDeviation="2.000000"/>
   <feOffset dx="-2.000000" dy="-2.000000" in="blur" result="offset"/>
   <feComposite in="flood" in2="offset" operator="in" result="comp1"/>
   <feComposite in="comp1" in2="comp1" operator="atop" result="comp2"/>
  </filter>
 </defs>
 <text transform="matrix(1.3333 0 0 1.3333 13.183 99.937)" xml:space="preserve"><tspan x="0" y="0" fill="#a12e9d" font-family="Arial" font-size="14px">Company servers</tspan></text>
 <text transform="matrix(1.3333 0 0 1.3333 426.13 99.855)" xml:space="preserve"><tspan x="0" y="0" fill="#4185f3" font-family="Arial" font-size="14px">Data engineer</tspan></text>
 <g transform="matrix(1.0498 0 0 1.0498 441.95 8.9526)">
  <g stroke-width=".12573">
   <path d="m39.539 60.924c-1.299-5.05e-4 -2.5351-0.0098-3.7711 2e-3 -0.53559 0.0059-0.84309-0.18989-0.82577-0.7631 0.01674-0.55377 0.37412-0.70469 0.84411-0.7056 2.0113-0.0039 4.0225-7.59e-4 6.0338-0.0039 0.79732-0.0013 0.84737-0.05292 0.84752-0.86312 0.0011-6.2852-0.0053-12.57 0.01047-18.856 0.0014-0.56938-0.17615-0.84766-0.73286-1.0482-0.86031-0.30989-1.7138-0.6858-2.4932-1.1601-0.78145-0.47549-1.5607-0.62952-2.4516-0.52662-2.3515 0.27158-4.7068 0.5115-7.062 0.74889-0.31654 0.0319-0.7442 0.2227-0.80825-0.37372-0.07419-0.69072 0.15534-1.1311 0.7093-1.1897 0.43546-0.04607 0.8787-0.01595 1.3184-0.02576 0.45431-0.01013 0.60844-0.22546 0.29541-0.58115-1.1513-1.3082-1.3382-2.8794-1.3214-4.5279 0.05253-5.1532-5.84e-4 -10.309 0.15705-15.459 0.15973-5.2201 3.6196-9.9615 8.5883-11.515 4.885-1.5277 9.5706-0.97709 13.5 2.6356 2.6624 2.4477 4.2457 5.4925 4.272 9.1916 0.03441 4.8393 0.01829 9.679 0.02325 14.519 8.74e-4 0.81653 0.01989 1.6338-0.0079 2.4494-0.03117 0.91106-0.39061 1.6989-0.98094 2.3931-0.16493 0.19395-0.26466 0.44335-0.39429 0.66732 0.24849 0.08821 0.49049 0.21703 0.74653 0.2579 1.4658 0.23401 2.8555 0.66779 4.0842 1.5248 1.7811 1.2423 2.8891 2.9323 3.0598 5.1047 0.17862 2.2735 0.26872 4.5577 0.2951 6.8384 0.04021 3.4771-0.0074 6.9553-0.01829 10.433-0.0025 0.82728-0.0053 0.83243-0.8506 0.83253-7.6679 8.76e-4 -15.336 5.06e-4 -23.067 5.06e-4m4.6178-1.7525c0.19938 0.09436 0.39676 0.26499 0.59849 0.27032 1.0462 0.02763 2.0935 0.01362 3.1404 0.01362 4.4179-3.9e-5 8.8359-0.0018 13.254 2e-3 0.45212 3.69e-4 0.83108-0.0078 0.82773-0.63706-0.02607-4.8992 0.02739-9.7998-0.07268-14.697-0.06565-3.2127-1.707-5.3703-4.8361-6.0558-2.6843-0.58803-5.4631-0.75328-8.2055-1.0579-0.35717-0.03967-0.81972 0.11065-1.1063 0.33525-0.87882 0.68886-1.8603 1.1302-2.9259 1.3901-0.51301 0.12514-0.69725 0.35473-0.69553 0.90204 0.02029 6.4698 0.0142 12.94 0.02152 19.535m8.2954-23.609c1.8216-0.48098 2.6983-1.6178 2.7044-3.5699 0.01105-3.5833 0.01848-7.1667-0.0025-10.75-0.01128-1.9266-0.0043-3.8586-0.14421-5.7781-0.50109-6.8693-6.7673-11.67-13.559-10.535-5.4173 0.90472-9.9098 5.9165-9.7914 11.76 0.09634 4.7548 0.01556 9.5132 0.02463 14.27 0.0012 0.60604 0.04047 1.2157 0.11446 1.8172 0.18366 1.4933 0.97289 2.5135 2.4624 2.6941 1.2642 0.15329 2.5741-0.05537 3.8619-0.13537 0.12473-0.0078 0.3323-0.23412 0.33751-0.36551 0.03885-0.97956 0.19298-1.8952-0.88556-2.6353-2.454-1.684-3.6795-4.1496-3.7469-7.1134-0.06907-3.0365-0.01518-6.0758-0.01459-9.1139 2.8e-5 -0.12555-0.0074-0.2534 0.01265-0.37625 0.0743-0.45468 0.37636-0.62538 0.80662-0.6168 0.42731 0.0085 0.58151 0.27502 0.59619 0.65733 0.01284 0.33498 0.01536 0.67035 0.02271 1.0056 0.01868 0.8637 0.08397 0.89578 0.96517 0.80195 1.6005-0.17043 3.0198-0.82246 4.4036-1.5852 1.3448-0.74128 2.7257-1.3865 4.2742-1.5786 2.6206-0.32506 5.1792 0.01996 7.7119 0.69016 0.38569 0.10206 0.40755 0.34997 0.40788 0.66049 0.0033 3.1008 0.05771 6.2026-0.01013 9.3017-0.02251 1.0289-0.25746 2.0821-0.56893 3.0695-0.60749 1.9258-1.9666 3.3289-3.4875 4.5896-0.52203 0.43272-0.82643 1.7521-0.5479 2.346 0.05195 0.11078 0.20751 0.23401 0.32438 0.24392 1.2057 0.10228 2.4133 0.18246 3.7285 0.24557m-3.1654-4.9875c1.172-1.213 2.0188-2.6414 2.1005-4.3237 0.15228-3.1344 0.14839-6.2765 0.18674-9.4157 0.0018-0.14679-0.19261-0.39395-0.33686-0.43017-3.1465-0.79002-6.2356-1.1599-9.2535 0.61802-1.8742 1.1042-3.8754 2.0048-6.1441 2.0234-0.17549 0.0014-0.4925 0.30114-0.50079 0.47387-0.10846 2.2587-0.28552 4.5236 0.14483 6.77 0.48953 2.5554 1.7604 4.5898 4.1604 5.7184 3.4645 1.6292 6.6761 1.1198 9.6427-1.4341m-9.2505 5.0452c0.18781 0.74349 0.74148 1.1676 1.3897 1.4288 1.4181 0.57126 2.8553 0.5979 4.2457-0.10399 0.86861-0.43848 1.3523-1.126 1.3146-2.1586-0.01713-0.46931-0.16199-0.60937-0.62019-0.60198-1.7537 0.02831-3.5079 0.02385-5.262 0.0319-1.2501 0.0056-1.2501 0.0059-1.0679 1.4039z" fill="#2e68eb"/>
   <path d="m9.1949 48.048c0.014591-1.885 0.04253-3.7072 0.038562-5.5293-0.00214-0.98124 0.41313-1.7529 1.2608-2.1541 1.07-0.5063 2.1815-1.0008 3.3294-1.253 4.2358-0.93046 8.517-0.9623 12.81-0.40986 1.6887 0.2173 3.3664 0.48912 4.9114 1.2405 0.53606 0.2607 1.082 0.60168 1.4655 1.0432 0.30054 0.34599 0.49947 0.90283 0.50154 1.3671 0.03082 6.9118 0.01751 13.824 0.02455 20.736 0.0014 1.3621-0.83274 2.0718-1.9357 2.5923-1.7114 0.80767-3.5567 1.1031-5.4051 1.3292-3.9334 0.48116-7.8672 0.40427-11.757-0.3597-1.2967-0.25468-2.56-0.75681-3.786-1.271-1.0188-0.42725-1.4408-1.3211-1.4398-2.4382 0.00448-4.9433-0.010703-9.8867-0.018677-14.893m4.0805-2.8339c-0.61319-0.21088-1.2352-0.39977-1.8368-0.6396-0.48204-0.19216-0.64888-0.05368-0.6444 0.44481 0.01206 1.3395 0.0066 2.6792 0.0037 4.0187-0.0012 0.51943 0.2087 0.87933 0.72162 1.0472 0.49677 0.16259 0.98284 0.35875 1.4819 0.51334 3.6589 1.1333 7.4158 1.2349 11.194 0.999 2.3684-0.14788 4.6937-0.56186 6.9233-1.4205 0.51296-0.19755 0.86868-0.49082 0.87148-1.0886 0.0064-1.3605 0.01265-2.7211 0.03082-4.0814 0.0066-0.4911-0.20946-0.58008-0.63034-0.41863-0.44898 0.17222-0.89696 0.35792-1.3607 0.47928-5.5364 1.4489-11.091 1.3883-16.754 0.14637m-2.4428 8.4294c3.88e-4 0.81701 0.01187 1.6342-0.0025 2.451-0.0099 0.55914 0.24255 0.91473 0.75776 1.0963 0.51335 0.18094 1.0225 0.3777 1.5447 0.52891 3.6307 1.0513 7.3434 1.2002 11.084 0.95358 2.3718-0.15642 4.6897-0.59863 6.9232-1.4422 0.58197-0.21981 0.88422-0.59371 0.88121-1.2223-0.0062-1.2988-0.0107-2.5978 0.0029-3.8965 0.0053-0.50093-0.16825-0.63597-0.64757-0.45835-0.74552 0.27626-1.4881 0.60213-2.2619 0.75367-5.942 1.1636-11.851 1.3259-17.66-0.74029-0.43818-0.15586-0.63592-0.0844-0.62432 0.40533 0.01148 0.48155 0.0021 0.9636 2e-3 1.5709m0.0012 9.5104c-0.03278 0.62609 0.31855 0.93713 0.86779 1.1443 3.0617 1.1549 6.2477 1.4932 9.4914 1.5155 3.3947 0.02335 6.7223-0.3282 9.929-1.53 0.65099-0.244 0.92177-0.62508 0.90583-1.3104-0.02872-1.2344-0.0043-2.47-0.0093-3.7051-0.0029-0.69726-0.08206-0.76181-0.72142-0.51616-2.27 0.87211-4.6282 1.3129-7.0484 1.4035-4.3619 0.16323-8.7171 0.22032-12.873-1.453-0.4675-0.18833-0.5459 0.0537-0.54431 0.44085 0.0053 1.2979 0.0019 2.5958 0.0025 4.0105m2.0894-22.316c-0.47893 0.20766-0.98722 0.3666-1.4303 0.63371-0.78096 0.47078-0.79754 1.1218 0.0091 1.5271 0.77685 0.39039 1.6151 0.72254 2.464 0.89512 4.7961 0.97498 9.614 0.96453 14.423 0.10335 0.93682-0.16775 1.8542-0.51465 2.7353-0.88629 0.32709-0.13798 0.70163-0.57094 0.72563-0.89382 0.01998-0.2687-0.38615-0.69659-0.70055-0.83744-0.77734-0.34824-1.5933-0.64961-2.424-0.83242-3.0897-0.67995-6.2341-0.8337-9.3742-0.60972-2.1207 0.15127-4.2222 0.57031-6.4283 0.90037z" fill="#2e68eb"/>
   <path d="m25.806 10.589c0.61484 0.5298 1.1995 1.0267 1.7935 1.5122 0.16067 0.13133 0.44786 0.19209 0.50504 0.3482 0.11798 0.32213 0.1202 0.68665 0.17004 1.0337-0.27871 0.03012-0.59093 0.15734-0.83068 0.07459-1.5413-0.532-2.6788-1.5324-3.2841-3.0685-0.19985-0.50716-0.50766-0.69097-1.0489-0.66773-0.91992 0.039495-1.843 0.023308-2.7643 0.00603-0.40689-0.00758-0.66922 0.14057-0.84418 0.51027-1.2175 2.5727-3.2872 3.689-6.0877 3.5147-0.41657-0.02594-0.64895 0.11638-0.84223 0.48018-0.41244 0.77628-0.90036 1.5136-1.29 2.3002-0.12749 0.25739-0.13804 0.64963-0.04257 0.92487 0.21172 0.61036 0.55198 1.1748 0.79049 1.7774 0.57209 1.4455 0.55068 2.9287-0.22625 4.2489-0.75717 1.2866-0.66629 2.3173 0.15882 3.5379 0.62531 0.92506 1.0515 1.5727 2.4092 1.5203 2.2154-0.08543 3.9114 1.1056 4.9349 3.0941 0.34554 0.67133 0.7487 0.9613 1.5084 0.89444 0.76903-0.06769 1.5499-0.04134 2.3232-0.0056 0.51324 0.02364 0.81579-0.15024 1.0068-0.63592 0.60363-1.5352 1.7315-2.5343 3.267-3.0952 0.31422-0.11479 0.73498-0.32485 0.86252 0.09839 0.09273 0.30772-0.03739 0.78056-0.23965 1.052-0.20748 0.27842-0.63185 0.38868-0.94667 0.59487-0.94506 0.61899-1.613 1.4624-1.9288 2.5499-0.17969 0.61887-0.52263 0.87587-1.1812 0.86094-1.5492-0.03514-3.0999-0.02473-4.6496-0.0035-0.50037 0.0068-0.75169-0.18333-0.90626-0.66034-0.83795-2.5862-2.619-3.686-5.2773-3.2394-0.67583 0.11354-1.0871-0.03998-1.4218-0.67105-0.66679-1.2573-1.4029-2.4785-2.1333-3.7009-0.3102-0.5192-0.28459-0.94576 0.099652-1.4296 1.6599-2.0901 1.6795-4.0547 0.044592-6.1712-0.4244-0.54942-0.45458-1.0079-0.092668-1.5918 0.6948-1.121 1.3382-2.2738 2.0011-3.4144 0.57181-0.98375 0.61204-1.0227 1.7467-0.79936 1.2058 0.23737 2.2921-0.06652 3.2932-0.69674 0.90878-0.57211 1.4572-1.4371 1.6918-2.4776 0.12817-0.56849 0.41336-0.79273 1.0049-0.78098 1.5494 0.03076 3.1 0.027335 4.6496 0.00155 0.5625-0.00933 0.88971 0.16998 1.075 0.72627 0.16347 0.49083 0.44534 0.94222 0.7016 1.4482z" fill="#2e67ea"/>
   <path d="m16.63 18.099c1.4209-2.1255 3.3812-3.1259 5.8694-2.8202 2.459 0.30212 4.178 1.6977 4.9616 4.0591 0.77457 2.3339 0.23334 4.4458-1.4983 6.1846-2.0956 2.1042-5.4939 2.2925-7.8219 0.50146-2.4534-1.8875-3.0794-5.1056-1.5109-7.9249m5.5513-1.4321c-1.8291-0.11255-3.2822 0.57118-4.2803 2.1102-1.0891 1.6794-0.91241 3.9095 0.37351 5.3853 1.3719 1.5744 3.5049 2.055 5.3677 1.2096 1.8575-0.84302 2.9374-2.8221 2.6372-4.8332-0.30589-2.0493-1.8498-3.5411-4.0982-3.8719z" fill="#2e68eb"/>
  </g>
  <g transform="matrix(.12573 0 0 .12573 1.065 -.23229)">
   <path d="m92.466 444.59c-3.5657-0.92401-4.7811-3.5245-4.1685-6.8204 0.63924-3.4396 3.16-5.2732 6.5527-4.5995 6.3318 1.2571 12.603 2.8584 18.842 4.5305 3.2695 0.87625 4.3749 3.9476 3.3891 7.085-0.79803 2.5397-3.7349 4.2903-5.9468 3.9558-4.906-0.74183-10.853-2.1262-18.668-4.1514z" fill="#2d66e7"/>
   <path d="m129.54 452.46c-4.233-0.87412-5.6777-3.3968-5.0552-7.0411 0.67254-3.9372 3.6511-4.8568 7.0993-4.696 6.3155 0.29458 12.629 0.65222 18.937 1.0749 3.8339 0.25689 6.3697 2.0619 6.1898 6.254-0.1841 4.2896-3.0617 5.6646-6.8165 5.5202-6.6495-0.25568-13.292-0.69852-20.355-1.112z" fill="#2e67e8"/>
  </g>
  <g transform="matrix(.12573 0 0 .12573 1.1957 6.746)">
   <path d="m92.466 444.59c-3.5657-0.92401-4.7811-3.5245-4.1685-6.8204 0.63924-3.4396 3.16-5.2732 6.5527-4.5995 6.3318 1.2571 12.603 2.8584 18.842 4.5305 3.2695 0.87625 4.3749 3.9476 3.3891 7.085-0.79803 2.5397-3.7349 4.2903-5.9468 3.9558-4.906-0.74183-10.853-2.1262-18.668-4.1514z" fill="#2d66e7"/>
   <path d="m129.54 452.46c-4.233-0.87412-5.6777-3.3968-5.0552-7.0411 0.67254-3.9372 3.6511-4.8568 7.0993-4.696 6.3155 0.29458 12.629 0.65222 18.937 1.0749 3.8339 0.25689 6.3697 2.0619 6.1898 6.254-0.1841 4.2896-3.0617 5.6646-6.8165 5.5202-6.6495-0.25568-13.292-0.69852-20.355-1.112z" fill="#2e67e8"/>
  </g>
  <g transform="matrix(.12573 0 0 .12573 1.0773 -7.2949)">
   <path d="m92.466 444.59c-3.5657-0.92401-4.7811-3.5245-4.1685-6.8204 0.63924-3.4396 3.16-5.2732 6.5527-4.5995 6.3318 1.2571 12.603 2.8584 18.842 4.5305 3.2695 0.87625 4.3749 3.9476 3.3891 7.085-0.79803 2.5397-3.7349 4.2903-5.9468 3.9558-4.906-0.74183-10.853-2.1262-18.668-4.1514z" fill="#2d66e7"/>
   <path d="m129.54 452.46c-4.233-0.87412-5.6777-3.3968-5.0552-7.0411 0.67254-3.9372 3.6511-4.8568 7.0993-4.696 6.3155 0.29458 12.629 0.65222 18.937 1.0749 3.8339 0.25689 6.3697 2.0619 6.1898 6.254-0.1841 4.2896-3.0617 5.6646-6.8165 5.5202-6.6495-0.25568-13.292-0.69852-20.355-1.112z" fill="#2e67e8"/>
  </g>
 </g>
 <path transform="matrix(1.3333 0 0 1.3333 1.3333 1.3333)" d="m22.93 0h384.84c6.728 0 10.766 0 13.457 1.1237 3.88 1.4122 6.937 4.4687 8.349 8.3487 1.124 2.6915 1.124 6.7288 1.124 13.458v38.536c0 6.7288 0 10.766-1.124 13.458-1.412 3.8801-4.469 6.9365-8.349 8.3487-2.691 1.1237-6.729 1.1237-13.457 1.1237h-384.84c-6.7288 0-10.766 0-13.458-1.1237-3.88-1.4122-6.9365-4.4686-8.3487-8.3487-1.1237-2.6915-1.1237-6.7288-1.1237-13.458v-38.536c0-6.7288 0-10.766 1.1237-13.458 1.4122-3.88 4.4687-6.9365 8.3487-8.3487 2.6915-1.1237 6.7288-1.1237 13.458-1.1237z" fill="none" stroke="#a7a7a7" stroke-dasharray="4, 4" stroke-width="2"/>
 <g transform="matrix(1.0338 0 0 1.0338 249.22 15.693)" fill="#707070">
  <path d="m15.994 4.4473c-1.298 0-2.3906 1.0926-2.3906 2.3906v61.113c0 1.298 1.0926 2.3906 2.3906 2.3906h41.73c1.298 0 2.3887-1.0926 2.3887-2.3906v-50.521c0-7.166-5.8144-12.982-12.98-12.982zm0.60938 3h30.529c5.5559 0 9.9805 4.4265 9.9805 9.9824v49.912h-40.51z" color="#000000" stroke-linecap="round" stroke-linejoin="round" style="-inkscape-stroke:none;paint-order:markers fill stroke"/>
  <rect x="23.25" y="14.092" width="27.5" height="2.3" ry="1.1657" style="paint-order:markers fill stroke"/>
  <rect x="23.25" y="25.075" width="27.5" height="2.3" ry="1.1657" style="paint-order:markers fill stroke"/>
  <rect x="23.25" y="35.85" width="27.5" height="2.3" ry="1.1657" style="paint-order:markers fill stroke"/>
  <path d="m42.715 51.273v1.1133h1.252v5.4336h-1.207v1.1133h3.957v-1.1133h-1.209v-5.4336h1.1641v-1.1133h-2.7051z" style="paint-order:markers fill stroke"/>
  <path d="m35.514 58.908v-7.6354h2.474q1.4063 0 1.8333 0.11458 0.65625 0.17188 1.099 0.75 0.44271 0.57292 0.44271 1.4844 0 0.70313-0.25521 1.1823t-0.65104 0.75521q-0.39063 0.27083-0.79688 0.35938-0.55209 0.10938-1.599 0.10938h-1.0052v2.8802zm1.5417-6.3438v2.1667h0.84375q0.91146 0 1.2188-0.11979 0.30729-0.11979 0.47917-0.375 0.17708-0.25521 0.17708-0.59375 0-0.41667-0.24479-0.6875t-0.61979-0.33854q-0.27604-0.05208-1.1094-0.05208z" stroke-linecap="round" stroke-linejoin="round" stroke-width="3" style="paint-order:markers fill stroke" aria-label="P"/>
  <path d="m34.299 58.908h-1.6771l-0.66667-1.7344h-3.0521l-0.63021 1.7344h-1.6354l2.974-7.6354h1.6302zm-2.8386-3.0208-1.0521-2.8333-1.0313 2.8333z" stroke-linecap="round" stroke-linejoin="round" stroke-width="3" style="paint-order:markers fill stroke" aria-label="A"/>
 </g>
 <g stroke-dasharray="2.66667, 2.66667">
  <path d="m241.67 47.304v12.801l12.799-6.4004zm-26.885 5.0664v2.666h3.5547v-2.666zm7.1133 0v2.666h3.5547v-2.666zm7.1094 0v2.666h3.5566v-2.666zm7.1113 0v2.666h3.5547v-2.666z" fill="#a12e9d" filter="url(#filter233)" stroke-width="1.3333"/>
  <path d="m224.18 60.556-12.801 6.4004 12.801 6.4004zm1.9961 5.0664v2.666h3.5547v-2.666zm7.1094 0v2.666h3.5566v-2.666zm7.1113 0v2.666h3.5547v-2.666zm7.1113 0v2.666h3.5547v-2.666z" fill="#4185f3" filter="url(#filter214)" stroke-width="1.3333"/>
  <path d="m250.07 66.956h-28.217" fill="none" stroke="#4185f3" stroke-width="2.6667"/>
 </g>
 <path d="m223.18 60.556-12.8 6.4 12.8 6.4z" fill="#4185f3"/>
 <path d="m214.38 53.704h28.217" fill="none" stroke="#a12e9d" stroke-dasharray="2.66667, 2.66667" stroke-width="2.6667"/>
 <path d="m241.27 60.104 12.8-6.4-12.8-6.4z" fill="#a12e9d"/>
 <g transform="translate(195.99 -183.33)">
  <path d="m155.28 230.63v12.801l12.799-6.4004zm-26.885 5.0664v2.666h3.5547v-2.666zm7.1133 0v2.666h3.5547v-2.666zm7.1094 0v2.666h3.5566v-2.666zm7.1113 0v2.666h3.5547v-2.666z" fill="#a12e9d" filter="url(#filter233)" stroke-dasharray="2.66667, 2.66667" stroke-width="1.3333"/>
  <path d="m137.79 243.89-12.801 6.4004 12.801 6.4004zm1.9961 5.0664v2.666h3.5547v-2.666zm7.1094 0v2.666h3.5566v-2.666zm7.1113 0v2.666h3.5547v-2.666zm7.1113 0v2.666h3.5547v-2.666z" fill="#4185f3" filter="url(#filter214)" stroke-dasharray="2.66667, 2.66667" stroke-width="1.3333"/>
  <path transform="matrix(-1.3333 0 0 -1.3333 163.68 250.29)" d="m0 0h21.163" fill="none" stroke="#4185f3" stroke-dasharray="2, 2" stroke-width="2"/>
  <path transform="matrix(1.3333 0 0 -1.3333 0 540)" d="m102.6 222.08-9.6001-4.8 9.6001-4.8z" fill="#4185f3"/>
  <path transform="matrix(1.3333 0 0 1.3333 127.99 237.03)" d="m0 0h21.163" fill="none" stroke="#a12e9d" stroke-dasharray="2, 2" stroke-width="2"/>
  <path transform="matrix(1.3333 0 0 -1.3333 0 540)" d="m116.16 222.42 9.6 4.8-9.6 4.8z" fill="#a12e9d"/>
 </g>
 <g transform="matrix(1.0678 0 0 1.0678 44.266 6.6823)">
  <path d="m53.113 28.954-36.299 0.0034c-0.52128 4.17e-4 -1.0439 0.0257-1.5636 0.06996-2.2846 0.19452-4.3978 2.3831-4.5643 4.8755-0.12043 1.8021-0.09943 3.6186-0.07817 5.4278 0.01488 1.2699 0.41064 2.4349 1.1408 3.4326 1.1289 1.5425 2.6457 2.155 4.4123 2.1544 9.1582-0.0024 18.316-1e-3 27.475-0.0034-0.46322 0.70825-0.8698 1.4936-1.2132 2.3524l-25.608 0.0024c-0.52128 4.18e-4 -1.0439 0.0257-1.5636 0.06996-2.2846 0.19452-4.3978 2.3831-4.5643 4.8754-0.12043 1.8021-0.09943 3.6186-0.07817 5.4278 0.01488 1.2699 0.41064 2.4349 1.1408 3.4326 1.1289 1.5425 2.6457 2.155 4.4123 2.1544 6.4251-0.0017 12.85-0.0022 19.275-0.0024 1.0666 1.9981 3.1238 3.5032 6.2527 3.5014 7.7751-0.15689 15.572 0.30652 23.339-0.23873 1.9559-0.14412 3.549-1.1084 4.5884-2.9605 2.4943-4.4445-0.04332-10.055-4.7905-10.647-0.98084-0.12228-0.97669-0.12254-1.0375-1.1972-0.15158-2.6782-0.83766-5.1483-2.4999-7.1812-0.8754-1.1944-1.9082-2.1488-3.0319-2.876 0.24949-0.6259 0.4135-1.3255 0.46712-2.1001 0.12454-1.799 0.0822-3.624-0.0257-5.4271-0.1277-2.1338-1.196-3.6459-2.9452-4.5775-0.83235-0.44328-1.7246-0.56925-2.6391-0.56911zm-36.895 1.4999c7.1889 0.0094 14.266 0.05626 37.138 0.07577 1.7015 0.0014 3.0307 0.72626 3.7523 2.4474 0.26628 0.63512 0.35547 1.3938 0.38897 2.1039 0.06012 1.2744 0.02232 2.5545 0.01584 3.8322-0.0038 0.7793-0.13678 1.4764-0.37693 2.0811-4.1134-2.0112-9.1181-1.1773-12.405 2.4879-9.5329-0.02112-19.066-0.07423-28.599-0.05611-1.7031-0.0012-3.0142-0.73634-3.7531-2.4499-0.231-0.53562-0.35589-1.1684-0.37591-1.7628-0.05129-1.5234-0.08333-3.0544-0.0012-4.5746 0.14213-2.6316 1.7432-4.1882 4.2154-4.185zm36.214 10.612c0.32391-0.0041 0.65281 0.0091 0.98691 0.03979 2.1882 0.20033 4.028 1.2168 5.6772 2.7465 2.4252 2.2495 3.458 5.174 3.5174 8.5807 0.03019 1.7292 0.02695 1.7189 1.601 1.7628 1.5399 0.04291 2.8962 0.55898 3.9554 1.8584 2.5989 3.1886 1.2314 9.4765-4.6515 9.4809-7.3294 0.0055-14.659 0.0055-21.988 6.27e-4 -1.5752-1e-3 -3.0499-0.36125-4.229-1.6088-1.4058-1.4872-1.8796-3.312-1.4822-5.3813 0.38527-2.0062 1.488-3.4051 3.2832-4.0023 0.8009-0.26647 1.6764-0.28014 2.5216-0.36659 0.78424-0.08023 0.87274-0.13985 0.86099-0.99092-0.02522-1.8287 0.18384-3.6068 0.81324-5.3192 0.63547-1.7288 1.6865-3.0962 2.9734-4.2737 1.8693-1.6274 3.8934-2.4986 6.1608-2.527zm-36.214 7.6998c5.4098 0.0072 13.324 0.03367 25.671 0.05522-0.29418 1.054-0.49897 2.2012-0.59814 3.4419-0.04126 0.51619-0.19248 0.67135-0.65263 0.69563-2.142 0.11304-3.9196 1.0287-5.1176 3.034-0.97869 1.6382-1.218 3.8137-0.66467 5.7785-6.241-0.02256-12.482-0.04495-18.723-0.0331-1.7031-0.0012-3.0142-0.73634-3.7531-2.4499-0.231-0.53562-0.35589-1.1684-0.37591-1.7628-0.05129-1.5234-0.08333-3.0544-0.0012-4.5746 0.14213-2.6316 1.7432-4.1882 4.2154-4.185z" fill="#757272" stroke-width=".10935"/>
  <g transform="matrix(.10449 0 0 .11445 9.3381 4.3163)">
   <path d="m418.95 55.276c8.7519-0.0012 17.291 1.1 25.258 4.9732 16.742 8.1399 26.965 21.351 28.187 39.996 1.0327 15.755 1.4378 31.7 0.24591 47.419-2.1997 29.009-22.606 46.961-51.942 47.054-118.47 0.0919-236.94 0.01-355.41 0.0397-16.908 5e-3 -31.425-5.3455-42.229-18.823-6.9878-8.7173-10.775-18.897-10.918-29.992-0.2036-15.808-0.40432-31.681 0.74836-47.427 1.5942-21.777 21.818-40.899 43.683-42.599 4.9745-0.38667 9.9753-0.6068 14.964-0.61056m349.42 127.06c24.479-0.047 39.97-15.66 40.102-40.075 0.0607-11.164 0.42324-22.351-0.15223-33.486-0.32061-6.2042-1.1758-12.833-3.7243-18.383-6.9064-15.039-19.626-21.371-35.911-21.384-218.9-0.17048-286.63-0.58048-355.44-0.66285-23.661-0.02832-38.983 13.572-40.343 36.566-0.78575 13.283-0.4801 26.661 0.01085 39.972 0.19157 5.1937 1.3877 10.721 3.5984 15.401 7.0726 14.972 19.621 21.395 35.92 21.407 118.64-0.20599 237.29 0.78207 355.93 0.64347z" fill="#757272"/>
   <path d="m271.83 118.61c42.256 0.054 84.082 0.12189 125.91 0.20211 1.4962 3e-3 3.0098 6e-3 4.4846 0.21995 3.5545 0.51653 5.2047 2.8704 5.2289 6.2519 0.0243 3.392-1.7131 5.7518-5.1355 6.4086-42.436 0.61715-84.987 0.17799-127.45 0.12121-0.83316-1e-3 -1.6674 0.0179-2.4993-0.0168-4.0946-0.17089-7.2961-1.6545-7.6204-6.2246-0.32345-4.5581 2.3094-6.6684 7.0878-6.9625z" fill="#777474"/>
   <path d="m162.07 140.88c-6.7872-11.04-6.9495-21.885 0.35764-32.155 6.7894-9.5418 16.496-13.331 28.031-11.019 11.744 2.3537 19.127 9.7433 21.856 21.379 2.9549 12.598-3.5626 25.502-15.331 31.115-12.189 5.8136-25.235 2.424-34.914-9.3204m37.58-11.883c1.5102-6.1793-0.53348-11.362-5.2717-15.161-4.999-4.0088-10.791-4.3148-16.417-1.202-5.2756 2.9192-7.6992 7.6399-7.4327 13.692 0.28177 6.3988 4.5074 11.695 10.77 13.511 10.567 3.0641 17.345-6.7266 18.351-10.84z" fill="#757373"/>
   <path d="m132.51 134.44c-6.837 16.326-23.555 22.906-38.785 15.591-13.894-6.6743-19.436-24.527-11.929-38.433 6.6189-12.262 21.708-17.626 34.817-12.377 14.05 5.6265 20.337 19.305 15.897 35.219m-30.284 5.4226c8.52 1.391 15.689-2.3925 18.096-9.551 2.3815-7.0808-0.78672-14.916-7.3798-18.252-7.5991-3.8444-16.652-0.79621-20.334 6.8465-3.8752 8.0442-0.22756 16.595 9.6175 20.956z" fill="#757373"/>
  </g>
  <g transform="matrix(.10449 0 0 .11445 9.3381 22.628)">
   <path d="m271.83 118.61c42.256 0.054 84.082 0.12189 125.91 0.20211 1.4962 3e-3 3.0098 6e-3 4.4846 0.21995 3.5545 0.51653 5.2047 2.8704 5.2289 6.2519 0.0243 3.392-1.7131 5.7518-5.1355 6.4086-42.436 0.61715-84.987 0.17799-127.45 0.12121-0.83316-1e-3 -1.6674 0.0179-2.4993-0.0168-4.0946-0.17089-7.2961-1.6545-7.6204-6.2246-0.32345-4.5581 2.3094-6.6684 7.0878-6.9625z" fill="#777474"/>
   <path d="m162.07 140.88c-6.7872-11.04-6.9495-21.885 0.35764-32.155 6.7894-9.5418 16.496-13.331 28.031-11.019 11.744 2.3537 19.127 9.7433 21.856 21.379 2.9549 12.598-3.5626 25.502-15.331 31.115-12.189 5.8136-25.235 2.424-34.914-9.3204m37.58-11.883c1.5102-6.1793-0.53348-11.362-5.2717-15.161-4.999-4.0088-10.791-4.3148-16.417-1.202-5.2756 2.9192-7.6992 7.6399-7.4327 13.692 0.28177 6.3988 4.5074 11.695 10.77 13.511 10.567 3.0641 17.345-6.7266 18.351-10.84z" fill="#757373"/>
   <path d="m132.51 134.44c-6.837 16.326-23.555 22.906-38.785 15.591-13.894-6.6743-19.436-24.527-11.929-38.433 6.6189-12.262 21.708-17.626 34.817-12.377 14.05 5.6265 20.337 19.305 15.897 35.219m-30.284 5.4226c8.52 1.391 15.689-2.3925 18.096-9.551 2.3815-7.0808-0.78672-14.916-7.3798-18.252-7.5991-3.8444-16.652-0.79621-20.334 6.8465-3.8752 8.0442-0.22756 16.595 9.6175 20.956z" fill="#757373"/>
  </g>
  <g transform="matrix(.10449 0 0 .11445 9.3381 40.94)" fill="#757373">
   <path d="m162.07 140.88c-6.7872-11.04-6.9495-21.885 0.35764-32.155 6.7894-9.5418 16.496-13.331 28.031-11.019 11.744 2.3537 19.127 9.7433 21.856 21.379 2.9549 12.598-3.5626 25.502-15.331 31.115-12.189 5.8136-25.235 2.424-34.914-9.3204m37.58-11.883c1.5102-6.1793-0.53348-11.362-5.2717-15.161-4.999-4.0088-10.791-4.3148-16.417-1.202-5.2756 2.9192-7.6992 7.6399-7.4327 13.692 0.28177 6.3988 4.5074 11.695 10.77 13.511 10.567 3.0641 17.345-6.7266 18.351-10.84z"/>
   <path d="m132.51 134.44c-6.837 16.326-23.555 22.906-38.785 15.591-13.894-6.6743-19.436-24.527-11.929-38.433 6.6189-12.262 21.708-17.626 34.817-12.377 14.05 5.6265 20.337 19.305 15.897 35.219m-30.284 5.4226c8.52 1.391 15.689-2.3925 18.096-9.551 2.3815-7.0808-0.78672-14.916-7.3798-18.252-7.5991-3.8444-16.652-0.79621-20.334 6.8465-3.8752 8.0442-0.22756 16.595 9.6175 20.956z"/>
  </g>
 </g>
</svg>
