<?xml version="1.0" encoding="UTF-8"?>
<!-- Created with Inkscape (http://www.inkscape.org/) -->
<svg width="524.83" height="345.81" version="1.1" viewBox="0 0 524.83 345.81" xmlns="http://www.w3.org/2000/svg">
 <defs>
  <clipPath id="clipPath56">
   <path transform="matrix(1 0 0 -1 -118.71 233.34)" d="m0 0h720v405h-720z"/>
  </clipPath>
  <clipPath id="clipPath58">
   <path d="m0 0h720v405h-720z"/>
  </clipPath>
  <filter id="filter76" x="-.08784" y="-.15934" width="1.194" height="1.3851" color-interpolation-filters="sRGB">
   <feFlood flood-color="rgb(0,0,0)" flood-opacity=".50196" in="SourceGraphic" result="flood"/>
   <feGaussianBlur in="SourceGraphic" result="blur" stdDeviation="2.000000"/>
   <feOffset dx="1.000000" dy="2.000000" in="blur" result="offset"/>
   <feComposite in="flood" in2="offset" operator="in" result="comp1"/>
   <feComposite in="comp1" in2="comp1" operator="atop" result="fbSourceGraphic"/>
   <feColorMatrix in="fbSourceGraphic" result="fbSourceGraphicAlpha" values="0 0 0 -1 0 0 0 0 -1 0 0 0 0 -1 0 0 0 0 1 0"/>
   <feFlood flood-color="rgb(0,0,0)" flood-opacity=".50196" in="fbSourceGraphic" result="flood"/>
   <feGaussianBlur in="fbSourceGraphic" result="blur" stdDeviation="2.000000"/>
   <feOffset dx="1.000000" dy="2.000000" in="blur" result="offset"/>
   <feComposite in="flood" in2="offset" operator="in" result="comp1"/>
   <feComposite in="comp1" in2="comp1" operator="atop" result="comp2"/>
  </filter>
  <filter id="filter81" x="-.097312" y="-.15934" width="1.2149" height="1.3851" color-interpolation-filters="sRGB">
   <feFlood flood-color="rgb(0,0,0)" flood-opacity=".50196" in="SourceGraphic" result="flood"/>
   <feGaussianBlur in="SourceGraphic" result="blur" stdDeviation="2.000000"/>
   <feOffset dx="1.000000" dy="2.000000" in="blur" result="offset"/>
   <feComposite in="flood" in2="offset" operator="in" result="comp1"/>
   <feComposite in="comp1" in2="comp1" operator="atop" result="fbSourceGraphic"/>
   <feColorMatrix in="fbSourceGraphic" result="fbSourceGraphicAlpha" values="0 0 0 -1 0 0 0 0 -1 0 0 0 0 -1 0 0 0 0 1 0"/>
   <feFlood flood-color="rgb(0,0,0)" flood-opacity=".50196" in="fbSourceGraphic" result="flood"/>
   <feGaussianBlur in="fbSourceGraphic" result="blur" stdDeviation="2.000000"/>
   <feOffset dx="1.000000" dy="2.000000" in="blur" result="offset"/>
   <feComposite in="flood" in2="offset" operator="in" result="comp1"/>
   <feComposite in="comp1" in2="comp1" operator="atop" result="comp2"/>
  </filter>
 </defs>
 <g transform="translate(-51.084 -89.165)">
  <path transform="matrix(1.3333 0 0 1.3333 308.24 127.33)" d="m0 70.339c17.4-48.943 46.822-72.344 88.265-70.204l0.9957 0.095491" fill="none" stroke="#525252" stroke-dasharray="2, 2" stroke-width="2"/>
  <path transform="matrix(1.3333 0 0 -1.3333 0 540)" d="m318.99 304.59 10.014 3.862-9.098 5.694z" fill="#525252"/>
  <path transform="matrix(1.3333 0 0 1.3333 143 197.28)" d="m92.378 20.907c-31.588-25.046-59.988-27.589-85.2-7.6271l-0.74786 0.6643" fill="none" stroke="#525252" stroke-dasharray="2, 2" stroke-width="2"/>
  <path transform="matrix(1.3333 0 0 -1.3333 0 540)" d="m111.24 247.35-3.99-9.964 10.365 2.786z" fill="#525252"/>
  <path transform="matrix(1.3333 0 0 1.3333 281.84 340.58)" d="m5.6695 6.4666 0.65925 0.75193c25.219 26.876 56.389 38.413 93.511 34.612" fill="none" stroke="#525252" stroke-dasharray="2, 2" stroke-width="2"/>
  <path transform="matrix(1.3333 0 0 -1.3333 0 540)" d="m221.32 145.51-9.938 4.054 2.72-10.382z" fill="#525252"/>
  <path transform="matrix(1.3333 0 0 1.3333 158.28 228.88)" d="m0 8.682c26.622-11.995 46.768-11.561 60.437 1.3008l0.6463 0.76382" clip-path="url(#clipPath56)" fill="none" stroke="#525252" stroke-dasharray="2, 2" stroke-width="2"/>
  <path transform="matrix(1.3333 0 0 -1.3333 0 540)" d="m175.48 220.25 9.866-4.228-2.537 10.429z" clip-path="url(#clipPath58)" fill="#525252"/>
  <path transform="matrix(1.3333 0 0 1.3333 317.67 335.92)" d="M 64.211,31.1818 63.2128,31.1225 C 24.4213,28.1478 3.35041,17.7736 0,0" fill="none" stroke="#525252" stroke-dasharray="2, 2" stroke-width="2"/>
  <path transform="matrix(1.3333 0 0 -1.3333 0 540)" d="m301.18 117.15 9.867 4.223-9.299 5.36z" fill="#525252"/>
  <path transform="matrix(1.3333 0 0 1.3333 335.33 152.1)" d="m64.946 0c-33.572 9.3894-54.445 27.029-62.619 52.918l-0.24268 0.9716" fill="none" stroke="#525252" stroke-dasharray="2, 2" stroke-width="2"/>
  <path transform="matrix(1.3333 0 0 -1.3333 0 540)" d="m249.17 239.17 2.33-10.477 6.983 8.151z" fill="#525252"/>
 </g>
 <g transform="matrix(1.7558 0 0 1.7558 177 126.03)" fill="#666">
  <path d="m15.994 4.4473c-1.298 0-2.3906 1.0926-2.3906 2.3906v61.113c0 1.298 1.0926 2.3906 2.3906 2.3906h41.73c1.298 0 2.3887-1.0926 2.3887-2.3906v-50.521c0-7.166-5.8144-12.982-12.98-12.982zm0.60938 3h30.529c5.5559 0 9.9805 4.4265 9.9805 9.9824v49.912h-40.51z" color="#000000" stroke-linecap="round" stroke-linejoin="round" style="-inkscape-stroke:none;paint-order:markers fill stroke"/>
  <rect x="23.25" y="14.092" width="27.5" height="2.3" ry="1.1657" style="paint-order:markers fill stroke"/>
  <rect x="23.25" y="25.075" width="27.5" height="2.3" ry="1.1657" style="paint-order:markers fill stroke"/>
  <rect x="23.25" y="35.85" width="27.5" height="2.3" ry="1.1657" style="paint-order:markers fill stroke"/>
  <path d="m42.715 51.273v1.1133h1.252v5.4336h-1.207v1.1133h3.957v-1.1133h-1.209v-5.4336h1.1641v-1.1133h-2.7051z" style="paint-order:markers fill stroke"/>
  <path d="m35.514 58.908v-7.6354h2.474q1.4063 0 1.8333 0.11458 0.65625 0.17188 1.099 0.75 0.44271 0.57292 0.44271 1.4844 0 0.70313-0.25521 1.1823t-0.65104 0.75521q-0.39063 0.27083-0.79688 0.35938-0.55209 0.10938-1.599 0.10938h-1.0052v2.8802zm1.5417-6.3438v2.1667h0.84375q0.91146 0 1.2188-0.11979 0.30729-0.11979 0.47917-0.375 0.17708-0.25521 0.17708-0.59375 0-0.41667-0.24479-0.6875t-0.61979-0.33854q-0.27604-0.05208-1.1094-0.05208z" stroke-linecap="round" stroke-linejoin="round" stroke-width="3" style="paint-order:markers fill stroke" aria-label="P"/>
  <path d="m34.299 58.908h-1.6771l-0.66667-1.7344h-3.0521l-0.63021 1.7344h-1.6354l2.974-7.6354h1.6302zm-2.8386-3.0208-1.0521-2.8333-1.0313 2.8333z" stroke-linecap="round" stroke-linejoin="round" stroke-width="3" style="paint-order:markers fill stroke" aria-label="A"/>
 </g>
 <path d="m94.466 143.22c-3.7041 1.8186-8.0767 3.3163-12.933 4.4315-2.1984-7.2423-5.1777-13.217-8.7293-17.542 8.2854 2.5487 15.696 7.1086 21.663 13.11zm-8.7962 32.73c-0.17116-8.4137-1.134-16.228-2.7627-23.15 5.758-1.3399 10.933-3.1826 15.225-5.4531 6.3999 7.9591 10.489 17.825 11.315 28.603zm-3.5383 31.78c2.0887-7.7799 3.3377-16.753 3.5383-26.431h23.912c-0.30755 12.054-4.6749 23.118-11.85 31.81-4.3994-2.2652-9.7269-4.0705-15.6-5.3783zm-1.5512 5.1162c4.9931 1.0831 9.5076 2.5594 13.337 4.3754-6.3464 6.2046-14.273 10.767-23.107 13.105 3.9046-4.0518 7.2423-10.053 9.7696-17.48zm-43.047 0.40919c2.6985 7.7799 6.2876 13.987 10.489 17.953-9.537-1.7624-18.146-6.1271-25.115-12.326 3.926-2.3374 8.9272-4.2443 14.626-5.627zm-5.2312-31.957c0.20326 9.8633 1.5003 18.991 3.6586 26.87-6.6486 1.6501-12.468 3.9769-16.958 6.8492-8.1677-8.962-13.254-20.745-13.586-33.719zm2.8697-28.98c-1.6956 7.0364-2.6931 15.025-2.8697 23.631h-26.75c0.89593-11.693 5.6591-22.297 13.019-30.571 4.37 2.891 10.061 5.2472 16.6 6.9401zm1.396-5.1242c-5.5441-1.4201-10.395-3.343-14.174-5.6858 6.5496-5.9854 14.602-10.329 23.548-12.364-3.8244 4.2898-7.0284 10.481-9.3738 18.05zm1.0831 28.755c0.17383-8.4565 1.1446-16.004 2.7038-22.454 6.1191 1.1848 12.786 1.824 19.67 1.824 6.1217 0 12.094-0.51081 17.67-1.4629 1.511 6.3705 2.4551 13.789 2.6263 22.093zm37.669 35.928c-4.1828 11.893-10.374 18.897-16.335 18.897-5.9104 0-12.054-6.884-16.236-18.601 5.3863-0.9414 11.225-1.4576 17.277-1.4576 5.3034 0 10.446 0.41988 15.295 1.1607zm-15.295-6.5095c-6.5898 0-12.974 0.59371-18.873 1.6822-2.0112-7.2744-3.5062-15.969-3.7094-25.752h42.791c-0.20058 9.6359-1.3639 18.215-3.3243 25.423-5.3542-0.86918-11.045-1.3532-16.884-1.3532zm0.10162-77.424c6.0629 0.83441 12.257 8.2131 16.17 20.729-5.1242 0.83977-10.615 1.2971-16.271 1.2971-6.4106 0-12.591-0.56965-18.24-1.6207 4.0705-12.786 10.524-20.146 16.75-20.486 0.53489 0.0107 1.0617 0.0535 1.5913 0.0803zm0.41185-5.3274c-0.51615-0.0589-1.027-0.15512-1.5538-0.15512-0.16847 0-0.33162 0.0428-0.50011 0.0508-0.33163-5e-3 -0.65255-0.0508-0.98418-0.0508-31.705 0-57.5 25.795-57.5 57.5s25.795 57.5 57.5 57.5c31.705 0 57.5-25.795 57.5-57.5 0-30.681-24.174-55.751-54.462-57.345z" fill="#232f3d" stroke-width="2.6744"/>
 <g transform="translate(-51.084 -89.165)">
  <path transform="matrix(1.3333 0 0 1.3333 416.06 337.84)" d="m22.93-1.0007c-6.7217 0-10.811-0.056826-13.83 1.1997-4.1304 1.5144-7.386 4.77-8.9004 8.9004-1.2565 3.0187-1.1997 7.1079-1.1997 13.83v12.39c0 6.7192-0.0583 10.81 1.1968 13.828 1.514 4.1316 4.7721 7.3872 8.9033 8.9019 3.0187 1.2566 7.1079 1.1997 13.83 1.1997h61.43c6.7217 0 10.811 0.05686 13.83-1.1997 4.1316-1.5147 7.3896-4.7703 8.9033-8.9019 1.2555-3.0184 1.1968-7.1089 1.1968-13.828v-12.39c0-6.7217 0.0572-10.811-1.1997-13.83-1.5141-4.1304-4.7696-7.386-8.9004-8.9004-3.0187-1.2565-7.1079-1.1997-13.83-1.1997z" fill="#fff" filter="url(#filter76)" stroke-linejoin="round"/>
  <path transform="matrix(1.3333 0 0 1.3333 416.06 337.84)" d="m22.93 0h61.429c6.7288 0 10.766 0 13.458 1.1237 3.8804 1.4122 6.9364 4.4687 8.3484 8.3487 1.124 2.6915 1.124 6.7288 1.124 13.458v12.388c0 6.7288 0 10.766-1.124 13.458-1.412 3.8801-4.468 6.9366-8.3484 8.3488-2.6915 1.1237-6.7288 1.1237-13.458 1.1237h-61.429c-6.7288 0-10.766 0-13.458-1.1237-3.88-1.4122-6.9365-4.4687-8.3487-8.3488-1.1237-2.6915-1.1237-6.7287-1.1237-13.458v-12.388c0-6.7288 0-10.766 1.1237-13.458 1.4122-3.88 4.4687-6.9365 8.3487-8.3487 2.6915-1.1237 6.7288-1.1237 13.458-1.1237z" fill="#fff" stroke="#909090" stroke-linejoin="round" stroke-width="2"/>
  <text transform="matrix(1.3333 0 0 1.3333 441.45 371.57)" xml:space="preserve"><tspan x="0" y="0" fill="#525252" font-family="Arial" font-size="14px">Third-Party </tspan></text>
  <text transform="matrix(1.3333 0 0 1.3333 448.41 392.9)" xml:space="preserve"><tspan x="0" y="0" fill="#525252" font-family="Arial" font-size="14px">Providers</tspan></text>
  <path transform="matrix(1.3333 0 0 1.3333 423.15 103.3)" d="m47.443-1.0004c-11.972 0-22.161 7.896-26.333 18.987-0.8351-0.11775-1.6723-0.23722-2.5415-0.2373-10.831 0-19.567 9.336-19.567 20.752 0 11.416 8.7367 20.746 19.567 20.747 0.21209 0 0.40466-0.0087 0.58008-0.01465l27.967 0.0059c0.07397 8.37e-4 0.18147 0.0087 0.32666 0.0088a1.0001 1.0001 0 0 0 0.0015 0c0.13996 0 0.23853-0.0076 0.30908-0.0088l33.422 0.0088c9.1248 0 16.478-7.8592 16.478-17.461 0-9.6019-7.3526-17.47-16.478-17.47-1.9989 0-3.8804 0.46659-5.6528 1.1587-1.7085-14.869-13.557-26.477-28.078-26.477z" fill="#fff" filter="url(#filter81)" stroke-linejoin="round"/>
  <path transform="matrix(1.3333 0 0 1.3333 423.15 103.3)" d="m47.443 0c-11.792 0-21.846 7.9269-25.704 19.044-1.0306-0.1887-2.0902-0.2944-3.1715-0.2945-10.257 0-18.568 8.845-18.568 19.754 0 10.908 8.3116 19.746 18.568 19.746 0.1938 0 0.3894-0.0089 0.5815-0.0151l27.976 0.0075c0.1061 0.0012 0.2109 0.0075 0.3172 0.0076 0.1044 0 0.2054-0.0064 0.3096-0.0076l33.421 0.0076c8.5504 0 15.48-7.3674 15.48-16.461 0-9.0939-6.9292-16.469-15.48-16.469-2.2979 0-4.4801 0.54-6.441 1.4951-1.1091-15.005-12.897-26.814-27.289-26.814z" fill="#fff" stroke="#909090" stroke-linejoin="round" stroke-width="2"/>
  <text transform="matrix(1.3333 0 0 1.3333 458.35 155.79)" xml:space="preserve"><tspan x="0" y="0" fill="#525252" font-family="Arial" font-size="14px">Cloud</tspan></text>
 </g>
 <text x="1.5019015" y="268.52448" font-size="16px" stroke-width="1.3333" xml:space="preserve"><tspan x="1.5019015" y="268.52448" dx="0 -0.3397333" fill="#525252" font-family="Arial" font-size="18.667px" stroke-width="1.3333">Web Services</tspan></text>
</svg>
