<?xml version="1.0" encoding="UTF-8"?>
<!-- Created with Inkscape (http://www.inkscape.org/) -->
<svg width="420.62" height="114.67" version="1.1" viewBox="0 0 420.62 114.67" xmlns="http://www.w3.org/2000/svg">
 <defs>
  <filter id="filter214" x="-.12096" y="-.37498" width="1.2671" height="1.9062" color-interpolation-filters="sRGB">
   <feFlood flood-color="rgb(0,0,0)" flood-opacity=".50196" in="SourceGraphic" result="flood"/>
   <feGaussianBlur in="SourceGraphic" result="blur" stdDeviation="2.000000"/>
   <feOffset dx="1.000000" dy="2.000000" in="blur" result="offset"/>
   <feComposite in="flood" in2="offset" operator="in" result="comp1"/>
   <feComposite in="comp1" in2="comp1" operator="atop" result="comp2"/>
  </filter>
  <filter id="filter233" x="-.17136" y="-.53122" width="1.2923" height="1.9062" color-interpolation-filters="sRGB">
   <feFlood flood-color="rgb(0,0,0)" flood-opacity=".50196" in="SourceGraphic" result="flood"/>
   <feGaussianBlur in="SourceGraphic" result="blur" stdDeviation="2.000000"/>
   <feOffset dx="-2.000000" dy="-2.000000" in="blur" result="offset"/>
   <feComposite in="flood" in2="offset" operator="in" result="comp1"/>
   <feComposite in="comp1" in2="comp1" operator="atop" result="comp2"/>
  </filter>
 </defs>
 <text transform="matrix(1.3333 0 0 1.3333 14.359 105.09)" xml:space="preserve"><tspan x="0" y="0" fill="#a12e9d" font-family="Arial" font-size="14px">Server</tspan></text>
 <text transform="matrix(1.3333 0 0 1.3333 252.36 104.6)" xml:space="preserve"><tspan x="0" y="0" fill="#4185f3" font-family="Arial" font-size="14px">Social media apps</tspan></text>
 <path transform="matrix(1.3333 0 0 1.3333 1.3333 1.3334)" d="m22.93 0h267.6c6.729 0 10.766 0 13.458 1.1237 3.88 1.4122 6.936 4.4687 8.348 8.3487 1.124 2.6915 1.124 6.7288 1.124 13.458v38.14c0 6.7288 0 10.766-1.124 13.458-1.412 3.88-4.468 6.9365-8.348 8.3487-2.692 1.1237-6.729 1.1237-13.458 1.1237h-267.6c-6.7288 0-10.766 0-13.458-1.1237-3.88-1.4122-6.9365-4.4687-8.3487-8.3487-1.1237-2.6915-1.1237-6.7288-1.1237-13.458v-38.14c0-6.7288 0-10.766 1.1237-13.458 1.4122-3.88 4.4687-6.9365 8.3487-8.3487 2.6915-1.1237 6.7288-1.1237 13.458-1.1237z" fill="none" stroke="#a7a7a7" stroke-dasharray="4, 4" stroke-width="2"/>
 <g transform="matrix(1.0359 0 0 1.0359 291.14 10.085)" fill="#707070">
  <path d="m10.242 3.3574c-1.7093 0-3.1406 1.2925-3.1406 2.9297v20.596c0 1.6371 1.4313 2.9277 3.1406 2.9277h1.5527v5.1465c0 0.05398 0.0072 0.10504 0.01953 0.1543 8.05e-4 0.0032 0.0011 0.0066 2e-3 0.0098 0.01312 0.09226 0.05146 0.17841 0.11914 0.24609l0.0332 0.0332c0.18675 0.18675 0.51163 0.16221 0.72852-0.05469l5.5352-5.5352h14.457v8.2148h-11.588c-1.7093 0-3.1406 1.2925-3.1406 2.9297v20.596c0 1.6371 1.4313 2.9277 3.1406 2.9277h1.5527v5.1465c0 0.05398 0.0072 0.10504 0.01953 0.1543 8.05e-4 0.0032 0.0011 0.0066 2e-3 0.0098 0.01312 0.09226 0.05146 0.17841 0.11914 0.24609l0.0332 0.0332c0.18675 0.18675 0.51163 0.1622 0.72852-0.05469l5.5352-5.5352h20.064c1.7093 0 3.1406-1.2906 3.1406-2.9277v-17.111h3.5977l5.5352 5.5352c0.21689 0.21689 0.54177 0.24143 0.72852 0.05469l0.0332-0.0332c0.06768-0.06768 0.10602-0.15383 0.11914-0.24609 9e-4 -0.0032 0.0011-0.0066 2e-3 -0.0098 0.01233-0.04925 0.01953-0.10032 0.01953-0.1543v-5.1465h1.5527c1.7093 0 3.1406-1.2906 3.1406-2.9277v-20.596c1e-6 -1.6371-1.4313-2.9297-3.1406-2.9297h-22.447v-11.699c0-1.6371-1.4313-2.9297-3.1406-2.9297zm0 1h28.055c1.2155 0 2.1406 0.87588 2.1406 1.9297v11.699h-4.6074c-1.7093 0-3.1406 1.2925-3.1406 2.9297v7.8945h-14.627c-0.09573 0-0.26911 0.02496-0.42383 0.17969l-4.8438 4.8438v-4.4707c0-0.30928-0.20628-0.56196-0.53516-0.55273h-2.0176c-1.2155 0-2.1406-0.87393-2.1406-1.9277v-20.596c0-1.0538 0.92512-1.9297 2.1406-1.9297zm25.588 14.629h28.055c1.2155 0 2.1406 0.87588 2.1406 1.9297v20.596c-1e-6 1.0538-0.92512 1.9277-2.1406 1.9277h-2.0176c-0.32887-0.0092-0.53516 0.24345-0.53516 0.55274v4.4707l-4.8438-4.8438c-0.15473-0.15473-0.3281-0.17969-0.42383-0.17969h-3.7676v-2.4844c0-1.6371-1.4313-2.9297-3.1406-2.9297h-15.467v-17.109c0-1.0538 0.92511-1.9297 2.1406-1.9297zm-14.729 20.039h12.105c0.12061 0.0802 0.18882 0.06455 0.23242 0h15.717c1.2155 0 2.1406 0.87588 2.1406 1.9297v20.596c0 1.0538-0.92511 1.9277-2.1406 1.9277h-20.234c-0.09573 0-0.26911 0.02496-0.42383 0.17969l-4.8438 4.8438v-4.4707c0-0.30928-0.20628-0.56196-0.53516-0.55273h-2.0176c-1.2155 0-2.1406-0.87393-2.1406-1.9277v-20.596c0-1.0538 0.92512-1.9297 2.1406-1.9297z"/>
  <path d="m13.314 8.8164c-0.33143 0-0.59766 0.223-0.59766 0.5 0 0.277 0.26623 0.5 0.59766 0.5h22.004c0.33143 0 0.59766-0.223 0.59766-0.5 0-0.277-0.26623-0.5-0.59766-0.5zm0.2207 4.6406c-0.33143 0-0.59766 0.223-0.59766 0.5s0.26623 0.5 0.59766 0.5h22.004c0.33143 0 0.59961-0.223 0.59961-0.5s-0.26818-0.5-0.59961-0.5zm0 4.5957c-0.33143 0-0.59766 0.223-0.59766 0.5s0.26623 0.5 0.59766 0.5h16.104c0.33143 0 0.59961-0.223 0.59961-0.5s-0.26818-0.5-0.59961-0.5zm2e-3 4.6855c-0.33143 0-0.59961 0.223-0.59961 0.5s0.26818 0.5 0.59961 0.5h9.8027c0.33143 0 0.59766-0.223 0.59766-0.5s-0.26623-0.5-0.59766-0.5z"/>
  <path d="m30.549 43.893c-2.0818 0.29525-3.7335 1.916-4.0664 3.9922-0.28299 1.7647 0.66386 3.1907 1.8242 4.4688l6.4102 6.5098c3e-3 0.0031 0.0067 0.0048 0.0098 0.0078 0.0039 0.0044 0.0075 0.0095 0.01172 0.01367l0.03125 0.0332c0.08497 0.08498 0.19936 0.12372 0.31836 0.12305 0.057 0.0071 0.11239-0.01176 0.16797-0.01758 1.45e-4 0.0013-1.39e-4 0.0026 0 0.0039 0.0807-0.01277 0.13956-0.07373 0.20703-0.10938l0.03125-0.0332c0.0042-0.0042 0.0078-0.0093 0.01172-0.01367 0.0031-3e-3 0.0068-0.0047 0.0098-0.0078l6.4102-6.5098c1.1595-1.2774 2.1071-2.704 1.8241-4.4687-0.33293-2.0761-1.9846-3.6969-4.0664-3.9922-0.48843-0.06927-2.5585-0.24406-4.1532 1.4474-0.15548 0.14695-0.27577 0.32453-0.4132 0.48625-0.0095-0.01262-0.01987-0.02438-0.0293-0.03711-0.0014 0.0024-0.0044 0.0035-0.0059 0.0059-1.2516-1.6939-3.1768-2.0947-4.5332-1.9023zm4.1055 3.1191c0.0019 0.0039 4e-3 0.0077 0.0059 0.01172l2e-3 2e-3c0.02747 0.05825 0.06594 0.11064 0.11328 0.1543 0.03673 0.03329 0.0782 0.06094 0.12305 0.08203 0.0084 0.0022 0.01689 0.0042 0.02539 0.0059 0.02859 0.0098 0.058 0.01698 0.08789 0.02148 0.0071 0.0018 0.01436 0.0024 0.02148 0.0039 6.3e-4 1.36e-4 0.0013-1.34e-4 2e-3 0 0.0039 8.76e-4 0.0078 0.0012 0.01172 2e-3 0.02139 4e-3 0.0427 0.0086 0.06445 0.0098 0.0019-9.4e-5 0.0039 1.16e-4 0.0059 0 0.0013 7.2e-5 0.0026-6.3e-5 0.0039 0 0.02175-0.0012 0.04306-0.0057 0.06445-0.0098 0.0039-7.32e-4 0.0078-0.0011 0.01172-2e-3 6.28e-4 -8.4e-5 0.0013 8.6e-5 2e-3 0 0.0071-0.0015 0.01443-0.0021 0.02148-0.0039 0.02989-0.0045 0.0593-0.01168 0.08789-0.02148 0.0085-0.0017 0.01698-0.0037 0.02539-0.0059 0.04485-0.02109 0.08632-0.04874 0.12305-0.08203 0.04734-0.04366 0.08581-0.09605 0.11328-0.1543 0.87304-1.5457 2.2039-2.2285 3.9727-2.1426 1.6518 0.23427 2.9546 1.5128 3.2188 3.1602 0.27387 1.5432-0.7291 2.8015-1.5234 3.6836-2.009 2.0716-4.1203 4.0472-6.1311 6.1133l-6.1133-6.1133c-0.79434-0.88208-1.7973-2.1404-1.5234-3.6836 0.26416-1.6473 1.5669-2.9259 3.2188-3.1602 1.3685-0.19407 3.1418 0.39953 3.9648 2.1289z" stroke-linecap="round"/>
  <path transform="matrix(-.054031 -1.2679 1.3943 -.059417 15.522 105.63)" d="m58.75 22.635c-0.98862-0.03104-1.9776 0.02525-2.8047 0.18555-0.82714 0.16029-1.53 0.35924-1.9043 0.96289-0.37426 0.60365-0.23987 1.3226-0.01563 2.1348 0.22424 0.81214 0.61265 1.7221 1.0801 2.5938 0.46743 0.87169 1.0121 1.6998 1.5645 2.3359s1.0752 1.1457 1.7852 1.168c0.70991 0.02229 1.2662-0.45246 1.8574-1.0527 0.59121-0.60027 1.1839-1.3937 1.7051-2.2344s0.96744-1.725 1.2422-2.5215c0.27475-0.79647 0.45479-1.5049 0.11914-2.1309-0.33565-0.62594-1.0263-0.86821-1.8418-1.0801-0.81545-0.21187-1.7985-0.33029-2.7871-0.36133zm-0.03125 1c0.92804 0.02914 1.8567 0.14322 2.5684 0.32812 0.7117 0.18491 1.1641 0.50228 1.209 0.58594 0.04486 0.08366 0.05815 0.6369-0.18164 1.332-0.23979 0.69513-0.65723 1.5312-1.1465 2.3203-0.48926 0.78914-1.0524 1.5347-1.5684 2.0586-0.51599 0.5239-1.0184 0.75884-1.1133 0.75586-0.09488-3e-3 -0.5804-0.26898-1.0625-0.82422-0.4821-0.55523-0.99676-1.3341-1.4355-2.1523-0.43879-0.81828-0.80233-1.6799-0.99805-2.3887-0.19571-0.70881-0.14963-1.2592-0.09961-1.3398 0.05002-0.08068 0.5242-0.36792 1.2461-0.50781 0.7219-0.1399 1.654-0.19711 2.582-0.16797z" stroke-linecap="round" stroke-linejoin="round"/>
 </g>
 <g transform="translate(-19.88 -194.81)">
  <g transform="matrix(1.0338 0 0 1.0338 162.83 199.02)" fill="#707070">
   <path d="m15.994 4.4473c-1.298 0-2.3906 1.0926-2.3906 2.3906v61.113c0 1.298 1.0926 2.3906 2.3906 2.3906h41.73c1.298 0 2.3887-1.0926 2.3887-2.3906v-50.521c0-7.166-5.8144-12.982-12.98-12.982zm0.60938 3h30.529c5.5559 0 9.9805 4.4265 9.9805 9.9824v49.912h-40.51z" color="#000000" stroke-linecap="round" stroke-linejoin="round" style="-inkscape-stroke:none;paint-order:markers fill stroke"/>
   <rect x="23.25" y="14.092" width="27.5" height="2.3" ry="1.1657" style="paint-order:markers fill stroke"/>
   <rect x="23.25" y="25.075" width="27.5" height="2.3" ry="1.1657" style="paint-order:markers fill stroke"/>
   <rect x="23.25" y="35.85" width="27.5" height="2.3" ry="1.1657" style="paint-order:markers fill stroke"/>
   <path d="m42.715 51.273v1.1133h1.252v5.4336h-1.207v1.1133h3.957v-1.1133h-1.209v-5.4336h1.1641v-1.1133h-2.7051z" style="paint-order:markers fill stroke"/>
   <path d="m35.514 58.908v-7.6354h2.474q1.4063 0 1.8333 0.11458 0.65625 0.17188 1.099 0.75 0.44271 0.57292 0.44271 1.4844 0 0.70313-0.25521 1.1823t-0.65104 0.75521q-0.39063 0.27083-0.79688 0.35938-0.55209 0.10938-1.599 0.10938h-1.0052v2.8802zm1.5417-6.3438v2.1667h0.84375q0.91146 0 1.2188-0.11979 0.30729-0.11979 0.47917-0.375 0.17708-0.25521 0.17708-0.59375 0-0.41667-0.24479-0.6875t-0.61979-0.33854q-0.27604-0.05208-1.1094-0.05208z" stroke-linecap="round" stroke-linejoin="round" stroke-width="3" style="paint-order:markers fill stroke" aria-label="P"/>
   <path d="m34.299 58.908h-1.6771l-0.66667-1.7344h-3.0521l-0.63021 1.7344h-1.6354l2.974-7.6354h1.6302zm-2.8386-3.0208-1.0521-2.8333-1.0313 2.8333z" stroke-linecap="round" stroke-linejoin="round" stroke-width="3" style="paint-order:markers fill stroke" aria-label="A"/>
  </g>
  <path d="m155.28 230.63v12.801l12.799-6.4004zm-26.885 5.0664v2.666h3.5547v-2.666zm7.1133 0v2.666h3.5547v-2.666zm7.1094 0v2.666h3.5566v-2.666zm7.1113 0v2.666h3.5547v-2.666z" fill="#a12e9d" filter="url(#filter233)" stroke-dasharray="2.66667, 2.66667" stroke-width="1.3333"/>
  <path d="m137.79 243.89-12.801 6.4004 12.801 6.4004zm1.9961 5.0664v2.666h3.5547v-2.666zm7.1094 0v2.666h3.5566v-2.666zm7.1113 0v2.666h3.5547v-2.666zm7.1113 0v2.666h3.5547v-2.666z" fill="#4185f3" filter="url(#filter214)" stroke-dasharray="2.66667, 2.66667" stroke-width="1.3333"/>
  <path transform="matrix(-1.3333 0 0 -1.3333 163.68 250.29)" d="m0 0h21.163" fill="none" stroke="#4185f3" stroke-dasharray="2, 2" stroke-width="2"/>
  <path transform="matrix(1.3333 0 0 -1.3333 0 540)" d="m102.6 222.08-9.6001-4.8 9.6001-4.8z" fill="#4185f3"/>
  <path transform="matrix(1.3333 0 0 1.3333 127.99 237.03)" d="m0 0h21.163" fill="none" stroke="#a12e9d" stroke-dasharray="2, 2" stroke-width="2"/>
  <path transform="matrix(1.3333 0 0 -1.3333 0 540)" d="m116.16 222.42 9.6 4.8-9.6 4.8z" fill="#a12e9d"/>
  <g transform="translate(109.6)">
   <path d="m155.28 230.63v12.801l12.799-6.4004zm-26.885 5.0664v2.666h3.5547v-2.666zm7.1133 0v2.666h3.5547v-2.666zm7.1094 0v2.666h3.5566v-2.666zm7.1113 0v2.666h3.5547v-2.666z" fill="#a12e9d" filter="url(#filter233)" stroke-dasharray="2.66667, 2.66667" stroke-width="1.3333"/>
   <path d="m137.79 243.89-12.801 6.4004 12.801 6.4004zm1.9961 5.0664v2.666h3.5547v-2.666zm7.1094 0v2.666h3.5566v-2.666zm7.1113 0v2.666h3.5547v-2.666zm7.1113 0v2.666h3.5547v-2.666z" fill="#4185f3" filter="url(#filter214)" stroke-dasharray="2.66667, 2.66667" stroke-width="1.3333"/>
   <path transform="matrix(-1.3333 0 0 -1.3333 163.68 250.29)" d="m0 0h21.163" fill="none" stroke="#4185f3" stroke-dasharray="2, 2" stroke-width="2"/>
   <path transform="matrix(1.3333 0 0 -1.3333 0 540)" d="m102.6 222.08-9.6001-4.8 9.6001-4.8z" fill="#4185f3"/>
   <path transform="matrix(1.3333 0 0 1.3333 127.99 237.03)" d="m0 0h21.163" fill="none" stroke="#a12e9d" stroke-dasharray="2, 2" stroke-width="2"/>
   <path transform="matrix(1.3333 0 0 -1.3333 0 540)" d="m116.16 222.42 9.6 4.8-9.6 4.8z" fill="#a12e9d"/>
  </g>
 </g>
 <g transform="matrix(1.0678 0 0 1.0678 .80218 5.0933)">
  <path d="m53.113 28.954-36.299 0.0034c-0.52128 4.17e-4 -1.0439 0.0257-1.5636 0.06996-2.2846 0.19452-4.3978 2.3831-4.5643 4.8755-0.12043 1.8021-0.09943 3.6186-0.07817 5.4278 0.01488 1.2699 0.41064 2.4349 1.1408 3.4326 1.1289 1.5425 2.6457 2.155 4.4123 2.1544 9.1582-0.0024 18.316-1e-3 27.475-0.0034-0.46322 0.70825-0.8698 1.4936-1.2132 2.3524l-25.608 0.0024c-0.52128 4.18e-4 -1.0439 0.0257-1.5636 0.06996-2.2846 0.19452-4.3978 2.3831-4.5643 4.8754-0.12043 1.8021-0.09943 3.6186-0.07817 5.4278 0.01488 1.2699 0.41064 2.4349 1.1408 3.4326 1.1289 1.5425 2.6457 2.155 4.4123 2.1544 6.4251-0.0017 12.85-0.0022 19.275-0.0024 1.0666 1.9981 3.1238 3.5032 6.2527 3.5014 7.7751-0.15689 15.572 0.30652 23.339-0.23873 1.9559-0.14412 3.549-1.1084 4.5884-2.9605 2.4943-4.4445-0.04332-10.055-4.7905-10.647-0.98084-0.12228-0.97669-0.12254-1.0375-1.1972-0.15158-2.6782-0.83766-5.1483-2.4999-7.1812-0.8754-1.1944-1.9082-2.1488-3.0319-2.876 0.24949-0.6259 0.4135-1.3255 0.46712-2.1001 0.12454-1.799 0.0822-3.624-0.0257-5.4271-0.1277-2.1338-1.196-3.6459-2.9452-4.5775-0.83235-0.44328-1.7246-0.56925-2.6391-0.56911zm-36.895 1.4999c7.1889 0.0094 14.266 0.05626 37.138 0.07577 1.7015 0.0014 3.0307 0.72626 3.7523 2.4474 0.26628 0.63512 0.35547 1.3938 0.38897 2.1039 0.06012 1.2744 0.02232 2.5545 0.01584 3.8322-0.0038 0.7793-0.13678 1.4764-0.37693 2.0811-4.1134-2.0112-9.1181-1.1773-12.405 2.4879-9.5329-0.02112-19.066-0.07423-28.599-0.05611-1.7031-0.0012-3.0142-0.73634-3.7531-2.4499-0.231-0.53562-0.35589-1.1684-0.37591-1.7628-0.05129-1.5234-0.08333-3.0544-0.0012-4.5746 0.14213-2.6316 1.7432-4.1882 4.2154-4.185zm36.214 10.612c0.32391-0.0041 0.65281 0.0091 0.98691 0.03979 2.1882 0.20033 4.028 1.2168 5.6772 2.7465 2.4252 2.2495 3.458 5.174 3.5174 8.5807 0.03019 1.7292 0.02695 1.7189 1.601 1.7628 1.5399 0.04291 2.8962 0.55898 3.9554 1.8584 2.5989 3.1886 1.2314 9.4765-4.6515 9.4809-7.3294 0.0055-14.659 0.0055-21.988 6.27e-4 -1.5752-1e-3 -3.0499-0.36125-4.229-1.6088-1.4058-1.4872-1.8796-3.312-1.4822-5.3813 0.38527-2.0062 1.488-3.4051 3.2832-4.0023 0.8009-0.26647 1.6764-0.28014 2.5216-0.36659 0.78424-0.08023 0.87274-0.13985 0.86099-0.99092-0.02522-1.8287 0.18384-3.6068 0.81324-5.3192 0.63547-1.7288 1.6865-3.0962 2.9734-4.2737 1.8693-1.6274 3.8934-2.4986 6.1608-2.527zm-36.214 7.6998c5.4098 0.0072 13.324 0.03367 25.671 0.05522-0.29418 1.054-0.49897 2.2012-0.59814 3.4419-0.04126 0.51619-0.19248 0.67135-0.65263 0.69563-2.142 0.11304-3.9196 1.0287-5.1176 3.034-0.97869 1.6382-1.218 3.8137-0.66467 5.7785-6.241-0.02256-12.482-0.04495-18.723-0.0331-1.7031-0.0012-3.0142-0.73634-3.7531-2.4499-0.231-0.53562-0.35589-1.1684-0.37591-1.7628-0.05129-1.5234-0.08333-3.0544-0.0012-4.5746 0.14213-2.6316 1.7432-4.1882 4.2154-4.185z" fill="#757272" stroke-width=".10935"/>
  <g transform="matrix(.10449 0 0 .11445 9.3381 4.3163)">
   <path d="m418.95 55.276c8.7519-0.0012 17.291 1.1 25.258 4.9732 16.742 8.1399 26.965 21.351 28.187 39.996 1.0327 15.755 1.4378 31.7 0.24591 47.419-2.1997 29.009-22.606 46.961-51.942 47.054-118.47 0.0919-236.94 0.01-355.41 0.0397-16.908 5e-3 -31.425-5.3455-42.229-18.823-6.9878-8.7173-10.775-18.897-10.918-29.992-0.2036-15.808-0.40432-31.681 0.74836-47.427 1.5942-21.777 21.818-40.899 43.683-42.599 4.9745-0.38667 9.9753-0.6068 14.964-0.61056m349.42 127.06c24.479-0.047 39.97-15.66 40.102-40.075 0.0607-11.164 0.42324-22.351-0.15223-33.486-0.32061-6.2042-1.1758-12.833-3.7243-18.383-6.9064-15.039-19.626-21.371-35.911-21.384-218.9-0.17048-286.63-0.58048-355.44-0.66285-23.661-0.02832-38.983 13.572-40.343 36.566-0.78575 13.283-0.4801 26.661 0.01085 39.972 0.19157 5.1937 1.3877 10.721 3.5984 15.401 7.0726 14.972 19.621 21.395 35.92 21.407 118.64-0.20599 237.29 0.78207 355.93 0.64347z" fill="#757272"/>
   <path d="m271.83 118.61c42.256 0.054 84.082 0.12189 125.91 0.20211 1.4962 3e-3 3.0098 6e-3 4.4846 0.21995 3.5545 0.51653 5.2047 2.8704 5.2289 6.2519 0.0243 3.392-1.7131 5.7518-5.1355 6.4086-42.436 0.61715-84.987 0.17799-127.45 0.12121-0.83316-1e-3 -1.6674 0.0179-2.4993-0.0168-4.0946-0.17089-7.2961-1.6545-7.6204-6.2246-0.32345-4.5581 2.3094-6.6684 7.0878-6.9625z" fill="#777474"/>
   <path d="m162.07 140.88c-6.7872-11.04-6.9495-21.885 0.35764-32.155 6.7894-9.5418 16.496-13.331 28.031-11.019 11.744 2.3537 19.127 9.7433 21.856 21.379 2.9549 12.598-3.5626 25.502-15.331 31.115-12.189 5.8136-25.235 2.424-34.914-9.3204m37.58-11.883c1.5102-6.1793-0.53348-11.362-5.2717-15.161-4.999-4.0088-10.791-4.3148-16.417-1.202-5.2756 2.9192-7.6992 7.6399-7.4327 13.692 0.28177 6.3988 4.5074 11.695 10.77 13.511 10.567 3.0641 17.345-6.7266 18.351-10.84z" fill="#757373"/>
   <path d="m132.51 134.44c-6.837 16.326-23.555 22.906-38.785 15.591-13.894-6.6743-19.436-24.527-11.929-38.433 6.6189-12.262 21.708-17.626 34.817-12.377 14.05 5.6265 20.337 19.305 15.897 35.219m-30.284 5.4226c8.52 1.391 15.689-2.3925 18.096-9.551 2.3815-7.0808-0.78672-14.916-7.3798-18.252-7.5991-3.8444-16.652-0.79621-20.334 6.8465-3.8752 8.0442-0.22756 16.595 9.6175 20.956z" fill="#757373"/>
  </g>
  <g transform="matrix(.10449 0 0 .11445 9.3381 22.628)">
   <path d="m271.83 118.61c42.256 0.054 84.082 0.12189 125.91 0.20211 1.4962 3e-3 3.0098 6e-3 4.4846 0.21995 3.5545 0.51653 5.2047 2.8704 5.2289 6.2519 0.0243 3.392-1.7131 5.7518-5.1355 6.4086-42.436 0.61715-84.987 0.17799-127.45 0.12121-0.83316-1e-3 -1.6674 0.0179-2.4993-0.0168-4.0946-0.17089-7.2961-1.6545-7.6204-6.2246-0.32345-4.5581 2.3094-6.6684 7.0878-6.9625z" fill="#777474"/>
   <path d="m162.07 140.88c-6.7872-11.04-6.9495-21.885 0.35764-32.155 6.7894-9.5418 16.496-13.331 28.031-11.019 11.744 2.3537 19.127 9.7433 21.856 21.379 2.9549 12.598-3.5626 25.502-15.331 31.115-12.189 5.8136-25.235 2.424-34.914-9.3204m37.58-11.883c1.5102-6.1793-0.53348-11.362-5.2717-15.161-4.999-4.0088-10.791-4.3148-16.417-1.202-5.2756 2.9192-7.6992 7.6399-7.4327 13.692 0.28177 6.3988 4.5074 11.695 10.77 13.511 10.567 3.0641 17.345-6.7266 18.351-10.84z" fill="#757373"/>
   <path d="m132.51 134.44c-6.837 16.326-23.555 22.906-38.785 15.591-13.894-6.6743-19.436-24.527-11.929-38.433 6.6189-12.262 21.708-17.626 34.817-12.377 14.05 5.6265 20.337 19.305 15.897 35.219m-30.284 5.4226c8.52 1.391 15.689-2.3925 18.096-9.551 2.3815-7.0808-0.78672-14.916-7.3798-18.252-7.5991-3.8444-16.652-0.79621-20.334 6.8465-3.8752 8.0442-0.22756 16.595 9.6175 20.956z" fill="#757373"/>
  </g>
  <g transform="matrix(.10449 0 0 .11445 9.3381 40.94)" fill="#757373">
   <path d="m162.07 140.88c-6.7872-11.04-6.9495-21.885 0.35764-32.155 6.7894-9.5418 16.496-13.331 28.031-11.019 11.744 2.3537 19.127 9.7433 21.856 21.379 2.9549 12.598-3.5626 25.502-15.331 31.115-12.189 5.8136-25.235 2.424-34.914-9.3204m37.58-11.883c1.5102-6.1793-0.53348-11.362-5.2717-15.161-4.999-4.0088-10.791-4.3148-16.417-1.202-5.2756 2.9192-7.6992 7.6399-7.4327 13.692 0.28177 6.3988 4.5074 11.695 10.77 13.511 10.567 3.0641 17.345-6.7266 18.351-10.84z"/>
   <path d="m132.51 134.44c-6.837 16.326-23.555 22.906-38.785 15.591-13.894-6.6743-19.436-24.527-11.929-38.433 6.6189-12.262 21.708-17.626 34.817-12.377 14.05 5.6265 20.337 19.305 15.897 35.219m-30.284 5.4226c8.52 1.391 15.689-2.3925 18.096-9.551 2.3815-7.0808-0.78672-14.916-7.3798-18.252-7.5991-3.8444-16.652-0.79621-20.334 6.8465-3.8752 8.0442-0.22756 16.595 9.6175 20.956z"/>
  </g>
 </g>
</svg>
