<?xml version="1.0" encoding="UTF-8" standalone="no"?><!DOCTYPE svg PUBLIC "-//W3C//DTD SVG 1.1//EN" "http://www.w3.org/Graphics/SVG/1.1/DTD/svg11.dtd"><svg width="100%" height="100%" viewBox="0 0 391 255" version="1.1" xmlns="http://www.w3.org/2000/svg" xmlns:xlink="http://www.w3.org/1999/xlink" xml:space="preserve" xmlns:serif="http://www.serif.com/" style="fill-rule:evenodd;clip-rule:evenodd;stroke-linejoin:round;stroke-miterlimit:2;"><text x="30.58px" y="12.885px" style="font-family:'Arial-BoldMT', 'Arial', sans-serif;font-weight:700;font-size:18px;fill:#4280ce;">Pay-as-you-go resource marketplace</text><text x="260.63px" y="109.748px" style="font-family:'ArialMT', 'Arial', sans-serif;font-size:12px;">Amazon DynamoDB</text><text x="156.08px" y="109.748px" style="font-family:'ArialMT', 'Arial', sans-serif;font-size:12px;">Amazon S3</text><text x="34.823px" y="110.18px" style="font-family:'ArialMT', 'Arial', sans-serif;font-size:12px;">Amazon EC2</text><text x="179.769px" y="172.938px" style="font-family:'Arial-BoldMT', 'Arial', sans-serif;font-weight:700;font-size:18px;fill:#656565;">Amazon W<tspan x="271.442px 281.453px " y="172.938px 172.938px ">eb</tspan> Services</text><g transform="matrix(18,0,0,18,197.597,201.113)"></g><g transform="matrix(18,0,0,18,202.598,201.113)"></g><text x="161.577px" y="201.113px" style="font-family:'ArialMT', 'Arial', sans-serif;font-size:18px;fill:#656565;">The ﬁrst popular public cloud</text><g id="Icon-Architecture-Group-32-AWS-Cloud-logo_32" serif:id="Icon-Architecture-Group/32/AWS-Cloud-logo_32"><path id="Fill-1" d="M104.329,186.485c-1.749,0 -3.459,-0.186 -5.123,-0.565c-1.672,-0.383 -2.95,-0.815 -3.838,-1.31c-0.544,-0.295 -0.885,-0.604 -1.022,-0.906c-0.133,-0.309 -0.204,-0.611 -0.204,-0.913l0,-1.647c0,-0.681 0.257,-1.028 0.759,-1.028c0.193,-0 0.397,0.045 0.607,0.115c0.215,0.081 0.495,0.194 0.847,0.345c1.123,0.495 2.342,0.87 3.665,1.137c1.321,0.264 2.637,0.397 3.954,0.397c2.096,0 3.715,-0.358 4.86,-1.081c1.148,-0.717 1.717,-1.739 1.717,-3.066c-0,-0.913 -0.299,-1.668 -0.903,-2.279c-0.6,-0.611 -1.717,-1.169 -3.342,-1.703l-4.828,-1.478c-2.448,-0.758 -4.221,-1.857 -5.327,-3.294c-1.106,-1.446 -1.657,-3.016 -1.657,-4.729c-0,-1.359 0.298,-2.56 0.906,-3.606c0.596,-1.043 1.386,-1.932 2.373,-2.672c1.001,-0.738 2.156,-1.293 3.473,-1.679c1.313,-0.376 2.711,-0.569 4.185,-0.569c0.738,0 1.486,0.049 2.248,0.144c0.754,0.092 1.471,0.218 2.148,0.369c0.678,0.158 1.31,0.326 1.89,0.513c0.582,0.193 1.046,0.382 1.401,0.568c0.46,0.264 0.786,0.531 0.986,0.797c0.193,0.264 0.292,0.622 0.292,1.082l-0,1.531c-0,0.685 -0.253,1.022 -0.762,1.022c-0.271,-0 -0.692,-0.127 -1.278,-0.394c-1.896,-0.839 -4.038,-1.25 -6.394,-1.25c-1.904,0 -3.382,0.302 -4.428,0.906c-1.05,0.611 -1.573,1.577 -1.573,2.904c-0,0.906 0.33,1.675 0.993,2.3c0.661,0.625 1.879,1.222 3.666,1.794l4.712,1.482c2.406,0.752 4.123,1.798 5.148,3.118c1.032,1.331 1.548,2.844 1.548,4.547c0,1.408 -0.291,2.669 -0.877,3.786c-0.583,1.12 -1.387,2.071 -2.42,2.868c-1.025,0.797 -2.254,1.401 -3.69,1.819c-1.44,0.421 -3.009,0.625 -4.712,0.625Zm-42.715,-0.857c-0.583,0 -1.008,-0.094 -1.282,-0.305c-0.274,-0.214 -0.506,-0.636 -0.699,-1.282l-7.802,-25.13c-0.186,-0.646 -0.288,-1.078 -0.288,-1.303c0,-0.53 0.274,-0.797 0.818,-0.797l3.255,0c0.622,0 1.057,0.105 1.314,0.316c0.249,0.204 0.47,0.625 0.663,1.278l5.587,21.489l5.186,-21.489c0.154,-0.653 0.365,-1.074 0.635,-1.278c0.271,-0.211 0.717,-0.316 1.335,-0.316l2.686,0c0.614,0 1.06,0.105 1.334,0.316c0.271,0.204 0.485,0.625 0.639,1.278l5.243,21.774l5.758,-21.774c0.193,-0.653 0.415,-1.074 0.667,-1.278c0.257,-0.211 0.689,-0.316 1.31,-0.316l3.083,0c0.548,0 0.818,0.267 0.818,0.797c0,0.144 -0.024,0.32 -0.056,0.506c-0.046,0.196 -0.116,0.46 -0.239,0.797l-8.027,25.13c-0.193,0.646 -0.428,1.068 -0.702,1.282c-0.27,0.211 -0.699,0.305 -1.278,0.305l-2.855,0c-0.618,0 -1.064,-0.105 -1.334,-0.33c-0.27,-0.228 -0.485,-0.67 -0.639,-1.309l-5.183,-20.928l-5.116,20.928c-0.154,0.639 -0.372,1.081 -0.642,1.309c-0.274,0.225 -0.717,0.33 -1.338,0.33l-2.851,0Zm-26.714,-3.518c1.092,0 2.233,-0.2 3.437,-0.597c1.201,-0.4 2.247,-1.088 3.139,-2.079c0.548,-0.604 0.92,-1.295 1.138,-2.075c0.211,-0.772 0.312,-1.71 0.312,-2.812l0,-1.363c-0.962,-0.228 -1.98,-0.407 -3.051,-0.54c-1.067,-0.13 -2.103,-0.201 -3.114,-0.201c-2.209,0 -3.863,0.436 -4.944,1.31c-1.085,0.871 -1.633,2.117 -1.633,3.757c-0,1.514 0.411,2.655 1.225,3.434c0.815,0.78 1.981,1.166 3.491,1.166Zm13.504,-4.944c0,1.212 0.123,2.174 0.376,2.897c0.256,0.723 0.614,1.503 1.078,2.331c0.154,0.267 0.232,0.513 0.232,0.734c-0,0.348 -0.215,0.671 -0.64,0.969l-2.096,1.37c-0.309,0.186 -0.6,0.284 -0.871,0.284c-0.354,0 -0.681,-0.151 -0.99,-0.453c-0.47,-0.46 -0.864,-0.958 -1.19,-1.51c-0.337,-0.547 -0.674,-1.19 -1.022,-1.91c-2.602,2.995 -5.857,4.495 -9.775,4.495c-2.795,-0 -5.007,-0.773 -6.64,-2.332c-1.626,-1.552 -2.441,-3.637 -2.441,-6.25c0,-2.763 1.008,-4.996 3.031,-6.682c2.012,-1.685 4.733,-2.532 8.142,-2.532c1.128,0 2.3,0.088 3.522,0.257c1.219,0.168 2.493,0.411 3.806,0.713l0,-2.385c0,-2.465 -0.516,-4.199 -1.566,-5.207c-1.046,-1.004 -2.847,-1.503 -5.407,-1.503c-1.169,0 -2.363,0.137 -3.585,0.422c-1.218,0.284 -2.416,0.653 -3.578,1.106c-0.544,0.228 -0.934,0.372 -1.162,0.428c-0.232,0.056 -0.408,0.084 -0.523,0.084c-0.464,0 -0.703,-0.337 -0.703,-1.025l0,-1.587c0,-0.534 0.085,-0.913 0.239,-1.134c0.155,-0.232 0.464,-0.46 0.931,-0.685c1.162,-0.572 2.559,-1.064 4.185,-1.478c1.633,-0.418 3.357,-0.629 5.183,-0.629c3.953,0 6.854,0.889 8.697,2.644c1.84,1.763 2.767,4.425 2.767,7.989l0,10.579Z" style="fill:#242f3e;"/><path id="Fill-11" serif:id="Fill-1" d="M111.857,204.797c-10.994,7.981 -26.939,12.222 -40.668,12.222c-19.235,0 -36.567,-6.998 -49.674,-18.641c-1.033,-0.909 -0.116,-2.163 1.12,-1.454c14.147,8.097 31.647,12.975 49.706,12.975c12.195,-0 25.587,-2.49 37.922,-7.631c1.854,-0.776 3.413,1.201 1.594,2.529Z" style="fill:#f69411;"/><path id="Fill-12" serif:id="Fill-1" d="M114.814,197.742c-1.265,-1.643 -8.368,-0.783 -11.556,-0.389c-0.966,0.112 -1.117,-0.745 -0.242,-1.366c5.66,-4.035 14.944,-2.873 16.022,-1.517c1.092,1.362 -0.285,10.811 -5.597,15.32c-0.815,0.691 -1.595,0.33 -1.229,-0.59c1.197,-3.034 3.869,-9.811 2.602,-11.458Z" style="fill:#f69411;"/></g><g id="Icon-Architecture-64-Arch_Amazon-EC2_64" serif:id="Icon-Architecture/64/Arch_Amazon-EC2_64"><g id="Icon-Architecture-BG-64-Compute" serif:id="Icon-Architecture-BG/64/Compute"><rect id="Rectangle" x="40.106" y="35.391" width="60" height="60" style="fill:#ed7100;"/></g><path id="Amazon-EC2_Icon_64_Squid" d="M60.356,75.141l18.75,-0l0,-18.75l-18.75,-0l0,18.75Zm20.25,-18.75l3,-0l0,1.5l-3,-0l0,3l3,-0l0,1.5l-3,-0l0,2.25l3,-0l0,1.5l-3,-0l0,3l3,-0l0,1.5l-3,-0l0,3l3,-0l0,1.5l-3,-0l0,0.102c0,0.771 -0.627,1.398 -1.398,1.398l-0.102,-0l0,3l-1.5,-0l0,-3l-3,-0l0,3l-1.5,-0l0,-3l-2.25,-0l0,3l-1.5,-0l0,-3l-3,-0l0,3l-1.5,-0l0,-3l-3,-0l0,3l-1.5,-0l0,-3l-0.102,-0c-0.771,-0 -1.398,-0.627 -1.398,-1.398l0,-0.102l-2.25,-0l0,-1.5l2.25,-0l0,-3l-2.25,-0l0,-1.5l2.25,-0l0,-3l-2.25,-0l0,-1.5l2.25,-0l0,-2.25l-2.25,-0l0,-1.5l2.25,-0l0,-3l-2.25,-0l0,-1.5l2.25,-0l0,-0.102c0,-0.771 0.627,-1.398 1.398,-1.398l0.102,-0l0,-3l1.5,-0l0,3l3,-0l0,-3l1.5,-0l0,3l3,-0l0,-3l1.5,-0l0,3l2.25,-0l0,-3l1.5,-0l0,3l3,-0l0,-3l1.5,-0l0,3l0.102,-0c0.771,-0 1.398,0.627 1.398,1.398l0,0.102Zm-9.75,28.407c0,0.051 -0.042,0.093 -0.093,0.093l-20.064,-0c-0.051,-0 -0.093,-0.042 -0.093,-0.093l0,-20.064c0,-0.051 0.042,-0.093 0.093,-0.093l4.407,-0l0,-1.5l-4.407,-0c-0.878,-0 -1.593,0.715 -1.593,1.593l0,20.064c0,0.878 0.715,1.593 1.593,1.593l20.064,-0c0.878,-0 1.593,-0.715 1.593,-1.593l0,-3.657l-1.5,-0l0,3.657Zm20.25,-38.814l0,20.064c0,0.878 -0.715,1.593 -1.593,1.593l-4.407,-0l0,-1.5l4.407,-0c0.051,-0 0.093,-0.042 0.093,-0.093l0,-20.064c0,-0.051 -0.042,-0.093 -0.093,-0.093l-20.064,-0c-0.051,-0 -0.093,0.042 -0.093,0.093l0,4.407l-1.5,-0l0,-4.407c0,-0.878 0.715,-1.593 1.593,-1.593l20.064,-0c0.878,-0 1.593,0.715 1.593,1.593Z" style="fill:#fff;"/></g><g id="Icon-Architecture-48-Arch_Amazon-Simple-Storage-Service_48" serif:id="Icon-Architecture/48/Arch_Amazon-Simple-Storage-Service_48"><g id="Icon-Architecture-BG-48-Storage" serif:id="Icon-Architecture-BG/48/Storage"><rect id="Rectangle1" serif:id="Rectangle" x="158.146" y="34.959" width="60" height="60" style="fill:#7aa116;"/></g><g id="Icon-Service-48-Amazon-Simple-Storage-Service_48" serif:id="Icon-Service/48/Amazon-Simple-Storage-Service_48"><path id="Amazon-Simple-Storage-Service-Icon_48_Squid" d="M202.92,66.785l0.219,-1.703c2.038,1.175 2.671,1.865 2.854,2.149c-0.304,0.058 -1.129,0.08 -3.073,-0.446Zm-16.18,-12.139c-9.727,0 -16.048,-2.355 -16.406,-4.035l-0,-0.173c0.327,-1.049 5.756,-4.229 16.406,-4.229c10.631,-0 16.061,3.17 16.406,4.223l0,0.104c-0.259,1.716 -6.599,4.11 -16.406,4.11Zm14.36,11.59c-4.467,-1.467 -10.224,-4.109 -12.397,-5.132c-0.055,-1.033 -0.906,-1.858 -1.952,-1.858c-1.082,-0 -1.963,0.88 -1.963,1.963c-0,1.082 0.881,1.963 1.963,1.963c0.428,0 0.822,-0.142 1.145,-0.376c2.249,1.059 8.33,3.849 12.961,5.332l-1.614,12.51c-0.238,1.526 -4.61,3.071 -12.506,3.071c-7.898,-0 -12.274,-1.545 -12.508,-3.046l-3.488,-27.128c3.291,1.969 9.67,2.986 15.999,2.986c6.328,0 12.707,-1.017 15.998,-2.985l-1.638,12.7Zm3.921,-15.808c0,-2.877 -7.818,-6.094 -18.281,-6.094c-10.464,-0 -18.281,3.217 -18.281,6.094l-0,0.509l3.913,29.99c0.657,4.203 10.264,4.657 14.365,4.657c4.099,-0 13.702,-0.454 14.363,-4.681l1.578,-12.244c1.197,0.312 2.167,0.477 2.921,0.477c0.928,-0 1.553,-0.237 1.95,-0.711c0.329,-0.39 0.458,-0.882 0.364,-1.384c-0.214,-1.145 -1.577,-2.352 -4.42,-3.916l-0.094,-0.051l1.622,-12.136l0,-0.51Z" style="fill:#fff;"/></g></g><g id="Icon-Architecture-32-Arch_Amazon-DynamoDB_32" serif:id="Icon-Architecture/32/Arch_Amazon-DynamoDB_32"><g id="Icon-Architecture-BG-32-Database" serif:id="Icon-Architecture-BG/32/Database"><rect id="Rectangle2" serif:id="Rectangle" x="285.268" y="35.391" width="59.568" height="59.568" style="fill:#c925d1;"/></g><path id="Amazon-DynamoDB_Icon_32_Squid" d="M324.086,81.584l-0,-4.267c-2.273,1.947 -6.99,3.23 -12.715,3.23c-5.73,-0 -10.446,-1.285 -12.72,-3.233l0,4.262l0.002,0c-0,2.102 5.222,4.445 12.718,4.445c7.485,-0 12.703,-2.338 12.715,-4.437Zm0.001,-12.173l1.47,-0.009l-0,0.009c-0,0.929 -0.464,1.796 -1.349,2.593c1.081,0.972 1.349,1.927 1.349,2.606c-0,0.005 -0.002,0.009 -0.002,0.012l0,6.954l0.002,0c-0,3.384 -6.098,5.937 -14.186,5.937c-8.047,-0 -14.119,-2.526 -14.182,-5.885c0,-0.013 -0.007,-0.023 -0.007,-0.037l-0,-6.984c-0,-0.004 0.003,-0.007 0.003,-0.012c0.003,-0.676 0.272,-1.622 1.341,-2.587c-1.066,-0.968 -1.337,-1.911 -1.343,-2.581c0,-0.003 -0.001,-0.006 -0.001,-0.009l-0,-6.984c-0,-0.004 0.003,-0.009 0.003,-0.012c0.003,-0.677 0.273,-1.623 1.343,-2.587c-1.068,-0.97 -1.339,-1.911 -1.345,-2.583c0,-0.003 -0.001,-0.006 -0.001,-0.007l-0,-6.985c-0,-0.008 0.004,-0.012 0.004,-0.02c0.03,-3.373 6.115,-5.914 14.185,-5.914c3.884,-0 7.616,0.64 10.236,1.753l-0.567,1.377c-2.447,-1.041 -5.972,-1.638 -9.669,-1.638c-7.496,-0 -12.718,2.342 -12.718,4.445c-0,2.103 5.222,4.446 12.718,4.446c0.206,0.001 0.4,-0 0.599,-0.009l0.061,1.49c-0.221,0.011 -0.441,0.011 -0.66,0.011c-5.73,-0 -10.446,-1.285 -12.72,-3.235l0,4.263l0.002,-0l-0,0.017c0.007,0.812 0.808,1.519 1.477,1.968c2.007,1.325 5.603,2.229 9.61,2.416l-0.069,1.49c-4.056,-0.188 -7.611,-1.06 -9.897,-2.396c-0.572,0.44 -1.121,1.031 -1.121,1.713c-0,2.102 5.222,4.445 12.718,4.445c0.739,-0 1.46,-0.026 2.164,-0.076l0.108,1.487c-0.74,0.054 -1.499,0.081 -2.272,0.081c-5.73,-0 -10.446,-1.283 -12.72,-3.233l0,4.261l0.002,-0c0.007,0.831 0.806,1.538 1.477,1.985c2.293,1.516 6.602,2.459 11.241,2.459l0.326,0l0,1.492l-0.326,0c-4.714,0 -8.98,-0.911 -11.596,-2.444c-0.571,0.44 -1.122,1.033 -1.122,1.716c-0,2.102 5.222,4.445 12.718,4.445c7.482,-0 12.699,-2.335 12.715,-4.436l-0,-0.013c-0.001,-0.678 -0.547,-1.267 -1.115,-1.706c-0.363,0.214 -0.753,0.418 -1.194,0.606l-0.568,-1.374c0.539,-0.231 1.009,-0.48 1.397,-0.743c0.676,-0.457 1.481,-1.171 1.481,-1.978Zm7.875,-12.444l-4.889,0c-0.236,0 -0.458,-0.116 -0.596,-0.311c-0.138,-0.196 -0.175,-0.446 -0.099,-0.675l2.166,-6.473l-9.722,-0l-4.647,8.951l4.719,0c0.23,0 0.446,0.109 0.584,0.294c0.139,0.184 0.185,0.424 0.125,0.649l-4.047,15.053l16.406,-17.488Zm2.248,-0.231l-19.596,20.888c-0.144,0.152 -0.338,0.231 -0.534,0.231c-0.123,0 -0.248,-0.031 -0.361,-0.095c-0.292,-0.169 -0.436,-0.518 -0.347,-0.848l4.561,-16.961l-4.977,0c-0.257,0 -0.496,-0.137 -0.629,-0.361c-0.133,-0.223 -0.142,-0.501 -0.022,-0.732l5.424,-10.444c0.128,-0.245 0.378,-0.398 0.65,-0.398l11.191,-0c0.238,-0 0.46,0.116 0.598,0.311c0.137,0.196 0.175,0.447 0.098,0.675l-2.167,6.474l5.578,-0c0.295,-0 0.56,0.177 0.676,0.452c0.115,0.274 0.059,0.592 -0.143,0.808Zm-34.455,24.88c0.851,0.496 1.892,0.933 3.096,1.297l0.419,-1.429c-1.094,-0.332 -2.03,-0.722 -2.783,-1.161l-0.732,1.293Zm3.096,-10.769l0.419,-1.429c-1.091,-0.33 -2.027,-0.721 -2.783,-1.162l-0.732,1.295c0.854,0.498 1.895,0.934 3.096,1.296Zm-3.096,-13.363l0.732,-1.294c0.752,0.439 1.689,0.831 2.783,1.162l-0.419,1.43c-1.205,-0.364 -2.245,-0.801 -3.096,-1.298Z" style="fill:#fff;"/></g></svg>