<?xml version="1.0" encoding="UTF-8"?>
<!-- Created with Inkscape (http://www.inkscape.org/) -->
<svg width="885" height="265" version="1.1" viewBox="0 0 885 265" xmlns="http://www.w3.org/2000/svg" xmlns:xlink="http://www.w3.org/1999/xlink">
 <defs>
  <filter id="filter512" x="-.11739" y="-.61548" width="1.2348" height="2.4233" color-interpolation-filters="sRGB">
   <feFlood flood-color="rgb(0,0,0)" flood-opacity=".49804" in="SourceGraphic" result="flood"/>
   <feGaussianBlur in="SourceGraphic" result="blur" stdDeviation="2.000000"/>
   <feOffset dx="0.000000" dy="1.500000" in="blur" result="offset"/>
   <feComposite in="flood" in2="offset" operator="in" result="comp1"/>
   <feComposite in="SourceGraphic" in2="comp1" result="comp2"/>
  </filter>
  <linearGradient id="linearGradient51" x1="7.0979" x2="7.0099" y1="14.852" y2="-1.005" gradientUnits="userSpaceOnUse" xlink:href="#linearGradient6"/>
  <linearGradient id="linearGradient6">
   <stop stop-color="#909090" offset="0"/>
   <stop stop-color="#ddd" offset="1"/>
  </linearGradient>
  <filter id="filter49-2" x="-.41924" y="-.41924" width="1.8385" height="1.9468" color-interpolation-filters="sRGB">
   <feFlood flood-color="rgb(0,0,0)" flood-opacity=".49804" in="SourceGraphic" result="flood"/>
   <feGaussianBlur in="SourceGraphic" result="blur" stdDeviation="2.000000"/>
   <feOffset dx="0.000000" dy="1.500000" in="blur" result="offset"/>
   <feComposite in="flood" in2="offset" operator="in" result="comp1"/>
   <feComposite in="SourceGraphic" in2="comp1" result="comp2"/>
  </filter>
 </defs>
 <text x="747.854" y="134.87622" font-size="16px" stroke-width="1.3333" xml:space="preserve"><tspan x="747.854 752.29883 761.198 770.09717 778.99634 786.99634" y="134.87622" fill="#525252" font-family="Arial" font-size="16px" stroke-width="1.3333">Ingest</tspan></text>
 <path d="m812.88 95.008c-0.3804 0.0182-0.752 0.13335-1.086 0.34375-0.6679 0.41844-1.0761 1.1538-1.0761 1.9492v34.002c0.1451-0.0288 0.2951-0.0469 0.455-0.0469h22.033l-5.6328-5.2559c-0.3952-0.36888-0.5829-0.79917-0.5664-1.291 0.016-0.49183 0.2041-0.92213 0.5664-1.291 0.3952-0.36889 0.8648-0.56081 1.4082-0.57617 0.5434-0.0153 1.013 0.16046 1.4082 0.52929l9.041 8.4375c0.1977 0.18444 0.3376 0.38444 0.42 0.59961 0.082 0.21518 0.123 0.44547 0.123 0.69141 0 0.24592-0.041 0.47816-0.123 0.69336-0.082 0.21516-0.2223 0.41519-0.42 0.59961l-9.041 8.4375c-0.3952 0.36888-0.8648 0.54467-1.4082 0.5293-0.5434-0.0153-1.013-0.20726-1.4082-0.57618-0.3623-0.36888-0.5499-0.79917-0.5664-1.291-0.016-0.49185 0.1713-0.92214 0.5664-1.291l5.6328-5.2559h-22.033c-0.1599 0-0.3099-0.018-0.455-0.0469v31.205c0.1451-0.0288 0.2951-0.0469 0.455-0.0469h22.033l-5.6328-5.2578c-0.3952-0.36888-0.5829-0.79917-0.5664-1.291 0.016-0.49185 0.2041-0.92212 0.5664-1.291 0.3952-0.36888 0.8648-0.56082 1.4082-0.57618 0.5434-0.0153 1.013 0.16242 1.4082 0.53125l9.041 8.4375c0.1977 0.18444 0.3376 0.38444 0.42 0.59961 0.082 0.21518 0.123 0.44547 0.123 0.69141 0 0.24592-0.041 0.47621-0.123 0.69141-0.082 0.21517-0.2223 0.41517-0.42 0.59961l-9.041 8.4375c-0.3952 0.36888-0.8648 0.54663-1.4082 0.53125-0.5434-0.0153-1.013-0.20726-1.4082-0.57618-0.3623-0.36888-0.5499-0.79917-0.5664-1.291-0.016-0.49186 0.1713-0.92214 0.5664-1.291l5.6328-5.2578h-22.033c-0.1599 0-0.3099-0.018-0.455-0.0469v32.83c0 0.79547 0.4082 1.5308 1.0761 1.9492 0.334 0.2104 0.7056 0.32555 1.086 0.34375 0.3804 0.019 0.7697-0.0564 1.123-0.23243l34.193-16.973c0.7795-0.38623 1.2734-1.1869 1.2734-2.0605v-71.281c0-0.8736-0.4939-1.6743-1.2734-2.0606l-34.193-16.973c-0.3533-0.17598-0.7426-0.25137-1.123-0.23242zm48.271 25.068c-4.5588 0-8.2304 3.6697-8.2304 8.2285v45.057c0 4.5588 3.6716 8.2285 8.2304 8.2285h9.7129c4.5589 0 8.2286-3.6697 8.2286-8.2285v-45.057c0-4.5588-3.6697-8.2285-8.2286-8.2285zm4.8555 6.9102a4.5 4.5 0 0 1 4.5 4.5 4.5 4.5 0 0 1-4.5 4.5 4.5 4.5 0 0 1-4.5-4.5 4.5 4.5 0 0 1 4.5-4.5zm0 11.699a4.5 4.5 0 0 1 4.5 4.5 4.5 4.5 0 0 1-4.5 4.5 4.5 4.5 0 0 1-4.5-4.5 4.5 4.5 0 0 1 4.5-4.5zm0 15.898c1.2287 0 2.2188 0.98813 2.2188 2.2168v14.971c0 1.2287-0.9901 2.2188-2.2188 2.2188s-2.2187-0.99007-2.2187-2.2188v-14.971c0-1.2287 0.99-2.2168 2.2187-2.2168z" fill="#157800" stroke-width="2.2796"/>
 <path transform="matrix(1.3333 0 0 1.3333 743.43 149.48)" d="m33.089-3.8993v3.1494h-33.089v1.5h33.089v3.1494l7.8003-3.8994z" color="#000000" fill="#909090" filter="url(#filter512)" stroke-linejoin="round" style="-inkscape-stroke:none"/>
 <text x="298.83939" y="17.270844" font-size="16px" stroke-width="1.3333" xml:space="preserve"><tspan x="298.83939 314.24631 326.11191 333.21591 345.08151 358.11191 364.03833 369.96472 382.99512 396.02551 407.89111 419.75671 426.86072 432.78711 445.8175" y="17.270844" fill="#346ac3" font-family="Arial" font-size="21.333px" font-weight="700" stroke-width="1.3333">Batch Ingestion</tspan></text>
 <g stroke-linejoin="round" stroke-width="2">
  <g transform="translate(-264.97 92.18)" fill="url(#linearGradient51)" stroke="#a7a7a7">
   <path transform="matrix(1.3333 0 0 1.3333 368.15 79.643)" d="m3.175 0h7.4965c0.9317 0 1.4907 0 1.8634 0.15559 0.5372 0.19554 0.9605 0.61876 1.156 1.156 0.1556 0.37268 0.1556 0.9317 0.1556 1.8634v7.4965c0 0.9317 0 1.4907-0.1556 1.8634-0.1955 0.5372-0.6188 0.9605-1.156 1.156-0.3727 0.1556-0.9317 0.1556-1.8634 0.1556h-7.4965c-0.9317 0-1.4907 0-1.8634-0.1556-0.53724-0.1955-0.96046-0.6188-1.156-1.156-0.15559-0.3727-0.15559-0.9317-0.15559-1.8634v-7.4965c0-0.9317 0-1.4907 0.15559-1.8634 0.19554-0.53724 0.61876-0.96046 1.156-1.156 0.37268-0.15559 0.9317-0.15559 1.8634-0.15559z" filter="url(#filter49-2)"/>
   <path transform="matrix(1.3333 0 0 1.3333 403.38 87.712)" d="m3.175 0h7.4965c0.9317 0 1.4907 0 1.8634 0.15559 0.5372 0.19554 0.9605 0.61876 1.156 1.156 0.1556 0.37268 0.1556 0.9317 0.1556 1.8634v7.4965c0 0.9317 0 1.4907-0.1556 1.8634-0.1955 0.5372-0.6188 0.9605-1.156 1.156-0.3727 0.1556-0.9317 0.1556-1.8634 0.1556h-7.4965c-0.9317 0-1.4907 0-1.8634-0.1556-0.53724-0.1955-0.96046-0.6188-1.156-1.156-0.15559-0.3727-0.15559-0.9317-0.15559-1.8634v-7.4965c0-0.9317 0-1.4907 0.15559-1.8634 0.19554-0.53724 0.61876-0.96046 1.156-1.156 0.37268-0.15559 0.9317-0.15559 1.8634-0.15559z" filter="url(#filter49-2)"/>
   <path transform="matrix(1.3333 0 0 1.3333 272.71 24.526)" d="m3.175 0h7.4965c0.9317 0 1.4907 0 1.8634 0.15559 0.5372 0.19554 0.9605 0.61876 1.156 1.156 0.1556 0.37268 0.1556 0.9317 0.1556 1.8634v7.4965c0 0.9317 0 1.4907-0.1556 1.8634-0.1955 0.5372-0.6188 0.9605-1.156 1.156-0.3727 0.1556-0.9317 0.1556-1.8634 0.1556h-7.4965c-0.9317 0-1.4907 0-1.8634-0.1556-0.53724-0.1955-0.96046-0.6188-1.156-1.156-0.15559-0.3727-0.15559-0.9317-0.15559-1.8634v-7.4965c0-0.9317 0-1.4907 0.15559-1.8634 0.19554-0.53724 0.61876-0.96046 1.156-1.156 0.37268-0.15559 0.9317-0.15559 1.8634-0.15559z" filter="url(#filter49-2)"/>
   <path transform="matrix(1.3333 0 0 1.3333 309.76 -20.828)" d="m3.175 0h7.4965c0.9317 0 1.4907 0 1.8634 0.15559 0.5372 0.19554 0.9605 0.61876 1.156 1.156 0.1556 0.37268 0.1556 0.9317 0.1556 1.8634v7.4965c0 0.9317 0 1.4907-0.1556 1.8634-0.1955 0.5372-0.6188 0.9605-1.156 1.156-0.3727 0.1556-0.9317 0.1556-1.8634 0.1556h-7.4965c-0.9317 0-1.4907 0-1.8634-0.1556-0.53724-0.1955-0.96046-0.6188-1.156-1.156-0.15559-0.3727-0.15559-0.9317-0.15559-1.8634v-7.4965c0-0.9317 0-1.4907 0.15559-1.8634 0.19554-0.53724 0.61876-0.96046 1.156-1.156 0.37268-0.15559 0.9317-0.15559 1.8634-0.15559z" filter="url(#filter49-2)"/>
   <path transform="matrix(1.3333 0 0 1.3333 349.02 -31.387)" d="m3.175 0h7.4965c0.9317 0 1.4907 0 1.8634 0.15559 0.5372 0.19554 0.9605 0.61876 1.156 1.156 0.1556 0.37268 0.1556 0.9317 0.1556 1.8634v7.4965c0 0.9317 0 1.4907-0.1556 1.8634-0.1955 0.5372-0.6188 0.9605-1.156 1.156-0.3727 0.1556-0.9317 0.1556-1.8634 0.1556h-7.4965c-0.9317 0-1.4907 0-1.8634-0.1556-0.53724-0.1955-0.96046-0.6188-1.156-1.156-0.15559-0.3727-0.15559-0.9317-0.15559-1.8634v-7.4965c0-0.9317 0-1.4907 0.15559-1.8634 0.19554-0.53724 0.61876-0.96046 1.156-1.156 0.37268-0.15559 0.9317-0.15559 1.8634-0.15559z" filter="url(#filter49-2)"/>
   <path transform="matrix(1.3333 0 0 1.3333 413.87 -33.242)" d="m3.175 0h7.4965c0.9317 0 1.4907 0 1.8634 0.15559 0.5372 0.19554 0.9605 0.61876 1.156 1.156 0.1556 0.37268 0.1556 0.9317 0.1556 1.8634v7.4965c0 0.9317 0 1.4907-0.1556 1.8634-0.1955 0.5372-0.6188 0.9605-1.156 1.156-0.3727 0.1556-0.9317 0.1556-1.8634 0.1556h-7.4965c-0.9317 0-1.4907 0-1.8634-0.1556-0.53724-0.1955-0.96046-0.6188-1.156-1.156-0.15559-0.3727-0.15559-0.9317-0.15559-1.8634v-7.4965c0-0.9317 0-1.4907 0.15559-1.8634 0.19554-0.53724 0.61876-0.96046 1.156-1.156 0.37268-0.15559 0.9317-0.15559 1.8634-0.15559z" filter="url(#filter49-2)"/>
   <path transform="matrix(1.3333 0 0 1.3333 317.19 24.526)" d="m3.175 0h7.4965c0.9317 0 1.4907 0 1.8634 0.15559 0.5372 0.19554 0.9605 0.61876 1.156 1.156 0.1556 0.37268 0.1556 0.9317 0.1556 1.8634v7.4965c0 0.9317 0 1.4907-0.1556 1.8634-0.1955 0.5372-0.6188 0.9605-1.156 1.156-0.3727 0.1556-0.9317 0.1556-1.8634 0.1556h-7.4965c-0.9317 0-1.4907 0-1.8634-0.1556-0.53724-0.1955-0.96046-0.6188-1.156-1.156-0.15559-0.3727-0.15559-0.9317-0.15559-1.8634v-7.4965c0-0.9317 0-1.4907 0.15559-1.8634 0.19554-0.53724 0.61876-0.96046 1.156-1.156 0.37268-0.15559 0.9317-0.15559 1.8634-0.15559z" filter="url(#filter49-2)"/>
   <path transform="matrix(1.3333 0 0 1.3333 349.9 3.8921)" d="m3.175 0h7.4965c0.9317 0 1.4907 0 1.8634 0.15559 0.5372 0.19554 0.9605 0.61876 1.156 1.156 0.1556 0.37268 0.1556 0.9317 0.1556 1.8634v7.4965c0 0.9317 0 1.4907-0.1556 1.8634-0.1955 0.5372-0.6188 0.9605-1.156 1.156-0.3727 0.1556-0.9317 0.1556-1.8634 0.1556h-7.4965c-0.9317 0-1.4907 0-1.8634-0.1556-0.53724-0.1955-0.96046-0.6188-1.156-1.156-0.15559-0.3727-0.15559-0.9317-0.15559-1.8634v-7.4965c0-0.9317 0-1.4907 0.15559-1.8634 0.19554-0.53724 0.61876-0.96046 1.156-1.156 0.37268-0.15559 0.9317-0.15559 1.8634-0.15559z" filter="url(#filter49-2)"/>
   <path transform="matrix(1.3333 0 0 1.3333 385.99 -5.0369)" d="m3.175 0h7.4965c0.9317 0 1.4907 0 1.8634 0.15559 0.5372 0.19554 0.9605 0.61876 1.156 1.156 0.1556 0.37268 0.1556 0.9317 0.1556 1.8634v7.4965c0 0.9317 0 1.4907-0.1556 1.8634-0.1955 0.5372-0.6188 0.9605-1.156 1.156-0.3727 0.1556-0.9317 0.1556-1.8634 0.1556h-7.4965c-0.9317 0-1.4907 0-1.8634-0.1556-0.53724-0.1955-0.96046-0.6188-1.156-1.156-0.15559-0.3727-0.15559-0.9317-0.15559-1.8634v-7.4965c0-0.9317 0-1.4907 0.15559-1.8634 0.19554-0.53724 0.61876-0.96046 1.156-1.156 0.37268-0.15559 0.9317-0.15559 1.8634-0.15559z" filter="url(#filter49-2)"/>
   <path transform="matrix(1.3333 0 0 1.3333 424.32 -6.6789)" d="m3.175 0h7.4965c0.9317 0 1.4907 0 1.8634 0.15559 0.5372 0.19554 0.9605 0.61876 1.156 1.156 0.1556 0.37268 0.1556 0.9317 0.1556 1.8634v7.4965c0 0.9317 0 1.4907-0.1556 1.8634-0.1955 0.5372-0.6188 0.9605-1.156 1.156-0.3727 0.1556-0.9317 0.1556-1.8634 0.1556h-7.4965c-0.9317 0-1.4907 0-1.8634-0.1556-0.53724-0.1955-0.96046-0.6188-1.156-1.156-0.15559-0.3727-0.15559-0.9317-0.15559-1.8634v-7.4965c0-0.9317 0-1.4907 0.15559-1.8634 0.19554-0.53724 0.61876-0.96046 1.156-1.156 0.37268-0.15559 0.9317-0.15559 1.8634-0.15559z" filter="url(#filter49-2)"/>
   <path transform="matrix(1.3333 0 0 1.3333 414.94 36.014)" d="m3.175 0h7.4965c0.9317 0 1.4907 0 1.8634 0.15559 0.5372 0.19554 0.9605 0.61876 1.156 1.156 0.1556 0.37268 0.1556 0.9317 0.1556 1.8634v7.4965c0 0.9317 0 1.4907-0.1556 1.8634-0.1955 0.5372-0.6188 0.9605-1.156 1.156-0.3727 0.1556-0.9317 0.1556-1.8634 0.1556h-7.4965c-0.9317 0-1.4907 0-1.8634-0.1556-0.53724-0.1955-0.96046-0.6188-1.156-1.156-0.15559-0.3727-0.15559-0.9317-0.15559-1.8634v-7.4965c0-0.9317 0-1.4907 0.15559-1.8634 0.19554-0.53724 0.61876-0.96046 1.156-1.156 0.37268-0.15559 0.9317-0.15559 1.8634-0.15559z" filter="url(#filter49-2)"/>
   <path transform="matrix(1.3333 0 0 1.3333 367.68 37.68)" d="m3.175 0h7.4965c0.9317 0 1.4907 0 1.8634 0.15559 0.5372 0.19554 0.9605 0.61876 1.156 1.156 0.1556 0.37268 0.1556 0.9317 0.1556 1.8634v7.4965c0 0.9317 0 1.4907-0.1556 1.8634-0.1955 0.5372-0.6188 0.9605-1.156 1.156-0.3727 0.1556-0.9317 0.1556-1.8634 0.1556h-7.4965c-0.9317 0-1.4907 0-1.8634-0.1556-0.53724-0.1955-0.96046-0.6188-1.156-1.156-0.15559-0.3727-0.15559-0.9317-0.15559-1.8634v-7.4965c0-0.9317 0-1.4907 0.15559-1.8634 0.19554-0.53724 0.61876-0.96046 1.156-1.156 0.37268-0.15559 0.9317-0.15559 1.8634-0.15559z" filter="url(#filter49-2)"/>
   <path transform="matrix(1.3333 0 0 1.3333 392.61 55.146)" d="m3.175 0h7.4965c0.9317 0 1.4907 0 1.8634 0.15559 0.5372 0.19554 0.9605 0.61876 1.156 1.156 0.1556 0.37268 0.1556 0.9317 0.1556 1.8634v7.4965c0 0.9317 0 1.4907-0.1556 1.8634-0.1955 0.5372-0.6188 0.9605-1.156 1.156-0.3727 0.1556-0.9317 0.1556-1.8634 0.1556h-7.4965c-0.9317 0-1.4907 0-1.8634-0.1556-0.53724-0.1955-0.96046-0.6188-1.156-1.156-0.15559-0.3727-0.15559-0.9317-0.15559-1.8634v-7.4965c0-0.9317 0-1.4907 0.15559-1.8634 0.19554-0.53724 0.61876-0.96046 1.156-1.156 0.37268-0.15559 0.9317-0.15559 1.8634-0.15559z" filter="url(#filter49-2)"/>
   <path transform="matrix(1.3333 0 0 1.3333 298.06 79.643)" d="m3.175 0h7.4965c0.9317 0 1.4907 0 1.8634 0.15559 0.5372 0.19554 0.9605 0.61876 1.156 1.156 0.1556 0.37268 0.1556 0.9317 0.1556 1.8634v7.4965c0 0.9317 0 1.4907-0.1556 1.8634-0.1955 0.5372-0.6188 0.9605-1.156 1.156-0.3727 0.1556-0.9317 0.1556-1.8634 0.1556h-7.4965c-0.9317 0-1.4907 0-1.8634-0.1556-0.53724-0.1955-0.96046-0.6188-1.156-1.156-0.15559-0.3727-0.15559-0.9317-0.15559-1.8634v-7.4965c0-0.9317 0-1.4907 0.15559-1.8634 0.19554-0.53724 0.61876-0.96046 1.156-1.156 0.37268-0.15559 0.9317-0.15559 1.8634-0.15559z" filter="url(#filter49-2)"/>
   <path transform="matrix(1.3333 0 0 1.3333 329.85 62.136)" d="m3.175 0h7.4965c0.9317 0 1.4907 0 1.8634 0.15559 0.5372 0.19554 0.9605 0.61876 1.156 1.156 0.1556 0.37268 0.1556 0.9317 0.1556 1.8634v7.4965c0 0.9317 0 1.4907-0.1556 1.8634-0.1955 0.5372-0.6188 0.9605-1.156 1.156-0.3727 0.1556-0.9317 0.1556-1.8634 0.1556h-7.4965c-0.9317 0-1.4907 0-1.8634-0.1556-0.53724-0.1955-0.96046-0.6188-1.156-1.156-0.15559-0.3727-0.15559-0.9317-0.15559-1.8634v-7.4965c0-0.9317 0-1.4907 0.15559-1.8634 0.19554-0.53724 0.61876-0.96046 1.156-1.156 0.37268-0.15559 0.9317-0.15559 1.8634-0.15559z" filter="url(#filter49-2)"/>
   <path transform="matrix(1.3333 0 0 1.3333 326.62 123.35)" d="m3.175 0h7.4965c0.9317 0 1.4907 0 1.8634 0.15559 0.5372 0.19554 0.9605 0.61876 1.156 1.156 0.1556 0.37268 0.1556 0.9317 0.1556 1.8634v7.4965c0 0.9317 0 1.4907-0.1556 1.8634-0.1955 0.5372-0.6188 0.9605-1.156 1.156-0.3727 0.1556-0.9317 0.1556-1.8634 0.1556h-7.4965c-0.9317 0-1.4907 0-1.8634-0.1556-0.53724-0.1955-0.96046-0.6188-1.156-1.156-0.15559-0.3727-0.15559-0.9317-0.15559-1.8634v-7.4965c0-0.9317 0-1.4907 0.15559-1.8634 0.19554-0.53724 0.61876-0.96046 1.156-1.156 0.37268-0.15559 0.9317-0.15559 1.8634-0.15559z" filter="url(#filter49-2)"/>
   <path transform="matrix(1.3333 0 0 1.3333 372.37 134.12)" d="m3.175 0h7.4965c0.9317 0 1.4907 0 1.8634 0.15559 0.5372 0.19554 0.9605 0.61876 1.156 1.156 0.1556 0.37268 0.1556 0.9317 0.1556 1.8634v7.4965c0 0.9317 0 1.4907-0.1556 1.8634-0.1955 0.5372-0.6188 0.9605-1.156 1.156-0.3727 0.1556-0.9317 0.1556-1.8634 0.1556h-7.4965c-0.9317 0-1.4907 0-1.8634-0.1556-0.53724-0.1955-0.96046-0.6188-1.156-1.156-0.15559-0.3727-0.15559-0.9317-0.15559-1.8634v-7.4965c0-0.9317 0-1.4907 0.15559-1.8634 0.19554-0.53724 0.61876-0.96046 1.156-1.156 0.37268-0.15559 0.9317-0.15559 1.8634-0.15559z" filter="url(#filter49-2)"/>
   <path transform="matrix(1.3333 0 0 1.3333 404.12 123.35)" d="m3.175 0h7.4965c0.9317 0 1.4907 0 1.8634 0.15559 0.5372 0.19554 0.9605 0.61876 1.156 1.156 0.1556 0.37268 0.1556 0.9317 0.1556 1.8634v7.4965c0 0.9317 0 1.4907-0.1556 1.8634-0.1955 0.5372-0.6188 0.9605-1.156 1.156-0.3727 0.1556-0.9317 0.1556-1.8634 0.1556h-7.4965c-0.9317 0-1.4907 0-1.8634-0.1556-0.53724-0.1955-0.96046-0.6188-1.156-1.156-0.15559-0.3727-0.15559-0.9317-0.15559-1.8634v-7.4965c0-0.9317 0-1.4907 0.15559-1.8634 0.19554-0.53724 0.61876-0.96046 1.156-1.156 0.37268-0.15559 0.9317-0.15559 1.8634-0.15559z" filter="url(#filter49-2)"/>
  </g>
  <path d="m192.07 261.27v-233.84" fill="none" stroke="#525252" stroke-dasharray="4, 2"/>
  <g transform="translate(-81.345 285.41)" fill="url(#linearGradient51)" stroke="#a7a7a7">
   <path transform="matrix(1.3333 0 0 1.3333 314.97 -112.13)" d="m3.175 0h7.4965c0.9317 0 1.4907 0 1.8634 0.15559 0.5372 0.19554 0.9605 0.61876 1.156 1.156 0.1556 0.37268 0.1556 0.9317 0.1556 1.8634v7.4965c0 0.9317 0 1.4907-0.1556 1.8634-0.1955 0.5372-0.6188 0.9605-1.156 1.156-0.3727 0.1556-0.9317 0.1556-1.8634 0.1556h-7.4965c-0.9317 0-1.4907 0-1.8634-0.1556-0.53724-0.1955-0.96046-0.6188-1.156-1.156-0.15559-0.3727-0.15559-0.9317-0.15559-1.8634v-7.4965c0-0.9317 0-1.4907 0.15559-1.8634 0.19554-0.53724 0.61876-0.96046 1.156-1.156 0.37268-0.15559 0.9317-0.15559 1.8634-0.15559z" filter="url(#filter49-2)"/>
   <path transform="matrix(1.3333 0 0 1.3333 374.13 -93.064)" d="m3.175 0h7.4965c0.9317 0 1.4907 0 1.8634 0.15559 0.5372 0.19554 0.9605 0.61876 1.156 1.156 0.1556 0.37268 0.1556 0.9317 0.1556 1.8634v7.4965c0 0.9317 0 1.4907-0.1556 1.8634-0.1955 0.5372-0.6188 0.9605-1.156 1.156-0.3727 0.1556-0.9317 0.1556-1.8634 0.1556h-7.4965c-0.9317 0-1.4907 0-1.8634-0.1556-0.53724-0.1955-0.96046-0.6188-1.156-1.156-0.15559-0.3727-0.15559-0.9317-0.15559-1.8634v-7.4965c0-0.9317 0-1.4907 0.15559-1.8634 0.19554-0.53724 0.61876-0.96046 1.156-1.156 0.37268-0.15559 0.9317-0.15559 1.8634-0.15559z" filter="url(#filter49-2)"/>
   <path transform="matrix(1.3333 0 0 1.3333 364.34 -216.11)" d="m3.175 0h7.4965c0.9317 0 1.4907 0 1.8634 0.15559 0.5372 0.19554 0.9605 0.61876 1.156 1.156 0.1556 0.37268 0.1556 0.9317 0.1556 1.8634v7.4965c0 0.9317 0 1.4907-0.1556 1.8634-0.1955 0.5372-0.6188 0.9605-1.156 1.156-0.3727 0.1556-0.9317 0.1556-1.8634 0.1556h-7.4965c-0.9317 0-1.4907 0-1.8634-0.1556-0.53724-0.1955-0.96046-0.6188-1.156-1.156-0.15559-0.3727-0.15559-0.9317-0.15559-1.8634v-7.4965c0-0.9317 0-1.4907 0.15559-1.8634 0.19554-0.53724 0.61876-0.96046 1.156-1.156 0.37268-0.15559 0.9317-0.15559 1.8634-0.15559z" filter="url(#filter49-2)"/>
   <path transform="matrix(1.3333 0 0 1.3333 335.94 -184.23)" d="m3.175 0h7.4965c0.9317 0 1.4907 0 1.8634 0.15559 0.5372 0.19554 0.9605 0.61876 1.156 1.156 0.1556 0.37268 0.1556 0.9317 0.1556 1.8634v7.4965c0 0.9317 0 1.4907-0.1556 1.8634-0.1955 0.5372-0.6188 0.9605-1.156 1.156-0.3727 0.1556-0.9317 0.1556-1.8634 0.1556h-7.4965c-0.9317 0-1.4907 0-1.8634-0.1556-0.53724-0.1955-0.96046-0.6188-1.156-1.156-0.15559-0.3727-0.15559-0.9317-0.15559-1.8634v-7.4965c0-0.9317 0-1.4907 0.15559-1.8634 0.19554-0.53724 0.61876-0.96046 1.156-1.156 0.37268-0.15559 0.9317-0.15559 1.8634-0.15559z" filter="url(#filter49-2)"/>
   <path transform="matrix(1.3333 0 0 1.3333 303.22 -200.23)" d="m3.175 0h7.4965c0.9317 0 1.4907 0 1.8634 0.15559 0.5372 0.19554 0.9605 0.61876 1.156 1.156 0.1556 0.37268 0.1556 0.9317 0.1556 1.8634v7.4965c0 0.9317 0 1.4907-0.1556 1.8634-0.1955 0.5372-0.6188 0.9605-1.156 1.156-0.3727 0.1556-0.9317 0.1556-1.8634 0.1556h-7.4965c-0.9317 0-1.4907 0-1.8634-0.1556-0.53724-0.1955-0.96046-0.6188-1.156-1.156-0.15559-0.3727-0.15559-0.9317-0.15559-1.8634v-7.4965c0-0.9317 0-1.4907 0.15559-1.8634 0.19554-0.53724 0.61876-0.96046 1.156-1.156 0.37268-0.15559 0.9317-0.15559 1.8634-0.15559z" filter="url(#filter49-2)"/>
   <path transform="matrix(1.3333 0 0 1.3333 390.6 -130.87)" d="m3.175 0h7.4965c0.9317 0 1.4907 0 1.8634 0.15559 0.5372 0.19554 0.9605 0.61876 1.156 1.156 0.1556 0.37268 0.1556 0.9317 0.1556 1.8634v7.4965c0 0.9317 0 1.4907-0.1556 1.8634-0.1955 0.5372-0.6188 0.9605-1.156 1.156-0.3727 0.1556-0.9317 0.1556-1.8634 0.1556h-7.4965c-0.9317 0-1.4907 0-1.8634-0.1556-0.53724-0.1955-0.96046-0.6188-1.156-1.156-0.15559-0.3727-0.15559-0.9317-0.15559-1.8634v-7.4965c0-0.9317 0-1.4907 0.15559-1.8634 0.19554-0.53724 0.61876-0.96046 1.156-1.156 0.37268-0.15559 0.9317-0.15559 1.8634-0.15559z" filter="url(#filter49-2)"/>
   <path transform="matrix(1.3333 0 0 1.3333 378.13 -174.96)" d="m3.175 0h7.4965c0.9317 0 1.4907 0 1.8634 0.15559 0.5372 0.19554 0.9605 0.61876 1.156 1.156 0.1556 0.37268 0.1556 0.9317 0.1556 1.8634v7.4965c0 0.9317 0 1.4907-0.1556 1.8634-0.1955 0.5372-0.6188 0.9605-1.156 1.156-0.3727 0.1556-0.9317 0.1556-1.8634 0.1556h-7.4965c-0.9317 0-1.4907 0-1.8634-0.1556-0.53724-0.1955-0.96046-0.6188-1.156-1.156-0.15559-0.3727-0.15559-0.9317-0.15559-1.8634v-7.4965c0-0.9317 0-1.4907 0.15559-1.8634 0.19554-0.53724 0.61876-0.96046 1.156-1.156 0.37268-0.15559 0.9317-0.15559 1.8634-0.15559z" filter="url(#filter49-2)"/>
   <path transform="matrix(1.3333 0 0 1.3333 415.99 -234.22)" d="m3.175 0h7.4965c0.9317 0 1.4907 0 1.8634 0.15559 0.5372 0.19554 0.9605 0.61876 1.156 1.156 0.1556 0.37268 0.1556 0.9317 0.1556 1.8634v7.4965c0 0.9317 0 1.4907-0.1556 1.8634-0.1955 0.5372-0.6188 0.9605-1.156 1.156-0.3727 0.1556-0.9317 0.1556-1.8634 0.1556h-7.4965c-0.9317 0-1.4907 0-1.8634-0.1556-0.53724-0.1955-0.96046-0.6188-1.156-1.156-0.15559-0.3727-0.15559-0.9317-0.15559-1.8634v-7.4965c0-0.9317 0-1.4907 0.15559-1.8634 0.19554-0.53724 0.61876-0.96046 1.156-1.156 0.37268-0.15559 0.9317-0.15559 1.8634-0.15559z" filter="url(#filter49-2)"/>
   <path transform="matrix(1.3333 0 0 1.3333 422.72 -202.26)" d="m3.175 0h7.4965c0.9317 0 1.4907 0 1.8634 0.15559 0.5372 0.19554 0.9605 0.61876 1.156 1.156 0.1556 0.37268 0.1556 0.9317 0.1556 1.8634v7.4965c0 0.9317 0 1.4907-0.1556 1.8634-0.1955 0.5372-0.6188 0.9605-1.156 1.156-0.3727 0.1556-0.9317 0.1556-1.8634 0.1556h-7.4965c-0.9317 0-1.4907 0-1.8634-0.1556-0.53724-0.1955-0.96046-0.6188-1.156-1.156-0.15559-0.3727-0.15559-0.9317-0.15559-1.8634v-7.4965c0-0.9317 0-1.4907 0.15559-1.8634 0.19554-0.53724 0.61876-0.96046 1.156-1.156 0.37268-0.15559 0.9317-0.15559 1.8634-0.15559z" filter="url(#filter49-2)"/>
   <path transform="matrix(1.3333 0 0 1.3333 295.33 -158.55)" d="m3.175 0h7.4965c0.9317 0 1.4907 0 1.8634 0.15559 0.5372 0.19554 0.9605 0.61876 1.156 1.156 0.1556 0.37268 0.1556 0.9317 0.1556 1.8634v7.4965c0 0.9317 0 1.4907-0.1556 1.8634-0.1955 0.5372-0.6188 0.9605-1.156 1.156-0.3727 0.1556-0.9317 0.1556-1.8634 0.1556h-7.4965c-0.9317 0-1.4907 0-1.8634-0.1556-0.53724-0.1955-0.96046-0.6188-1.156-1.156-0.15559-0.3727-0.15559-0.9317-0.15559-1.8634v-7.4965c0-0.9317 0-1.4907 0.15559-1.8634 0.19554-0.53724 0.61876-0.96046 1.156-1.156 0.37268-0.15559 0.9317-0.15559 1.8634-0.15559z" filter="url(#filter49-2)"/>
   <path transform="matrix(1.3333 0 0 1.3333 417.94 -147.31)" d="m3.175 0h7.4965c0.9317 0 1.4907 0 1.8634 0.15559 0.5372 0.19554 0.9605 0.61876 1.156 1.156 0.1556 0.37268 0.1556 0.9317 0.1556 1.8634v7.4965c0 0.9317 0 1.4907-0.1556 1.8634-0.1955 0.5372-0.6188 0.9605-1.156 1.156-0.3727 0.1556-0.9317 0.1556-1.8634 0.1556h-7.4965c-0.9317 0-1.4907 0-1.8634-0.1556-0.53724-0.1955-0.96046-0.6188-1.156-1.156-0.15559-0.3727-0.15559-0.9317-0.15559-1.8634v-7.4965c0-0.9317 0-1.4907 0.15559-1.8634 0.19554-0.53724 0.61876-0.96046 1.156-1.156 0.37268-0.15559 0.9317-0.15559 1.8634-0.15559z" filter="url(#filter49-2)"/>
   <path transform="matrix(1.3333 0 0 1.3333 355.04 -138.34)" d="m3.175 0h7.4965c0.9317 0 1.4907 0 1.8634 0.15559 0.5372 0.19554 0.9605 0.61876 1.156 1.156 0.1556 0.37268 0.1556 0.9317 0.1556 1.8634v7.4965c0 0.9317 0 1.4907-0.1556 1.8634-0.1955 0.5372-0.6188 0.9605-1.156 1.156-0.3727 0.1556-0.9317 0.1556-1.8634 0.1556h-7.4965c-0.9317 0-1.4907 0-1.8634-0.1556-0.53724-0.1955-0.96046-0.6188-1.156-1.156-0.15559-0.3727-0.15559-0.9317-0.15559-1.8634v-7.4965c0-0.9317 0-1.4907 0.15559-1.8634 0.19554-0.53724 0.61876-0.96046 1.156-1.156 0.37268-0.15559 0.9317-0.15559 1.8634-0.15559z" filter="url(#filter49-2)"/>
   <path transform="matrix(1.3333 0 0 1.3333 287.71 -80.043)" d="m3.175 0h7.4965c0.9317 0 1.4907 0 1.8634 0.15559 0.5372 0.19554 0.9605 0.61876 1.156 1.156 0.1556 0.37268 0.1556 0.9317 0.1556 1.8634v7.4965c0 0.9317 0 1.4907-0.1556 1.8634-0.1955 0.5372-0.6188 0.9605-1.156 1.156-0.3727 0.1556-0.9317 0.1556-1.8634 0.1556h-7.4965c-0.9317 0-1.4907 0-1.8634-0.1556-0.53724-0.1955-0.96046-0.6188-1.156-1.156-0.15559-0.3727-0.15559-0.9317-0.15559-1.8634v-7.4965c0-0.9317 0-1.4907 0.15559-1.8634 0.19554-0.53724 0.61876-0.96046 1.156-1.156 0.37268-0.15559 0.9317-0.15559 1.8634-0.15559z" filter="url(#filter49-2)"/>
   <path transform="matrix(1.3333 0 0 1.3333 347.79 -68.681)" d="m3.175 0h7.4965c0.9317 0 1.4907 0 1.8634 0.15559 0.5372 0.19554 0.9605 0.61876 1.156 1.156 0.1556 0.37268 0.1556 0.9317 0.1556 1.8634v7.4965c0 0.9317 0 1.4907-0.1556 1.8634-0.1955 0.5372-0.6188 0.9605-1.156 1.156-0.3727 0.1556-0.9317 0.1556-1.8634 0.1556h-7.4965c-0.9317 0-1.4907 0-1.8634-0.1556-0.53724-0.1955-0.96046-0.6188-1.156-1.156-0.15559-0.3727-0.15559-0.9317-0.15559-1.8634v-7.4965c0-0.9317 0-1.4907 0.15559-1.8634 0.19554-0.53724 0.61876-0.96046 1.156-1.156 0.37268-0.15559 0.9317-0.15559 1.8634-0.15559z" filter="url(#filter49-2)"/>
   <path transform="matrix(1.3333 0 0 1.3333 420.38 -80.339)" d="m3.175 0h7.4965c0.9317 0 1.4907 0 1.8634 0.15559 0.5372 0.19554 0.9605 0.61876 1.156 1.156 0.1556 0.37268 0.1556 0.9317 0.1556 1.8634v7.4965c0 0.9317 0 1.4907-0.1556 1.8634-0.1955 0.5372-0.6188 0.9605-1.156 1.156-0.3727 0.1556-0.9317 0.1556-1.8634 0.1556h-7.4965c-0.9317 0-1.4907 0-1.8634-0.1556-0.53724-0.1955-0.96046-0.6188-1.156-1.156-0.15559-0.3727-0.15559-0.9317-0.15559-1.8634v-7.4965c0-0.9317 0-1.4907 0.15559-1.8634 0.19554-0.53724 0.61876-0.96046 1.156-1.156 0.37268-0.15559 0.9317-0.15559 1.8634-0.15559z" filter="url(#filter49-2)"/>
  </g>
  <path d="m368.84 261.27v-233.84" fill="none" stroke="#525252" stroke-dasharray="4, 2"/>
  <g transform="translate(101.85 -132.42)" fill="url(#linearGradient51)" stroke="#a7a7a7">
   <path transform="matrix(1.3333 0 0 1.3333 422.1 258.77)" d="m3.175 0h7.4965c0.9317 0 1.4907 0 1.8634 0.15559 0.5372 0.19554 0.9605 0.61876 1.156 1.156 0.1556 0.37268 0.1556 0.9317 0.1556 1.8634v7.4965c0 0.9317 0 1.4907-0.1556 1.8634-0.1955 0.5372-0.6188 0.9605-1.156 1.156-0.3727 0.1556-0.9317 0.1556-1.8634 0.1556h-7.4965c-0.9317 0-1.4907 0-1.8634-0.1556-0.53724-0.1955-0.96046-0.6188-1.156-1.156-0.15559-0.3727-0.15559-0.9317-0.15559-1.8634v-7.4965c0-0.9317 0-1.4907 0.15559-1.8634 0.19554-0.53724 0.61876-0.96046 1.156-1.156 0.37268-0.15559 0.9317-0.15559 1.8634-0.15559z" filter="url(#filter49-2)"/>
   <path transform="matrix(1.3333 0 0 1.3333 405.82 337.45)" d="m3.175 0h7.4965c0.9317 0 1.4907 0 1.8634 0.15559 0.5372 0.19554 0.9605 0.61876 1.156 1.156 0.1556 0.37268 0.1556 0.9317 0.1556 1.8634v7.4965c0 0.9317 0 1.4907-0.1556 1.8634-0.1955 0.5372-0.6188 0.9605-1.156 1.156-0.3727 0.1556-0.9317 0.1556-1.8634 0.1556h-7.4965c-0.9317 0-1.4907 0-1.8634-0.1556-0.53724-0.1955-0.96046-0.6188-1.156-1.156-0.15559-0.3727-0.15559-0.9317-0.15559-1.8634v-7.4965c0-0.9317 0-1.4907 0.15559-1.8634 0.19554-0.53724 0.61876-0.96046 1.156-1.156 0.37268-0.15559 0.9317-0.15559 1.8634-0.15559z" filter="url(#filter49-2)"/>
   <path transform="matrix(1.3333 0 0 1.3333 275.65 189.3)" d="m3.175 0h7.4965c0.9317 0 1.4907 0 1.8634 0.15559 0.5372 0.19554 0.9605 0.61876 1.156 1.156 0.1556 0.37268 0.1556 0.9317 0.1556 1.8634v7.4965c0 0.9317 0 1.4907-0.1556 1.8634-0.1955 0.5372-0.6188 0.9605-1.156 1.156-0.3727 0.1556-0.9317 0.1556-1.8634 0.1556h-7.4965c-0.9317 0-1.4907 0-1.8634-0.1556-0.53724-0.1955-0.96046-0.6188-1.156-1.156-0.15559-0.3727-0.15559-0.9317-0.15559-1.8634v-7.4965c0-0.9317 0-1.4907 0.15559-1.8634 0.19554-0.53724 0.61876-0.96046 1.156-1.156 0.37268-0.15559 0.9317-0.15559 1.8634-0.15559z" filter="url(#filter49-2)"/>
   <path transform="matrix(1.3333 0 0 1.3333 333.3 297.52)" d="m3.175 0h7.4965c0.9317 0 1.4907 0 1.8634 0.15559 0.5372 0.19554 0.9605 0.61876 1.156 1.156 0.1556 0.37268 0.1556 0.9317 0.1556 1.8634v7.4965c0 0.9317 0 1.4907-0.1556 1.8634-0.1955 0.5372-0.6188 0.9605-1.156 1.156-0.3727 0.1556-0.9317 0.1556-1.8634 0.1556h-7.4965c-0.9317 0-1.4907 0-1.8634-0.1556-0.53724-0.1955-0.96046-0.6188-1.156-1.156-0.15559-0.3727-0.15559-0.9317-0.15559-1.8634v-7.4965c0-0.9317 0-1.4907 0.15559-1.8634 0.19554-0.53724 0.61876-0.96046 1.156-1.156 0.37268-0.15559 0.9317-0.15559 1.8634-0.15559z" filter="url(#filter49-2)"/>
   <path transform="matrix(1.3333 0 0 1.3333 352.6 324.93)" d="m3.175 0h7.4965c0.9317 0 1.4907 0 1.8634 0.15559 0.5372 0.19554 0.9605 0.61876 1.156 1.156 0.1556 0.37268 0.1556 0.9317 0.1556 1.8634v7.4965c0 0.9317 0 1.4907-0.1556 1.8634-0.1955 0.5372-0.6188 0.9605-1.156 1.156-0.3727 0.1556-0.9317 0.1556-1.8634 0.1556h-7.4965c-0.9317 0-1.4907 0-1.8634-0.1556-0.53724-0.1955-0.96046-0.6188-1.156-1.156-0.15559-0.3727-0.15559-0.9317-0.15559-1.8634v-7.4965c0-0.9317 0-1.4907 0.15559-1.8634 0.19554-0.53724 0.61876-0.96046 1.156-1.156 0.37268-0.15559 0.9317-0.15559 1.8634-0.15559z" filter="url(#filter49-2)"/>
   <path transform="matrix(1.3333 0 0 1.3333 289.72 259.6)" d="m3.175 0h7.4965c0.9317 0 1.4907 0 1.8634 0.15559 0.5372 0.19554 0.9605 0.61876 1.156 1.156 0.1556 0.37268 0.1556 0.9317 0.1556 1.8634v7.4965c0 0.9317 0 1.4907-0.1556 1.8634-0.1955 0.5372-0.6188 0.9605-1.156 1.156-0.3727 0.1556-0.9317 0.1556-1.8634 0.1556h-7.4965c-0.9317 0-1.4907 0-1.8634-0.1556-0.53724-0.1955-0.96046-0.6188-1.156-1.156-0.15559-0.3727-0.15559-0.9317-0.15559-1.8634v-7.4965c0-0.9317 0-1.4907 0.15559-1.8634 0.19554-0.53724 0.61876-0.96046 1.156-1.156 0.37268-0.15559 0.9317-0.15559 1.8634-0.15559z" filter="url(#filter49-2)"/>
   <path transform="matrix(1.3333 0 0 1.3333 371.09 198.45)" d="m3.175 0h7.4965c0.9317 0 1.4907 0 1.8634 0.15559 0.5372 0.19554 0.9605 0.61876 1.156 1.156 0.1556 0.37268 0.1556 0.9317 0.1556 1.8634v7.4965c0 0.9317 0 1.4907-0.1556 1.8634-0.1955 0.5372-0.6188 0.9605-1.156 1.156-0.3727 0.1556-0.9317 0.1556-1.8634 0.1556h-7.4965c-0.9317 0-1.4907 0-1.8634-0.1556-0.53724-0.1955-0.96046-0.6188-1.156-1.156-0.15559-0.3727-0.15559-0.9317-0.15559-1.8634v-7.4965c0-0.9317 0-1.4907 0.15559-1.8634 0.19554-0.53724 0.61876-0.96046 1.156-1.156 0.37268-0.15559 0.9317-0.15559 1.8634-0.15559z" filter="url(#filter49-2)"/>
   <path transform="matrix(1.3333 0 0 1.3333 344.86 235.59)" d="m3.175 0h7.4965c0.9317 0 1.4907 0 1.8634 0.15559 0.5372 0.19554 0.9605 0.61876 1.156 1.156 0.1556 0.37268 0.1556 0.9317 0.1556 1.8634v7.4965c0 0.9317 0 1.4907-0.1556 1.8634-0.1955 0.5372-0.6188 0.9605-1.156 1.156-0.3727 0.1556-0.9317 0.1556-1.8634 0.1556h-7.4965c-0.9317 0-1.4907 0-1.8634-0.1556-0.53724-0.1955-0.96046-0.6188-1.156-1.156-0.15559-0.3727-0.15559-0.9317-0.15559-1.8634v-7.4965c0-0.9317 0-1.4907 0.15559-1.8634 0.19554-0.53724 0.61876-0.96046 1.156-1.156 0.37268-0.15559 0.9317-0.15559 1.8634-0.15559z" filter="url(#filter49-2)"/>
   <path transform="matrix(1.3333 0 0 1.3333 413.03 304.72)" d="m3.175 0h7.4965c0.9317 0 1.4907 0 1.8634 0.15559 0.5372 0.19554 0.9605 0.61876 1.156 1.156 0.1556 0.37268 0.1556 0.9317 0.1556 1.8634v7.4965c0 0.9317 0 1.4907-0.1556 1.8634-0.1955 0.5372-0.6188 0.9605-1.156 1.156-0.3727 0.1556-0.9317 0.1556-1.8634 0.1556h-7.4965c-0.9317 0-1.4907 0-1.8634-0.1556-0.53724-0.1955-0.96046-0.6188-1.156-1.156-0.15559-0.3727-0.15559-0.9317-0.15559-1.8634v-7.4965c0-0.9317 0-1.4907 0.15559-1.8634 0.19554-0.53724 0.61876-0.96046 1.156-1.156 0.37268-0.15559 0.9317-0.15559 1.8634-0.15559z" filter="url(#filter49-2)"/>
   <path transform="matrix(1.3333 0 0 1.3333 381.4 304.95)" d="m3.175 0h7.4965c0.9317 0 1.4907 0 1.8634 0.15559 0.5372 0.19554 0.9605 0.61876 1.156 1.156 0.1556 0.37268 0.1556 0.9317 0.1556 1.8634v7.4965c0 0.9317 0 1.4907-0.1556 1.8634-0.1955 0.5372-0.6188 0.9605-1.156 1.156-0.3727 0.1556-0.9317 0.1556-1.8634 0.1556h-7.4965c-0.9317 0-1.4907 0-1.8634-0.1556-0.53724-0.1955-0.96046-0.6188-1.156-1.156-0.15559-0.3727-0.15559-0.9317-0.15559-1.8634v-7.4965c0-0.9317 0-1.4907 0.15559-1.8634 0.19554-0.53724 0.61876-0.96046 1.156-1.156 0.37268-0.15559 0.9317-0.15559 1.8634-0.15559z" filter="url(#filter49-2)"/>
   <path transform="matrix(1.3333 0 0 1.3333 395.49 276.71)" d="m3.175 0h7.4965c0.9317 0 1.4907 0 1.8634 0.15559 0.5372 0.19554 0.9605 0.61876 1.156 1.156 0.1556 0.37268 0.1556 0.9317 0.1556 1.8634v7.4965c0 0.9317 0 1.4907-0.1556 1.8634-0.1955 0.5372-0.6188 0.9605-1.156 1.156-0.3727 0.1556-0.9317 0.1556-1.8634 0.1556h-7.4965c-0.9317 0-1.4907 0-1.8634-0.1556-0.53724-0.1955-0.96046-0.6188-1.156-1.156-0.15559-0.3727-0.15559-0.9317-0.15559-1.8634v-7.4965c0-0.9317 0-1.4907 0.15559-1.8634 0.19554-0.53724 0.61876-0.96046 1.156-1.156 0.37268-0.15559 0.9317-0.15559 1.8634-0.15559z" filter="url(#filter49-2)"/>
   <path transform="matrix(1.3333 0 0 1.3333 418.91 229.65)" d="m3.175 0h7.4965c0.9317 0 1.4907 0 1.8634 0.15559 0.5372 0.19554 0.9605 0.61876 1.156 1.156 0.1556 0.37268 0.1556 0.9317 0.1556 1.8634v7.4965c0 0.9317 0 1.4907-0.1556 1.8634-0.1955 0.5372-0.6188 0.9605-1.156 1.156-0.3727 0.1556-0.9317 0.1556-1.8634 0.1556h-7.4965c-0.9317 0-1.4907 0-1.8634-0.1556-0.53724-0.1955-0.96046-0.6188-1.156-1.156-0.15559-0.3727-0.15559-0.9317-0.15559-1.8634v-7.4965c0-0.9317 0-1.4907 0.15559-1.8634 0.19554-0.53724 0.61876-0.96046 1.156-1.156 0.37268-0.15559 0.9317-0.15559 1.8634-0.15559z" filter="url(#filter49-2)"/>
   <path transform="matrix(1.3333 0 0 1.3333 396.35 217.9)" d="m3.175 0h7.4965c0.9317 0 1.4907 0 1.8634 0.15559 0.5372 0.19554 0.9605 0.61876 1.156 1.156 0.1556 0.37268 0.1556 0.9317 0.1556 1.8634v7.4965c0 0.9317 0 1.4907-0.1556 1.8634-0.1955 0.5372-0.6188 0.9605-1.156 1.156-0.3727 0.1556-0.9317 0.1556-1.8634 0.1556h-7.4965c-0.9317 0-1.4907 0-1.8634-0.1556-0.53724-0.1955-0.96046-0.6188-1.156-1.156-0.15559-0.3727-0.15559-0.9317-0.15559-1.8634v-7.4965c0-0.9317 0-1.4907 0.15559-1.8634 0.19554-0.53724 0.61876-0.96046 1.156-1.156 0.37268-0.15559 0.9317-0.15559 1.8634-0.15559z" filter="url(#filter49-2)"/>
   <path transform="matrix(1.3333 0 0 1.3333 375.8 247.76)" d="m3.175 0h7.4965c0.9317 0 1.4907 0 1.8634 0.15559 0.5372 0.19554 0.9605 0.61876 1.156 1.156 0.1556 0.37268 0.1556 0.9317 0.1556 1.8634v7.4965c0 0.9317 0 1.4907-0.1556 1.8634-0.1955 0.5372-0.6188 0.9605-1.156 1.156-0.3727 0.1556-0.9317 0.1556-1.8634 0.1556h-7.4965c-0.9317 0-1.4907 0-1.8634-0.1556-0.53724-0.1955-0.96046-0.6188-1.156-1.156-0.15559-0.3727-0.15559-0.9317-0.15559-1.8634v-7.4965c0-0.9317 0-1.4907 0.15559-1.8634 0.19554-0.53724 0.61876-0.96046 1.156-1.156 0.37268-0.15559 0.9317-0.15559 1.8634-0.15559z" filter="url(#filter49-2)"/>
   <path transform="matrix(1.3333 0 0 1.3333 353.13 270.75)" d="m3.175 0h7.4965c0.9317 0 1.4907 0 1.8634 0.15559 0.5372 0.19554 0.9605 0.61876 1.156 1.156 0.1556 0.37268 0.1556 0.9317 0.1556 1.8634v7.4965c0 0.9317 0 1.4907-0.1556 1.8634-0.1955 0.5372-0.6188 0.9605-1.156 1.156-0.3727 0.1556-0.9317 0.1556-1.8634 0.1556h-7.4965c-0.9317 0-1.4907 0-1.8634-0.1556-0.53724-0.1955-0.96046-0.6188-1.156-1.156-0.15559-0.3727-0.15559-0.9317-0.15559-1.8634v-7.4965c0-0.9317 0-1.4907 0.15559-1.8634 0.19554-0.53724 0.61876-0.96046 1.156-1.156 0.37268-0.15559 0.9317-0.15559 1.8634-0.15559z" filter="url(#filter49-2)"/>
   <path transform="matrix(1.3333 0 0 1.3333 289.26 309.48)" d="m3.175 0h7.4965c0.9317 0 1.4907 0 1.8634 0.15559 0.5372 0.19554 0.9605 0.61876 1.156 1.156 0.1556 0.37268 0.1556 0.9317 0.1556 1.8634v7.4965c0 0.9317 0 1.4907-0.1556 1.8634-0.1955 0.5372-0.6188 0.9605-1.156 1.156-0.3727 0.1556-0.9317 0.1556-1.8634 0.1556h-7.4965c-0.9317 0-1.4907 0-1.8634-0.1556-0.53724-0.1955-0.96046-0.6188-1.156-1.156-0.15559-0.3727-0.15559-0.9317-0.15559-1.8634v-7.4965c0-0.9317 0-1.4907 0.15559-1.8634 0.19554-0.53724 0.61876-0.96046 1.156-1.156 0.37268-0.15559 0.9317-0.15559 1.8634-0.15559z" filter="url(#filter49-2)"/>
   <path transform="matrix(1.3333 0 0 1.3333 366.81 359.78)" d="m3.175 0h7.4965c0.9317 0 1.4907 0 1.8634 0.15559 0.5372 0.19554 0.9605 0.61876 1.156 1.156 0.1556 0.37268 0.1556 0.9317 0.1556 1.8634v7.4965c0 0.9317 0 1.4907-0.1556 1.8634-0.1955 0.5372-0.6188 0.9605-1.156 1.156-0.3727 0.1556-0.9317 0.1556-1.8634 0.1556h-7.4965c-0.9317 0-1.4907 0-1.8634-0.1556-0.53724-0.1955-0.96046-0.6188-1.156-1.156-0.15559-0.3727-0.15559-0.9317-0.15559-1.8634v-7.4965c0-0.9317 0-1.4907 0.15559-1.8634 0.19554-0.53724 0.61876-0.96046 1.156-1.156 0.37268-0.15559 0.9317-0.15559 1.8634-0.15559z" filter="url(#filter49-2)"/>
   <path transform="matrix(1.3333 0 0 1.3333 419.62 366.43)" d="m3.175 0h7.4965c0.9317 0 1.4907 0 1.8634 0.15559 0.5372 0.19554 0.9605 0.61876 1.156 1.156 0.1556 0.37268 0.1556 0.9317 0.1556 1.8634v7.4965c0 0.9317 0 1.4907-0.1556 1.8634-0.1955 0.5372-0.6188 0.9605-1.156 1.156-0.3727 0.1556-0.9317 0.1556-1.8634 0.1556h-7.4965c-0.9317 0-1.4907 0-1.8634-0.1556-0.53724-0.1955-0.96046-0.6188-1.156-1.156-0.15559-0.3727-0.15559-0.9317-0.15559-1.8634v-7.4965c0-0.9317 0-1.4907 0.15559-1.8634 0.19554-0.53724 0.61876-0.96046 1.156-1.156 0.37268-0.15559 0.9317-0.15559 1.8634-0.15559z" filter="url(#filter49-2)"/>
   <path transform="matrix(1.3333 0 0 1.3333 389.92 173.3)" d="m3.175 0h7.4965c0.9317 0 1.4907 0 1.8634 0.15559 0.5372 0.19554 0.9605 0.61876 1.156 1.156 0.1556 0.37268 0.1556 0.9317 0.1556 1.8634v7.4965c0 0.9317 0 1.4907-0.1556 1.8634-0.1955 0.5372-0.6188 0.9605-1.156 1.156-0.3727 0.1556-0.9317 0.1556-1.8634 0.1556h-7.4965c-0.9317 0-1.4907 0-1.8634-0.1556-0.53724-0.1955-0.96046-0.6188-1.156-1.156-0.15559-0.3727-0.15559-0.9317-0.15559-1.8634v-7.4965c0-0.9317 0-1.4907 0.15559-1.8634 0.19554-0.53724 0.61876-0.96046 1.156-1.156 0.37268-0.15559 0.9317-0.15559 1.8634-0.15559z" filter="url(#filter49-2)"/>
   <path transform="matrix(1.3333 0 0 1.3333 419.92 193.3)" d="m3.175 0h7.4965c0.9317 0 1.4907 0 1.8634 0.15559 0.5372 0.19554 0.9605 0.61876 1.156 1.156 0.1556 0.37268 0.1556 0.9317 0.1556 1.8634v7.4965c0 0.9317 0 1.4907-0.1556 1.8634-0.1955 0.5372-0.6188 0.9605-1.156 1.156-0.3727 0.1556-0.9317 0.1556-1.8634 0.1556h-7.4965c-0.9317 0-1.4907 0-1.8634-0.1556-0.53724-0.1955-0.96046-0.6188-1.156-1.156-0.15559-0.3727-0.15559-0.9317-0.15559-1.8634v-7.4965c0-0.9317 0-1.4907 0.15559-1.8634 0.19554-0.53724 0.61876-0.96046 1.156-1.156 0.37268-0.15559 0.9317-0.15559 1.8634-0.15559z" filter="url(#filter49-2)"/>
   <path transform="matrix(1.3333 0 0 1.3333 337.44 198.46)" d="m3.175 0h7.4965c0.9317 0 1.4907 0 1.8634 0.15559 0.5372 0.19554 0.9605 0.61876 1.156 1.156 0.1556 0.37268 0.1556 0.9317 0.1556 1.8634v7.4965c0 0.9317 0 1.4907-0.1556 1.8634-0.1955 0.5372-0.6188 0.9605-1.156 1.156-0.3727 0.1556-0.9317 0.1556-1.8634 0.1556h-7.4965c-0.9317 0-1.4907 0-1.8634-0.1556-0.53724-0.1955-0.96046-0.6188-1.156-1.156-0.15559-0.3727-0.15559-0.9317-0.15559-1.8634v-7.4965c0-0.9317 0-1.4907 0.15559-1.8634 0.19554-0.53724 0.61876-0.96046 1.156-1.156 0.37268-0.15559 0.9317-0.15559 1.8634-0.15559z" filter="url(#filter49-2)"/>
  </g>
  <g transform="translate(219.07 -130.85)" fill="url(#linearGradient51)" stroke="#a7a7a7">
   <path transform="matrix(1.3333 0 0 1.3333 422.1 356.77)" d="m3.175 0h7.4965c0.9317 0 1.4907 0 1.8634 0.15559 0.5372 0.19554 0.9605 0.61876 1.156 1.156 0.1556 0.37268 0.1556 0.9317 0.1556 1.8634v7.4965c0 0.9317 0 1.4907-0.1556 1.8634-0.1955 0.5372-0.6188 0.9605-1.156 1.156-0.3727 0.1556-0.9317 0.1556-1.8634 0.1556h-7.4965c-0.9317 0-1.4907 0-1.8634-0.1556-0.53724-0.1955-0.96046-0.6188-1.156-1.156-0.15559-0.3727-0.15559-0.9317-0.15559-1.8634v-7.4965c0-0.9317 0-1.4907 0.15559-1.8634 0.19554-0.53724 0.61876-0.96046 1.156-1.156 0.37268-0.15559 0.9317-0.15559 1.8634-0.15559z" filter="url(#filter49-2)"/>
   <path transform="matrix(1.3333 0 0 1.3333 460.1 354.77)" d="m3.175 0h7.4965c0.9317 0 1.4907 0 1.8634 0.15559 0.5372 0.19554 0.9605 0.61876 1.156 1.156 0.1556 0.37268 0.1556 0.9317 0.1556 1.8634v7.4965c0 0.9317 0 1.4907-0.1556 1.8634-0.1955 0.5372-0.6188 0.9605-1.156 1.156-0.3727 0.1556-0.9317 0.1556-1.8634 0.1556h-7.4965c-0.9317 0-1.4907 0-1.8634-0.1556-0.53724-0.1955-0.96046-0.6188-1.156-1.156-0.15559-0.3727-0.15559-0.9317-0.15559-1.8634v-7.4965c0-0.9317 0-1.4907 0.15559-1.8634 0.19554-0.53724 0.61876-0.96046 1.156-1.156 0.37268-0.15559 0.9317-0.15559 1.8634-0.15559z" filter="url(#filter49-2)"/>
   <path transform="matrix(1.3333 0 0 1.3333 460.1 302.77)" d="m3.175 0h7.4965c0.9317 0 1.4907 0 1.8634 0.15559 0.5372 0.19554 0.9605 0.61876 1.156 1.156 0.1556 0.37268 0.1556 0.9317 0.1556 1.8634v7.4965c0 0.9317 0 1.4907-0.1556 1.8634-0.1955 0.5372-0.6188 0.9605-1.156 1.156-0.3727 0.1556-0.9317 0.1556-1.8634 0.1556h-7.4965c-0.9317 0-1.4907 0-1.8634-0.1556-0.53724-0.1955-0.96046-0.6188-1.156-1.156-0.15559-0.3727-0.15559-0.9317-0.15559-1.8634v-7.4965c0-0.9317 0-1.4907 0.15559-1.8634 0.19554-0.53724 0.61876-0.96046 1.156-1.156 0.37268-0.15559 0.9317-0.15559 1.8634-0.15559z" filter="url(#filter49-2)"/>
   <path transform="matrix(1.3333 0 0 1.3333 360.1 360.77)" d="m3.175 0h7.4965c0.9317 0 1.4907 0 1.8634 0.15559 0.5372 0.19554 0.9605 0.61876 1.156 1.156 0.1556 0.37268 0.1556 0.9317 0.1556 1.8634v7.4965c0 0.9317 0 1.4907-0.1556 1.8634-0.1955 0.5372-0.6188 0.9605-1.156 1.156-0.3727 0.1556-0.9317 0.1556-1.8634 0.1556h-7.4965c-0.9317 0-1.4907 0-1.8634-0.1556-0.53724-0.1955-0.96046-0.6188-1.156-1.156-0.15559-0.3727-0.15559-0.9317-0.15559-1.8634v-7.4965c0-0.9317 0-1.4907 0.15559-1.8634 0.19554-0.53724 0.61876-0.96046 1.156-1.156 0.37268-0.15559 0.9317-0.15559 1.8634-0.15559z" filter="url(#filter49-2)"/>
   <path transform="matrix(1.3333 0 0 1.3333 408.1 318.77)" d="m3.175 0h7.4965c0.9317 0 1.4907 0 1.8634 0.15559 0.5372 0.19554 0.9605 0.61876 1.156 1.156 0.1556 0.37268 0.1556 0.9317 0.1556 1.8634v7.4965c0 0.9317 0 1.4907-0.1556 1.8634-0.1955 0.5372-0.6188 0.9605-1.156 1.156-0.3727 0.1556-0.9317 0.1556-1.8634 0.1556h-7.4965c-0.9317 0-1.4907 0-1.8634-0.1556-0.53724-0.1955-0.96046-0.6188-1.156-1.156-0.15559-0.3727-0.15559-0.9317-0.15559-1.8634v-7.4965c0-0.9317 0-1.4907 0.15559-1.8634 0.19554-0.53724 0.61876-0.96046 1.156-1.156 0.37268-0.15559 0.9317-0.15559 1.8634-0.15559z" filter="url(#filter49-2)"/>
   <path transform="matrix(1.3333 0 0 1.3333 360.1 318.77)" d="m3.175 0h7.4965c0.9317 0 1.4907 0 1.8634 0.15559 0.5372 0.19554 0.9605 0.61876 1.156 1.156 0.1556 0.37268 0.1556 0.9317 0.1556 1.8634v7.4965c0 0.9317 0 1.4907-0.1556 1.8634-0.1955 0.5372-0.6188 0.9605-1.156 1.156-0.3727 0.1556-0.9317 0.1556-1.8634 0.1556h-7.4965c-0.9317 0-1.4907 0-1.8634-0.1556-0.53724-0.1955-0.96046-0.6188-1.156-1.156-0.15559-0.3727-0.15559-0.9317-0.15559-1.8634v-7.4965c0-0.9317 0-1.4907 0.15559-1.8634 0.19554-0.53724 0.61876-0.96046 1.156-1.156 0.37268-0.15559 0.9317-0.15559 1.8634-0.15559z" filter="url(#filter49-2)"/>
   <path transform="matrix(1.3333 0 0 1.3333 416.1 288.77)" d="m3.175 0h7.4965c0.9317 0 1.4907 0 1.8634 0.15559 0.5372 0.19554 0.9605 0.61876 1.156 1.156 0.1556 0.37268 0.1556 0.9317 0.1556 1.8634v7.4965c0 0.9317 0 1.4907-0.1556 1.8634-0.1955 0.5372-0.6188 0.9605-1.156 1.156-0.3727 0.1556-0.9317 0.1556-1.8634 0.1556h-7.4965c-0.9317 0-1.4907 0-1.8634-0.1556-0.53724-0.1955-0.96046-0.6188-1.156-1.156-0.15559-0.3727-0.15559-0.9317-0.15559-1.8634v-7.4965c0-0.9317 0-1.4907 0.15559-1.8634 0.19554-0.53724 0.61876-0.96046 1.156-1.156 0.37268-0.15559 0.9317-0.15559 1.8634-0.15559z" filter="url(#filter49-2)"/>
   <path transform="matrix(1.3333 0 0 1.3333 376.1 278.77)" d="m3.175 0h7.4965c0.9317 0 1.4907 0 1.8634 0.15559 0.5372 0.19554 0.9605 0.61876 1.156 1.156 0.1556 0.37268 0.1556 0.9317 0.1556 1.8634v7.4965c0 0.9317 0 1.4907-0.1556 1.8634-0.1955 0.5372-0.6188 0.9605-1.156 1.156-0.3727 0.1556-0.9317 0.1556-1.8634 0.1556h-7.4965c-0.9317 0-1.4907 0-1.8634-0.1556-0.53724-0.1955-0.96046-0.6188-1.156-1.156-0.15559-0.3727-0.15559-0.9317-0.15559-1.8634v-7.4965c0-0.9317 0-1.4907 0.15559-1.8634 0.19554-0.53724 0.61876-0.96046 1.156-1.156 0.37268-0.15559 0.9317-0.15559 1.8634-0.15559z" filter="url(#filter49-2)"/>
   <path transform="matrix(1.3333 0 0 1.3333 342.1 268.77)" d="m3.175 0h7.4965c0.9317 0 1.4907 0 1.8634 0.15559 0.5372 0.19554 0.9605 0.61876 1.156 1.156 0.1556 0.37268 0.1556 0.9317 0.1556 1.8634v7.4965c0 0.9317 0 1.4907-0.1556 1.8634-0.1955 0.5372-0.6188 0.9605-1.156 1.156-0.3727 0.1556-0.9317 0.1556-1.8634 0.1556h-7.4965c-0.9317 0-1.4907 0-1.8634-0.1556-0.53724-0.1955-0.96046-0.6188-1.156-1.156-0.15559-0.3727-0.15559-0.9317-0.15559-1.8634v-7.4965c0-0.9317 0-1.4907 0.15559-1.8634 0.19554-0.53724 0.61876-0.96046 1.156-1.156 0.37268-0.15559 0.9317-0.15559 1.8634-0.15559z" filter="url(#filter49-2)"/>
   <path transform="matrix(1.3333 0 0 1.3333 348.1 230.77)" d="m3.175 0h7.4965c0.9317 0 1.4907 0 1.8634 0.15559 0.5372 0.19554 0.9605 0.61876 1.156 1.156 0.1556 0.37268 0.1556 0.9317 0.1556 1.8634v7.4965c0 0.9317 0 1.4907-0.1556 1.8634-0.1955 0.5372-0.6188 0.9605-1.156 1.156-0.3727 0.1556-0.9317 0.1556-1.8634 0.1556h-7.4965c-0.9317 0-1.4907 0-1.8634-0.1556-0.53724-0.1955-0.96046-0.6188-1.156-1.156-0.15559-0.3727-0.15559-0.9317-0.15559-1.8634v-7.4965c0-0.9317 0-1.4907 0.15559-1.8634 0.19554-0.53724 0.61876-0.96046 1.156-1.156 0.37268-0.15559 0.9317-0.15559 1.8634-0.15559z" filter="url(#filter49-2)"/>
   <path transform="matrix(1.3333 0 0 1.3333 348.1 194.77)" d="m3.175 0h7.4965c0.9317 0 1.4907 0 1.8634 0.15559 0.5372 0.19554 0.9605 0.61876 1.156 1.156 0.1556 0.37268 0.1556 0.9317 0.1556 1.8634v7.4965c0 0.9317 0 1.4907-0.1556 1.8634-0.1955 0.5372-0.6188 0.9605-1.156 1.156-0.3727 0.1556-0.9317 0.1556-1.8634 0.1556h-7.4965c-0.9317 0-1.4907 0-1.8634-0.1556-0.53724-0.1955-0.96046-0.6188-1.156-1.156-0.15559-0.3727-0.15559-0.9317-0.15559-1.8634v-7.4965c0-0.9317 0-1.4907 0.15559-1.8634 0.19554-0.53724 0.61876-0.96046 1.156-1.156 0.37268-0.15559 0.9317-0.15559 1.8634-0.15559z" filter="url(#filter49-2)"/>
   <path transform="matrix(1.3333 0 0 1.3333 380.1 184.77)" d="m3.175 0h7.4965c0.9317 0 1.4907 0 1.8634 0.15559 0.5372 0.19554 0.9605 0.61876 1.156 1.156 0.1556 0.37268 0.1556 0.9317 0.1556 1.8634v7.4965c0 0.9317 0 1.4907-0.1556 1.8634-0.1955 0.5372-0.6188 0.9605-1.156 1.156-0.3727 0.1556-0.9317 0.1556-1.8634 0.1556h-7.4965c-0.9317 0-1.4907 0-1.8634-0.1556-0.53724-0.1955-0.96046-0.6188-1.156-1.156-0.15559-0.3727-0.15559-0.9317-0.15559-1.8634v-7.4965c0-0.9317 0-1.4907 0.15559-1.8634 0.19554-0.53724 0.61876-0.96046 1.156-1.156 0.37268-0.15559 0.9317-0.15559 1.8634-0.15559z" filter="url(#filter49-2)"/>
   <path transform="matrix(1.3333 0 0 1.3333 386.1 216.77)" d="m3.175 0h7.4965c0.9317 0 1.4907 0 1.8634 0.15559 0.5372 0.19554 0.9605 0.61876 1.156 1.156 0.1556 0.37268 0.1556 0.9317 0.1556 1.8634v7.4965c0 0.9317 0 1.4907-0.1556 1.8634-0.1955 0.5372-0.6188 0.9605-1.156 1.156-0.3727 0.1556-0.9317 0.1556-1.8634 0.1556h-7.4965c-0.9317 0-1.4907 0-1.8634-0.1556-0.53724-0.1955-0.96046-0.6188-1.156-1.156-0.15559-0.3727-0.15559-0.9317-0.15559-1.8634v-7.4965c0-0.9317 0-1.4907 0.15559-1.8634 0.19554-0.53724 0.61876-0.96046 1.156-1.156 0.37268-0.15559 0.9317-0.15559 1.8634-0.15559z" filter="url(#filter49-2)"/>
   <path transform="matrix(1.3333 0 0 1.3333 386.1 248.77)" d="m3.175 0h7.4965c0.9317 0 1.4907 0 1.8634 0.15559 0.5372 0.19554 0.9605 0.61876 1.156 1.156 0.1556 0.37268 0.1556 0.9317 0.1556 1.8634v7.4965c0 0.9317 0 1.4907-0.1556 1.8634-0.1955 0.5372-0.6188 0.9605-1.156 1.156-0.3727 0.1556-0.9317 0.1556-1.8634 0.1556h-7.4965c-0.9317 0-1.4907 0-1.8634-0.1556-0.53724-0.1955-0.96046-0.6188-1.156-1.156-0.15559-0.3727-0.15559-0.9317-0.15559-1.8634v-7.4965c0-0.9317 0-1.4907 0.15559-1.8634 0.19554-0.53724 0.61876-0.96046 1.156-1.156 0.37268-0.15559 0.9317-0.15559 1.8634-0.15559z" filter="url(#filter49-2)"/>
   <path transform="matrix(1.3333 0 0 1.3333 438.1 212.77)" d="m3.175 0h7.4965c0.9317 0 1.4907 0 1.8634 0.15559 0.5372 0.19554 0.9605 0.61876 1.156 1.156 0.1556 0.37268 0.1556 0.9317 0.1556 1.8634v7.4965c0 0.9317 0 1.4907-0.1556 1.8634-0.1955 0.5372-0.6188 0.9605-1.156 1.156-0.3727 0.1556-0.9317 0.1556-1.8634 0.1556h-7.4965c-0.9317 0-1.4907 0-1.8634-0.1556-0.53724-0.1955-0.96046-0.6188-1.156-1.156-0.15559-0.3727-0.15559-0.9317-0.15559-1.8634v-7.4965c0-0.9317 0-1.4907 0.15559-1.8634 0.19554-0.53724 0.61876-0.96046 1.156-1.156 0.37268-0.15559 0.9317-0.15559 1.8634-0.15559z" filter="url(#filter49-2)"/>
   <path transform="matrix(1.3333 0 0 1.3333 422.1 258.77)" d="m3.175 0h7.4965c0.9317 0 1.4907 0 1.8634 0.15559 0.5372 0.19554 0.9605 0.61876 1.156 1.156 0.1556 0.37268 0.1556 0.9317 0.1556 1.8634v7.4965c0 0.9317 0 1.4907-0.1556 1.8634-0.1955 0.5372-0.6188 0.9605-1.156 1.156-0.3727 0.1556-0.9317 0.1556-1.8634 0.1556h-7.4965c-0.9317 0-1.4907 0-1.8634-0.1556-0.53724-0.1955-0.96046-0.6188-1.156-1.156-0.15559-0.3727-0.15559-0.9317-0.15559-1.8634v-7.4965c0-0.9317 0-1.4907 0.15559-1.8634 0.19554-0.53724 0.61876-0.96046 1.156-1.156 0.37268-0.15559 0.9317-0.15559 1.8634-0.15559z" filter="url(#filter49-2)"/>
   <path transform="matrix(1.3333 0 0 1.3333 474.1 246.77)" d="m3.175 0h7.4965c0.9317 0 1.4907 0 1.8634 0.15559 0.5372 0.19554 0.9605 0.61876 1.156 1.156 0.1556 0.37268 0.1556 0.9317 0.1556 1.8634v7.4965c0 0.9317 0 1.4907-0.1556 1.8634-0.1955 0.5372-0.6188 0.9605-1.156 1.156-0.3727 0.1556-0.9317 0.1556-1.8634 0.1556h-7.4965c-0.9317 0-1.4907 0-1.8634-0.1556-0.53724-0.1955-0.96046-0.6188-1.156-1.156-0.15559-0.3727-0.15559-0.9317-0.15559-1.8634v-7.4965c0-0.9317 0-1.4907 0.15559-1.8634 0.19554-0.53724 0.61876-0.96046 1.156-1.156 0.37268-0.15559 0.9317-0.15559 1.8634-0.15559z" filter="url(#filter49-2)"/>
   <path transform="matrix(1.3333 0 0 1.3333 420.1 186.77)" d="m3.175 0h7.4965c0.9317 0 1.4907 0 1.8634 0.15559 0.5372 0.19554 0.9605 0.61876 1.156 1.156 0.1556 0.37268 0.1556 0.9317 0.1556 1.8634v7.4965c0 0.9317 0 1.4907-0.1556 1.8634-0.1955 0.5372-0.6188 0.9605-1.156 1.156-0.3727 0.1556-0.9317 0.1556-1.8634 0.1556h-7.4965c-0.9317 0-1.4907 0-1.8634-0.1556-0.53724-0.1955-0.96046-0.6188-1.156-1.156-0.15559-0.3727-0.15559-0.9317-0.15559-1.8634v-7.4965c0-0.9317 0-1.4907 0.15559-1.8634 0.19554-0.53724 0.61876-0.96046 1.156-1.156 0.37268-0.15559 0.9317-0.15559 1.8634-0.15559z" filter="url(#filter49-2)"/>
  </g>
  <path d="m553.45 261.27v-233.84" fill="none" stroke="#525252" stroke-dasharray="4, 2"/>
 </g>
</svg>
