<?xml version="1.0" encoding="UTF-8"?>
<!-- Created with Inkscape (http://www.inkscape.org/) -->
<svg width="940" height="380" version="1.1" viewBox="0 0 940 380" xmlns="http://www.w3.org/2000/svg" xmlns:xlink="http://www.w3.org/1999/xlink">
 <defs>
  <linearGradient id="linearGradient51-2" x1="7.0979" x2="7.0099" y1="14.852" y2="-1.005" gradientUnits="userSpaceOnUse" xlink:href="#linearGradient6"/>
  <linearGradient id="linearGradient6">
   <stop stop-color="#909090" offset="0"/>
   <stop stop-color="#ddd" offset="1"/>
  </linearGradient>
  <filter id="filter49-2" x="-.41924" y="-.41924" width="1.8385" height="1.9468" color-interpolation-filters="sRGB">
   <feFlood flood-color="rgb(0,0,0)" flood-opacity=".49804" in="SourceGraphic" result="flood"/>
   <feGaussianBlur in="SourceGraphic" result="blur" stdDeviation="2.000000"/>
   <feOffset dx="0.000000" dy="1.500000" in="blur" result="offset"/>
   <feComposite in="flood" in2="offset" operator="in" result="comp1"/>
   <feComposite in="SourceGraphic" in2="comp1" result="comp2"/>
  </filter>
  <filter id="filter512" x="-.11739" y="-.61548" width="1.2348" height="2.4233" color-interpolation-filters="sRGB">
   <feFlood flood-color="rgb(0,0,0)" flood-opacity=".49804" in="SourceGraphic" result="flood"/>
   <feGaussianBlur in="SourceGraphic" result="blur" stdDeviation="2.000000"/>
   <feOffset dx="0.000000" dy="1.500000" in="blur" result="offset"/>
   <feComposite in="flood" in2="offset" operator="in" result="comp1"/>
   <feComposite in="SourceGraphic" in2="comp1" result="comp2"/>
  </filter>
  <clipPath id="clipPath468">
   <path transform="matrix(1 0 0 -1 -316.45 286.68)" d="m0 0h720v405h-720z"/>
  </clipPath>
  <clipPath id="clipPath465">
   <path transform="matrix(1 0 0 -1 -46.248 287.05)" d="m0 0h720v405h-720z"/>
  </clipPath>
 </defs>
 <g transform="translate(34 24.57)" fill="url(#linearGradient51-2)" stroke="#a7a7a7" stroke-linejoin="round" stroke-width="2">
  <g transform="translate(-264.97,92.18)">
   <path transform="matrix(1.3333,0,0,1.3333,368.15,79.643)" d="m3.175 0h7.4965c0.9317 0 1.4907 0 1.8634 0.15559 0.5372 0.19554 0.9605 0.61876 1.156 1.156 0.1556 0.37268 0.1556 0.9317 0.1556 1.8634v7.4965c0 0.9317 0 1.4907-0.1556 1.8634-0.1955 0.5372-0.6188 0.9605-1.156 1.156-0.3727 0.1556-0.9317 0.1556-1.8634 0.1556h-7.4965c-0.9317 0-1.4907 0-1.8634-0.1556-0.53724-0.1955-0.96046-0.6188-1.156-1.156-0.15559-0.3727-0.15559-0.9317-0.15559-1.8634v-7.4965c0-0.9317 0-1.4907 0.15559-1.8634 0.19554-0.53724 0.61876-0.96046 1.156-1.156 0.37268-0.15559 0.9317-0.15559 1.8634-0.15559z" filter="url(#filter49-2)"/>
   <path transform="matrix(1.3333,0,0,1.3333,403.38,87.712)" d="m3.175 0h7.4965c0.9317 0 1.4907 0 1.8634 0.15559 0.5372 0.19554 0.9605 0.61876 1.156 1.156 0.1556 0.37268 0.1556 0.9317 0.1556 1.8634v7.4965c0 0.9317 0 1.4907-0.1556 1.8634-0.1955 0.5372-0.6188 0.9605-1.156 1.156-0.3727 0.1556-0.9317 0.1556-1.8634 0.1556h-7.4965c-0.9317 0-1.4907 0-1.8634-0.1556-0.53724-0.1955-0.96046-0.6188-1.156-1.156-0.15559-0.3727-0.15559-0.9317-0.15559-1.8634v-7.4965c0-0.9317 0-1.4907 0.15559-1.8634 0.19554-0.53724 0.61876-0.96046 1.156-1.156 0.37268-0.15559 0.9317-0.15559 1.8634-0.15559z" filter="url(#filter49-2)"/>
   <path transform="matrix(1.3333,0,0,1.3333,278.71,24.526)" d="m3.175 0h7.4965c0.9317 0 1.4907 0 1.8634 0.15559 0.5372 0.19554 0.9605 0.61876 1.156 1.156 0.1556 0.37268 0.1556 0.9317 0.1556 1.8634v7.4965c0 0.9317 0 1.4907-0.1556 1.8634-0.1955 0.5372-0.6188 0.9605-1.156 1.156-0.3727 0.1556-0.9317 0.1556-1.8634 0.1556h-7.4965c-0.9317 0-1.4907 0-1.8634-0.1556-0.53724-0.1955-0.96046-0.6188-1.156-1.156-0.15559-0.3727-0.15559-0.9317-0.15559-1.8634v-7.4965c0-0.9317 0-1.4907 0.15559-1.8634 0.19554-0.53724 0.61876-0.96046 1.156-1.156 0.37268-0.15559 0.9317-0.15559 1.8634-0.15559z" fill="url(#linearGradient51-2)" filter="url(#filter49-2)"/>
   <path transform="matrix(1.3333,0,0,1.3333,309.76,-20.828)" d="m3.175 0h7.4965c0.9317 0 1.4907 0 1.8634 0.15559 0.5372 0.19554 0.9605 0.61876 1.156 1.156 0.1556 0.37268 0.1556 0.9317 0.1556 1.8634v7.4965c0 0.9317 0 1.4907-0.1556 1.8634-0.1955 0.5372-0.6188 0.9605-1.156 1.156-0.3727 0.1556-0.9317 0.1556-1.8634 0.1556h-7.4965c-0.9317 0-1.4907 0-1.8634-0.1556-0.53724-0.1955-0.96046-0.6188-1.156-1.156-0.15559-0.3727-0.15559-0.9317-0.15559-1.8634v-7.4965c0-0.9317 0-1.4907 0.15559-1.8634 0.19554-0.53724 0.61876-0.96046 1.156-1.156 0.37268-0.15559 0.9317-0.15559 1.8634-0.15559z" filter="url(#filter49-2)"/>
   <path transform="matrix(1.3333,0,0,1.3333,349.02,-31.387)" d="m3.175 0h7.4965c0.9317 0 1.4907 0 1.8634 0.15559 0.5372 0.19554 0.9605 0.61876 1.156 1.156 0.1556 0.37268 0.1556 0.9317 0.1556 1.8634v7.4965c0 0.9317 0 1.4907-0.1556 1.8634-0.1955 0.5372-0.6188 0.9605-1.156 1.156-0.3727 0.1556-0.9317 0.1556-1.8634 0.1556h-7.4965c-0.9317 0-1.4907 0-1.8634-0.1556-0.53724-0.1955-0.96046-0.6188-1.156-1.156-0.15559-0.3727-0.15559-0.9317-0.15559-1.8634v-7.4965c0-0.9317 0-1.4907 0.15559-1.8634 0.19554-0.53724 0.61876-0.96046 1.156-1.156 0.37268-0.15559 0.9317-0.15559 1.8634-0.15559z" filter="url(#filter49-2)"/>
   <path transform="matrix(1.3333,0,0,1.3333,413.87,-33.242)" d="m3.175 0h7.4965c0.9317 0 1.4907 0 1.8634 0.15559 0.5372 0.19554 0.9605 0.61876 1.156 1.156 0.1556 0.37268 0.1556 0.9317 0.1556 1.8634v7.4965c0 0.9317 0 1.4907-0.1556 1.8634-0.1955 0.5372-0.6188 0.9605-1.156 1.156-0.3727 0.1556-0.9317 0.1556-1.8634 0.1556h-7.4965c-0.9317 0-1.4907 0-1.8634-0.1556-0.53724-0.1955-0.96046-0.6188-1.156-1.156-0.15559-0.3727-0.15559-0.9317-0.15559-1.8634v-7.4965c0-0.9317 0-1.4907 0.15559-1.8634 0.19554-0.53724 0.61876-0.96046 1.156-1.156 0.37268-0.15559 0.9317-0.15559 1.8634-0.15559z" filter="url(#filter49-2)"/>
   <path transform="matrix(1.3333,0,0,1.3333,317.19,24.526)" d="m3.175 0h7.4965c0.9317 0 1.4907 0 1.8634 0.15559 0.5372 0.19554 0.9605 0.61876 1.156 1.156 0.1556 0.37268 0.1556 0.9317 0.1556 1.8634v7.4965c0 0.9317 0 1.4907-0.1556 1.8634-0.1955 0.5372-0.6188 0.9605-1.156 1.156-0.3727 0.1556-0.9317 0.1556-1.8634 0.1556h-7.4965c-0.9317 0-1.4907 0-1.8634-0.1556-0.53724-0.1955-0.96046-0.6188-1.156-1.156-0.15559-0.3727-0.15559-0.9317-0.15559-1.8634v-7.4965c0-0.9317 0-1.4907 0.15559-1.8634 0.19554-0.53724 0.61876-0.96046 1.156-1.156 0.37268-0.15559 0.9317-0.15559 1.8634-0.15559z" filter="url(#filter49-2)"/>
   <path transform="matrix(1.3333,0,0,1.3333,349.9,3.8921)" d="m3.175 0h7.4965c0.9317 0 1.4907 0 1.8634 0.15559 0.5372 0.19554 0.9605 0.61876 1.156 1.156 0.1556 0.37268 0.1556 0.9317 0.1556 1.8634v7.4965c0 0.9317 0 1.4907-0.1556 1.8634-0.1955 0.5372-0.6188 0.9605-1.156 1.156-0.3727 0.1556-0.9317 0.1556-1.8634 0.1556h-7.4965c-0.9317 0-1.4907 0-1.8634-0.1556-0.53724-0.1955-0.96046-0.6188-1.156-1.156-0.15559-0.3727-0.15559-0.9317-0.15559-1.8634v-7.4965c0-0.9317 0-1.4907 0.15559-1.8634 0.19554-0.53724 0.61876-0.96046 1.156-1.156 0.37268-0.15559 0.9317-0.15559 1.8634-0.15559z" filter="url(#filter49-2)"/>
   <path transform="matrix(1.3333,0,0,1.3333,385.99,-5.0369)" d="m3.175 0h7.4965c0.9317 0 1.4907 0 1.8634 0.15559 0.5372 0.19554 0.9605 0.61876 1.156 1.156 0.1556 0.37268 0.1556 0.9317 0.1556 1.8634v7.4965c0 0.9317 0 1.4907-0.1556 1.8634-0.1955 0.5372-0.6188 0.9605-1.156 1.156-0.3727 0.1556-0.9317 0.1556-1.8634 0.1556h-7.4965c-0.9317 0-1.4907 0-1.8634-0.1556-0.53724-0.1955-0.96046-0.6188-1.156-1.156-0.15559-0.3727-0.15559-0.9317-0.15559-1.8634v-7.4965c0-0.9317 0-1.4907 0.15559-1.8634 0.19554-0.53724 0.61876-0.96046 1.156-1.156 0.37268-0.15559 0.9317-0.15559 1.8634-0.15559z" filter="url(#filter49-2)"/>
   <path transform="matrix(1.3333,0,0,1.3333,424.32,-6.6789)" d="m3.175 0h7.4965c0.9317 0 1.4907 0 1.8634 0.15559 0.5372 0.19554 0.9605 0.61876 1.156 1.156 0.1556 0.37268 0.1556 0.9317 0.1556 1.8634v7.4965c0 0.9317 0 1.4907-0.1556 1.8634-0.1955 0.5372-0.6188 0.9605-1.156 1.156-0.3727 0.1556-0.9317 0.1556-1.8634 0.1556h-7.4965c-0.9317 0-1.4907 0-1.8634-0.1556-0.53724-0.1955-0.96046-0.6188-1.156-1.156-0.15559-0.3727-0.15559-0.9317-0.15559-1.8634v-7.4965c0-0.9317 0-1.4907 0.15559-1.8634 0.19554-0.53724 0.61876-0.96046 1.156-1.156 0.37268-0.15559 0.9317-0.15559 1.8634-0.15559z" filter="url(#filter49-2)"/>
   <path transform="matrix(1.3333,0,0,1.3333,414.94,36.014)" d="m3.175 0h7.4965c0.9317 0 1.4907 0 1.8634 0.15559 0.5372 0.19554 0.9605 0.61876 1.156 1.156 0.1556 0.37268 0.1556 0.9317 0.1556 1.8634v7.4965c0 0.9317 0 1.4907-0.1556 1.8634-0.1955 0.5372-0.6188 0.9605-1.156 1.156-0.3727 0.1556-0.9317 0.1556-1.8634 0.1556h-7.4965c-0.9317 0-1.4907 0-1.8634-0.1556-0.53724-0.1955-0.96046-0.6188-1.156-1.156-0.15559-0.3727-0.15559-0.9317-0.15559-1.8634v-7.4965c0-0.9317 0-1.4907 0.15559-1.8634 0.19554-0.53724 0.61876-0.96046 1.156-1.156 0.37268-0.15559 0.9317-0.15559 1.8634-0.15559z" filter="url(#filter49-2)"/>
   <path transform="matrix(1.3333,0,0,1.3333,367.68,37.68)" d="m3.175 0h7.4965c0.9317 0 1.4907 0 1.8634 0.15559 0.5372 0.19554 0.9605 0.61876 1.156 1.156 0.1556 0.37268 0.1556 0.9317 0.1556 1.8634v7.4965c0 0.9317 0 1.4907-0.1556 1.8634-0.1955 0.5372-0.6188 0.9605-1.156 1.156-0.3727 0.1556-0.9317 0.1556-1.8634 0.1556h-7.4965c-0.9317 0-1.4907 0-1.8634-0.1556-0.53724-0.1955-0.96046-0.6188-1.156-1.156-0.15559-0.3727-0.15559-0.9317-0.15559-1.8634v-7.4965c0-0.9317 0-1.4907 0.15559-1.8634 0.19554-0.53724 0.61876-0.96046 1.156-1.156 0.37268-0.15559 0.9317-0.15559 1.8634-0.15559z" filter="url(#filter49-2)"/>
   <path transform="matrix(1.3333,0,0,1.3333,392.61,55.146)" d="m3.175 0h7.4965c0.9317 0 1.4907 0 1.8634 0.15559 0.5372 0.19554 0.9605 0.61876 1.156 1.156 0.1556 0.37268 0.1556 0.9317 0.1556 1.8634v7.4965c0 0.9317 0 1.4907-0.1556 1.8634-0.1955 0.5372-0.6188 0.9605-1.156 1.156-0.3727 0.1556-0.9317 0.1556-1.8634 0.1556h-7.4965c-0.9317 0-1.4907 0-1.8634-0.1556-0.53724-0.1955-0.96046-0.6188-1.156-1.156-0.15559-0.3727-0.15559-0.9317-0.15559-1.8634v-7.4965c0-0.9317 0-1.4907 0.15559-1.8634 0.19554-0.53724 0.61876-0.96046 1.156-1.156 0.37268-0.15559 0.9317-0.15559 1.8634-0.15559z" filter="url(#filter49-2)"/>
   <path transform="matrix(1.3333,0,0,1.3333,298.06,79.643)" d="m3.175 0h7.4965c0.9317 0 1.4907 0 1.8634 0.15559 0.5372 0.19554 0.9605 0.61876 1.156 1.156 0.1556 0.37268 0.1556 0.9317 0.1556 1.8634v7.4965c0 0.9317 0 1.4907-0.1556 1.8634-0.1955 0.5372-0.6188 0.9605-1.156 1.156-0.3727 0.1556-0.9317 0.1556-1.8634 0.1556h-7.4965c-0.9317 0-1.4907 0-1.8634-0.1556-0.53724-0.1955-0.96046-0.6188-1.156-1.156-0.15559-0.3727-0.15559-0.9317-0.15559-1.8634v-7.4965c0-0.9317 0-1.4907 0.15559-1.8634 0.19554-0.53724 0.61876-0.96046 1.156-1.156 0.37268-0.15559 0.9317-0.15559 1.8634-0.15559z" filter="url(#filter49-2)"/>
   <path transform="matrix(1.3333,0,0,1.3333,329.85,62.136)" d="m3.175 0h7.4965c0.9317 0 1.4907 0 1.8634 0.15559 0.5372 0.19554 0.9605 0.61876 1.156 1.156 0.1556 0.37268 0.1556 0.9317 0.1556 1.8634v7.4965c0 0.9317 0 1.4907-0.1556 1.8634-0.1955 0.5372-0.6188 0.9605-1.156 1.156-0.3727 0.1556-0.9317 0.1556-1.8634 0.1556h-7.4965c-0.9317 0-1.4907 0-1.8634-0.1556-0.53724-0.1955-0.96046-0.6188-1.156-1.156-0.15559-0.3727-0.15559-0.9317-0.15559-1.8634v-7.4965c0-0.9317 0-1.4907 0.15559-1.8634 0.19554-0.53724 0.61876-0.96046 1.156-1.156 0.37268-0.15559 0.9317-0.15559 1.8634-0.15559z" filter="url(#filter49-2)"/>
   <path transform="matrix(1.3333,0,0,1.3333,326.62,123.35)" d="m3.175 0h7.4965c0.9317 0 1.4907 0 1.8634 0.15559 0.5372 0.19554 0.9605 0.61876 1.156 1.156 0.1556 0.37268 0.1556 0.9317 0.1556 1.8634v7.4965c0 0.9317 0 1.4907-0.1556 1.8634-0.1955 0.5372-0.6188 0.9605-1.156 1.156-0.3727 0.1556-0.9317 0.1556-1.8634 0.1556h-7.4965c-0.9317 0-1.4907 0-1.8634-0.1556-0.53724-0.1955-0.96046-0.6188-1.156-1.156-0.15559-0.3727-0.15559-0.9317-0.15559-1.8634v-7.4965c0-0.9317 0-1.4907 0.15559-1.8634 0.19554-0.53724 0.61876-0.96046 1.156-1.156 0.37268-0.15559 0.9317-0.15559 1.8634-0.15559z" filter="url(#filter49-2)"/>
   <path transform="matrix(1.3333,0,0,1.3333,372.37,134.12)" d="m3.175 0h7.4965c0.9317 0 1.4907 0 1.8634 0.15559 0.5372 0.19554 0.9605 0.61876 1.156 1.156 0.1556 0.37268 0.1556 0.9317 0.1556 1.8634v7.4965c0 0.9317 0 1.4907-0.1556 1.8634-0.1955 0.5372-0.6188 0.9605-1.156 1.156-0.3727 0.1556-0.9317 0.1556-1.8634 0.1556h-7.4965c-0.9317 0-1.4907 0-1.8634-0.1556-0.53724-0.1955-0.96046-0.6188-1.156-1.156-0.15559-0.3727-0.15559-0.9317-0.15559-1.8634v-7.4965c0-0.9317 0-1.4907 0.15559-1.8634 0.19554-0.53724 0.61876-0.96046 1.156-1.156 0.37268-0.15559 0.9317-0.15559 1.8634-0.15559z" filter="url(#filter49-2)"/>
   <path transform="matrix(1.3333,0,0,1.3333,404.12,123.35)" d="m3.175 0h7.4965c0.9317 0 1.4907 0 1.8634 0.15559 0.5372 0.19554 0.9605 0.61876 1.156 1.156 0.1556 0.37268 0.1556 0.9317 0.1556 1.8634v7.4965c0 0.9317 0 1.4907-0.1556 1.8634-0.1955 0.5372-0.6188 0.9605-1.156 1.156-0.3727 0.1556-0.9317 0.1556-1.8634 0.1556h-7.4965c-0.9317 0-1.4907 0-1.8634-0.1556-0.53724-0.1955-0.96046-0.6188-1.156-1.156-0.15559-0.3727-0.15559-0.9317-0.15559-1.8634v-7.4965c0-0.9317 0-1.4907 0.15559-1.8634 0.19554-0.53724 0.61876-0.96046 1.156-1.156 0.37268-0.15559 0.9317-0.15559 1.8634-0.15559z" filter="url(#filter49-2)"/>
  </g>
  <g transform="translate(-81.345,285.41)">
   <path transform="matrix(1.3333,0,0,1.3333,314.97,-112.13)" d="m3.175 0h7.4965c0.9317 0 1.4907 0 1.8634 0.15559 0.5372 0.19554 0.9605 0.61876 1.156 1.156 0.1556 0.37268 0.1556 0.9317 0.1556 1.8634v7.4965c0 0.9317 0 1.4907-0.1556 1.8634-0.1955 0.5372-0.6188 0.9605-1.156 1.156-0.3727 0.1556-0.9317 0.1556-1.8634 0.1556h-7.4965c-0.9317 0-1.4907 0-1.8634-0.1556-0.53724-0.1955-0.96046-0.6188-1.156-1.156-0.15559-0.3727-0.15559-0.9317-0.15559-1.8634v-7.4965c0-0.9317 0-1.4907 0.15559-1.8634 0.19554-0.53724 0.61876-0.96046 1.156-1.156 0.37268-0.15559 0.9317-0.15559 1.8634-0.15559z" filter="url(#filter49-2)"/>
   <path transform="matrix(1.3333,0,0,1.3333,374.13,-93.064)" d="m3.175 0h7.4965c0.9317 0 1.4907 0 1.8634 0.15559 0.5372 0.19554 0.9605 0.61876 1.156 1.156 0.1556 0.37268 0.1556 0.9317 0.1556 1.8634v7.4965c0 0.9317 0 1.4907-0.1556 1.8634-0.1955 0.5372-0.6188 0.9605-1.156 1.156-0.3727 0.1556-0.9317 0.1556-1.8634 0.1556h-7.4965c-0.9317 0-1.4907 0-1.8634-0.1556-0.53724-0.1955-0.96046-0.6188-1.156-1.156-0.15559-0.3727-0.15559-0.9317-0.15559-1.8634v-7.4965c0-0.9317 0-1.4907 0.15559-1.8634 0.19554-0.53724 0.61876-0.96046 1.156-1.156 0.37268-0.15559 0.9317-0.15559 1.8634-0.15559z" filter="url(#filter49-2)"/>
   <path transform="matrix(1.3333,0,0,1.3333,364.34,-216.11)" d="m3.175 0h7.4965c0.9317 0 1.4907 0 1.8634 0.15559 0.5372 0.19554 0.9605 0.61876 1.156 1.156 0.1556 0.37268 0.1556 0.9317 0.1556 1.8634v7.4965c0 0.9317 0 1.4907-0.1556 1.8634-0.1955 0.5372-0.6188 0.9605-1.156 1.156-0.3727 0.1556-0.9317 0.1556-1.8634 0.1556h-7.4965c-0.9317 0-1.4907 0-1.8634-0.1556-0.53724-0.1955-0.96046-0.6188-1.156-1.156-0.15559-0.3727-0.15559-0.9317-0.15559-1.8634v-7.4965c0-0.9317 0-1.4907 0.15559-1.8634 0.19554-0.53724 0.61876-0.96046 1.156-1.156 0.37268-0.15559 0.9317-0.15559 1.8634-0.15559z" filter="url(#filter49-2)"/>
   <path transform="matrix(1.3333,0,0,1.3333,335.94,-184.23)" d="m3.175 0h7.4965c0.9317 0 1.4907 0 1.8634 0.15559 0.5372 0.19554 0.9605 0.61876 1.156 1.156 0.1556 0.37268 0.1556 0.9317 0.1556 1.8634v7.4965c0 0.9317 0 1.4907-0.1556 1.8634-0.1955 0.5372-0.6188 0.9605-1.156 1.156-0.3727 0.1556-0.9317 0.1556-1.8634 0.1556h-7.4965c-0.9317 0-1.4907 0-1.8634-0.1556-0.53724-0.1955-0.96046-0.6188-1.156-1.156-0.15559-0.3727-0.15559-0.9317-0.15559-1.8634v-7.4965c0-0.9317 0-1.4907 0.15559-1.8634 0.19554-0.53724 0.61876-0.96046 1.156-1.156 0.37268-0.15559 0.9317-0.15559 1.8634-0.15559z" filter="url(#filter49-2)"/>
   <path transform="matrix(1.3333,0,0,1.3333,303.22,-200.23)" d="m3.175 0h7.4965c0.9317 0 1.4907 0 1.8634 0.15559 0.5372 0.19554 0.9605 0.61876 1.156 1.156 0.1556 0.37268 0.1556 0.9317 0.1556 1.8634v7.4965c0 0.9317 0 1.4907-0.1556 1.8634-0.1955 0.5372-0.6188 0.9605-1.156 1.156-0.3727 0.1556-0.9317 0.1556-1.8634 0.1556h-7.4965c-0.9317 0-1.4907 0-1.8634-0.1556-0.53724-0.1955-0.96046-0.6188-1.156-1.156-0.15559-0.3727-0.15559-0.9317-0.15559-1.8634v-7.4965c0-0.9317 0-1.4907 0.15559-1.8634 0.19554-0.53724 0.61876-0.96046 1.156-1.156 0.37268-0.15559 0.9317-0.15559 1.8634-0.15559z" filter="url(#filter49-2)"/>
   <path transform="matrix(1.3333,0,0,1.3333,390.6,-130.87)" d="m3.175 0h7.4965c0.9317 0 1.4907 0 1.8634 0.15559 0.5372 0.19554 0.9605 0.61876 1.156 1.156 0.1556 0.37268 0.1556 0.9317 0.1556 1.8634v7.4965c0 0.9317 0 1.4907-0.1556 1.8634-0.1955 0.5372-0.6188 0.9605-1.156 1.156-0.3727 0.1556-0.9317 0.1556-1.8634 0.1556h-7.4965c-0.9317 0-1.4907 0-1.8634-0.1556-0.53724-0.1955-0.96046-0.6188-1.156-1.156-0.15559-0.3727-0.15559-0.9317-0.15559-1.8634v-7.4965c0-0.9317 0-1.4907 0.15559-1.8634 0.19554-0.53724 0.61876-0.96046 1.156-1.156 0.37268-0.15559 0.9317-0.15559 1.8634-0.15559z" filter="url(#filter49-2)"/>
   <path transform="matrix(1.3333,0,0,1.3333,378.13,-174.96)" d="m3.175 0h7.4965c0.9317 0 1.4907 0 1.8634 0.15559 0.5372 0.19554 0.9605 0.61876 1.156 1.156 0.1556 0.37268 0.1556 0.9317 0.1556 1.8634v7.4965c0 0.9317 0 1.4907-0.1556 1.8634-0.1955 0.5372-0.6188 0.9605-1.156 1.156-0.3727 0.1556-0.9317 0.1556-1.8634 0.1556h-7.4965c-0.9317 0-1.4907 0-1.8634-0.1556-0.53724-0.1955-0.96046-0.6188-1.156-1.156-0.15559-0.3727-0.15559-0.9317-0.15559-1.8634v-7.4965c0-0.9317 0-1.4907 0.15559-1.8634 0.19554-0.53724 0.61876-0.96046 1.156-1.156 0.37268-0.15559 0.9317-0.15559 1.8634-0.15559z" filter="url(#filter49-2)"/>
   <path transform="matrix(1.3333,0,0,1.3333,415.99,-234.22)" d="m3.175 0h7.4965c0.9317 0 1.4907 0 1.8634 0.15559 0.5372 0.19554 0.9605 0.61876 1.156 1.156 0.1556 0.37268 0.1556 0.9317 0.1556 1.8634v7.4965c0 0.9317 0 1.4907-0.1556 1.8634-0.1955 0.5372-0.6188 0.9605-1.156 1.156-0.3727 0.1556-0.9317 0.1556-1.8634 0.1556h-7.4965c-0.9317 0-1.4907 0-1.8634-0.1556-0.53724-0.1955-0.96046-0.6188-1.156-1.156-0.15559-0.3727-0.15559-0.9317-0.15559-1.8634v-7.4965c0-0.9317 0-1.4907 0.15559-1.8634 0.19554-0.53724 0.61876-0.96046 1.156-1.156 0.37268-0.15559 0.9317-0.15559 1.8634-0.15559z" filter="url(#filter49-2)"/>
   <path transform="matrix(1.3333,0,0,1.3333,418.72,-202.26)" d="m3.175 0h7.4965c0.9317 0 1.4907 0 1.8634 0.15559 0.5372 0.19554 0.9605 0.61876 1.156 1.156 0.1556 0.37268 0.1556 0.9317 0.1556 1.8634v7.4965c0 0.9317 0 1.4907-0.1556 1.8634-0.1955 0.5372-0.6188 0.9605-1.156 1.156-0.3727 0.1556-0.9317 0.1556-1.8634 0.1556h-7.4965c-0.9317 0-1.4907 0-1.8634-0.1556-0.53724-0.1955-0.96046-0.6188-1.156-1.156-0.15559-0.3727-0.15559-0.9317-0.15559-1.8634v-7.4965c0-0.9317 0-1.4907 0.15559-1.8634 0.19554-0.53724 0.61876-0.96046 1.156-1.156 0.37268-0.15559 0.9317-0.15559 1.8634-0.15559z" fill="url(#linearGradient51-2)" filter="url(#filter49-2)"/>
   <path transform="matrix(1.3333,0,0,1.3333,295.33,-158.55)" d="m3.175 0h7.4965c0.9317 0 1.4907 0 1.8634 0.15559 0.5372 0.19554 0.9605 0.61876 1.156 1.156 0.1556 0.37268 0.1556 0.9317 0.1556 1.8634v7.4965c0 0.9317 0 1.4907-0.1556 1.8634-0.1955 0.5372-0.6188 0.9605-1.156 1.156-0.3727 0.1556-0.9317 0.1556-1.8634 0.1556h-7.4965c-0.9317 0-1.4907 0-1.8634-0.1556-0.53724-0.1955-0.96046-0.6188-1.156-1.156-0.15559-0.3727-0.15559-0.9317-0.15559-1.8634v-7.4965c0-0.9317 0-1.4907 0.15559-1.8634 0.19554-0.53724 0.61876-0.96046 1.156-1.156 0.37268-0.15559 0.9317-0.15559 1.8634-0.15559z" filter="url(#filter49-2)"/>
   <path transform="matrix(1.3333,0,0,1.3333,417.94,-147.31)" d="m3.175 0h7.4965c0.9317 0 1.4907 0 1.8634 0.15559 0.5372 0.19554 0.9605 0.61876 1.156 1.156 0.1556 0.37268 0.1556 0.9317 0.1556 1.8634v7.4965c0 0.9317 0 1.4907-0.1556 1.8634-0.1955 0.5372-0.6188 0.9605-1.156 1.156-0.3727 0.1556-0.9317 0.1556-1.8634 0.1556h-7.4965c-0.9317 0-1.4907 0-1.8634-0.1556-0.53724-0.1955-0.96046-0.6188-1.156-1.156-0.15559-0.3727-0.15559-0.9317-0.15559-1.8634v-7.4965c0-0.9317 0-1.4907 0.15559-1.8634 0.19554-0.53724 0.61876-0.96046 1.156-1.156 0.37268-0.15559 0.9317-0.15559 1.8634-0.15559z" filter="url(#filter49-2)"/>
   <path transform="matrix(1.3333,0,0,1.3333,355.04,-138.34)" d="m3.175 0h7.4965c0.9317 0 1.4907 0 1.8634 0.15559 0.5372 0.19554 0.9605 0.61876 1.156 1.156 0.1556 0.37268 0.1556 0.9317 0.1556 1.8634v7.4965c0 0.9317 0 1.4907-0.1556 1.8634-0.1955 0.5372-0.6188 0.9605-1.156 1.156-0.3727 0.1556-0.9317 0.1556-1.8634 0.1556h-7.4965c-0.9317 0-1.4907 0-1.8634-0.1556-0.53724-0.1955-0.96046-0.6188-1.156-1.156-0.15559-0.3727-0.15559-0.9317-0.15559-1.8634v-7.4965c0-0.9317 0-1.4907 0.15559-1.8634 0.19554-0.53724 0.61876-0.96046 1.156-1.156 0.37268-0.15559 0.9317-0.15559 1.8634-0.15559z" filter="url(#filter49-2)"/>
   <path transform="matrix(1.3333,0,0,1.3333,287.71,-80.043)" d="m3.175 0h7.4965c0.9317 0 1.4907 0 1.8634 0.15559 0.5372 0.19554 0.9605 0.61876 1.156 1.156 0.1556 0.37268 0.1556 0.9317 0.1556 1.8634v7.4965c0 0.9317 0 1.4907-0.1556 1.8634-0.1955 0.5372-0.6188 0.9605-1.156 1.156-0.3727 0.1556-0.9317 0.1556-1.8634 0.1556h-7.4965c-0.9317 0-1.4907 0-1.8634-0.1556-0.53724-0.1955-0.96046-0.6188-1.156-1.156-0.15559-0.3727-0.15559-0.9317-0.15559-1.8634v-7.4965c0-0.9317 0-1.4907 0.15559-1.8634 0.19554-0.53724 0.61876-0.96046 1.156-1.156 0.37268-0.15559 0.9317-0.15559 1.8634-0.15559z" filter="url(#filter49-2)"/>
   <path transform="matrix(1.3333,0,0,1.3333,347.79,-68.681)" d="m3.175 0h7.4965c0.9317 0 1.4907 0 1.8634 0.15559 0.5372 0.19554 0.9605 0.61876 1.156 1.156 0.1556 0.37268 0.1556 0.9317 0.1556 1.8634v7.4965c0 0.9317 0 1.4907-0.1556 1.8634-0.1955 0.5372-0.6188 0.9605-1.156 1.156-0.3727 0.1556-0.9317 0.1556-1.8634 0.1556h-7.4965c-0.9317 0-1.4907 0-1.8634-0.1556-0.53724-0.1955-0.96046-0.6188-1.156-1.156-0.15559-0.3727-0.15559-0.9317-0.15559-1.8634v-7.4965c0-0.9317 0-1.4907 0.15559-1.8634 0.19554-0.53724 0.61876-0.96046 1.156-1.156 0.37268-0.15559 0.9317-0.15559 1.8634-0.15559z" filter="url(#filter49-2)"/>
   <path transform="matrix(1.3333,0,0,1.3333,418.38,-80.339)" d="m3.175 0h7.4965c0.9317 0 1.4907 0 1.8634 0.15559 0.5372 0.19554 0.9605 0.61876 1.156 1.156 0.1556 0.37268 0.1556 0.9317 0.1556 1.8634v7.4965c0 0.9317 0 1.4907-0.1556 1.8634-0.1955 0.5372-0.6188 0.9605-1.156 1.156-0.3727 0.1556-0.9317 0.1556-1.8634 0.1556h-7.4965c-0.9317 0-1.4907 0-1.8634-0.1556-0.53724-0.1955-0.96046-0.6188-1.156-1.156-0.15559-0.3727-0.15559-0.9317-0.15559-1.8634v-7.4965c0-0.9317 0-1.4907 0.15559-1.8634 0.19554-0.53724 0.61876-0.96046 1.156-1.156 0.37268-0.15559 0.9317-0.15559 1.8634-0.15559z" fill="url(#linearGradient51-2)" filter="url(#filter49-2)"/>
  </g>
  <g transform="translate(101.85,-132.42)">
   <path transform="matrix(1.3333,0,0,1.3333,422.1,258.77)" d="m3.175 0h7.4965c0.9317 0 1.4907 0 1.8634 0.15559 0.5372 0.19554 0.9605 0.61876 1.156 1.156 0.1556 0.37268 0.1556 0.9317 0.1556 1.8634v7.4965c0 0.9317 0 1.4907-0.1556 1.8634-0.1955 0.5372-0.6188 0.9605-1.156 1.156-0.3727 0.1556-0.9317 0.1556-1.8634 0.1556h-7.4965c-0.9317 0-1.4907 0-1.8634-0.1556-0.53724-0.1955-0.96046-0.6188-1.156-1.156-0.15559-0.3727-0.15559-0.9317-0.15559-1.8634v-7.4965c0-0.9317 0-1.4907 0.15559-1.8634 0.19554-0.53724 0.61876-0.96046 1.156-1.156 0.37268-0.15559 0.9317-0.15559 1.8634-0.15559z" filter="url(#filter49-2)"/>
   <path transform="matrix(1.3333,0,0,1.3333,405.82,337.45)" d="m3.175 0h7.4965c0.9317 0 1.4907 0 1.8634 0.15559 0.5372 0.19554 0.9605 0.61876 1.156 1.156 0.1556 0.37268 0.1556 0.9317 0.1556 1.8634v7.4965c0 0.9317 0 1.4907-0.1556 1.8634-0.1955 0.5372-0.6188 0.9605-1.156 1.156-0.3727 0.1556-0.9317 0.1556-1.8634 0.1556h-7.4965c-0.9317 0-1.4907 0-1.8634-0.1556-0.53724-0.1955-0.96046-0.6188-1.156-1.156-0.15559-0.3727-0.15559-0.9317-0.15559-1.8634v-7.4965c0-0.9317 0-1.4907 0.15559-1.8634 0.19554-0.53724 0.61876-0.96046 1.156-1.156 0.37268-0.15559 0.9317-0.15559 1.8634-0.15559z" filter="url(#filter49-2)"/>
   <path transform="matrix(1.3333,0,0,1.3333,275.65,189.3)" d="m3.175 0h7.4965c0.9317 0 1.4907 0 1.8634 0.15559 0.5372 0.19554 0.9605 0.61876 1.156 1.156 0.1556 0.37268 0.1556 0.9317 0.1556 1.8634v7.4965c0 0.9317 0 1.4907-0.1556 1.8634-0.1955 0.5372-0.6188 0.9605-1.156 1.156-0.3727 0.1556-0.9317 0.1556-1.8634 0.1556h-7.4965c-0.9317 0-1.4907 0-1.8634-0.1556-0.53724-0.1955-0.96046-0.6188-1.156-1.156-0.15559-0.3727-0.15559-0.9317-0.15559-1.8634v-7.4965c0-0.9317 0-1.4907 0.15559-1.8634 0.19554-0.53724 0.61876-0.96046 1.156-1.156 0.37268-0.15559 0.9317-0.15559 1.8634-0.15559z" filter="url(#filter49-2)"/>
   <path transform="matrix(1.3333,0,0,1.3333,333.3,297.52)" d="m3.175 0h7.4965c0.9317 0 1.4907 0 1.8634 0.15559 0.5372 0.19554 0.9605 0.61876 1.156 1.156 0.1556 0.37268 0.1556 0.9317 0.1556 1.8634v7.4965c0 0.9317 0 1.4907-0.1556 1.8634-0.1955 0.5372-0.6188 0.9605-1.156 1.156-0.3727 0.1556-0.9317 0.1556-1.8634 0.1556h-7.4965c-0.9317 0-1.4907 0-1.8634-0.1556-0.53724-0.1955-0.96046-0.6188-1.156-1.156-0.15559-0.3727-0.15559-0.9317-0.15559-1.8634v-7.4965c0-0.9317 0-1.4907 0.15559-1.8634 0.19554-0.53724 0.61876-0.96046 1.156-1.156 0.37268-0.15559 0.9317-0.15559 1.8634-0.15559z" filter="url(#filter49-2)"/>
   <path transform="matrix(1.3333,0,0,1.3333,352.6,324.93)" d="m3.175 0h7.4965c0.9317 0 1.4907 0 1.8634 0.15559 0.5372 0.19554 0.9605 0.61876 1.156 1.156 0.1556 0.37268 0.1556 0.9317 0.1556 1.8634v7.4965c0 0.9317 0 1.4907-0.1556 1.8634-0.1955 0.5372-0.6188 0.9605-1.156 1.156-0.3727 0.1556-0.9317 0.1556-1.8634 0.1556h-7.4965c-0.9317 0-1.4907 0-1.8634-0.1556-0.53724-0.1955-0.96046-0.6188-1.156-1.156-0.15559-0.3727-0.15559-0.9317-0.15559-1.8634v-7.4965c0-0.9317 0-1.4907 0.15559-1.8634 0.19554-0.53724 0.61876-0.96046 1.156-1.156 0.37268-0.15559 0.9317-0.15559 1.8634-0.15559z" filter="url(#filter49-2)"/>
   <path transform="matrix(1.3333,0,0,1.3333,289.72,259.6)" d="m3.175 0h7.4965c0.9317 0 1.4907 0 1.8634 0.15559 0.5372 0.19554 0.9605 0.61876 1.156 1.156 0.1556 0.37268 0.1556 0.9317 0.1556 1.8634v7.4965c0 0.9317 0 1.4907-0.1556 1.8634-0.1955 0.5372-0.6188 0.9605-1.156 1.156-0.3727 0.1556-0.9317 0.1556-1.8634 0.1556h-7.4965c-0.9317 0-1.4907 0-1.8634-0.1556-0.53724-0.1955-0.96046-0.6188-1.156-1.156-0.15559-0.3727-0.15559-0.9317-0.15559-1.8634v-7.4965c0-0.9317 0-1.4907 0.15559-1.8634 0.19554-0.53724 0.61876-0.96046 1.156-1.156 0.37268-0.15559 0.9317-0.15559 1.8634-0.15559z" filter="url(#filter49-2)"/>
   <path transform="matrix(1.3333,0,0,1.3333,371.09,198.45)" d="m3.175 0h7.4965c0.9317 0 1.4907 0 1.8634 0.15559 0.5372 0.19554 0.9605 0.61876 1.156 1.156 0.1556 0.37268 0.1556 0.9317 0.1556 1.8634v7.4965c0 0.9317 0 1.4907-0.1556 1.8634-0.1955 0.5372-0.6188 0.9605-1.156 1.156-0.3727 0.1556-0.9317 0.1556-1.8634 0.1556h-7.4965c-0.9317 0-1.4907 0-1.8634-0.1556-0.53724-0.1955-0.96046-0.6188-1.156-1.156-0.15559-0.3727-0.15559-0.9317-0.15559-1.8634v-7.4965c0-0.9317 0-1.4907 0.15559-1.8634 0.19554-0.53724 0.61876-0.96046 1.156-1.156 0.37268-0.15559 0.9317-0.15559 1.8634-0.15559z" filter="url(#filter49-2)"/>
   <path transform="matrix(1.3333,0,0,1.3333,344.86,235.59)" d="m3.175 0h7.4965c0.9317 0 1.4907 0 1.8634 0.15559 0.5372 0.19554 0.9605 0.61876 1.156 1.156 0.1556 0.37268 0.1556 0.9317 0.1556 1.8634v7.4965c0 0.9317 0 1.4907-0.1556 1.8634-0.1955 0.5372-0.6188 0.9605-1.156 1.156-0.3727 0.1556-0.9317 0.1556-1.8634 0.1556h-7.4965c-0.9317 0-1.4907 0-1.8634-0.1556-0.53724-0.1955-0.96046-0.6188-1.156-1.156-0.15559-0.3727-0.15559-0.9317-0.15559-1.8634v-7.4965c0-0.9317 0-1.4907 0.15559-1.8634 0.19554-0.53724 0.61876-0.96046 1.156-1.156 0.37268-0.15559 0.9317-0.15559 1.8634-0.15559z" filter="url(#filter49-2)"/>
   <path transform="matrix(1.3333,0,0,1.3333,413.03,304.72)" d="m3.175 0h7.4965c0.9317 0 1.4907 0 1.8634 0.15559 0.5372 0.19554 0.9605 0.61876 1.156 1.156 0.1556 0.37268 0.1556 0.9317 0.1556 1.8634v7.4965c0 0.9317 0 1.4907-0.1556 1.8634-0.1955 0.5372-0.6188 0.9605-1.156 1.156-0.3727 0.1556-0.9317 0.1556-1.8634 0.1556h-7.4965c-0.9317 0-1.4907 0-1.8634-0.1556-0.53724-0.1955-0.96046-0.6188-1.156-1.156-0.15559-0.3727-0.15559-0.9317-0.15559-1.8634v-7.4965c0-0.9317 0-1.4907 0.15559-1.8634 0.19554-0.53724 0.61876-0.96046 1.156-1.156 0.37268-0.15559 0.9317-0.15559 1.8634-0.15559z" filter="url(#filter49-2)"/>
   <path transform="matrix(1.3333,0,0,1.3333,381.4,304.95)" d="m3.175 0h7.4965c0.9317 0 1.4907 0 1.8634 0.15559 0.5372 0.19554 0.9605 0.61876 1.156 1.156 0.1556 0.37268 0.1556 0.9317 0.1556 1.8634v7.4965c0 0.9317 0 1.4907-0.1556 1.8634-0.1955 0.5372-0.6188 0.9605-1.156 1.156-0.3727 0.1556-0.9317 0.1556-1.8634 0.1556h-7.4965c-0.9317 0-1.4907 0-1.8634-0.1556-0.53724-0.1955-0.96046-0.6188-1.156-1.156-0.15559-0.3727-0.15559-0.9317-0.15559-1.8634v-7.4965c0-0.9317 0-1.4907 0.15559-1.8634 0.19554-0.53724 0.61876-0.96046 1.156-1.156 0.37268-0.15559 0.9317-0.15559 1.8634-0.15559z" filter="url(#filter49-2)"/>
   <path transform="matrix(1.3333,0,0,1.3333,395.49,276.71)" d="m3.175 0h7.4965c0.9317 0 1.4907 0 1.8634 0.15559 0.5372 0.19554 0.9605 0.61876 1.156 1.156 0.1556 0.37268 0.1556 0.9317 0.1556 1.8634v7.4965c0 0.9317 0 1.4907-0.1556 1.8634-0.1955 0.5372-0.6188 0.9605-1.156 1.156-0.3727 0.1556-0.9317 0.1556-1.8634 0.1556h-7.4965c-0.9317 0-1.4907 0-1.8634-0.1556-0.53724-0.1955-0.96046-0.6188-1.156-1.156-0.15559-0.3727-0.15559-0.9317-0.15559-1.8634v-7.4965c0-0.9317 0-1.4907 0.15559-1.8634 0.19554-0.53724 0.61876-0.96046 1.156-1.156 0.37268-0.15559 0.9317-0.15559 1.8634-0.15559z" filter="url(#filter49-2)"/>
   <path transform="matrix(1.3333,0,0,1.3333,418.91,229.65)" d="m3.175 0h7.4965c0.9317 0 1.4907 0 1.8634 0.15559 0.5372 0.19554 0.9605 0.61876 1.156 1.156 0.1556 0.37268 0.1556 0.9317 0.1556 1.8634v7.4965c0 0.9317 0 1.4907-0.1556 1.8634-0.1955 0.5372-0.6188 0.9605-1.156 1.156-0.3727 0.1556-0.9317 0.1556-1.8634 0.1556h-7.4965c-0.9317 0-1.4907 0-1.8634-0.1556-0.53724-0.1955-0.96046-0.6188-1.156-1.156-0.15559-0.3727-0.15559-0.9317-0.15559-1.8634v-7.4965c0-0.9317 0-1.4907 0.15559-1.8634 0.19554-0.53724 0.61876-0.96046 1.156-1.156 0.37268-0.15559 0.9317-0.15559 1.8634-0.15559z" filter="url(#filter49-2)"/>
   <path transform="matrix(1.3333,0,0,1.3333,396.35,217.9)" d="m3.175 0h7.4965c0.9317 0 1.4907 0 1.8634 0.15559 0.5372 0.19554 0.9605 0.61876 1.156 1.156 0.1556 0.37268 0.1556 0.9317 0.1556 1.8634v7.4965c0 0.9317 0 1.4907-0.1556 1.8634-0.1955 0.5372-0.6188 0.9605-1.156 1.156-0.3727 0.1556-0.9317 0.1556-1.8634 0.1556h-7.4965c-0.9317 0-1.4907 0-1.8634-0.1556-0.53724-0.1955-0.96046-0.6188-1.156-1.156-0.15559-0.3727-0.15559-0.9317-0.15559-1.8634v-7.4965c0-0.9317 0-1.4907 0.15559-1.8634 0.19554-0.53724 0.61876-0.96046 1.156-1.156 0.37268-0.15559 0.9317-0.15559 1.8634-0.15559z" filter="url(#filter49-2)"/>
   <path transform="matrix(1.3333,0,0,1.3333,375.8,247.76)" d="m3.175 0h7.4965c0.9317 0 1.4907 0 1.8634 0.15559 0.5372 0.19554 0.9605 0.61876 1.156 1.156 0.1556 0.37268 0.1556 0.9317 0.1556 1.8634v7.4965c0 0.9317 0 1.4907-0.1556 1.8634-0.1955 0.5372-0.6188 0.9605-1.156 1.156-0.3727 0.1556-0.9317 0.1556-1.8634 0.1556h-7.4965c-0.9317 0-1.4907 0-1.8634-0.1556-0.53724-0.1955-0.96046-0.6188-1.156-1.156-0.15559-0.3727-0.15559-0.9317-0.15559-1.8634v-7.4965c0-0.9317 0-1.4907 0.15559-1.8634 0.19554-0.53724 0.61876-0.96046 1.156-1.156 0.37268-0.15559 0.9317-0.15559 1.8634-0.15559z" filter="url(#filter49-2)"/>
   <path transform="matrix(1.3333,0,0,1.3333,353.13,270.75)" d="m3.175 0h7.4965c0.9317 0 1.4907 0 1.8634 0.15559 0.5372 0.19554 0.9605 0.61876 1.156 1.156 0.1556 0.37268 0.1556 0.9317 0.1556 1.8634v7.4965c0 0.9317 0 1.4907-0.1556 1.8634-0.1955 0.5372-0.6188 0.9605-1.156 1.156-0.3727 0.1556-0.9317 0.1556-1.8634 0.1556h-7.4965c-0.9317 0-1.4907 0-1.8634-0.1556-0.53724-0.1955-0.96046-0.6188-1.156-1.156-0.15559-0.3727-0.15559-0.9317-0.15559-1.8634v-7.4965c0-0.9317 0-1.4907 0.15559-1.8634 0.19554-0.53724 0.61876-0.96046 1.156-1.156 0.37268-0.15559 0.9317-0.15559 1.8634-0.15559z" filter="url(#filter49-2)"/>
   <path transform="matrix(1.3333,0,0,1.3333,289.26,309.48)" d="m3.175 0h7.4965c0.9317 0 1.4907 0 1.8634 0.15559 0.5372 0.19554 0.9605 0.61876 1.156 1.156 0.1556 0.37268 0.1556 0.9317 0.1556 1.8634v7.4965c0 0.9317 0 1.4907-0.1556 1.8634-0.1955 0.5372-0.6188 0.9605-1.156 1.156-0.3727 0.1556-0.9317 0.1556-1.8634 0.1556h-7.4965c-0.9317 0-1.4907 0-1.8634-0.1556-0.53724-0.1955-0.96046-0.6188-1.156-1.156-0.15559-0.3727-0.15559-0.9317-0.15559-1.8634v-7.4965c0-0.9317 0-1.4907 0.15559-1.8634 0.19554-0.53724 0.61876-0.96046 1.156-1.156 0.37268-0.15559 0.9317-0.15559 1.8634-0.15559z" filter="url(#filter49-2)"/>
   <path transform="matrix(1.3333,0,0,1.3333,366.81,359.78)" d="m3.175 0h7.4965c0.9317 0 1.4907 0 1.8634 0.15559 0.5372 0.19554 0.9605 0.61876 1.156 1.156 0.1556 0.37268 0.1556 0.9317 0.1556 1.8634v7.4965c0 0.9317 0 1.4907-0.1556 1.8634-0.1955 0.5372-0.6188 0.9605-1.156 1.156-0.3727 0.1556-0.9317 0.1556-1.8634 0.1556h-7.4965c-0.9317 0-1.4907 0-1.8634-0.1556-0.53724-0.1955-0.96046-0.6188-1.156-1.156-0.15559-0.3727-0.15559-0.9317-0.15559-1.8634v-7.4965c0-0.9317 0-1.4907 0.15559-1.8634 0.19554-0.53724 0.61876-0.96046 1.156-1.156 0.37268-0.15559 0.9317-0.15559 1.8634-0.15559z" filter="url(#filter49-2)"/>
   <path transform="matrix(1.3333,0,0,1.3333,419.62,364.43)" d="m3.175 0h7.4965c0.9317 0 1.4907 0 1.8634 0.15559 0.5372 0.19554 0.9605 0.61876 1.156 1.156 0.1556 0.37268 0.1556 0.9317 0.1556 1.8634v7.4965c0 0.9317 0 1.4907-0.1556 1.8634-0.1955 0.5372-0.6188 0.9605-1.156 1.156-0.3727 0.1556-0.9317 0.1556-1.8634 0.1556h-7.4965c-0.9317 0-1.4907 0-1.8634-0.1556-0.53724-0.1955-0.96046-0.6188-1.156-1.156-0.15559-0.3727-0.15559-0.9317-0.15559-1.8634v-7.4965c0-0.9317 0-1.4907 0.15559-1.8634 0.19554-0.53724 0.61876-0.96046 1.156-1.156 0.37268-0.15559 0.9317-0.15559 1.8634-0.15559z" fill="url(#linearGradient51-2)" filter="url(#filter49-2)"/>
   <path transform="matrix(1.3333,0,0,1.3333,389.92,173.3)" d="m3.175 0h7.4965c0.9317 0 1.4907 0 1.8634 0.15559 0.5372 0.19554 0.9605 0.61876 1.156 1.156 0.1556 0.37268 0.1556 0.9317 0.1556 1.8634v7.4965c0 0.9317 0 1.4907-0.1556 1.8634-0.1955 0.5372-0.6188 0.9605-1.156 1.156-0.3727 0.1556-0.9317 0.1556-1.8634 0.1556h-7.4965c-0.9317 0-1.4907 0-1.8634-0.1556-0.53724-0.1955-0.96046-0.6188-1.156-1.156-0.15559-0.3727-0.15559-0.9317-0.15559-1.8634v-7.4965c0-0.9317 0-1.4907 0.15559-1.8634 0.19554-0.53724 0.61876-0.96046 1.156-1.156 0.37268-0.15559 0.9317-0.15559 1.8634-0.15559z" filter="url(#filter49-2)"/>
   <path transform="matrix(1.3333,0,0,1.3333,419.92,193.3)" d="m3.175 0h7.4965c0.9317 0 1.4907 0 1.8634 0.15559 0.5372 0.19554 0.9605 0.61876 1.156 1.156 0.1556 0.37268 0.1556 0.9317 0.1556 1.8634v7.4965c0 0.9317 0 1.4907-0.1556 1.8634-0.1955 0.5372-0.6188 0.9605-1.156 1.156-0.3727 0.1556-0.9317 0.1556-1.8634 0.1556h-7.4965c-0.9317 0-1.4907 0-1.8634-0.1556-0.53724-0.1955-0.96046-0.6188-1.156-1.156-0.15559-0.3727-0.15559-0.9317-0.15559-1.8634v-7.4965c0-0.9317 0-1.4907 0.15559-1.8634 0.19554-0.53724 0.61876-0.96046 1.156-1.156 0.37268-0.15559 0.9317-0.15559 1.8634-0.15559z" filter="url(#filter49-2)"/>
   <path transform="matrix(1.3333,0,0,1.3333,337.44,198.46)" d="m3.175 0h7.4965c0.9317 0 1.4907 0 1.8634 0.15559 0.5372 0.19554 0.9605 0.61876 1.156 1.156 0.1556 0.37268 0.1556 0.9317 0.1556 1.8634v7.4965c0 0.9317 0 1.4907-0.1556 1.8634-0.1955 0.5372-0.6188 0.9605-1.156 1.156-0.3727 0.1556-0.9317 0.1556-1.8634 0.1556h-7.4965c-0.9317 0-1.4907 0-1.8634-0.1556-0.53724-0.1955-0.96046-0.6188-1.156-1.156-0.15559-0.3727-0.15559-0.9317-0.15559-1.8634v-7.4965c0-0.9317 0-1.4907 0.15559-1.8634 0.19554-0.53724 0.61876-0.96046 1.156-1.156 0.37268-0.15559 0.9317-0.15559 1.8634-0.15559z" filter="url(#filter49-2)"/>
  </g>
  <g transform="translate(219.07,-130.85)">
   <path transform="matrix(1.3333,0,0,1.3333,422.1,356.77)" d="m3.175 0h7.4965c0.9317 0 1.4907 0 1.8634 0.15559 0.5372 0.19554 0.9605 0.61876 1.156 1.156 0.1556 0.37268 0.1556 0.9317 0.1556 1.8634v7.4965c0 0.9317 0 1.4907-0.1556 1.8634-0.1955 0.5372-0.6188 0.9605-1.156 1.156-0.3727 0.1556-0.9317 0.1556-1.8634 0.1556h-7.4965c-0.9317 0-1.4907 0-1.8634-0.1556-0.53724-0.1955-0.96046-0.6188-1.156-1.156-0.15559-0.3727-0.15559-0.9317-0.15559-1.8634v-7.4965c0-0.9317 0-1.4907 0.15559-1.8634 0.19554-0.53724 0.61876-0.96046 1.156-1.156 0.37268-0.15559 0.9317-0.15559 1.8634-0.15559z" filter="url(#filter49-2)"/>
   <path transform="matrix(1.3333,0,0,1.3333,460.1,354.77)" d="m3.175 0h7.4965c0.9317 0 1.4907 0 1.8634 0.15559 0.5372 0.19554 0.9605 0.61876 1.156 1.156 0.1556 0.37268 0.1556 0.9317 0.1556 1.8634v7.4965c0 0.9317 0 1.4907-0.1556 1.8634-0.1955 0.5372-0.6188 0.9605-1.156 1.156-0.3727 0.1556-0.9317 0.1556-1.8634 0.1556h-7.4965c-0.9317 0-1.4907 0-1.8634-0.1556-0.53724-0.1955-0.96046-0.6188-1.156-1.156-0.15559-0.3727-0.15559-0.9317-0.15559-1.8634v-7.4965c0-0.9317 0-1.4907 0.15559-1.8634 0.19554-0.53724 0.61876-0.96046 1.156-1.156 0.37268-0.15559 0.9317-0.15559 1.8634-0.15559z" filter="url(#filter49-2)"/>
   <path transform="matrix(1.3333,0,0,1.3333,460.1,302.77)" d="m3.175 0h7.4965c0.9317 0 1.4907 0 1.8634 0.15559 0.5372 0.19554 0.9605 0.61876 1.156 1.156 0.1556 0.37268 0.1556 0.9317 0.1556 1.8634v7.4965c0 0.9317 0 1.4907-0.1556 1.8634-0.1955 0.5372-0.6188 0.9605-1.156 1.156-0.3727 0.1556-0.9317 0.1556-1.8634 0.1556h-7.4965c-0.9317 0-1.4907 0-1.8634-0.1556-0.53724-0.1955-0.96046-0.6188-1.156-1.156-0.15559-0.3727-0.15559-0.9317-0.15559-1.8634v-7.4965c0-0.9317 0-1.4907 0.15559-1.8634 0.19554-0.53724 0.61876-0.96046 1.156-1.156 0.37268-0.15559 0.9317-0.15559 1.8634-0.15559z" filter="url(#filter49-2)"/>
   <path transform="matrix(1.3333,0,0,1.3333,360.1,360.77)" d="m3.175 0h7.4965c0.9317 0 1.4907 0 1.8634 0.15559 0.5372 0.19554 0.9605 0.61876 1.156 1.156 0.1556 0.37268 0.1556 0.9317 0.1556 1.8634v7.4965c0 0.9317 0 1.4907-0.1556 1.8634-0.1955 0.5372-0.6188 0.9605-1.156 1.156-0.3727 0.1556-0.9317 0.1556-1.8634 0.1556h-7.4965c-0.9317 0-1.4907 0-1.8634-0.1556-0.53724-0.1955-0.96046-0.6188-1.156-1.156-0.15559-0.3727-0.15559-0.9317-0.15559-1.8634v-7.4965c0-0.9317 0-1.4907 0.15559-1.8634 0.19554-0.53724 0.61876-0.96046 1.156-1.156 0.37268-0.15559 0.9317-0.15559 1.8634-0.15559z" filter="url(#filter49-2)"/>
   <path transform="matrix(1.3333,0,0,1.3333,408.1,318.77)" d="m3.175 0h7.4965c0.9317 0 1.4907 0 1.8634 0.15559 0.5372 0.19554 0.9605 0.61876 1.156 1.156 0.1556 0.37268 0.1556 0.9317 0.1556 1.8634v7.4965c0 0.9317 0 1.4907-0.1556 1.8634-0.1955 0.5372-0.6188 0.9605-1.156 1.156-0.3727 0.1556-0.9317 0.1556-1.8634 0.1556h-7.4965c-0.9317 0-1.4907 0-1.8634-0.1556-0.53724-0.1955-0.96046-0.6188-1.156-1.156-0.15559-0.3727-0.15559-0.9317-0.15559-1.8634v-7.4965c0-0.9317 0-1.4907 0.15559-1.8634 0.19554-0.53724 0.61876-0.96046 1.156-1.156 0.37268-0.15559 0.9317-0.15559 1.8634-0.15559z" filter="url(#filter49-2)"/>
   <path transform="matrix(1.3333,0,0,1.3333,360.1,318.77)" d="m3.175 0h7.4965c0.9317 0 1.4907 0 1.8634 0.15559 0.5372 0.19554 0.9605 0.61876 1.156 1.156 0.1556 0.37268 0.1556 0.9317 0.1556 1.8634v7.4965c0 0.9317 0 1.4907-0.1556 1.8634-0.1955 0.5372-0.6188 0.9605-1.156 1.156-0.3727 0.1556-0.9317 0.1556-1.8634 0.1556h-7.4965c-0.9317 0-1.4907 0-1.8634-0.1556-0.53724-0.1955-0.96046-0.6188-1.156-1.156-0.15559-0.3727-0.15559-0.9317-0.15559-1.8634v-7.4965c0-0.9317 0-1.4907 0.15559-1.8634 0.19554-0.53724 0.61876-0.96046 1.156-1.156 0.37268-0.15559 0.9317-0.15559 1.8634-0.15559z" filter="url(#filter49-2)"/>
   <path transform="matrix(1.3333,0,0,1.3333,416.1,288.77)" d="m3.175 0h7.4965c0.9317 0 1.4907 0 1.8634 0.15559 0.5372 0.19554 0.9605 0.61876 1.156 1.156 0.1556 0.37268 0.1556 0.9317 0.1556 1.8634v7.4965c0 0.9317 0 1.4907-0.1556 1.8634-0.1955 0.5372-0.6188 0.9605-1.156 1.156-0.3727 0.1556-0.9317 0.1556-1.8634 0.1556h-7.4965c-0.9317 0-1.4907 0-1.8634-0.1556-0.53724-0.1955-0.96046-0.6188-1.156-1.156-0.15559-0.3727-0.15559-0.9317-0.15559-1.8634v-7.4965c0-0.9317 0-1.4907 0.15559-1.8634 0.19554-0.53724 0.61876-0.96046 1.156-1.156 0.37268-0.15559 0.9317-0.15559 1.8634-0.15559z" filter="url(#filter49-2)"/>
   <path transform="matrix(1.3333,0,0,1.3333,376.1,278.77)" d="m3.175 0h7.4965c0.9317 0 1.4907 0 1.8634 0.15559 0.5372 0.19554 0.9605 0.61876 1.156 1.156 0.1556 0.37268 0.1556 0.9317 0.1556 1.8634v7.4965c0 0.9317 0 1.4907-0.1556 1.8634-0.1955 0.5372-0.6188 0.9605-1.156 1.156-0.3727 0.1556-0.9317 0.1556-1.8634 0.1556h-7.4965c-0.9317 0-1.4907 0-1.8634-0.1556-0.53724-0.1955-0.96046-0.6188-1.156-1.156-0.15559-0.3727-0.15559-0.9317-0.15559-1.8634v-7.4965c0-0.9317 0-1.4907 0.15559-1.8634 0.19554-0.53724 0.61876-0.96046 1.156-1.156 0.37268-0.15559 0.9317-0.15559 1.8634-0.15559z" filter="url(#filter49-2)"/>
   <path transform="matrix(1.3333,0,0,1.3333,342.1,268.77)" d="m3.175 0h7.4965c0.9317 0 1.4907 0 1.8634 0.15559 0.5372 0.19554 0.9605 0.61876 1.156 1.156 0.1556 0.37268 0.1556 0.9317 0.1556 1.8634v7.4965c0 0.9317 0 1.4907-0.1556 1.8634-0.1955 0.5372-0.6188 0.9605-1.156 1.156-0.3727 0.1556-0.9317 0.1556-1.8634 0.1556h-7.4965c-0.9317 0-1.4907 0-1.8634-0.1556-0.53724-0.1955-0.96046-0.6188-1.156-1.156-0.15559-0.3727-0.15559-0.9317-0.15559-1.8634v-7.4965c0-0.9317 0-1.4907 0.15559-1.8634 0.19554-0.53724 0.61876-0.96046 1.156-1.156 0.37268-0.15559 0.9317-0.15559 1.8634-0.15559z" filter="url(#filter49-2)"/>
   <path transform="matrix(1.3333,0,0,1.3333,348.1,230.77)" d="m3.175 0h7.4965c0.9317 0 1.4907 0 1.8634 0.15559 0.5372 0.19554 0.9605 0.61876 1.156 1.156 0.1556 0.37268 0.1556 0.9317 0.1556 1.8634v7.4965c0 0.9317 0 1.4907-0.1556 1.8634-0.1955 0.5372-0.6188 0.9605-1.156 1.156-0.3727 0.1556-0.9317 0.1556-1.8634 0.1556h-7.4965c-0.9317 0-1.4907 0-1.8634-0.1556-0.53724-0.1955-0.96046-0.6188-1.156-1.156-0.15559-0.3727-0.15559-0.9317-0.15559-1.8634v-7.4965c0-0.9317 0-1.4907 0.15559-1.8634 0.19554-0.53724 0.61876-0.96046 1.156-1.156 0.37268-0.15559 0.9317-0.15559 1.8634-0.15559z" filter="url(#filter49-2)"/>
   <path transform="matrix(1.3333,0,0,1.3333,348.1,194.77)" d="m3.175 0h7.4965c0.9317 0 1.4907 0 1.8634 0.15559 0.5372 0.19554 0.9605 0.61876 1.156 1.156 0.1556 0.37268 0.1556 0.9317 0.1556 1.8634v7.4965c0 0.9317 0 1.4907-0.1556 1.8634-0.1955 0.5372-0.6188 0.9605-1.156 1.156-0.3727 0.1556-0.9317 0.1556-1.8634 0.1556h-7.4965c-0.9317 0-1.4907 0-1.8634-0.1556-0.53724-0.1955-0.96046-0.6188-1.156-1.156-0.15559-0.3727-0.15559-0.9317-0.15559-1.8634v-7.4965c0-0.9317 0-1.4907 0.15559-1.8634 0.19554-0.53724 0.61876-0.96046 1.156-1.156 0.37268-0.15559 0.9317-0.15559 1.8634-0.15559z" filter="url(#filter49-2)"/>
   <path transform="matrix(1.3333,0,0,1.3333,380.1,184.77)" d="m3.175 0h7.4965c0.9317 0 1.4907 0 1.8634 0.15559 0.5372 0.19554 0.9605 0.61876 1.156 1.156 0.1556 0.37268 0.1556 0.9317 0.1556 1.8634v7.4965c0 0.9317 0 1.4907-0.1556 1.8634-0.1955 0.5372-0.6188 0.9605-1.156 1.156-0.3727 0.1556-0.9317 0.1556-1.8634 0.1556h-7.4965c-0.9317 0-1.4907 0-1.8634-0.1556-0.53724-0.1955-0.96046-0.6188-1.156-1.156-0.15559-0.3727-0.15559-0.9317-0.15559-1.8634v-7.4965c0-0.9317 0-1.4907 0.15559-1.8634 0.19554-0.53724 0.61876-0.96046 1.156-1.156 0.37268-0.15559 0.9317-0.15559 1.8634-0.15559z" filter="url(#filter49-2)"/>
   <path transform="matrix(1.3333,0,0,1.3333,386.1,216.77)" d="m3.175 0h7.4965c0.9317 0 1.4907 0 1.8634 0.15559 0.5372 0.19554 0.9605 0.61876 1.156 1.156 0.1556 0.37268 0.1556 0.9317 0.1556 1.8634v7.4965c0 0.9317 0 1.4907-0.1556 1.8634-0.1955 0.5372-0.6188 0.9605-1.156 1.156-0.3727 0.1556-0.9317 0.1556-1.8634 0.1556h-7.4965c-0.9317 0-1.4907 0-1.8634-0.1556-0.53724-0.1955-0.96046-0.6188-1.156-1.156-0.15559-0.3727-0.15559-0.9317-0.15559-1.8634v-7.4965c0-0.9317 0-1.4907 0.15559-1.8634 0.19554-0.53724 0.61876-0.96046 1.156-1.156 0.37268-0.15559 0.9317-0.15559 1.8634-0.15559z" filter="url(#filter49-2)"/>
   <path transform="matrix(1.3333,0,0,1.3333,386.1,248.77)" d="m3.175 0h7.4965c0.9317 0 1.4907 0 1.8634 0.15559 0.5372 0.19554 0.9605 0.61876 1.156 1.156 0.1556 0.37268 0.1556 0.9317 0.1556 1.8634v7.4965c0 0.9317 0 1.4907-0.1556 1.8634-0.1955 0.5372-0.6188 0.9605-1.156 1.156-0.3727 0.1556-0.9317 0.1556-1.8634 0.1556h-7.4965c-0.9317 0-1.4907 0-1.8634-0.1556-0.53724-0.1955-0.96046-0.6188-1.156-1.156-0.15559-0.3727-0.15559-0.9317-0.15559-1.8634v-7.4965c0-0.9317 0-1.4907 0.15559-1.8634 0.19554-0.53724 0.61876-0.96046 1.156-1.156 0.37268-0.15559 0.9317-0.15559 1.8634-0.15559z" filter="url(#filter49-2)"/>
   <path transform="matrix(1.3333,0,0,1.3333,438.1,212.77)" d="m3.175 0h7.4965c0.9317 0 1.4907 0 1.8634 0.15559 0.5372 0.19554 0.9605 0.61876 1.156 1.156 0.1556 0.37268 0.1556 0.9317 0.1556 1.8634v7.4965c0 0.9317 0 1.4907-0.1556 1.8634-0.1955 0.5372-0.6188 0.9605-1.156 1.156-0.3727 0.1556-0.9317 0.1556-1.8634 0.1556h-7.4965c-0.9317 0-1.4907 0-1.8634-0.1556-0.53724-0.1955-0.96046-0.6188-1.156-1.156-0.15559-0.3727-0.15559-0.9317-0.15559-1.8634v-7.4965c0-0.9317 0-1.4907 0.15559-1.8634 0.19554-0.53724 0.61876-0.96046 1.156-1.156 0.37268-0.15559 0.9317-0.15559 1.8634-0.15559z" filter="url(#filter49-2)"/>
   <path transform="matrix(1.3333,0,0,1.3333,422.1,258.77)" d="m3.175 0h7.4965c0.9317 0 1.4907 0 1.8634 0.15559 0.5372 0.19554 0.9605 0.61876 1.156 1.156 0.1556 0.37268 0.1556 0.9317 0.1556 1.8634v7.4965c0 0.9317 0 1.4907-0.1556 1.8634-0.1955 0.5372-0.6188 0.9605-1.156 1.156-0.3727 0.1556-0.9317 0.1556-1.8634 0.1556h-7.4965c-0.9317 0-1.4907 0-1.8634-0.1556-0.53724-0.1955-0.96046-0.6188-1.156-1.156-0.15559-0.3727-0.15559-0.9317-0.15559-1.8634v-7.4965c0-0.9317 0-1.4907 0.15559-1.8634 0.19554-0.53724 0.61876-0.96046 1.156-1.156 0.37268-0.15559 0.9317-0.15559 1.8634-0.15559z" filter="url(#filter49-2)"/>
   <path transform="matrix(1.3333,0,0,1.3333,474.1,246.77)" d="m3.175 0h7.4965c0.9317 0 1.4907 0 1.8634 0.15559 0.5372 0.19554 0.9605 0.61876 1.156 1.156 0.1556 0.37268 0.1556 0.9317 0.1556 1.8634v7.4965c0 0.9317 0 1.4907-0.1556 1.8634-0.1955 0.5372-0.6188 0.9605-1.156 1.156-0.3727 0.1556-0.9317 0.1556-1.8634 0.1556h-7.4965c-0.9317 0-1.4907 0-1.8634-0.1556-0.53724-0.1955-0.96046-0.6188-1.156-1.156-0.15559-0.3727-0.15559-0.9317-0.15559-1.8634v-7.4965c0-0.9317 0-1.4907 0.15559-1.8634 0.19554-0.53724 0.61876-0.96046 1.156-1.156 0.37268-0.15559 0.9317-0.15559 1.8634-0.15559z" filter="url(#filter49-2)"/>
   <path transform="matrix(1.3333,0,0,1.3333,420.1,186.77)" d="m3.175 0h7.4965c0.9317 0 1.4907 0 1.8634 0.15559 0.5372 0.19554 0.9605 0.61876 1.156 1.156 0.1556 0.37268 0.1556 0.9317 0.1556 1.8634v7.4965c0 0.9317 0 1.4907-0.1556 1.8634-0.1955 0.5372-0.6188 0.9605-1.156 1.156-0.3727 0.1556-0.9317 0.1556-1.8634 0.1556h-7.4965c-0.9317 0-1.4907 0-1.8634-0.1556-0.53724-0.1955-0.96046-0.6188-1.156-1.156-0.15559-0.3727-0.15559-0.9317-0.15559-1.8634v-7.4965c0-0.9317 0-1.4907 0.15559-1.8634 0.19554-0.53724 0.61876-0.96046 1.156-1.156 0.37268-0.15559 0.9317-0.15559 1.8634-0.15559z" filter="url(#filter49-2)"/>
  </g>
 </g>
 <text x="781.65491" y="157.02873" font-size="16px" stroke-width="1.3333" xml:space="preserve"><tspan x="781.65491 786.09973 794.9989 803.89807 812.79724 820.79724" y="157.02873" fill="#525252" font-family="Arial" font-size="16px" stroke-width="1.3333">Ingest</tspan></text>
 <path d="m846.68 117.16c-0.3804 0.0182-0.752 0.13335-1.086 0.34375-0.6679 0.41844-1.0761 1.1538-1.0761 1.9492v34.002c0.1451-0.0288 0.2951-0.0469 0.455-0.0469h22.033l-5.6328-5.2559c-0.3952-0.36888-0.5829-0.79917-0.5664-1.291 0.016-0.49183 0.2041-0.92213 0.5664-1.291 0.3952-0.36889 0.8648-0.56081 1.4082-0.57617 0.5434-0.0153 1.013 0.16046 1.4082 0.52929l9.041 8.4375c0.1977 0.18444 0.3376 0.38444 0.42 0.59961 0.082 0.21518 0.123 0.44547 0.123 0.69141 0 0.24592-0.041 0.47816-0.123 0.69336-0.082 0.21516-0.2223 0.41519-0.42 0.59961l-9.041 8.4375c-0.39516 0.36888-0.86476 0.54467-1.4082 0.5293-0.5434-0.0153-1.013-0.20726-1.4082-0.57618-0.3623-0.36888-0.5499-0.79917-0.5664-1.291-0.016-0.49185 0.1713-0.92214 0.5664-1.291l5.6328-5.2559h-22.033c-0.1599 0-0.3099-0.018-0.455-0.0469v31.205c0.1451-0.0288 0.2951-0.0469 0.455-0.0469h22.033l-5.6328-5.2578c-0.3952-0.36888-0.5829-0.79917-0.5664-1.291 0.016-0.49185 0.2041-0.92212 0.5664-1.291 0.3952-0.36888 0.8648-0.56082 1.4082-0.57618 0.5434-0.0153 1.013 0.16242 1.4082 0.53125l9.041 8.4375c0.1977 0.18444 0.3376 0.38444 0.42 0.59961 0.082 0.21518 0.123 0.44547 0.123 0.69141 0 0.24592-0.041 0.47621-0.123 0.69141-0.082 0.21517-0.2223 0.41517-0.42 0.59961l-9.041 8.4375c-0.39516 0.36888-0.86476 0.54663-1.4082 0.53125-0.5434-0.0153-1.013-0.20726-1.4082-0.57618-0.3623-0.36888-0.5499-0.79917-0.5664-1.291-0.016-0.49186 0.1713-0.92214 0.5664-1.291l5.6328-5.2578h-22.033c-0.1599 0-0.3099-0.018-0.455-0.0469v32.83c0 0.79547 0.4082 1.5308 1.0761 1.9492 0.334 0.2104 0.7056 0.32555 1.086 0.34375 0.3804 0.019 0.7697-0.0564 1.123-0.23243l34.193-16.973c0.7795-0.38623 1.2734-1.1869 1.2734-2.0605v-71.281c0-0.8736-0.4939-1.6743-1.2734-2.0606l-34.193-16.973c-0.3533-0.17598-0.7426-0.25137-1.123-0.23242zm48.271 25.068c-4.5588 0-8.2304 3.6697-8.2304 8.2285v45.057c0 4.5588 3.6716 8.2285 8.2304 8.2285h9.7129c4.5589 0 8.2286-3.6697 8.2286-8.2285v-45.057c0-4.5588-3.6697-8.2285-8.2286-8.2285zm4.8555 6.9102a4.5 4.5 0 0 1 4.5 4.5 4.5 4.5 0 0 1-4.5 4.5 4.5 4.5 0 0 1-4.5-4.5 4.5 4.5 0 0 1 4.5-4.5zm0 11.699a4.5 4.5 0 0 1 4.5 4.5 4.5 4.5 0 0 1-4.5 4.5 4.5 4.5 0 0 1-4.5-4.5 4.5 4.5 0 0 1 4.5-4.5zm0 15.898c1.2287 0 2.2188 0.98813 2.2188 2.2168v14.971c0 1.2287-0.9901 2.2188-2.2188 2.2188s-2.2187-0.99007-2.2187-2.2188v-14.971c0-1.2287 0.99-2.2168 2.2187-2.2168z" fill="#157800" stroke-width="2.2796"/>
 <path transform="matrix(1.3333 0 0 1.3333 777.23 171.63)" d="m33.089-3.8993v3.1494h-33.089v1.5h33.089v3.1494l7.8003-3.8994z" color="#000000" fill="#909090" filter="url(#filter512)" stroke-linejoin="round" style="-inkscape-stroke:none"/>
 <text x="287.03827" y="32.270809" fill="#0000ff" font-size="16px" stroke-width="1.3333" xml:space="preserve"><tspan x="287.03827 299.68469 305.61108 324.58069 336.44629 343.55029 358.95721 370.82281 382.68842 394.55402 407.58441 413.5108 428.91772 440.78333 447.88733 459.75293 472.78333 478.70972 484.63611 497.66656 510.69696 522.56256 534.42816 541.53217 547.45856 560.48895" y="32.270809" fill="#0000ff" font-family="Arial" font-size="21.333px" font-weight="700" stroke-width="1.3333">Time-Based Batch Ingestion</tspan></text>
 <path d="m818.78 289.35q-0.9327 0-1.6063-0.67433-0.6737-0.67431-0.6737-1.6077t0.6737-1.6057q0.6736-0.67224 1.6063-0.67224h11.555q0.9327 0 1.6064 0.67432 0.6736 0.67432 0.6736 1.6077 0 0.9334-0.6736 1.6056-0.6737 0.67226-1.6064 0.67226zm5.7794 32.792q0.9334 0 1.6056-0.67364 0.6723-0.67362 0.6723-1.6063v-11.555q0-0.93272-0.6743-1.6063-0.6744-0.67364-1.6078-0.67364t-1.6056 0.67364q-0.6723 0.67362-0.6723 1.6063v11.555q0 0.93272 0.6744 1.6063 0.6743 0.67364 1.6077 0.67364zm0 21.513q-4.971 0-9.3203-1.8675-4.3492-1.8675-7.5999-5.1175-3.25-3.2507-5.1175-7.5999-1.8678-4.3492-1.8678-9.3202t1.8675-9.3202q1.8676-4.3492 5.1176-7.5999 3.2506-3.25 7.5999-5.1175 4.3492-1.8675 9.3202-1.8675 4.115 0 7.9571 1.3659 3.8414 1.3659 7.0458 3.9913l2.1791-2.1791q0.7338-0.73375 1.6077-0.75999 0.8747-0.0276 1.661 0.75999 0.7862 0.78624 0.7862 1.634 0 0.84774-0.7862 1.6347l-2.1791 2.1791q2.8327 3.4117 4.2331 7.3021 1.4005 3.8905 1.4005 7.9771 0 4.971-1.8675 9.3202-1.8675 4.3492-5.1175 7.5999-3.2507 3.25-7.5999 5.1175-4.3493 1.8675-9.3203 1.8675zm0-4.56q8.0144 0 13.68-5.6654 5.6654-5.6654 5.6654-13.68t-5.6654-13.68q-5.6654-5.6654-13.68-5.6654-8.0145 0-13.68 5.6654-5.6654 5.6654-5.6654 13.68t5.6654 13.68q5.6653 5.6654 13.68 5.6654z" fill="#646464" fill-opacity=".99216"/>
 <text x="497.38629" y="350.66367" font-size="16px" stroke-width="1.3333" xml:space="preserve"><tspan x="497.38629 514.66785 525.04279 535.41772 545.79266 550.97827 561.35321 566.53882 580.01239 591.414 602.81561 614.21722" y="350.66367" fill="#525252" font-family="Arial" font-size="18.667px" font-weight="700" stroke-width="1.3333">Weekly Chunk</tspan></text>
 <text x="136.88226" y="350.66367" font-size="16px" stroke-width="1.3333" xml:space="preserve"><tspan x="136.88226 154.16388 164.53879 174.91376 185.2887 190.47424 200.84918 206.03479 219.50842 230.90997 242.31158 253.7132" y="350.66367" fill="#525252" font-family="Arial" font-size="18.667px" font-weight="700" stroke-width="1.3333">Weekly Chunk</tspan></text>
 <g fill="none">
  <g stroke="#525252">
   <path d="m404.05 312.81h349.48" stroke-linejoin="round" stroke-width="2"/>
   <path d="m753.92 318.01v-10.4" stroke-miterlimit="10" stroke-width="2"/>
   <path d="m403.66 307.61v10.4" stroke-miterlimit="10" stroke-width="2"/>
   <path d="m44.264 312.37h349.48" stroke-linejoin="round" stroke-width="2"/>
   <path d="m394.13 317.57v-10.4" stroke-miterlimit="10" stroke-width="2"/>
   <path d="m43.877 307.17v10.4" stroke-miterlimit="10" stroke-width="2"/>
  </g>
  <path transform="matrix(1.3333 0 0 1.3333 43.5 61.652)" d="m0 0h263.26v164.73h-263.26z" clip-path="url(#clipPath465)" stroke="#909090" stroke-dasharray="6.75, 2.25" stroke-linejoin="round" stroke-width="2.25"/>
  <path transform="matrix(1.3333 0 0 1.3333 403.77 62.156)" d="m0 0h263.26v164.73h-263.26z" clip-path="url(#clipPath468)" stroke="#909090" stroke-dasharray="6.75, 2.25" stroke-linejoin="round" stroke-width="2.25"/>
 </g>
</svg>
