<?xml version="1.0" encoding="UTF-8" standalone="no"?><!DOCTYPE svg PUBLIC "-//W3C//DTD SVG 1.1//EN" "http://www.w3.org/Graphics/SVG/1.1/DTD/svg11.dtd"><svg width="100%" height="100%" viewBox="0 0 592 179" version="1.1" xmlns="http://www.w3.org/2000/svg" xmlns:xlink="http://www.w3.org/1999/xlink" xml:space="preserve" xmlns:serif="http://www.serif.com/" style="fill-rule:evenodd;clip-rule:evenodd;stroke-linejoin:round;"><g><path d="M99.452,66.93l120.776,-0" style="fill:none;fill-rule:nonzero;stroke:#909090;stroke-width:2px;"/><path d="M219.228,71.73l9.6,-4.8l-9.6,-4.8l-0,9.6Z" style="fill:#909090;fill-rule:nonzero;"/><path d="M100.452,62.13l-9.6,4.8l9.6,4.8l0,-9.6Z" style="fill:#909090;fill-rule:nonzero;"/></g><g><path d="M346.187,66.93l120.776,-0" style="fill:none;fill-rule:nonzero;stroke:#909090;stroke-width:2px;"/><path d="M465.963,71.73l9.6,-4.8l-9.6,-4.8l-0,9.6Z" style="fill:#909090;fill-rule:nonzero;"/><path d="M347.187,62.13l-9.6,4.8l9.6,4.8l0,-9.6Z" style="fill:#909090;fill-rule:nonzero;"/></g><text x="238.466px" y="119.487px" style="font-family:'ArialMT', 'Arial', sans-serif;font-size:14px;fill:#535353;">Bastion Host</text><text x="14.922px" y="119.66px" style="font-family:'ArialMT', 'Arial', sans-serif;font-size:14px;fill:#535353;">Database</text><text x="146.876px" y="159.198px" style="font-family:'ArialMT', 'Arial', sans-serif;font-size:14px;fill:#4285f4;">Bridge that connects authorized users from</text><text x="161.659px" y="175.198px" style="font-family:'ArialMT', 'Arial', sans-serif;font-size:14px;fill:#4285f4;">the public internet to private resources</text><text x="488.519px" y="119.487px" style="font-family:'ArialMT', 'Arial', sans-serif;font-size:14px;fill:#535353;">Authorized User</text><text x="348.708px" y="49.961px" style="font-family:'ArialMT', 'Arial', sans-serif;font-size:16px;fill:#535353;">SSH connection</text><text x="474.226px" y="159.198px" style="font-family:'ArialMT', 'Arial', sans-serif;font-size:14px;fill:#4285f4;">Use an SSH key to</text><text x="476.168px" y="175.198px" style="font-family:'ArialMT', 'Arial', sans-serif;font-size:14px;fill:#4285f4;">prove their identity</text><text x="23.102px" y="159.411px" style="font-family:'ArialMT', 'Arial', sans-serif;font-size:14px;fill:#4285f4;">Private</text><text x="17.653px" y="175.411px" style="font-family:'ArialMT', 'Arial', sans-serif;font-size:14px;fill:#4285f4;">resource</text><path d="M234.365,38.079l0.554,-0.832c31.982,-45.386 64.599,-44.131 97.854,3.763" style="fill:none;fill-rule:nonzero;stroke:#909090;stroke-width:2px;stroke-linejoin:miter;stroke-dasharray:2,2;"/><path d="M230.924,34.586l-1.326,10.651l9.316,-5.33l-7.99,-5.321Z" style="fill:#909090;fill-rule:nonzero;"/><g id="Icon-Resource-General-Resource-Res_Authenticated-User_48" serif:id="Icon-Resource/General-Resource/Res_Authenticated-User_48"><path id="Fill-1" d="M536.604,63.564c7.322,0 13.281,-6.001 13.281,-13.376c-0,-7.376 -5.959,-13.378 -13.281,-13.378c-7.323,0 -13.283,6.002 -13.283,13.378c0,7.375 5.96,13.376 13.283,13.376Zm-24.342,27.413l32.466,-0l-0,2.708l-33.854,0c-0.749,0 -1.354,-0.607 -1.354,-1.354c-0,-13.271 8.863,-24.401 20.743,-27.384c-5.672,-2.475 -9.65,-8.156 -9.65,-14.759c-0,-8.87 7.173,-16.086 15.991,-16.086c8.816,-0 15.989,7.216 15.989,16.086c-0,6.6 -3.977,12.281 -9.643,14.756c1.236,0.31 2.459,0.681 3.649,1.174c0.241,0.099 0.477,0.201 0.713,0.306l-1.111,2.472c-0.211,-0.096 -0.425,-0.187 -0.639,-0.276c-2.849,-1.179 -5.865,-1.777 -8.959,-1.777c-13.006,-0 -23.666,10.707 -24.341,24.134Zm54.133,-10.156c-0,-5.601 -4.556,-10.157 -10.157,-10.157c-5.601,0 -10.156,4.556 -10.156,10.157c0,5.6 4.555,10.156 10.156,10.156c5.601,-0 10.157,-4.556 10.157,-10.156Zm2.708,-0c-0,7.093 -5.772,12.864 -12.865,12.864c-7.093,0 -12.864,-5.771 -12.864,-12.864c-0,-7.094 5.771,-12.865 12.864,-12.865c7.093,-0 12.865,5.771 12.865,12.865Zm-7.728,-4.908l1.914,1.915l-8.125,8.125c-0.264,0.265 -0.61,0.397 -0.957,0.397c-0.347,-0 -0.693,-0.132 -0.957,-0.397l-4.063,-4.063l1.915,-1.914l3.105,3.105l7.168,-7.168Z" style="fill:#232f3d;"/></g><g><g><path d="M21.066,75.214l0,11.227l0.031,0c0.136,3.812 11.14,6.928 24.475,6.93c13.334,-0.002 24.336,-3.118 24.472,-6.93l0,-11.227l-0.015,-0c-0.136,3.812 -11.139,6.927 -24.473,6.929c-13.335,-0.002 -24.338,-3.117 -24.474,-6.929l-0.016,-0Z" style="fill:#666;fill-rule:nonzero;"/><path d="M20.808,60.589l-0,11.227l0.031,0c0.136,3.812 11.14,6.928 24.474,6.93c13.335,-0.002 24.337,-3.118 24.473,-6.93l-0,-11.227l-0.015,-0c-0.136,3.812 -11.139,6.927 -24.473,6.929c-13.335,-0.002 -24.339,-3.117 -24.475,-6.929l-0.015,-0Z" style="fill:#666;fill-rule:nonzero;"/><path d="M20.809,45.964l0,11.227l0.031,0c0.136,3.813 11.14,6.928 24.475,6.93c13.334,-0.002 24.336,-3.118 24.472,-6.93l0,-11.227l-0.015,-0c-0.136,3.812 -11.139,6.927 -24.473,6.929c-13.335,-0.001 -24.339,-3.117 -24.475,-6.929l-0.015,-0Z" style="fill:#666;fill-rule:nonzero;"/></g><ellipse cx="45.298" cy="41.472" rx="24.488" ry="8.024" style="fill:#666;"/></g><path d="M295.473,62.923c1.141,0.365 2.114,0.958 2.899,1.84c0.82,0.923 1.347,1.991 1.526,3.216c0.05,0.342 0.058,0.692 0.059,1.038c0.004,4.571 0.009,9.142 0,13.713c-0.005,2.689 -0.016,5.378 -0.066,8.066c-0.016,0.898 -0.251,1.776 -0.732,2.548c-0.344,0.552 -0.702,1.118 -1.159,1.573c-0.956,0.949 -2.114,1.56 -3.476,1.719c-0.297,0.035 -0.598,0.055 -0.897,0.055c-10.058,0.003 -20.116,0.003 -30.174,0.002c-1.307,0 -2.484,-0.411 -3.519,-1.19c-1.309,-0.986 -2.101,-2.311 -2.409,-3.919c-0.049,-0.256 -0.063,-0.522 -0.063,-0.783c-0.004,-7.206 0.007,-14.412 -0.011,-21.618c-0.004,-1.455 0.362,-2.764 1.22,-3.935c1.022,-1.393 2.385,-2.275 4.098,-2.479c1.051,-0.125 2.126,-0.058 3.19,-0.075c0.273,-0.004 0.546,-0 0.835,-0c-0.16,-0.702 -0.315,-1.38 -0.479,-2.097c-0.1,-0 -0.22,-0 -0.34,-0c-4.241,-0 -8.481,-0 -12.722,-0c-1.215,-0 -2.117,-0.877 -2.204,-2.089c-0.055,-0.762 -0.183,-1.519 -0.269,-2.279c-0.067,-0.594 -0.113,-1.19 -0.179,-1.785c-0.066,-0.593 -0.15,-1.184 -0.217,-1.777c-0.065,-0.585 -0.115,-1.172 -0.18,-1.757c-0.066,-0.602 -0.147,-1.203 -0.215,-1.806c-0.065,-0.575 -0.117,-1.152 -0.181,-1.728c-0.067,-0.612 -0.145,-1.223 -0.213,-1.835c-0.065,-0.585 -0.119,-1.171 -0.184,-1.756c-0.066,-0.603 -0.14,-1.205 -0.211,-1.807c-0.042,-0.361 -0.093,-0.722 -0.123,-1.085c-0.047,-0.569 -0.103,-1.139 -0.113,-1.71c-0.017,-1.056 0.927,-1.989 1.982,-1.989c3.598,-0.001 7.196,0.013 10.794,-0.01c0.913,-0.005 1.84,0.652 2.059,1.614c0.039,0.171 0.06,0.35 0.061,0.526c0.004,1.992 0.003,3.985 0.003,5.978c-0,0.113 -0,0.226 -0,0.365l6.346,-0c0,-0.113 0,-0.223 0,-0.333c0,-2.059 -0.001,-4.118 0,-6.177c0.001,-1.029 0.935,-1.963 1.964,-1.963c4.354,-0.001 8.707,-0.001 13.061,-0c1.048,-0 1.975,0.924 1.975,1.97c0.001,2.049 0,4.099 0,6.148l0,0.359l6.347,-0c-0,-0.103 -0,-0.211 -0,-0.32c-0,-2.03 -0.005,-4.061 0.002,-6.091c0.003,-1.112 0.958,-2.077 2.073,-2.072c3.607,0.015 7.215,0.016 10.822,-0.001c1.025,-0.005 2.066,0.993 2.001,2.006c-0.05,0.792 -0.141,1.582 -0.216,2.372c-0.057,0.596 -0.111,1.191 -0.177,1.786c-0.086,0.76 -0.186,1.518 -0.273,2.278c-0.066,0.576 -0.116,1.153 -0.18,1.729c-0.068,0.612 -0.147,1.222 -0.214,1.834c-0.065,0.585 -0.118,1.172 -0.183,1.757c-0.066,0.602 -0.143,1.204 -0.211,1.807c-0.065,0.566 -0.121,1.133 -0.185,1.699c-0.071,0.63 -0.149,1.26 -0.218,1.891c-0.064,0.585 -0.133,1.17 -0.175,1.757c-0.06,0.862 -0.259,1.645 -1.047,2.151c-0.347,0.223 -0.723,0.342 -1.135,0.342c-4.259,0.001 -8.518,0.001 -12.778,0.001c-0.121,-0 -0.242,-0 -0.354,-0c-0.163,0.704 -0.319,1.381 -0.485,2.097c0.107,-0 0.206,-0 0.305,-0c1.039,-0 2.079,-0.023 3.117,0.01c0.47,0.015 0.937,0.14 1.428,0.219m6.593,-6.633c0.122,0.006 0.207,-0.003 0.222,-0.17c0.042,-0.455 0.113,-0.907 0.163,-1.362c0.064,-0.585 0.114,-1.172 0.18,-1.757c0.067,-0.593 0.15,-1.184 0.216,-1.777c0.066,-0.594 0.113,-1.191 0.18,-1.786c0.085,-0.759 0.189,-1.517 0.273,-2.278c0.085,-0.761 0.149,-1.525 0.234,-2.287c0.105,-0.926 0.224,-1.851 0.333,-2.777c0.025,-0.208 0.034,-0.418 0.051,-0.634l-6.055,0c-0,0.13 -0,0.24 -0,0.351c-0,2.002 0.001,4.004 -0.003,6.006c-0.001,0.175 -0.022,0.354 -0.061,0.525c-0.218,0.945 -1.138,1.615 -2.063,1.609c-3.607,-0.024 -7.215,-0.009 -10.822,-0.01c-1.023,0 -1.954,-0.935 -1.955,-1.961c-0,-2.059 0,-4.117 0,-6.176l0,-0.337l-8.5,-0c0,0.137 0,0.25 0,0.362c0,2.012 -0.035,4.024 0.014,6.034c0.027,1.078 -1.035,2.103 -2.078,2.092c-3.588,-0.035 -7.177,-0.022 -10.765,-0.008c-1.114,0.004 -2.068,-0.955 -2.072,-2.071c-0.008,-2.03 -0.002,-4.06 -0.002,-6.09c-0,-0.109 -0,-0.217 -0,-0.325l-6.065,0c0.55,4.951 1.099,9.881 1.647,14.808l10.8,0c0.017,-0.156 0.022,-0.297 0.05,-0.432c0.146,-0.702 0.603,-1.147 1.202,-1.499c1.293,-0.761 2.575,-1.543 3.86,-2.317c1.214,-0.732 2.425,-1.466 3.64,-2.196c0.965,-0.58 1.927,-1.163 2.9,-1.728c0.655,-0.38 1.361,-0.461 2.036,-0.093c0.939,0.513 1.848,1.082 2.769,1.629c1.262,0.75 2.524,1.499 3.783,2.254c1.306,0.782 2.606,1.575 3.914,2.354c0.44,0.261 0.869,0.543 1.11,1c0.163,0.312 0.229,0.675 0.349,1.047c3.458,0 6.96,0 10.515,-0m-14.262,25.557l-26.062,-0c-0.018,0.066 -0.027,0.084 -0.027,0.101c0.016,2.915 0.024,5.83 0.06,8.745c0.007,0.557 0.326,1.001 0.765,1.343c0.411,0.321 0.901,0.402 1.399,0.404c2.388,0.008 4.777,0.004 7.166,0.004c7.384,-0 14.768,0.001 22.152,-0.003c0.448,-0 0.894,-0.06 1.293,-0.286c0.717,-0.407 1.045,-1.042 1.045,-1.854c0.002,-2.172 -0,-4.343 0.003,-6.515c-0,-0.149 0.04,-0.298 0.042,-0.447c0.005,-0.487 0.002,-0.975 0.002,-1.492l-7.838,-0m-10.155,-28.74c-1.051,0.629 -2.102,1.259 -3.153,1.887c-1.356,0.811 -2.713,1.62 -4.065,2.438c-0.079,0.048 -0.16,0.179 -0.155,0.266c0.02,0.4 0.04,0.805 0.116,1.197c0.186,0.958 0.368,1.919 0.616,2.862c0.407,1.542 1.037,3.002 1.872,4.359c0.541,0.879 1.132,1.734 1.769,2.545c0.549,0.699 1.184,1.331 1.8,1.975c0.317,0.33 0.671,0.625 1.017,0.926c0.408,0.355 0.826,0.698 1.251,1.056c0.351,-0.307 0.697,-0.605 1.039,-0.909c0.532,-0.473 1.088,-0.925 1.585,-1.433c0.534,-0.547 1.017,-1.143 1.511,-1.727c0.791,-0.935 1.454,-1.959 2.035,-3.035c0.686,-1.268 1.216,-2.602 1.604,-3.991c0.35,-1.253 0.537,-2.534 0.651,-3.826c0.008,-0.087 -0.095,-0.22 -0.182,-0.273c-0.792,-0.483 -1.595,-0.949 -2.39,-1.427c-1.909,-1.147 -3.815,-2.299 -5.725,-3.443c-0.066,-0.039 -0.189,-0.051 -0.252,-0.016c-0.309,0.171 -0.607,0.362 -0.944,0.569m0.096,24.433l0.269,0c-0.255,-0.168 -0.493,-0.297 -0.699,-0.465c-0.529,-0.433 -1.045,-0.882 -1.565,-1.326c-0.661,-0.567 -1.347,-1.107 -1.972,-1.71c-0.717,-0.691 -1.407,-1.415 -2.056,-2.17c-0.632,-0.734 -1.239,-1.498 -1.779,-2.301c-0.53,-0.788 -0.959,-1.643 -1.443,-2.463c-0.045,-0.076 -0.163,-0.149 -0.251,-0.154c-0.339,-0.018 -0.68,-0.011 -1.019,-0.007c-1.225,0.017 -2.45,0.03 -3.674,0.06c-0.412,0.011 -0.767,0.2 -1.085,0.454c-0.577,0.461 -0.755,1.102 -0.758,1.796c-0.01,2.663 -0.004,5.326 -0.003,7.989c-0,0.091 0.01,0.182 0.017,0.297l16.018,0m10.762,-9.668c-0.394,0.623 -0.767,1.261 -1.188,1.865c-0.225,0.324 -0.376,0.61 -0.155,0.989c0.048,0.082 0.043,0.2 0.043,0.301c0.003,0.802 -0.004,1.605 0.004,2.407c0.013,1.413 -1.541,2.489 -2.97,1.835c-0.389,-0.177 -0.704,-0.517 -1.064,-0.791c-1.209,0.994 -2.366,2.153 -3.717,3.041l16.192,0c0,-0.132 0,-0.244 0,-0.355c0.001,-2.615 0.003,-5.23 0.001,-7.845c-0.001,-0.268 0.018,-0.546 -0.046,-0.801c-0.263,-1.046 -1.083,-1.559 -2.181,-1.571c-1.406,-0.015 -2.813,-0 -4.219,-0.008c-0.168,-0.001 -0.248,0.058 -0.316,0.204c-0.11,0.236 -0.247,0.459 -0.384,0.729Z" style="fill:#676767;fill-rule:nonzero;"/><path d="M277.252,84.467c0.447,-0.352 0.918,-0.528 1.486,-0.535c0.975,-0.011 1.83,0.662 2.06,1.612c0.042,0.17 0.06,0.349 0.062,0.525c0.006,0.708 0.003,1.416 0.002,2.124c-0.001,1.094 -0.793,2.009 -1.905,2.146c-1.025,0.126 -1.996,-0.509 -2.295,-1.5c-0.061,-0.202 -0.098,-0.419 -0.102,-0.631c-0.012,-0.698 0,-1.397 -0.006,-2.095c-0.005,-0.644 0.233,-1.182 0.698,-1.646Z" style="fill:#676767;fill-rule:nonzero;"/><path d="M291.011,90.292c-0.973,-0.197 -1.703,-1.085 -1.705,-2.049c-0.002,-0.717 -0.003,-1.434 0,-2.151c0.005,-1.082 0.659,-1.927 1.684,-2.121c1.147,-0.216 2.2,0.272 2.556,1.579c0.065,0.239 0.061,0.5 0.064,0.751c0.008,0.651 0.011,1.302 0,1.953c-0.02,1.235 -1.119,2.222 -2.414,2.087c-0.055,-0.005 -0.107,-0.031 -0.185,-0.049Z" style="fill:#676767;fill-rule:nonzero;"/><path d="M282.959,86.72c0.019,-0.431 -0.011,-0.843 0.066,-1.234c0.173,-0.881 1.033,-1.515 1.93,-1.55c0.975,-0.037 1.656,0.384 2.084,1.229c0.106,0.207 0.157,0.462 0.163,0.697c0.019,0.793 -0.013,1.587 0.012,2.379c0.044,1.406 -1.425,2.414 -2.736,2.025c-0.896,-0.266 -1.591,-1.189 -1.525,-2.073c0.035,-0.479 0.006,-0.963 0.006,-1.473Z" style="fill:#676767;fill-rule:nonzero;"/><path d="M277.93,66.828c-0.324,-0.221 -0.654,-0.408 -0.922,-0.661c-0.665,-0.63 -1.304,-1.287 -1.948,-1.938c-0.837,-0.848 -0.827,-2.26 0.016,-3.087c0.817,-0.802 2.196,-0.805 3.012,-0.002c0.201,0.197 0.385,0.412 0.656,0.704c0.114,-0.165 0.18,-0.295 0.278,-0.394c0.783,-0.792 1.581,-1.57 2.359,-2.368c0.732,-0.752 1.917,-0.846 2.763,-0.326c0.767,0.472 1.149,1.522 0.886,2.406c-0.115,0.386 -0.316,0.713 -0.6,0.996c-1.383,1.381 -2.762,2.767 -4.148,4.145c-0.662,0.659 -1.452,0.797 -2.352,0.525Z" style="fill:#676767;fill-rule:nonzero;"/><path d="M291.829,75.443c-0.516,0.021 -0.999,0.014 -1.442,-0.25c-0.678,-0.404 -1.047,-1.004 -1.075,-1.785c-0.027,-0.745 -0.007,-1.491 -0.006,-2.236c0.002,-1.068 0.796,-1.983 1.899,-2.122c1.044,-0.132 2.006,0.513 2.31,1.515c0.062,0.202 0.089,0.421 0.093,0.633c0.012,0.651 -0.017,1.303 0.009,1.953c0.047,1.141 -0.661,2.061 -1.788,2.292Z" style="fill:#676767;fill-rule:nonzero;"/></svg>