<?xml version="1.0" encoding="UTF-8" standalone="no"?><!DOCTYPE svg PUBLIC "-//W3C//DTD SVG 1.1//EN" "http://www.w3.org/Graphics/SVG/1.1/DTD/svg11.dtd"><svg width="100%" height="100%" viewBox="0 0 510 258" version="1.1" xmlns="http://www.w3.org/2000/svg" xmlns:xlink="http://www.w3.org/1999/xlink" xml:space="preserve" xmlns:serif="http://www.serif.com/" style="fill-rule:evenodd;clip-rule:evenodd;stroke-linejoin:round;"><text x="31.719px" y="16.64px" style="font-family:'ArialMT', 'Arial', sans-serif;font-size:16px;fill:#147eba;">Region (us-east-1)</text><text x="71.267px" y="77.501px" style="font-family:'ArialMT', 'Arial', sans-serif;font-size:16px;fill:#aab7b8;">VPC</text><path d="M0,1.534l0,-1.534l1.525,0l-0,1l-0.525,0l-0,0.534l-1,-0Zm7.623,-1.534l0,1l-3.049,0l0,-1l3.049,0Zm6.098,0l0,1l-3.049,0l0,-1l3.049,0Zm6.098,0l0,1l-3.049,0l0,-1l3.049,0Zm6.098,0l0,1l-3.049,0l0,-1l3.049,0Zm6.099,0l0,1l-3.049,0l0,-1l3.049,0Zm6.098,0l0,1l-3.049,0l0,-1l3.049,0Zm6.098,0l0,1l-3.049,0l0,-1l3.049,0Zm6.098,0l0,1l-3.049,0l0,-1l3.049,0Zm6.098,0l0,1l-3.049,0l0,-1l3.049,0Zm6.099,0l0,1l-3.05,0l0,-1l3.05,0Zm6.097,0l0,1l-3.048,0l0,-1l3.048,0Zm6.099,0l0,1l-3.049,0l0,-1l3.049,0Zm6.098,0l0,1l-3.049,0l0,-1l3.049,0Zm6.099,0l0,1l-3.05,0l0,-1l3.05,0Zm6.098,0l0,1l-3.049,0l0,-1l3.049,0Zm6.098,0l0,1l-3.05,0l0,-1l3.05,0Zm6.098,0l0,1l-3.049,0l0,-1l3.049,0Zm6.098,0l0,1l-3.049,0l0,-1l3.049,0Zm6.099,0l0,1l-3.05,0l0,-1l3.05,0Zm6.097,0l0,1l-3.048,0l0,-1l3.048,0Zm6.099,0l0,1l-3.049,0l0,-1l3.049,0Zm6.098,0l0,1l-3.049,0l0,-1l3.049,0Zm6.098,0l0,1l-3.049,0l0,-1l3.049,0Zm6.099,0l0,1l-3.05,0l0,-1l3.05,0Zm6.098,0l0,1l-3.049,0l0,-1l3.049,0Zm6.098,0l0,1l-3.049,0l0,-1l3.049,0Zm6.098,0l0,1l-3.049,0l0,-1l3.049,0Zm6.098,0l0,1l-3.049,0l0,-1l3.049,0Zm6.099,0l0,1l-3.049,0l0,-1l3.049,0Zm6.098,0l0,1l-3.049,0l0,-1l3.049,0Zm6.098,0l0,1l-3.049,0l0,-1l3.049,0Zm6.098,0l0,1l-3.049,0l0,-1l3.049,0Zm6.099,0l0,1l-3.049,0l0,-1l3.049,0Zm6.098,0l0,1l-3.049,0l0,-1l3.049,0Zm6.098,0l0,1l-3.049,0l0,-1l3.049,0Zm6.098,0l0,1l-3.049,0l0,-1l3.049,0Zm6.098,0l0,1l-3.049,0l0,-1l3.049,0Zm6.099,0l0,1l-3.05,0l0,-1l3.05,0Zm6.098,0l0,1l-3.049,0l0,-1l3.049,0Zm6.098,0l0,1l-3.049,0l0,-1l3.049,0Zm6.098,0l0,1l-3.049,0l0,-1l3.049,0Zm6.099,0l0,1l-3.049,0l0,-1l3.049,0Zm6.097,0l0,1l-3.049,0l0,-1l3.049,0Zm6.098,0l0,1l-3.049,0l0,-1l3.049,0Zm6.099,0l0,1l-3.049,0l0,-1l3.049,0Zm6.098,0l0,1l-3.049,0l0,-1l3.049,0Zm6.098,0l0,1l-3.049,0l0,-1l3.049,0Zm6.099,0l0,1l-3.05,0l0,-1l3.05,0Zm6.098,0l0,1l-3.05,0l0,-1l3.05,0Zm6.098,0l0,1l-3.049,0l0,-1l3.049,0Zm6.098,0l0,1l-3.049,0l0,-1l3.049,0Zm4.574,1.534l-1,-0l0,-0.534l-0.525,0l0,-1l1.525,0l0,1.534Zm0,6.139l-1,0l0,-3.069l1,0l0,3.069Zm0,6.139l-1,0l0,-3.069l1,0l0,3.069Zm0,6.139l-1,0l0,-3.069l1,0l0,3.069Zm0,6.139l-1,0l0,-3.07l1,0l0,3.07Zm0,6.139l-1,0l0,-3.07l1,0l0,3.07Zm0,6.139l-1,0l0,-3.07l1,0l0,3.07Zm0,6.139l-1,0l0,-3.07l1,0l0,3.07Zm0,6.138l-1,0l0,-3.069l1,0l0,3.069Zm0,6.14l-1,0l0,-3.07l1,0l0,3.07Zm0,6.139l-1,0l0,-3.07l1,0l0,3.07Zm0,6.138l-1,0l0,-3.069l1,0l0,3.069Zm0,6.139l-1,0l0,-3.069l1,0l0,3.069Zm0,6.139l-1,0l0,-3.069l1,0l0,3.069Zm0,6.139l-1,0l0,-3.069l1,0l0,3.069Zm0,6.139l-1,0l0,-3.069l1,0l0,3.069Zm0,6.139l-1,0l0,-3.069l1,0l0,3.069Zm0,6.139l-1,0l0,-3.07l1,0l0,3.07Zm0,6.139l-1,0l0,-3.07l1,0l0,3.07Zm0,6.139l-1,0l0,-3.07l1,0l0,3.07Zm0,6.138l-1,0l0,-3.069l1,0l0,3.069Zm0,6.14l-1,0l0,-3.07l1,0l0,3.07Zm0,6.138l-1,0l0,-3.069l1,0l0,3.069Zm0,6.139l-1,0l0,-3.069l1,0l0,3.069Zm0,6.14l-1,0l0,-3.07l1,0l0,3.07Zm0,6.138l-1,0l0,-3.069l1,0l0,3.069Zm0,6.139l-1,0l0,-3.069l1,0l0,3.069Zm0,6.139l-1,0l0,-3.07l1,0l0,3.07Zm0,6.139l-1,0l0,-3.07l1,0l0,3.07Zm0,6.139l-1,0l0,-3.07l1,0l0,3.07Zm0,6.139l-1,0l0,-3.069l1,0l0,3.069Zm0,6.139l-1,0l0,-3.07l1,0l0,3.07Zm0,6.139l-1,0l0,-3.07l1,0l0,3.07Zm0,6.138l-1,0l0,-3.069l1,0l0,3.069Zm0,6.139l-1,0l0,-3.069l1,0l0,3.069Zm0,6.139l-1,0l0,-3.069l1,0l0,3.069Zm0,6.139l-1,0l0,-3.069l1,0l0,3.069Zm0,6.139l-1,0l0,-3.069l1,0l0,3.069Zm0,6.139l-1,0l0,-3.069l1,0l0,3.069Zm0,6.139l-1,0l0,-3.069l1,0l0,3.069Zm0,6.139l-1,0l0,-3.07l1,0l0,3.07Zm0,6.139l-1,0l0,-3.07l1,0l0,3.07Zm-1.525,4.604l0,-1l0.525,0l0,-0.535l1,0l0,1.535l-1.525,0Zm-6.098,0l0,-1l3.049,0l0,1l-3.049,0Zm-6.098,0l0,-1l3.049,0l0,1l-3.049,0Zm-6.098,0l0,-1l3.049,0l0,1l-3.049,0Zm-6.098,0l0,-1l3.049,0l0,1l-3.049,0Zm-6.099,0l0,-1l3.049,0l0,1l-3.049,0Zm-6.098,0l0,-1l3.049,0l0,1l-3.049,0Zm-6.098,0l0,-1l3.049,0l0,1l-3.049,0Zm-6.098,0l0,-1l3.049,0l0,1l-3.049,0Zm-6.098,0l0,-1l3.049,0l0,1l-3.049,0Zm-6.099,0l0,-1l3.049,0l0,1l-3.049,0Zm-6.098,0l0,-1l3.049,0l0,1l-3.049,0Zm-6.099,0l0,-1l3.05,0l0,1l-3.05,0Zm-6.097,0l0,-1l3.049,0l0,1l-3.049,0Zm-6.099,0l0,-1l3.049,0l0,1l-3.049,0Zm-6.098,0l0,-1l3.049,0l0,1l-3.049,0Zm-6.098,0l0,-1l3.049,0l0,1l-3.049,0Zm-6.098,0l0,-1l3.049,0l0,1l-3.049,0Zm-6.098,0l0,-1l3.049,0l0,1l-3.049,0Zm-6.099,0l0,-1l3.049,0l0,1l-3.049,0Zm-6.098,0l0,-1l3.049,0l0,1l-3.049,0Zm-6.098,0l0,-1l3.049,0l0,1l-3.049,0Zm-6.098,0l0,-1l3.049,0l0,1l-3.049,0Zm-6.098,0l0,-1l3.049,0l0,1l-3.049,0Zm-6.099,0l0,-1l3.049,0l0,1l-3.049,0Zm-6.098,0l0,-1l3.049,0l0,1l-3.049,0Zm-6.098,0l0,-1l3.049,0l0,1l-3.049,0Zm-6.098,0l0,-1l3.049,0l0,1l-3.049,0Zm-6.098,0l0,-1l3.049,0l0,1l-3.049,0Zm-6.099,0l0,-1l3.049,0l0,1l-3.049,0Zm-6.098,0l0,-1l3.049,0l0,1l-3.049,0Zm-6.098,0l0,-1l3.049,0l0,1l-3.049,0Zm-6.098,0l0,-1l3.049,0l0,1l-3.049,0Zm-6.099,0l0,-1l3.049,0l0,1l-3.049,0Zm-6.098,0l0,-1l3.049,0l0,1l-3.049,0Zm-6.098,0l0,-1l3.049,0l0,1l-3.049,0Zm-6.098,0l0,-1l3.049,0l0,1l-3.049,0Zm-6.098,0l0,-1l3.049,0l0,1l-3.049,0Zm-6.099,0l0,-1l3.049,0l0,1l-3.049,0Zm-6.098,0l0,-1l3.049,0l0,1l-3.049,0Zm-6.098,0l0,-1l3.049,0l0,1l-3.049,0Zm-6.098,0l0,-1l3.049,0l0,1l-3.049,0Zm-6.099,0l0,-1l3.049,0l0,1l-3.049,0Zm-6.098,0l0,-1l3.05,0l0,1l-3.05,0Zm-6.098,0l0,-1l3.049,0l0,1l-3.049,0Zm-6.098,0l0,-1l3.049,0l0,1l-3.049,0Zm-6.098,0l0,-1l3.049,0l0,1l-3.049,0Zm-6.098,0l0,-1l3.049,0l0,1l-3.049,0Zm-6.099,0l0,-1l3.049,0l0,1l-3.049,0Zm-6.098,0l0,-1l3.049,0l0,1l-3.049,0Zm-6.098,0l0,-1l3.049,0l0,1l-3.049,0Zm-6.098,0l0,-1l3.049,0l0,1l-3.049,0Zm-4.574,-1.535l1,0l0,0.535l0.525,0l0,1l-1.525,0l0,-1.535Zm0,-6.139l1,0l0,3.07l-1,0l0,-3.07Zm0,-6.139l1,0l0,3.07l-1,0l0,-3.07Zm0,-6.139l1,0l0,3.07l-1,0l0,-3.07Zm0,-6.138l1,0l0,3.069l-1,0l0,-3.069Zm0,-6.139l1,0l0,3.069l-1,0l0,-3.069Zm0,-6.139l1,0l0,3.069l-1,0l0,-3.069Zm0,-6.139l1,0l0,3.069l-1,0l0,-3.069Zm0,-6.139l1,0l0,3.07l-1,0l0,-3.07Zm0,-6.139l1,0l0,3.069l-1,0l0,-3.069Zm0,-6.139l1,0l0,3.069l-1,0l0,-3.069Zm0,-6.139l1,0l0,3.07l-1,0l0,-3.07Zm0,-6.139l1,0l0,3.07l-1,0l0,-3.07Zm0,-6.138l1,0l0,3.069l-1,0l0,-3.069Zm0,-6.14l1,0l0,3.07l-1,0l0,-3.07Zm0,-6.139l1,0l0,3.07l-1,0l0,-3.07Zm0,-6.139l1,0l0,3.07l-1,0l0,-3.07Zm0,-6.138l1,0l0,3.069l-1,0l0,-3.069Zm0,-6.139l1,0l0,3.069l-1,0l0,-3.069Zm0,-6.139l1,0l0,3.069l-1,0l0,-3.069Zm0,-6.139l1,0l0,3.07l-1,0l0,-3.07Zm0,-6.139l1,0l0,3.07l-1,0l0,-3.07Zm0,-6.139l1,0l0,3.07l-1,0l0,-3.07Zm0,-6.139l1,0l0,3.07l-1,0l0,-3.07Zm0,-6.139l1,-0l0,3.07l-1,-0l0,-3.07Zm0,-6.139l1,-0l0,3.07l-1,-0l0,-3.07Zm0,-6.139l1,-0l0,3.07l-1,-0l0,-3.07Zm0,-6.138l1,-0l0,3.069l-1,-0l0,-3.069Zm0,-6.139l1,-0l0,3.069l-1,-0l0,-3.069Zm0,-6.139l1,-0l0,3.069l-1,-0l0,-3.069Zm0,-6.14l1,-0l0,3.07l-1,-0l0,-3.07Zm0,-6.138l1,-0l0,3.069l-1,-0l0,-3.069Zm0,-6.139l1,-0l0,3.069l-1,-0l0,-3.069Zm0,-6.139l1,-0l0,3.07l-1,-0l0,-3.07Zm0,-6.139l1,-0l0,3.07l-1,-0l0,-3.07Zm0,-6.139l1,-0l0,3.07l-1,-0l0,-3.07Zm0,-6.138l1,-0l0,3.069l-1,-0l0,-3.069Zm0,-6.14l1,-0l0,3.07l-1,-0l0,-3.07Zm0,-6.139l1,-0l0,3.07l-1,-0l0,-3.07Zm0,-6.138l1,-0l0,3.069l-1,-0l0,-3.069Zm0,-6.139l1,-0l0,3.069l-1,-0l0,-3.069Zm0,-6.139l1,-0l0,3.069l-1,-0l0,-3.069Z" style="fill:#00a4a6;"/><path d="M277.589,59.274l0,176.552l-238.072,0l0,-176.552l238.072,-0Zm-1.001,1.111l-236.07,0l0,174.33l236.07,0l0,-174.33Z" style="fill:#8c4fff;"/><rect id="Rectangle" x="0" y="0" width="25" height="25" style="fill:#00a4a6;"/><path id="Fill-1" d="M8.75,12.516l0,-5.625l9.558,-0l-2.592,2.591c-0.122,0.123 -0.122,0.32 0,0.443l2.592,2.591l-9.558,0Zm7.629,-2.813l2.905,-2.903c0.088,-0.09 0.115,-0.224 0.067,-0.341c-0.048,-0.117 -0.162,-0.193 -0.289,-0.193l-10.312,0l-0,-0.66c0.372,-0.131 0.641,-0.483 0.641,-0.9c-0,-0.527 -0.429,-0.956 -0.957,-0.956c-0.528,0 -0.957,0.429 -0.957,0.956c-0,0.419 0.272,0.772 0.648,0.902l-0,15.033l-1.875,0l-0,0.625l4.375,0l-0,-0.625l-1.875,0l-0,-7.5l10.312,0c0.127,0 0.241,-0.076 0.289,-0.193c0.048,-0.117 0.021,-0.251 -0.067,-0.341l-2.905,-2.904Z" style="fill:#fff;"/><rect id="Rectangle1" serif:id="Rectangle" x="39.517" y="59.274" width="25" height="25" style="fill:#8c4fff;"/><path id="Fill-11" serif:id="Fill-1" d="M58.874,72.418l-1.84,-0.79l0,6.556c1.591,-0.22 1.832,-1.855 1.842,-1.929l-0.002,-3.837Zm-2.465,5.775l0,-6.569l-1.897,0.796l0,3.875c0.008,0.034 0.278,1.73 1.897,1.898Zm0.191,-7.327c0.078,-0.033 0.166,-0.032 0.245,0.001l2.465,1.058c0.115,0.049 0.189,0.161 0.189,0.286l0,4.084c-0.114,0.905 -0.848,2.54 -2.829,2.54c-1.922,0 -2.659,-1.633 -2.78,-2.497l-0.003,-4.127c0,-0.125 0.076,-0.239 0.191,-0.288l2.522,-1.057Zm3.531,0.399l-3.413,-1.504l-3.456,1.454l0,4.455c-0.001,0.026 -0.034,1.793 1.036,2.89c0.573,0.588 1.371,0.886 2.372,0.886c1.001,-0 1.804,-0.299 2.386,-0.888c1.085,-1.099 1.075,-2.866 1.075,-2.883l0,-4.41Zm-0.626,7.728c-0.705,0.715 -1.659,1.078 -2.835,1.078c-1.178,-0 -2.128,-0.363 -2.824,-1.079c-1.253,-1.289 -1.211,-3.248 -1.209,-3.331l0,-4.653c0,-0.126 0.075,-0.24 0.191,-0.288l3.772,-1.588c0.079,-0.032 0.169,-0.033 0.247,0.003l3.723,1.64c0.113,0.05 0.186,0.162 0.186,0.286l0,4.609c0.002,0.078 0.017,2.035 -1.251,3.323Zm-13.118,-4.571l5,-0l0,0.625l-5,-0c-1.757,-0 -3.007,-1.26 -3.112,-3.135c-0.007,-0.069 -0.008,-0.153 -0.008,-0.237c0,-1.568 0.824,-2.639 2.386,-3.112c-0.012,-0.142 -0.02,-0.291 -0.02,-0.404c0,-1.823 0.985,-3.403 2.51,-4.028c2.062,-0.843 4.402,-0.559 5.692,0.69c0.465,0.452 0.827,0.964 1.1,1.553c0.38,-0.281 0.875,-0.413 1.468,-0.384c1.112,0.056 1.968,1.071 2.145,2.505c0.937,0.077 1.553,0.551 1.882,1.442l-0.586,0.216c-0.268,-0.723 -0.755,-1.045 -1.582,-1.045c-0.166,-0 -0.302,-0.129 -0.312,-0.294c-0.087,-1.461 -0.879,-2.164 -1.579,-2.199c-0.591,-0.034 -1.028,0.136 -1.3,0.494c-0.069,0.091 -0.178,0.136 -0.295,0.121c-0.113,-0.018 -0.208,-0.095 -0.247,-0.202c-0.253,-0.69 -0.622,-1.265 -1.129,-1.759c-1.118,-1.081 -3.182,-1.312 -5.02,-0.559c-1.289,0.528 -2.122,1.881 -2.122,3.449c0,0.171 0.022,0.435 0.041,0.599c0.019,0.157 -0.082,0.303 -0.235,0.34c-1.441,0.358 -2.172,1.225 -2.172,2.577c0,0.063 -0.001,0.126 0.006,0.189c0.088,1.559 1.064,2.558 2.489,2.558Z" style="fill:#fff;"/><rect x="118.718" y="100.649" width="141.222" height="128.972" style="fill:#ebebeb;"/><g transform="matrix(16,0,0,16,249.24,120.421)"></g><text x="150.506px" y="120.421px" style="font-family:'ArialMT', 'Arial', sans-serif;font-size:16px;fill:#248814;">Public Subnet</text><g id="Icon-Architecture-BG-64-Compute" serif:id="Icon-Architecture-BG/64/Compute"><rect id="Rectangle2" serif:id="Rectangle" x="149.318" y="138.646" width="80" height="80" style="fill:#ed7100;"/></g><path id="Amazon-EC2_Icon_64_Squid" d="M176.318,191.646l25,0l0,-25l-25,0l0,25Zm27,-25l4,0l0,2l-4,0l0,4l4,0l0,2l-4,0l0,3l4,0l0,2l-4,0l0,4l4,0l0,2l-4,0l0,4l4,0l0,2l-4,0l0,0.136c0,1.028 -0.836,1.864 -1.864,1.864l-0.136,0l0,4l-2,0l0,-4l-4,0l0,4l-2,0l0,-4l-3,0l0,4l-2,0l0,-4l-4,0l0,4l-2,0l0,-4l-4,0l0,4l-2,0l0,-4l-0.136,0c-1.028,0 -1.864,-0.836 -1.864,-1.864l0,-0.136l-3,0l0,-2l3,0l0,-4l-3,0l0,-2l3,0l0,-4l-3,0l0,-2l3,0l0,-3l-3,0l0,-2l3,0l0,-4l-3,0l0,-2l3,0l0,-0.136c0,-1.028 0.836,-1.864 1.864,-1.864l0.136,0l0,-4l2,0l0,4l4,0l0,-4l2,0l0,4l4,0l0,-4l2,0l0,4l3,0l0,-4l2,0l0,4l4,0l0,-4l2,0l0,4l0.136,0c1.028,0 1.864,0.836 1.864,1.864l0,0.136Zm-13,37.876c0,0.068 -0.056,0.124 -0.124,0.124l-26.752,0c-0.068,0 -0.124,-0.056 -0.124,-0.124l0,-26.752c0,-0.068 0.056,-0.124 0.124,-0.124l5.876,0l0,-2l-5.876,0c-1.171,0 -2.124,0.953 -2.124,2.124l0,26.752c0,1.171 0.953,2.124 2.124,2.124l26.752,0c1.171,0 2.124,-0.953 2.124,-2.124l0,-4.876l-2,0l0,4.876Zm27,-51.752l0,26.752c0,1.171 -0.953,2.124 -2.124,2.124l-5.876,0l0,-2l5.876,0c0.068,0 0.124,-0.056 0.124,-0.124l0,-26.752c0,-0.068 -0.056,-0.124 -0.124,-0.124l-26.752,0c-0.068,0 -0.124,0.056 -0.124,0.124l0,5.876l-2,0l0,-5.876c0,-1.171 0.953,-2.124 2.124,-2.124l26.752,0c1.171,0 2.124,0.953 2.124,2.124Z" style="fill:#fff;"/><text x="350.87px" y="59.169px" style="font-family:'ArialMT', 'Arial', sans-serif;font-size:16px;fill:#535353;">VPC you have created</text><text x="350.87px" y="80.664px" style="font-family:'ArialMT', 'Arial', sans-serif;font-size:16px;fill:#535353;">outside the current</text><text x="350.87px" y="102.159px" style="font-family:'ArialMT', 'Arial', sans-serif;font-size:16px;fill:#535353;">workspace</text><path d="M276.828,68.621l56.464,0" style="fill:none;fill-rule:nonzero;stroke:#ffab40;stroke-width:2px;"/><path d="M332.292,73.421l9.6,-4.8l-9.6,-4.8l-0,9.6Z" style="fill:#ffab40;fill-rule:nonzero;"/><g id="Icon-Architecture-Group-32-Public-subnet_32" serif:id="Icon-Architecture-Group/32/Public-subnet_32"><rect id="Rectangle3" serif:id="Rectangle" x="118.718" y="100.649" width="25" height="25" style="fill:#7aa116;"/><path id="Fill-12" serif:id="Fill-1" d="M130.928,114.43c0.691,-0 1.254,0.562 1.254,1.253c-0,0.691 -0.563,1.254 -1.254,1.254c-0.691,-0 -1.254,-0.563 -1.254,-1.254c0,-0.691 0.563,-1.253 1.254,-1.253Zm-0.327,3.098l-0,2.184l0.625,0l-0,-2.18c0.893,-0.144 1.581,-0.915 1.581,-1.849c-0,-1.036 -0.843,-1.878 -1.879,-1.878c-1.035,-0 -1.879,0.842 -1.879,1.878c0,0.924 0.672,1.689 1.552,1.845Zm-5.633,3.755l11.883,-0l-0,-9.384l-11.883,0l0,9.384Zm2.529,-12.831c-0,-1.89 1.537,-3.428 3.427,-3.428c1.89,0 3.427,1.538 3.427,3.428l-0,2.822l-6.854,0l-0,-2.822Zm9.666,2.822l-2.187,0l-0,-2.822c-0,-2.235 -1.818,-4.053 -4.052,-4.053c-2.235,0 -4.052,1.818 -4.052,4.053l-0,2.822l-2.216,0c-0.173,0 -0.313,0.14 -0.313,0.313l0,10.008c0,0.173 0.14,0.313 0.313,0.313l12.507,-0c0.173,-0 0.313,-0.14 0.313,-0.313l-0,-10.008c-0,-0.173 -0.14,-0.313 -0.313,-0.313Z" style="fill:#fff;"/></g></svg>