<?xml version="1.0" encoding="UTF-8" standalone="no"?><!DOCTYPE svg PUBLIC "-//W3C//DTD SVG 1.1//EN" "http://www.w3.org/Graphics/SVG/1.1/DTD/svg11.dtd"><svg width="100%" height="100%" viewBox="0 0 664 229" version="1.1" xmlns="http://www.w3.org/2000/svg" xmlns:xlink="http://www.w3.org/1999/xlink" xml:space="preserve" xmlns:serif="http://www.serif.com/" style="fill-rule:evenodd;clip-rule:evenodd;"><rect x="0" y="0" width="544.573" height="47" style="fill:#ededed;"/><path d="M124.608,50.285l-0,69.52l56.3,0" style="fill:none;fill-rule:nonzero;stroke:#909090;stroke-width:2px;stroke-dasharray:4,4;"/><path d="M129.408,50.005l-9.6,0" style="fill:none;fill-rule:nonzero;stroke:#909090;stroke-width:2px;stroke-miterlimit:10;"/><path d="M20.308,50.285l-0,172.82l160.6,0" style="fill:none;fill-rule:nonzero;stroke:#909090;stroke-width:2px;stroke-dasharray:4,4;"/><path d="M25.108,50.005l-9.6,0" style="fill:none;fill-rule:nonzero;stroke:#909090;stroke-width:2px;stroke-miterlimit:10;"/><path d="M87.808,50.285l-0,104.02l93.1,0" style="fill:none;fill-rule:nonzero;stroke:#909090;stroke-width:2px;stroke-dasharray:4,4;"/><path d="M92.608,50.005l-9.6,0" style="fill:none;fill-rule:nonzero;stroke:#909090;stroke-width:2px;stroke-miterlimit:10;"/><path d="M55.008,50.285l-0,138.42l125.9,0" style="fill:none;fill-rule:nonzero;stroke:#909090;stroke-width:2px;stroke-dasharray:4,4;"/><path d="M59.808,50.005l-9.6,0" style="fill:none;fill-rule:nonzero;stroke:#909090;stroke-width:2px;stroke-miterlimit:10;"/><path d="M159.608,50.285l-0,35.12l21.3,0" style="fill:none;fill-rule:nonzero;stroke:#909090;stroke-width:2px;stroke-dasharray:4,4;"/><path d="M164.408,50.005l-9.6,0" style="fill:none;fill-rule:nonzero;stroke:#909090;stroke-width:2px;stroke-miterlimit:10;"/><path d="M448.149,96.57l195.796,-0c3.325,-0 5.32,-0 6.651,0.555c1.917,0.698 3.427,2.208 4.125,4.126c0.556,1.33 0.556,3.325 0.556,6.65l-0,107.451c-0,3.325 -0,5.32 -0.556,6.651c-0.698,1.917 -2.208,3.428 -4.125,4.125c-1.331,0.556 -3.326,0.556 -6.651,0.556l-195.796,-0c-3.325,-0 -5.32,-0 -6.65,-0.556c-1.918,-0.697 -3.428,-2.208 -4.126,-4.125c-0.555,-1.331 -0.555,-3.326 -0.555,-6.651l-0,-107.451c-0,-3.325 -0,-5.32 0.555,-6.65c0.698,-1.918 2.208,-3.428 4.126,-4.126c1.33,-0.555 3.325,-0.555 6.65,-0.555Z" style="fill:#fff;fill-rule:nonzero;stroke:#909090;stroke-width:2px;stroke-linejoin:round;"/><path d="M458.678,102.341l3.194,-0" style="fill:none;fill-rule:nonzero;stroke:#f2af0d;stroke-width:1px;stroke-linejoin:round;"/><path d="M447.739,100.797c0.004,0 0.009,0.002 0.012,0.005l0.488,0.488c0.007,0.007 0.007,0.018 0,0.025l-1.079,1.079c-0.005,0.004 -0.005,0.011 0,0.016l1.079,1.079c0.007,0.007 0.007,0.018 0,0.025l-0.488,0.488c-0.007,0.007 -0.018,0.007 -0.024,-0l-1.079,-1.08c-0.005,-0.004 -0.012,-0.004 -0.017,0l-1.079,1.08c-0.007,0.007 -0.018,0.007 -0.024,-0l-0.488,-0.488c-0.007,-0.007 -0.007,-0.018 -0,-0.025l1.079,-1.079c0.004,-0.004 0.004,-0.012 -0,-0.016l-1.079,-1.079c-0.007,-0.007 -0.007,-0.018 -0,-0.025l0.488,-0.488c0.006,-0.007 0.017,-0.007 0.024,0l1.079,1.079c0.005,0.005 0.012,0.005 0.016,0l1.08,-1.079c0.003,-0.003 0.007,-0.005 0.012,-0.005Z" style="fill:#fff;fill-rule:nonzero;stroke:#f20d0d;stroke-width:1px;stroke-linejoin:round;"/><path d="M452.784,100.797l1.738,0c0.216,0 0.346,0 0.432,0.036c0.124,0.045 0.223,0.144 0.268,0.268c0.036,0.087 0.036,0.216 0.036,0.432l0,1.738c0,0.216 0,0.345 -0.036,0.432c-0.045,0.124 -0.144,0.222 -0.268,0.268c-0.086,0.036 -0.216,0.036 -0.432,0.036l-1.738,-0c-0.216,-0 -0.345,-0 -0.432,-0.036c-0.124,-0.046 -0.222,-0.144 -0.268,-0.268c-0.036,-0.087 -0.036,-0.216 -0.036,-0.432l0,-1.738c0,-0.216 0,-0.346 0.036,-0.432c0.046,-0.124 0.144,-0.223 0.268,-0.268c0.087,-0.036 0.216,-0.036 0.432,-0.036Z" style="fill:#fff;fill-rule:nonzero;stroke:#43f20d;stroke-width:1.1px;stroke-linejoin:round;"/><path d="M437.206,109.765l216.491,0" style="fill:none;fill-rule:nonzero;stroke:#909090;stroke-width:1px;stroke-linejoin:round;"/><g transform="matrix(1,0,0,1,-32.4922,-104.695)"><text x="43.746px" y="140.892px" style="font-family:'CourierNewPSMT', 'Courier New', monospace;font-size:29px;fill:#535353;">0 0 1 1 *</text><text x="226.291px" y="136.393px" style="font-family:'CourierNewPSMT', 'Courier New', monospace;font-size:24px;fill:#535353;">echo “Happy New Year”</text></g><text x="184.516px" y="90.778px" style="font-family:'ArialMT', 'Arial', sans-serif;font-size:16px;fill:#535353;">Any day of the week</text><text x="184.516px" y="125.221px" style="font-family:'ArialMT', 'Arial', sans-serif;font-size:16px;fill:#535353;">1st Month</text><text x="184.516px" y="194.105px" style="font-family:'ArialMT', 'Arial', sans-serif;font-size:16px;fill:#535353;">0th hour</text><text x="184.516px" y="159.663px" style="font-family:'ArialMT', 'Arial', sans-serif;font-size:16px;fill:#535353;">1st Day</text><text x="184.516px" y="228.548px" style="font-family:'ArialMT', 'Arial', sans-serif;font-size:16px;fill:#535353;">0th minute</text><text x="428.544px" y="84.002px" style="font-family:'ArialMT', 'Arial', sans-serif;font-size:14px;fill:#4285f4;">Every year at midnight on January 1st</text><text x="442.681px" y="129.182px" style="font-family:'CourierNewPSMT', 'Courier New', monospace;font-size:10px;fill:#535353;">01/01/2006 0:00:00 Happy New Year</text><text x="442.681px" y="151.182px" style="font-family:'CourierNewPSMT', 'Courier New', monospace;font-size:10px;fill:#535353;">01/01/2007 0:00:00 Happy New Year</text><text x="442.681px" y="175.182px" style="font-family:'CourierNewPSMT', 'Courier New', monospace;font-size:10px;fill:#535353;">01/01/2008 0:00:00 Happy New Year</text><text x="442.681px" y="202.213px" style="font-family:'CourierNewPSMT', 'Courier New', monospace;font-size:10px;fill:#535353;">01/01/2009 0:00:00 Happy New Year</text></svg>