<?xml version="1.0" encoding="UTF-8" standalone="no"?><!DOCTYPE svg PUBLIC "-//W3C//DTD SVG 1.1//EN" "http://www.w3.org/Graphics/SVG/1.1/DTD/svg11.dtd"><svg width="100%" height="100%" viewBox="0 0 700 265" version="1.1" xmlns="http://www.w3.org/2000/svg" xmlns:xlink="http://www.w3.org/1999/xlink" xml:space="preserve" xmlns:serif="http://www.serif.com/" style="fill-rule:evenodd;clip-rule:evenodd;stroke-linejoin:round;"><path d="M129.831,73.208l124.361,0" style="fill:none;fill-rule:nonzero;stroke:#909090;stroke-width:1.5px;"/><path d="M253.442,77.108l7.8,-3.9l-7.8,-3.9l-0,7.8Z" style="fill:#909090;fill-rule:nonzero;"/><path d="M43.767,51.051l69.593,0c4.285,0 6.856,0 8.569,0.716c2.471,0.899 4.417,2.846 5.317,5.316c0.715,1.714 0.715,4.285 0.715,8.57l0,15.794c0,4.284 0,6.855 -0.715,8.569c-0.9,2.471 -2.846,4.417 -5.317,5.316c-1.713,0.716 -4.284,0.716 -8.569,0.716l-69.593,-0c-4.284,-0 -6.855,-0 -8.569,-0.716c-2.471,-0.899 -4.417,-2.845 -5.316,-5.316c-0.716,-1.714 -0.716,-4.285 -0.716,-8.569l0,-15.794c0,-4.285 0,-6.856 0.716,-8.57c0.899,-2.47 2.845,-4.417 5.316,-5.316c1.714,-0.716 4.285,-0.716 8.569,-0.716Z" style="fill:#fff;fill-rule:nonzero;stroke:#909090;stroke-width:1.5px;"/><text x="18.137px" y="10.021px" style="font-family:'ArialMT', 'Arial', sans-serif;font-size:14px;fill:#356ac3;">Every night at midnight</text><text x="37.712px" y="68.8px" style="font-family:'ArialMT', 'Arial', sans-serif;font-size:14px;fill:#535353;">Ingest from a</text><text x="47.18px" y="87.908px" style="font-family:'ArialMT', 'Arial', sans-serif;font-size:14px;fill:#535353;">REST<tspan x="84.266px 87.383px 96.721px " y="87.908px 87.908px 87.908px "> AP</tspan>I</text><text x="260.487px" y="112.223px" style="font-family:'ArialMT', 'Arial', sans-serif;font-size:14px;fill:#356ac3;">1 <tspan x="271.391px 280.729px " y="112.223px 112.223px ">AM</tspan> every night</text><path d="M129.837,187.582l366,0l-0,-84.35" style="fill:none;fill-rule:nonzero;stroke:#909090;stroke-width:1.5px;"/><path d="M499.737,103.982l-3.9,-7.8l-3.9,7.8l7.8,0Z" style="fill:#909090;fill-rule:nonzero;"/><path d="M363.063,74.073l73.071,-0" style="fill:none;fill-rule:nonzero;stroke:#909090;stroke-width:1.5px;"/><path d="M435.384,77.973l7.8,-3.9l-7.8,-3.9l0,7.8Z" style="fill:#909090;fill-rule:nonzero;"/><path d="M547.179,73.55l45.335,-0" style="fill:none;fill-rule:nonzero;stroke:#909090;stroke-width:1.5px;"/><path d="M591.764,77.45l7.8,-3.9l-7.8,-3.9l-0,7.8Z" style="fill:#909090;fill-rule:nonzero;"/><path d="M277.713,51.051l69.593,0c4.284,0 6.855,0 8.569,0.716c2.471,0.899 4.417,2.846 5.317,5.316c0.715,1.714 0.715,4.285 0.715,8.57l0,15.794c0,4.284 0,6.855 -0.715,8.569c-0.9,2.471 -2.846,4.417 -5.317,5.316c-1.714,0.716 -4.285,0.716 -8.569,0.716l-69.593,-0c-4.284,-0 -6.855,-0 -8.569,-0.716c-2.471,-0.899 -4.417,-2.845 -5.317,-5.316c-0.715,-1.714 -0.715,-4.285 -0.715,-8.569l-0,-15.794c-0,-4.285 -0,-6.856 0.715,-8.57c0.9,-2.47 2.846,-4.417 5.317,-5.316c1.714,-0.716 4.285,-0.716 8.569,-0.716Z" style="fill:#fff;fill-rule:nonzero;stroke:#909090;stroke-width:1.5px;"/><path d="M461.109,50.45l69.593,-0c4.285,-0 6.856,-0 8.569,0.715c2.471,0.9 4.417,2.846 5.317,5.317c0.715,1.714 0.715,4.284 0.715,8.569l0,15.794c0,4.285 0,6.856 -0.715,8.569c-0.9,2.471 -2.846,4.417 -5.317,5.317c-1.713,0.715 -4.284,0.715 -8.569,0.715l-69.593,0c-4.284,0 -6.855,0 -8.569,-0.715c-2.471,-0.9 -4.417,-2.846 -5.316,-5.317c-0.716,-1.713 -0.716,-4.284 -0.716,-8.569l0,-15.794c0,-4.285 0,-6.855 0.716,-8.569c0.899,-2.471 2.845,-4.417 5.316,-5.317c1.714,-0.715 4.285,-0.715 8.569,-0.715Z" style="fill:#fff;fill-rule:nonzero;stroke:#909090;stroke-width:1.5px;"/><path d="M44.501,164.965l69.592,-0c4.285,-0 6.856,-0 8.57,0.715c2.47,0.899 4.417,2.846 5.316,5.316c0.716,1.714 0.716,4.285 0.716,8.57l-0,15.794c-0,4.284 -0,6.855 -0.716,8.569c-0.899,2.471 -2.846,4.417 -5.316,5.316c-1.714,0.716 -4.285,0.716 -8.57,0.716l-69.592,-0c-4.285,-0 -6.856,-0 -8.57,-0.716c-2.47,-0.899 -4.417,-2.845 -5.316,-5.316c-0.715,-1.714 -0.715,-4.285 -0.715,-8.569l-0,-15.794c-0,-4.285 -0,-6.856 0.715,-8.57c0.899,-2.47 2.846,-4.417 5.316,-5.316c1.714,-0.715 4.285,-0.715 8.57,-0.715Z" style="fill:#fff;fill-rule:nonzero;stroke:#909090;stroke-width:1.5px;"/><path d="M614.411,50.45l69.593,-0c4.284,-0 6.855,-0 8.569,0.715c2.471,0.9 4.417,2.846 5.316,5.317c0.716,1.714 0.716,4.284 0.716,8.569l-0,15.794c-0,4.285 -0,6.856 -0.716,8.569c-0.899,2.471 -2.845,4.417 -5.316,5.317c-1.714,0.715 -4.285,0.715 -8.569,0.715l-69.593,0c-4.285,0 -6.856,0 -8.569,-0.715c-2.471,-0.9 -4.417,-2.846 -5.317,-5.317c-0.715,-1.713 -0.715,-4.284 -0.715,-8.569l-0,-15.794c-0,-4.285 -0,-6.855 0.715,-8.569c0.9,-2.471 2.846,-4.417 5.317,-5.317c1.713,-0.715 4.284,-0.715 8.569,-0.715Z" style="fill:#fff;fill-rule:nonzero;stroke:#909090;stroke-width:1.5px;"/><rect x="354.138" y="16.598" width="344" height="28.294" style="fill:#ededed;"/><rect x="165.003" y="118.866" width="304" height="28.294" style="fill:#ededed;"/><rect x="0" y="14.939" width="311.449" height="28.294" style="fill:#ededed;"/><rect x="4.342" y="236.63" width="315.477" height="28.294" style="fill:#ededed;"/><text x="280.876px" y="68.494px" style="font-family:'ArialMT', 'Arial', sans-serif;font-size:14px;fill:#535353;">T<tspan x="288.909px 293.571px " y="68.494px 68.494px ">ra</tspan>nsform</text><text x="298.885px" y="87.602px" style="font-family:'ArialMT', 'Arial', sans-serif;font-size:14px;fill:#535353;">data</text><text x="467.892px" y="67.875px" style="font-family:'ArialMT', 'Arial', sans-serif;font-size:14px;fill:#535353;">Combine</text><text x="482.282px" y="86.984px" style="font-family:'ArialMT', 'Arial', sans-serif;font-size:14px;fill:#535353;">data</text><text x="43.015px" y="182.713px" style="font-family:'ArialMT', 'Arial', sans-serif;font-size:14px;fill:#535353;">Ingest from</text><text x="43.388px" y="201.821px" style="font-family:'ArialMT', 'Arial', sans-serif;font-size:14px;fill:#535353;">a database</text><text x="604.835px" y="68.198px" style="font-family:'ArialMT', 'Arial', sans-serif;font-size:14px;fill:#535353;">Load into data</text><text x="614.963px" y="87.307px" style="font-family:'ArialMT', 'Arial', sans-serif;font-size:14px;fill:#535353;">warehouse</text><text x="356.475px" y="32.975px" style="font-family:'CourierNewPSMT', 'Courier New', monospace;font-size:14px;fill:#535353;">02*** python combine_api_and_database.py</text><text x="172.167px" y="134.835px" style="font-family:'CourierNewPSMT', 'Courier New', monospace;font-size:14px;fill:#535353;">01*** python transform_api_data.py</text><text x="58.935px" y="31.882px" style="font-family:'CourierNewPSMT', 'Courier New', monospace;font-size:14px;fill:#535353;">python</text><text x="5.779px" y="31.882px" style="font-family:'CourierNewPSMT', 'Courier New', monospace;font-size:14px;fill:#535353;">00***</text><text x="115.596px" y="31.882px" style="font-family:'CourierNewPSMT', 'Courier New', monospace;font-size:14px;fill:#535353;">ingest_from_rest_api.py</text><text x="12.203px" y="253.573px" style="font-family:'CourierNewPSMT', 'Courier New', monospace;font-size:14px;fill:#535353;">00*** python ingest_from_database.py</text><text x="443.268px" y="15.99px" style="font-family:'ArialMT', 'Arial', sans-serif;font-size:14px;fill:#356ac3;">2 <tspan x="454.172px 463.51px " y="15.99px 15.99px ">AM</tspan> every night</text><text x="18.137px" y="230.779px" style="font-family:'ArialMT', 'Arial', sans-serif;font-size:14px;fill:#356ac3;">Every night at midnight</text></svg>