<?xml version="1.0" encoding="UTF-8" standalone="no"?><!DOCTYPE svg PUBLIC "-//W3C//DTD SVG 1.1//EN" "http://www.w3.org/Graphics/SVG/1.1/DTD/svg11.dtd"><svg width="100%" height="100%" viewBox="0 0 518 162" version="1.1" xmlns="http://www.w3.org/2000/svg" xmlns:xlink="http://www.w3.org/1999/xlink" xml:space="preserve" xmlns:serif="http://www.serif.com/" style="fill-rule:evenodd;clip-rule:evenodd;stroke-linejoin:round;"><path d="M101.415,23.508l124.361,0" style="fill:none;fill-rule:nonzero;stroke:#909090;stroke-width:1.5px;"/><path d="M225.026,27.408l7.8,-3.9l-7.8,-3.9l-0,7.8Z" style="fill:#909090;fill-rule:nonzero;"/><path d="M15.351,1.351l69.593,0c4.285,0 6.855,0 8.569,0.716c2.471,0.899 4.417,2.846 5.317,5.316c0.715,1.714 0.715,4.285 0.715,8.57l0,15.794c0,4.284 0,6.855 -0.715,8.569c-0.9,2.471 -2.846,4.417 -5.317,5.316c-1.714,0.716 -4.284,0.716 -8.569,0.716l-69.593,-0c-4.284,-0 -6.855,-0 -8.569,-0.716c-2.471,-0.899 -4.417,-2.845 -5.316,-5.316c-0.716,-1.714 -0.716,-4.285 -0.716,-8.569l0,-15.794c0,-4.285 0,-6.856 0.716,-8.57c0.899,-2.47 2.845,-4.417 5.316,-5.316c1.714,-0.716 4.285,-0.716 8.569,-0.716Z" style="fill:#fff;fill-rule:nonzero;stroke:#909090;stroke-width:1.5px;"/><path d="M101.421,139.082l366,0l-0,-85.55" style="fill:none;fill-rule:nonzero;stroke:#909090;stroke-width:1.5px;"/><path d="M471.321,54.282l-3.9,-7.8l-3.9,7.8l7.8,0Z" style="fill:#909090;fill-rule:nonzero;"/><path d="M334.647,24.373l73.071,-0" style="fill:none;fill-rule:nonzero;stroke:#909090;stroke-width:1.5px;"/><path d="M406.968,28.273l7.8,-3.9l-7.8,-3.9l0,7.8Z" style="fill:#909090;fill-rule:nonzero;"/><path d="M249.297,1.351l69.593,0c4.284,0 6.855,0 8.569,0.716c2.471,0.899 4.417,2.846 5.316,5.316c0.716,1.714 0.716,4.285 0.716,8.57l-0,15.794c-0,4.284 -0,6.855 -0.716,8.569c-0.899,2.471 -2.845,4.417 -5.316,5.316c-1.714,0.716 -4.285,0.716 -8.569,0.716l-69.593,-0c-4.285,-0 -6.855,-0 -8.569,-0.716c-2.471,-0.899 -4.417,-2.845 -5.317,-5.316c-0.715,-1.714 -0.715,-4.285 -0.715,-8.569l-0,-15.794c-0,-4.285 -0,-6.856 0.715,-8.57c0.9,-2.47 2.846,-4.417 5.317,-5.316c1.714,-0.716 4.284,-0.716 8.569,-0.716Z" style="fill:#fff;fill-rule:nonzero;stroke:#909090;stroke-width:1.5px;"/><path d="M432.693,0.75l69.593,0c4.285,0 6.855,0 8.569,0.716c2.471,0.899 4.417,2.845 5.317,5.316c0.715,1.714 0.715,4.284 0.715,8.569l0,15.794c0,4.285 0,6.856 -0.715,8.569c-0.9,2.471 -2.846,4.417 -5.317,5.317c-1.714,0.715 -4.284,0.715 -8.569,0.715l-69.593,0c-4.284,0 -6.855,0 -8.569,-0.715c-2.471,-0.9 -4.417,-2.846 -5.316,-5.317c-0.716,-1.713 -0.716,-4.284 -0.716,-8.569l0,-15.794c0,-4.285 0,-6.855 0.716,-8.569c0.899,-2.471 2.845,-4.417 5.316,-5.316c1.714,-0.716 4.285,-0.716 8.569,-0.716Z" style="fill:#fff;fill-rule:nonzero;stroke:#909090;stroke-width:1.5px;"/><path d="M16.085,115.265l69.592,-0c4.285,-0 6.856,-0 8.57,0.715c2.47,0.899 4.417,2.846 5.316,5.316c0.715,1.714 0.715,4.285 0.715,8.57l0,15.794c0,4.284 0,6.855 -0.715,8.569c-0.899,2.471 -2.846,4.417 -5.316,5.316c-1.714,0.716 -4.285,0.716 -8.57,0.716l-69.592,-0c-4.285,-0 -6.856,-0 -8.57,-0.716c-2.471,-0.899 -4.417,-2.845 -5.316,-5.316c-0.716,-1.714 -0.716,-4.285 -0.716,-8.569l0,-15.794c0,-4.285 0,-6.856 0.716,-8.57c0.899,-2.47 2.845,-4.417 5.316,-5.316c1.714,-0.715 4.285,-0.715 8.57,-0.715Z" style="fill:#fff;fill-rule:nonzero;stroke:#909090;stroke-width:1.5px;"/><path d="M220.291,111.428l71.241,-0c4.073,-0 6.517,-0 8.146,0.68c2.349,0.855 4.199,2.705 5.054,5.053c0.68,1.63 0.68,4.073 0.68,8.146l-0,17.241c-0,4.073 -0,6.517 -0.68,8.146c-0.855,2.349 -2.705,4.199 -5.054,5.054c-1.629,0.68 -4.073,0.68 -8.146,0.68l-71.241,-0c-4.073,-0 -6.517,-0 -8.146,-0.68c-2.348,-0.855 -4.198,-2.705 -5.053,-5.054c-0.68,-1.629 -0.68,-4.073 -0.68,-8.146l-0,-17.241c-0,-4.073 -0,-6.516 0.68,-8.146c0.855,-2.348 2.705,-4.198 5.053,-5.053c1.629,-0.68 4.073,-0.68 8.146,-0.68Z" style="fill:#fff;fill-rule:nonzero;stroke:#909090;stroke-width:1.5px;"/><text x="9.296px" y="19.1px" style="font-family:'ArialMT', 'Arial', sans-serif;font-size:14px;fill:#535353;">Ingest from a</text><text x="18.764px" y="38.208px" style="font-family:'ArialMT', 'Arial', sans-serif;font-size:14px;fill:#535353;">REST<tspan x="55.85px 58.967px 68.305px " y="38.208px 38.208px 38.208px "> AP</tspan>I</text><text x="252.46px" y="18.794px" style="font-family:'ArialMT', 'Arial', sans-serif;font-size:14px;fill:#535353;">T<tspan x="260.492px 265.155px " y="18.794px 18.794px ">ra</tspan>nsform</text><text x="270.469px" y="37.902px" style="font-family:'ArialMT', 'Arial', sans-serif;font-size:14px;fill:#535353;">data</text><text x="439.476px" y="18.175px" style="font-family:'ArialMT', 'Arial', sans-serif;font-size:14px;fill:#535353;">Combine</text><text x="453.866px" y="37.284px" style="font-family:'ArialMT', 'Arial', sans-serif;font-size:14px;fill:#535353;">data</text><text x="14.599px" y="133.013px" style="font-family:'ArialMT', 'Arial', sans-serif;font-size:14px;fill:#535353;">Ingest from</text><text x="14.972px" y="152.121px" style="font-family:'ArialMT', 'Arial', sans-serif;font-size:14px;fill:#535353;">a database</text><text x="219.339px" y="129.178px" style="font-family:'ArialMT', 'Arial', sans-serif;font-size:14px;fill:#535353;">Check Data</text><text x="234.126px" y="148.286px" style="font-family:'ArialMT', 'Arial', sans-serif;font-size:14px;fill:#535353;">Quality</text></svg>