<?xml version="1.0" encoding="UTF-8" standalone="no"?><!DOCTYPE svg PUBLIC "-//W3C//DTD SVG 1.1//EN" "http://www.w3.org/Graphics/SVG/1.1/DTD/svg11.dtd"><svg width="100%" height="100%" viewBox="0 0 657 134" version="1.1" xmlns="http://www.w3.org/2000/svg" xmlns:xlink="http://www.w3.org/1999/xlink" xml:space="preserve" xmlns:serif="http://www.serif.com/" style="fill-rule:evenodd;clip-rule:evenodd;stroke-linejoin:round;"><path d="M146.439,43.68c-0.167,0.008 -0.33,0.058 -0.477,0.151c-0.293,0.183 -0.472,0.506 -0.472,0.855l-0,14.929c0.064,-0.013 0.13,-0.021 0.2,-0.021l9.673,-0l-2.473,-2.307c-0.174,-0.162 -0.256,-0.351 -0.249,-0.567c0.007,-0.216 0.09,-0.405 0.249,-0.567c0.173,-0.162 0.379,-0.246 0.618,-0.253c0.239,-0.007 0.445,0.071 0.618,0.232l3.97,3.705c0.086,0.081 0.148,0.169 0.184,0.263c0.036,0.095 0.054,0.196 0.054,0.304c-0,0.108 -0.018,0.21 -0.054,0.304c-0.036,0.094 -0.098,0.182 -0.184,0.263l-3.97,3.705c-0.173,0.162 -0.379,0.239 -0.618,0.232c-0.239,-0.007 -0.445,-0.091 -0.618,-0.253c-0.159,-0.162 -0.242,-0.351 -0.249,-0.567c-0.007,-0.216 0.075,-0.405 0.249,-0.567l2.473,-2.307l-9.673,-0c-0.07,-0 -0.136,-0.008 -0.2,-0.021l-0,13.7c0.064,-0.012 0.13,-0.02 0.2,-0.02l9.673,-0l-2.473,-2.309c-0.174,-0.162 -0.256,-0.351 -0.249,-0.566c0.007,-0.216 0.09,-0.405 0.249,-0.567c0.173,-0.162 0.379,-0.246 0.618,-0.253c0.239,-0.007 0.445,0.071 0.618,0.233l3.97,3.704c0.086,0.081 0.148,0.169 0.184,0.264c0.036,0.094 0.054,0.195 0.054,0.303c-0,0.108 -0.018,0.209 -0.054,0.304c-0.036,0.094 -0.098,0.182 -0.184,0.263l-3.97,3.704c-0.173,0.162 -0.379,0.24 -0.618,0.234c-0.239,-0.007 -0.445,-0.091 -0.618,-0.253c-0.159,-0.162 -0.242,-0.351 -0.249,-0.567c-0.007,-0.216 0.075,-0.405 0.249,-0.567l2.473,-2.308l-9.673,-0c-0.07,-0 -0.136,-0.008 -0.2,-0.021l-0,14.413c-0,0.35 0.179,0.672 0.472,0.856c0.147,0.092 0.31,0.143 0.477,0.151c0.167,0.008 0.338,-0.025 0.493,-0.102l15.012,-7.452c0.343,-0.169 0.56,-0.521 0.56,-0.904l-0,-31.296c-0,-0.383 -0.217,-0.735 -0.56,-0.904l-15.012,-7.452c-0.155,-0.077 -0.326,-0.11 -0.493,-0.102l-0,0.001Zm21.193,11.005c-2.002,-0 -3.613,1.611 -3.613,3.613l-0,19.781c-0,2.002 1.611,3.613 3.613,3.613l4.264,-0c2.002,-0 3.613,-1.611 3.613,-3.613l-0,-19.781c-0,-2.002 -1.611,-3.613 -3.613,-3.613l-4.264,-0Zm2.132,3.034c1.083,-0 1.975,0.892 1.975,1.976c-0,1.084 -0.892,1.975 -1.975,1.975c-1.084,-0 -1.976,-0.891 -1.976,-1.975c-0,-1.084 0.892,-1.976 1.976,-1.976Zm-0,5.136c1.083,-0 1.975,0.892 1.975,1.976c-0,1.084 -0.892,1.976 -1.975,1.976c-1.084,-0 -1.976,-0.892 -1.976,-1.976c-0,-1.084 0.892,-1.976 1.976,-1.976Zm-0,6.98c0.539,-0 0.974,0.434 0.974,0.973l-0,6.573c-0,0.54 -0.435,0.974 -0.974,0.974c-0.54,-0 -0.974,-0.434 -0.974,-0.974l-0,-6.573c-0,-0.539 0.434,-0.973 0.974,-0.973Z" style="fill:#157800;fill-rule:nonzero;"/><g><clipPath id="_clip1"><path d="M148.66,107.522c-0.411,-0 -0.742,0.334 -0.742,0.744c-0,0.411 0.331,0.742 0.742,0.742l0.991,0l0,1.977c-5.674,0.383 -10.173,5.119 -10.173,10.889c0,6.02 4.898,10.917 10.917,10.917c6.02,0 10.918,-4.897 10.918,-10.917c-0,-3.203 -1.387,-6.087 -3.591,-8.086c0.048,-0.035 0.092,-0.08 0.126,-0.132l0.365,-0.563c0.149,-0.229 0.083,-0.537 -0.146,-0.685l-1.733,-1.125c-0.229,-0.149 -0.537,-0.083 -0.685,0.146l-0.366,0.564c-0.02,0.032 -0.036,0.065 -0.049,0.099c-1.249,-0.621 -2.632,-1.008 -4.094,-1.107l-0,-1.977l0.991,0c0.41,0 0.742,-0.331 0.742,-0.742c-0,-0.41 -0.332,-0.744 -0.742,-0.744l-3.471,-0Zm1.735,4.921c5.2,0 9.431,4.231 9.431,9.431c0,5.2 -4.231,9.431 -9.431,9.431c-5.199,-0 -9.43,-4.231 -9.43,-9.431c-0,-5.2 4.23,-9.431 9.43,-9.431Zm0,2.358c-0.41,-0 -0.744,0.331 -0.744,0.742l0,6.331c0,0.411 0.334,0.744 0.744,0.744c0.411,0 0.745,-0.333 0.745,-0.744l-0,-6.331c-0,-0.411 -0.334,-0.742 -0.745,-0.742Z" clip-rule="nonzero"/></clipPath><g clip-path="url(#_clip1)"><clipPath id="_clip2"><path d="M148.66,107.522c-0.411,-0 -0.742,0.334 -0.742,0.744c-0,0.411 0.331,0.742 0.742,0.742l0.991,0l0,1.977c-5.674,0.383 -10.173,5.119 -10.173,10.889c0,6.02 4.898,10.917 10.917,10.917c6.02,0 10.918,-4.897 10.918,-10.917c-0,-3.203 -1.387,-6.087 -3.591,-8.086c0.048,-0.035 0.092,-0.08 0.126,-0.132l0.365,-0.563c0.149,-0.229 0.083,-0.537 -0.146,-0.685l-1.733,-1.125c-0.229,-0.149 -0.537,-0.083 -0.685,0.146l-0.366,0.564c-0.02,0.032 -0.036,0.065 -0.049,0.099c-1.249,-0.621 -2.632,-1.008 -4.094,-1.107l-0,-1.977l0.991,0c0.41,0 0.742,-0.331 0.742,-0.742c-0,-0.41 -0.332,-0.744 -0.742,-0.744l-3.471,-0Zm1.735,4.921c5.2,0 9.431,4.231 9.431,9.431c0,5.2 -4.231,9.431 -9.431,9.431c-5.199,-0 -9.43,-4.231 -9.43,-9.431c-0,-5.2 4.23,-9.431 9.43,-9.431Zm0,2.358c-0.41,-0 -0.744,0.331 -0.744,0.742l0,6.331c0,0.411 0.334,0.744 0.744,0.744c0.411,0 0.745,-0.333 0.745,-0.744l-0,-6.331c-0,-0.411 -0.334,-0.742 -0.745,-0.742Z" clip-rule="nonzero"/></clipPath><g clip-path="url(#_clip2)"><rect x="138.103" y="106.147" width="24.585" height="28.02" style="fill:url(#_Linear3);"/></g></g></g><path d="M148.66,107.522c-0.411,-0 -0.742,0.334 -0.742,0.744c-0,0.411 0.331,0.742 0.742,0.742l0.991,0l0,1.977c-5.674,0.383 -10.173,5.119 -10.173,10.889c-0,6.02 4.897,10.917 10.917,10.917c6.02,0 10.918,-4.897 10.918,-10.917c-0,-3.203 -1.387,-6.087 -3.591,-8.086c0.048,-0.035 0.092,-0.08 0.126,-0.132l0.365,-0.563c0.148,-0.229 0.083,-0.537 -0.146,-0.685l-1.733,-1.125c-0.229,-0.149 -0.537,-0.083 -0.685,0.146l-0.366,0.564c-0.02,0.032 -0.037,0.065 -0.049,0.099c-1.249,-0.621 -2.632,-1.008 -4.094,-1.107l-0,-1.977l0.991,0c0.41,0 0.742,-0.331 0.742,-0.742c-0,-0.41 -0.332,-0.744 -0.742,-0.744l-3.471,-0Zm1.735,4.921c5.2,0 9.431,4.231 9.431,9.431c0,5.2 -4.231,9.431 -9.431,9.431c-5.199,-0 -9.43,-4.231 -9.43,-9.431c-0,-5.2 4.23,-9.431 9.43,-9.431Zm0,2.358c-0.41,-0 -0.744,0.331 -0.744,0.742l0,6.331c0,0.411 0.334,0.744 0.744,0.744c0.411,0 0.745,-0.333 0.745,-0.744l-0,-6.331c-0,-0.411 -0.334,-0.742 -0.745,-0.742Z" style="fill:none;fill-rule:nonzero;stroke:#a1c2f9;stroke-width:0.75px;"/><g><clipPath id="_clip4"><path d="M242.559,107.522c-0.411,-0 -0.742,0.334 -0.742,0.744c-0,0.411 0.331,0.742 0.742,0.742l0.991,0l0,1.977c-5.674,0.383 -10.173,5.119 -10.173,10.889c0,6.02 4.898,10.917 10.917,10.917c6.02,0 10.918,-4.897 10.918,-10.917c-0,-3.203 -1.387,-6.087 -3.591,-8.086c0.048,-0.035 0.092,-0.08 0.126,-0.132l0.365,-0.563c0.149,-0.229 0.083,-0.537 -0.146,-0.685l-1.733,-1.125c-0.229,-0.149 -0.537,-0.083 -0.685,0.146l-0.366,0.564c-0.02,0.032 -0.036,0.065 -0.049,0.099c-1.249,-0.621 -2.632,-1.008 -4.094,-1.107l-0,-1.977l0.991,0c0.41,0 0.742,-0.331 0.742,-0.742c-0,-0.41 -0.332,-0.744 -0.742,-0.744l-3.471,-0Zm1.735,4.921c5.2,0 9.431,4.231 9.431,9.431c0,5.2 -4.231,9.431 -9.431,9.431c-5.199,-0 -9.43,-4.231 -9.43,-9.431c-0,-5.2 4.231,-9.431 9.43,-9.431Zm0,2.358c-0.41,-0 -0.744,0.331 -0.744,0.742l0,6.331c0,0.411 0.334,0.744 0.744,0.744c0.411,0 0.745,-0.333 0.745,-0.744l-0,-6.331c-0,-0.411 -0.334,-0.742 -0.745,-0.742Z" clip-rule="nonzero"/></clipPath><g clip-path="url(#_clip4)"><clipPath id="_clip5"><path d="M242.559,107.522c-0.411,-0 -0.742,0.334 -0.742,0.744c-0,0.411 0.331,0.742 0.742,0.742l0.991,0l0,1.977c-5.674,0.383 -10.173,5.119 -10.173,10.889c0,6.02 4.898,10.917 10.917,10.917c6.02,0 10.918,-4.897 10.918,-10.917c-0,-3.203 -1.387,-6.087 -3.591,-8.086c0.048,-0.035 0.092,-0.08 0.126,-0.132l0.365,-0.563c0.149,-0.229 0.083,-0.537 -0.146,-0.685l-1.733,-1.125c-0.229,-0.149 -0.537,-0.083 -0.685,0.146l-0.366,0.564c-0.02,0.032 -0.036,0.065 -0.049,0.099c-1.249,-0.621 -2.632,-1.008 -4.094,-1.107l-0,-1.977l0.991,0c0.41,0 0.742,-0.331 0.742,-0.742c-0,-0.41 -0.332,-0.744 -0.742,-0.744l-3.471,-0Zm1.735,4.921c5.2,0 9.431,4.231 9.431,9.431c0,5.2 -4.231,9.431 -9.431,9.431c-5.199,-0 -9.43,-4.231 -9.43,-9.431c-0,-5.2 4.231,-9.431 9.43,-9.431Zm0,2.358c-0.41,-0 -0.744,0.331 -0.744,0.742l0,6.331c0,0.411 0.334,0.744 0.744,0.744c0.411,0 0.745,-0.333 0.745,-0.744l-0,-6.331c-0,-0.411 -0.334,-0.742 -0.745,-0.742Z" clip-rule="nonzero"/></clipPath><g clip-path="url(#_clip5)"><rect x="232.002" y="106.147" width="24.585" height="28.02" style="fill:url(#_Linear6);"/></g></g></g><path d="M242.559,107.522c-0.411,-0 -0.742,0.334 -0.742,0.744c-0,0.411 0.331,0.742 0.742,0.742l0.991,0l0,1.977c-5.674,0.383 -10.173,5.119 -10.173,10.889c0,6.02 4.898,10.917 10.917,10.917c6.02,0 10.918,-4.897 10.918,-10.917c-0,-3.203 -1.387,-6.087 -3.591,-8.086c0.048,-0.035 0.092,-0.08 0.126,-0.132l0.365,-0.563c0.149,-0.229 0.083,-0.537 -0.146,-0.685l-1.733,-1.125c-0.229,-0.149 -0.537,-0.083 -0.685,0.146l-0.366,0.564c-0.02,0.032 -0.036,0.065 -0.049,0.099c-1.249,-0.621 -2.632,-1.008 -4.094,-1.107l-0,-1.977l0.991,0c0.41,0 0.742,-0.331 0.742,-0.742c0,-0.41 -0.332,-0.744 -0.742,-0.744l-3.471,-0Zm1.735,4.921c5.2,0 9.431,4.231 9.431,9.431c0,5.2 -4.231,9.431 -9.431,9.431c-5.199,-0 -9.43,-4.231 -9.43,-9.431c-0,-5.2 4.231,-9.431 9.43,-9.431Zm0,2.358c-0.41,-0 -0.744,0.331 -0.744,0.742l0,6.331c0,0.411 0.334,0.744 0.744,0.744c0.411,0 0.745,-0.333 0.745,-0.744l-0,-6.331c-0,-0.411 -0.334,-0.742 -0.745,-0.742Z" style="fill:none;fill-rule:nonzero;stroke:#a1c2f9;stroke-width:0.75px;"/><g><clipPath id="_clip7"><path d="M359.898,107.522c-0.411,-0 -0.743,0.334 -0.743,0.744c0,0.411 0.332,0.742 0.743,0.742l0.991,0l-0,1.977c-5.674,0.383 -10.173,5.119 -10.173,10.889c-0,6.02 4.897,10.917 10.917,10.917c6.02,0 10.917,-4.897 10.917,-10.917c0,-3.203 -1.387,-6.087 -3.591,-8.086c0.049,-0.035 0.092,-0.08 0.126,-0.132l0.366,-0.563c0.148,-0.229 0.082,-0.537 -0.146,-0.685l-1.734,-1.125c-0.228,-0.149 -0.537,-0.083 -0.685,0.146l-0.365,0.564c-0.021,0.032 -0.037,0.065 -0.049,0.099c-1.25,-0.621 -2.633,-1.008 -4.095,-1.107l0,-1.977l0.991,0c0.411,0 0.742,-0.331 0.742,-0.742c0,-0.41 -0.331,-0.744 -0.742,-0.744l-3.47,-0Zm1.735,4.921c5.2,0 9.431,4.231 9.431,9.431c-0,5.2 -4.231,9.431 -9.431,9.431c-5.2,-0 -9.431,-4.231 -9.431,-9.431c0,-5.2 4.231,-9.431 9.431,-9.431Zm-0,2.358c-0.411,-0 -0.744,0.331 -0.744,0.742l-0,6.331c-0,0.411 0.333,0.744 0.744,0.744c0.411,0 0.744,-0.333 0.744,-0.744l0,-6.331c0,-0.411 -0.333,-0.742 -0.744,-0.742Z" clip-rule="nonzero"/></clipPath><g clip-path="url(#_clip7)"><clipPath id="_clip8"><path d="M359.898,107.522c-0.411,-0 -0.743,0.334 -0.743,0.744c0,0.411 0.332,0.742 0.743,0.742l0.991,0l-0,1.977c-5.674,0.383 -10.173,5.119 -10.173,10.889c-0,6.02 4.897,10.917 10.917,10.917c6.02,0 10.917,-4.897 10.917,-10.917c0,-3.203 -1.387,-6.087 -3.591,-8.086c0.049,-0.035 0.092,-0.08 0.126,-0.132l0.366,-0.563c0.148,-0.229 0.082,-0.537 -0.146,-0.685l-1.734,-1.125c-0.228,-0.149 -0.537,-0.083 -0.685,0.146l-0.365,0.564c-0.021,0.032 -0.037,0.065 -0.049,0.099c-1.25,-0.621 -2.633,-1.008 -4.095,-1.107l0,-1.977l0.991,0c0.411,0 0.742,-0.331 0.742,-0.742c0,-0.41 -0.331,-0.744 -0.742,-0.744l-3.47,-0Zm1.735,4.921c5.2,0 9.431,4.231 9.431,9.431c-0,5.2 -4.231,9.431 -9.431,9.431c-5.2,-0 -9.431,-4.231 -9.431,-9.431c0,-5.2 4.231,-9.431 9.431,-9.431Zm-0,2.358c-0.411,-0 -0.744,0.331 -0.744,0.742l-0,6.331c-0,0.411 0.333,0.744 0.744,0.744c0.411,0 0.744,-0.333 0.744,-0.744l0,-6.331c0,-0.411 -0.333,-0.742 -0.744,-0.742Z" clip-rule="nonzero"/></clipPath><g clip-path="url(#_clip8)"><rect x="349.341" y="106.147" width="24.585" height="28.02" style="fill:url(#_Linear9);"/></g></g></g><path d="M359.897,107.522c-0.41,-0 -0.742,0.334 -0.742,0.744c0,0.411 0.332,0.742 0.742,0.742l0.992,0l-0,1.977c-5.674,0.383 -10.173,5.119 -10.173,10.889c-0.001,6.02 4.897,10.917 10.917,10.917c6.02,0 10.917,-4.897 10.917,-10.917c0,-3.203 -1.387,-6.087 -3.591,-8.086c0.048,-0.035 0.092,-0.08 0.126,-0.132l0.366,-0.563c0.148,-0.229 0.082,-0.537 -0.146,-0.685l-1.734,-1.125c-0.229,-0.149 -0.537,-0.083 -0.685,0.146l-0.365,0.564c-0.021,0.032 -0.037,0.065 -0.049,0.099c-1.25,-0.621 -2.633,-1.008 -4.095,-1.107l0,-1.977l0.991,0c0.411,0 0.742,-0.331 0.742,-0.742c0,-0.41 -0.331,-0.744 -0.742,-0.744l-3.471,-0Zm1.736,4.921c5.2,0 9.431,4.231 9.431,9.431c-0,5.2 -4.231,9.431 -9.431,9.431c-5.2,-0 -9.431,-4.231 -9.431,-9.431c0,-5.2 4.231,-9.431 9.431,-9.431Zm-0,2.358c-0.411,-0 -0.744,0.331 -0.744,0.742l-0,6.331c-0,0.411 0.333,0.744 0.744,0.744c0.411,0 0.744,-0.333 0.744,-0.744l0,-6.331c0,-0.411 -0.333,-0.742 -0.744,-0.742Z" style="fill:none;fill-rule:nonzero;stroke:#a1c2f9;stroke-width:0.75px;"/><g><clipPath id="_clip10"><path d="M497.079,107.522c-0.411,-0 -0.742,0.334 -0.742,0.744c-0,0.411 0.331,0.742 0.742,0.742l0.991,0l-0,1.977c-5.674,0.383 -10.173,5.119 -10.173,10.889c-0,6.02 4.897,10.917 10.917,10.917c6.02,0 10.917,-4.897 10.917,-10.917c0,-3.203 -1.386,-6.087 -3.591,-8.086c0.049,-0.035 0.092,-0.08 0.127,-0.132l0.365,-0.563c0.148,-0.229 0.083,-0.537 -0.146,-0.685l-1.733,-1.125c-0.229,-0.149 -0.537,-0.083 -0.685,0.146l-0.366,0.564c-0.02,0.032 -0.037,0.065 -0.049,0.099c-1.25,-0.621 -2.632,-1.008 -4.095,-1.107l0,-1.977l0.992,0c0.41,0 0.742,-0.331 0.742,-0.742c-0,-0.41 -0.332,-0.744 -0.742,-0.744l-3.471,-0Zm1.735,4.921c5.2,0 9.431,4.231 9.431,9.431c-0,5.2 -4.231,9.431 -9.431,9.431c-5.2,-0 -9.43,-4.231 -9.43,-9.431c-0,-5.2 4.23,-9.431 9.43,-9.431Zm0,2.358c-0.41,-0 -0.744,0.331 -0.744,0.742l-0,6.331c-0,0.411 0.333,0.744 0.744,0.744c0.411,0 0.745,-0.333 0.744,-0.744l0,-6.331c0,-0.411 -0.333,-0.742 -0.744,-0.742Z" clip-rule="nonzero"/></clipPath><g clip-path="url(#_clip10)"><clipPath id="_clip11"><path d="M497.079,107.522c-0.411,-0 -0.742,0.334 -0.742,0.744c-0,0.411 0.331,0.742 0.742,0.742l0.991,0l-0,1.977c-5.674,0.383 -10.173,5.119 -10.173,10.889c-0,6.02 4.897,10.917 10.917,10.917c6.02,0 10.917,-4.897 10.917,-10.917c0,-3.203 -1.386,-6.087 -3.591,-8.086c0.049,-0.035 0.092,-0.08 0.127,-0.132l0.365,-0.563c0.148,-0.229 0.083,-0.537 -0.146,-0.685l-1.733,-1.125c-0.229,-0.149 -0.537,-0.083 -0.685,0.146l-0.366,0.564c-0.02,0.032 -0.037,0.065 -0.049,0.099c-1.25,-0.621 -2.632,-1.008 -4.095,-1.107l0,-1.977l0.992,0c0.41,0 0.742,-0.331 0.742,-0.742c-0,-0.41 -0.332,-0.744 -0.742,-0.744l-3.471,-0Zm1.735,4.921c5.2,0 9.431,4.231 9.431,9.431c-0,5.2 -4.231,9.431 -9.431,9.431c-5.2,-0 -9.43,-4.231 -9.43,-9.431c-0,-5.2 4.23,-9.431 9.43,-9.431Zm0,2.358c-0.41,-0 -0.744,0.331 -0.744,0.742l-0,6.331c-0,0.411 0.333,0.744 0.744,0.744c0.411,0 0.745,-0.333 0.744,-0.744l0,-6.331c0,-0.411 -0.333,-0.742 -0.744,-0.742Z" clip-rule="nonzero"/></clipPath><g clip-path="url(#_clip11)"><rect x="486.522" y="106.147" width="24.585" height="28.02" style="fill:url(#_Linear12);"/></g></g></g><path d="M497.079,107.522c-0.411,-0 -0.742,0.334 -0.742,0.744c-0,0.411 0.331,0.742 0.742,0.742l0.991,0l-0,1.977c-5.674,0.383 -10.173,5.119 -10.173,10.889c-0,6.02 4.897,10.917 10.917,10.917c6.02,0 10.917,-4.897 10.917,-10.917c0,-3.203 -1.386,-6.087 -3.591,-8.086c0.049,-0.035 0.092,-0.08 0.127,-0.132l0.365,-0.563c0.148,-0.229 0.083,-0.537 -0.146,-0.685l-1.733,-1.125c-0.229,-0.149 -0.537,-0.083 -0.685,0.146l-0.366,0.564c-0.02,0.032 -0.037,0.065 -0.049,0.099c-1.25,-0.621 -2.632,-1.008 -4.095,-1.107l0,-1.977l0.992,0c0.41,0 0.742,-0.331 0.742,-0.742c-0,-0.41 -0.332,-0.744 -0.742,-0.744l-3.471,-0Zm1.735,4.921c5.2,0 9.431,4.231 9.431,9.431c-0,5.2 -4.231,9.431 -9.431,9.431c-5.2,-0 -9.43,-4.231 -9.43,-9.431c-0,-5.2 4.23,-9.431 9.43,-9.431Zm0,2.358c-0.41,-0 -0.744,0.331 -0.744,0.742l-0,6.331c-0,0.411 0.333,0.744 0.744,0.744c0.411,0 0.745,-0.333 0.744,-0.744l0,-6.331c0,-0.411 -0.333,-0.742 -0.744,-0.742Z" style="fill:none;fill-rule:nonzero;stroke:#a1c2f9;stroke-width:0.75px;"/><g><clipPath id="_clip13"><path d="M623.86,107.522c-0.41,-0 -0.742,0.334 -0.742,0.744c0,0.411 0.332,0.742 0.742,0.742l0.991,0l0,1.977c-5.674,0.383 -10.173,5.119 -10.173,10.889c0,6.02 4.898,10.917 10.918,10.917c6.019,0 10.917,-4.897 10.917,-10.917c-0,-3.203 -1.387,-6.087 -3.591,-8.086c0.048,-0.035 0.092,-0.08 0.126,-0.132l0.365,-0.563c0.149,-0.229 0.083,-0.537 -0.146,-0.685l-1.733,-1.125c-0.229,-0.149 -0.537,-0.083 -0.685,0.146l-0.365,0.564c-0.021,0.032 -0.037,0.065 -0.05,0.099c-1.249,-0.621 -2.632,-1.008 -4.094,-1.107l-0,-1.977l0.991,0c0.411,0 0.742,-0.331 0.742,-0.742c0,-0.41 -0.331,-0.744 -0.742,-0.744l-3.471,-0Zm1.736,4.921c5.199,0 9.43,4.231 9.43,9.431c0,5.2 -4.231,9.431 -9.43,9.431c-5.2,-0 -9.431,-4.231 -9.431,-9.431c-0,-5.2 4.231,-9.431 9.431,-9.431Zm-0,2.358c-0.411,-0 -0.745,0.331 -0.745,0.742l0,6.331c0,0.411 0.334,0.744 0.745,0.744c0.41,0 0.744,-0.333 0.744,-0.744l-0,-6.331c-0,-0.411 -0.334,-0.742 -0.744,-0.742Z" clip-rule="nonzero"/></clipPath><g clip-path="url(#_clip13)"><clipPath id="_clip14"><path d="M623.86,107.522c-0.41,-0 -0.742,0.334 -0.742,0.744c0,0.411 0.332,0.742 0.742,0.742l0.991,0l0,1.977c-5.674,0.383 -10.173,5.119 -10.173,10.889c0,6.02 4.898,10.917 10.918,10.917c6.019,0 10.917,-4.897 10.917,-10.917c-0,-3.203 -1.387,-6.087 -3.591,-8.086c0.048,-0.035 0.092,-0.08 0.126,-0.132l0.365,-0.563c0.149,-0.229 0.083,-0.537 -0.146,-0.685l-1.733,-1.125c-0.229,-0.149 -0.537,-0.083 -0.685,0.146l-0.365,0.564c-0.021,0.032 -0.037,0.065 -0.05,0.099c-1.249,-0.621 -2.632,-1.008 -4.094,-1.107l-0,-1.977l0.991,0c0.411,0 0.742,-0.331 0.742,-0.742c0,-0.41 -0.331,-0.744 -0.742,-0.744l-3.471,-0Zm1.736,4.921c5.199,0 9.43,4.231 9.43,9.431c0,5.2 -4.231,9.431 -9.43,9.431c-5.2,-0 -9.431,-4.231 -9.431,-9.431c-0,-5.2 4.231,-9.431 9.431,-9.431Zm-0,2.358c-0.411,-0 -0.745,0.331 -0.745,0.742l0,6.331c0,0.411 0.334,0.744 0.745,0.744c0.41,0 0.744,-0.333 0.744,-0.744l-0,-6.331c-0,-0.411 -0.334,-0.742 -0.744,-0.742Z" clip-rule="nonzero"/></clipPath><g clip-path="url(#_clip14)"><rect x="613.303" y="106.147" width="24.585" height="28.02" style="fill:url(#_Linear15);"/></g></g></g><path d="M623.86,107.522c-0.41,-0 -0.742,0.334 -0.742,0.744c0,0.411 0.332,0.742 0.742,0.742l0.991,0l0,1.977c-5.674,0.383 -10.173,5.119 -10.173,10.889c0,6.02 4.898,10.917 10.918,10.917c6.019,0 10.917,-4.897 10.917,-10.917c-0,-3.203 -1.387,-6.087 -3.591,-8.086c0.048,-0.035 0.092,-0.08 0.126,-0.132l0.365,-0.563c0.149,-0.229 0.083,-0.537 -0.146,-0.685l-1.733,-1.125c-0.229,-0.149 -0.537,-0.083 -0.685,0.146l-0.365,0.564c-0.021,0.032 -0.037,0.065 -0.05,0.099c-1.249,-0.621 -2.632,-1.008 -4.094,-1.107l-0,-1.977l0.991,0c0.411,0 0.742,-0.331 0.742,-0.742c0,-0.41 -0.331,-0.744 -0.742,-0.744l-3.471,-0Zm1.736,4.921c5.199,0 9.43,4.231 9.43,9.431c0,5.2 -4.231,9.431 -9.43,9.431c-5.2,-0 -9.431,-4.231 -9.431,-9.431c-0,-5.2 4.231,-9.431 9.431,-9.431Zm-0,2.358c-0.411,-0 -0.745,0.331 -0.745,0.742l0,6.331c0,0.411 0.334,0.744 0.745,0.744c0.41,0 0.744,-0.333 0.744,-0.744l-0,-6.331c-0,-0.411 -0.334,-0.742 -0.744,-0.742Z" style="fill:none;fill-rule:nonzero;stroke:#a1c2f9;stroke-width:0.75px;"/><path d="M215.87,42.048l47.542,0c1.725,0 2.76,0 3.45,0.288c0.995,0.362 1.779,1.146 2.141,2.141c0.288,0.69 0.288,1.725 0.288,3.451l0,38.37c0,1.726 0,2.761 -0.288,3.451c-0.362,0.995 -1.146,1.779 -2.141,2.141c-0.69,0.288 -1.725,0.288 -3.45,0.288l-47.542,0c-1.725,0 -2.761,0 -3.451,-0.288c-0.995,-0.362 -1.778,-1.146 -2.141,-2.141c-0.288,-0.69 -0.288,-1.725 -0.288,-3.451l0,-38.37c0,-1.726 0,-2.761 0.288,-3.451c0.363,-0.995 1.146,-1.779 2.141,-2.141c0.69,-0.288 1.726,-0.288 3.451,-0.288Z" style="fill:#fff;fill-rule:nonzero;stroke:#909090;stroke-width:2px;"/><text x="218.626px" y="60.239px" style="font-family:'ArialMT', 'Arial', sans-serif;font-size:12px;fill:#535353;">Storage</text><text x="26.656px" y="16.154px" style="font-family:'ArialMT', 'Arial', sans-serif;font-size:12px;fill:#535353;">Data</text><text x="15.315px" y="30.154px" style="font-family:'ArialMT', 'Arial', sans-serif;font-size:12px;fill:#535353;">Source 1</text><text x="26.279px" y="61.57px" style="font-family:'ArialMT', 'Arial', sans-serif;font-size:12px;fill:#535353;">Data</text><text x="14.938px" y="75.57px" style="font-family:'ArialMT', 'Arial', sans-serif;font-size:12px;fill:#535353;">Source 2</text><text x="26.279px" y="107.618px" style="font-family:'ArialMT', 'Arial', sans-serif;font-size:12px;fill:#535353;">Data</text><text x="14.938px" y="121.618px" style="font-family:'ArialMT', 'Arial', sans-serif;font-size:12px;fill:#535353;">Source 3</text><g><clipPath id="_clip16"><path d="M80.404,14.223l47.489,43.361l-7.822,8.566l-47.489,-43.36l7.822,-8.567Z" clip-rule="nonzero"/></clipPath><g clip-path="url(#_clip16)"><path d="M77.232,19.181l39.66,36.213" style="fill:none;fill-rule:nonzero;stroke:#909090;stroke-width:2px;"/><path d="M112.917,58.264l10.326,2.928l-3.852,-10.017l-6.474,7.089Z" style="fill:#909090;fill-rule:nonzero;"/></g></g><path d="M77.692,69.09l37.4,0" style="fill:none;fill-rule:nonzero;stroke:#909090;stroke-width:2px;"/><path d="M114.092,73.89l9.6,-4.8l-9.6,-4.8l0,9.6Z" style="fill:#909090;fill-rule:nonzero;"/><g><clipPath id="_clip17"><path d="M73.557,104.728l49.788,-31.942l6.264,9.763l-49.788,31.942l-6.264,-9.763Z" clip-rule="nonzero"/></clipPath><g clip-path="url(#_clip17)"><path d="M77.531,109.07l40.866,-26.219" style="fill:none;fill-rule:nonzero;stroke:#909090;stroke-width:2px;"/><path d="M120.147,87.431l5.488,-9.224l-10.672,1.144l5.184,8.08Z" style="fill:#909090;fill-rule:nonzero;"/></g></g><path d="M6.626,1l65.407,0c1.541,0 2.465,0 3.081,0.257c0.888,0.324 1.588,1.023 1.911,1.911c0.257,0.617 0.257,1.541 0.257,3.081l0,25.316c0,1.54 0,2.464 -0.257,3.081c-0.323,0.888 -1.023,1.588 -1.911,1.911c-0.616,0.257 -1.54,0.257 -3.081,0.257l-65.407,0c-1.54,0 -2.464,0 -3.08,-0.257c-0.889,-0.323 -1.588,-1.023 -1.912,-1.911c-0.257,-0.617 -0.257,-1.541 -0.257,-3.081l0,-25.316c0,-1.54 0,-2.464 0.257,-3.081c0.324,-0.888 1.023,-1.587 1.912,-1.911c0.616,-0.257 1.54,-0.257 3.08,-0.257Z" style="fill:none;fill-rule:nonzero;stroke:#909090;stroke-width:2px;"/><path d="M6.249,46.416l65.407,0c1.54,0 2.465,0 3.081,0.258c0.888,0.323 1.588,1.023 1.911,1.911c0.257,0.616 0.257,1.54 0.257,3.081l0,25.315c0,1.541 0,2.465 -0.257,3.081c-0.323,0.888 -1.023,1.588 -1.911,1.911c-0.616,0.257 -1.541,0.257 -3.081,0.257l-65.407,0c-1.54,0 -2.464,0 -3.081,-0.257c-0.888,-0.323 -1.587,-1.023 -1.911,-1.911c-0.257,-0.616 -0.257,-1.54 -0.257,-3.081l0,-25.315c0,-1.541 0,-2.465 0.257,-3.081c0.324,-0.888 1.023,-1.588 1.911,-1.911c0.617,-0.258 1.541,-0.258 3.081,-0.258Z" style="fill:none;fill-rule:nonzero;stroke:#909090;stroke-width:2px;"/><path d="M6.249,92.465l65.407,-0c1.54,-0 2.465,-0 3.081,0.257c0.888,0.323 1.588,1.023 1.911,1.911c0.257,0.616 0.257,1.54 0.257,3.081l0,25.315c0,1.541 0,2.465 -0.257,3.081c-0.323,0.888 -1.023,1.588 -1.911,1.911c-0.616,0.258 -1.541,0.258 -3.081,0.258l-65.407,-0c-1.54,-0 -2.464,-0 -3.081,-0.258c-0.888,-0.323 -1.587,-1.023 -1.911,-1.911c-0.257,-0.616 -0.257,-1.54 -0.257,-3.081l0,-25.315c0,-1.541 0,-2.465 0.257,-3.081c0.324,-0.888 1.023,-1.588 1.911,-1.911c0.617,-0.257 1.541,-0.257 3.081,-0.257Z" style="fill:none;fill-rule:nonzero;stroke:#909090;stroke-width:2px;"/><path d="M270.015,66.265l59.283,-0" style="fill:none;fill-rule:nonzero;stroke:#909090;stroke-width:2px;"/><path d="M328.298,71.065l9.6,-4.8l-9.6,-4.8l0,9.6Z" style="fill:#909090;fill-rule:nonzero;"/><path d="M375.884,52.283c-8.586,-8.586 -22.527,-8.586 -31.113,-0c-8.586,8.586 -8.586,22.527 0,31.113c8.586,8.586 22.527,8.586 31.113,-0c8.586,-8.586 8.586,-22.527 0,-31.113Z" style="fill:#fff;stroke:#999;stroke-width:2px;"/><path d="M384.815,66.594l64.053,-0" style="fill:none;fill-rule:nonzero;stroke:#909090;stroke-width:2px;"/><path d="M447.868,71.394l9.6,-4.8l-9.6,-4.8l-0,9.6Z" style="fill:#909090;fill-rule:nonzero;"/><path d="M470.651,39.198l47.541,-0c1.726,-0 2.761,-0 3.451,0.288c0.995,0.362 1.779,1.146 2.141,2.141c0.288,0.69 0.288,1.725 0.288,3.451l0,38.37c0,1.726 0,2.761 -0.288,3.451c-0.362,0.995 -1.146,1.779 -2.141,2.141c-0.69,0.288 -1.725,0.288 -3.451,0.288l-47.541,-0c-1.726,-0 -2.761,-0 -3.451,-0.288c-0.995,-0.362 -1.779,-1.146 -2.141,-2.141c-0.288,-0.69 -0.288,-1.725 -0.288,-3.451l0,-38.37c0,-1.726 0,-2.761 0.288,-3.451c0.362,-0.995 1.146,-1.779 2.141,-2.141c0.69,-0.288 1.725,-0.288 3.451,-0.288Z" style="fill:#fff;fill-rule:nonzero;stroke:#909090;stroke-width:2px;"/><text x="473.407px" y="57.389px" style="font-family:'ArialMT', 'Arial', sans-serif;font-size:12px;fill:#535353;">Storage</text><path d="M527.783,65.781l59.283,-0" style="fill:none;fill-rule:nonzero;stroke:#909090;stroke-width:2px;"/><path d="M586.066,70.581l9.6,-4.8l-9.6,-4.8l-0,9.6Z" style="fill:#909090;fill-rule:nonzero;"/><path d="M601.896,39.198l47.541,-0c1.726,-0 2.761,-0 3.451,0.288c0.995,0.362 1.779,1.146 2.141,2.141c0.288,0.69 0.288,1.725 0.288,3.451l0,38.37c0,1.726 0,2.761 -0.288,3.451c-0.362,0.995 -1.146,1.779 -2.141,2.141c-0.69,0.288 -1.725,0.288 -3.451,0.288l-47.541,-0c-1.726,-0 -2.761,-0 -3.451,-0.288c-0.995,-0.362 -1.779,-1.146 -2.141,-2.141c-0.288,-0.69 -0.288,-1.725 -0.288,-3.451l0,-38.37c0,-1.726 0,-2.761 0.288,-3.451c0.362,-0.995 1.146,-1.779 2.141,-2.141c0.69,-0.288 1.725,-0.288 3.451,-0.288Z" style="fill:#fff;fill-rule:nonzero;stroke:#909090;stroke-width:2px;"/><path d="M608.718,46.159c-0.171,-0 -0.31,0.139 -0.31,0.309l0,33.804c0,0.171 0.139,0.312 0.31,0.312l33.898,0c0.17,0 0.309,-0.141 0.309,-0.312l0,-0.928c0,-0.17 -0.139,-0.309 -0.309,-0.309l-32.349,-0c-0.171,-0 -0.309,-0.142 -0.309,-0.312l-0,-32.255c-0,-0.17 -0.139,-0.309 -0.31,-0.309l-0.93,-0Zm26.632,4.788l0,25.597l4.304,0l0,-25.597l-4.304,-0Zm-15.321,6.243l-0,19.354l4.303,0l0,-19.354l-4.303,0Zm7.66,5.108l0,14.246l4.304,0l0,-14.246l-4.304,0Zm-15.321,8.008l-0,6.238l4.304,0l-0,-6.238l-4.304,0Z" style="fill:#fff;fill-rule:nonzero;stroke:#ffd479;stroke-width:1px;"/><path d="M183.576,67.839l17.57,0" style="fill:none;fill-rule:nonzero;stroke:#909090;stroke-width:2px;"/><path d="M200.146,72.639l9.6,-4.8l-9.6,-4.8l0,9.6Z" style="fill:#909090;fill-rule:nonzero;"/><path d="M243.156,73.982c-2.905,0 -4.93,0.916 -4.93,1.739c0,0.822 2.024,1.739 4.93,1.739c2.905,0 4.929,-0.917 4.929,-1.739c0,-0.823 -2.024,-1.739 -4.929,-1.739Z" style="fill:#666;fill-rule:nonzero;"/><path d="M238.226,77.164l0,2.495c0,0.822 2.024,1.738 4.93,1.738c2.905,0 4.929,-0.916 4.929,-1.738l0,-2.495c-0.886,0.757 -2.713,1.254 -4.929,1.254c-2.216,0 -4.043,-0.497 -4.93,-1.254Z" style="fill:#666;fill-rule:nonzero;"/><path d="M238.226,80.975l0,2.494c0,0.822 2.024,1.738 4.93,1.738c2.905,0 4.929,-0.916 4.929,-1.738l0,-2.494c-0.886,0.756 -2.713,1.253 -4.929,1.253c-2.216,0 -4.043,-0.497 -4.93,-1.253Z" style="fill:#666;fill-rule:nonzero;"/><path d="M237.447,79.92c-0.172,0.007 -0.346,0.011 -0.523,0.011c-2.216,0 -4.043,-0.497 -4.929,-1.254l0,2.495c0,0.822 2.024,1.738 4.929,1.738c0.178,0 0.352,-0.004 0.523,-0.011l0,-2.979Z" style="fill:#666;fill-rule:nonzero;"/><path d="M237.447,76.186c-0.172,0.006 -0.346,0.01 -0.523,0.01c-2.216,0 -4.043,-0.497 -4.929,-1.253l0,2.494c0,0.822 2.024,1.738 4.929,1.738c0.178,0 0.352,-0.004 0.523,-0.011l0,-2.978Z" style="fill:#666;fill-rule:nonzero;"/><path d="M231.995,71.2l0,2.494c0,0.823 2.024,1.739 4.929,1.739c0.178,0 0.352,-0.005 0.523,-0.011l0,-0.024c0,-1.161 1.83,-2.071 4.406,-2.275l0,-1.923c-0.886,0.757 -2.713,1.254 -4.929,1.254c-2.216,0 -4.043,-0.497 -4.929,-1.254Z" style="fill:#666;fill-rule:nonzero;"/><path d="M231.995,67.389l0,2.495c0,0.822 2.024,1.738 4.929,1.738c2.905,0 4.93,-0.916 4.93,-1.738l0,-2.495c-0.887,0.757 -2.713,1.254 -4.93,1.254c-2.216,0 -4.043,-0.497 -4.929,-1.254Z" style="fill:#666;fill-rule:nonzero;"/><path d="M236.924,64.207c-2.905,0 -4.929,0.917 -4.929,1.739c0,0.823 2.024,1.739 4.929,1.739c2.905,0 4.93,-0.916 4.93,-1.739c0,-0.822 -2.024,-1.739 -4.93,-1.739Z" style="fill:#666;fill-rule:nonzero;"/><path d="M498.734,73.982c-2.905,0 -4.93,0.916 -4.93,1.739c-0,0.822 2.024,1.739 4.93,1.739c2.905,0 4.929,-0.917 4.929,-1.739c-0,-0.823 -2.024,-1.739 -4.929,-1.739Z" style="fill:#666;fill-rule:nonzero;"/><path d="M493.804,77.164l-0,2.495c-0,0.822 2.024,1.738 4.93,1.738c2.905,0 4.929,-0.916 4.929,-1.738l-0,-2.495c-0.886,0.757 -2.713,1.254 -4.929,1.254c-2.216,0 -4.043,-0.497 -4.93,-1.254Z" style="fill:#666;fill-rule:nonzero;"/><path d="M493.804,80.975l-0,2.494c-0,0.822 2.024,1.738 4.93,1.738c2.905,0 4.929,-0.916 4.929,-1.738l-0,-2.494c-0.886,0.756 -2.713,1.253 -4.929,1.253c-2.216,0 -4.043,-0.497 -4.93,-1.253Z" style="fill:#666;fill-rule:nonzero;"/><path d="M493.025,79.92c-0.172,0.007 -0.346,0.011 -0.523,0.011c-2.216,0 -4.043,-0.497 -4.929,-1.254l-0,2.495c-0,0.822 2.024,1.738 4.929,1.738c0.178,0 0.352,-0.004 0.523,-0.011l-0,-2.979Z" style="fill:#666;fill-rule:nonzero;"/><path d="M493.025,76.186c-0.172,0.006 -0.346,0.01 -0.523,0.01c-2.216,0 -4.043,-0.497 -4.929,-1.253l-0,2.494c-0,0.822 2.024,1.738 4.929,1.738c0.178,0 0.352,-0.004 0.523,-0.011l-0,-2.978Z" style="fill:#666;fill-rule:nonzero;"/><path d="M487.573,71.2l-0,2.494c-0,0.823 2.024,1.739 4.929,1.739c0.178,0 0.352,-0.005 0.523,-0.011l-0,-0.024c-0,-1.161 1.83,-2.071 4.406,-2.275l-0,-1.923c-0.886,0.757 -2.713,1.254 -4.929,1.254c-2.216,0 -4.043,-0.497 -4.929,-1.254Z" style="fill:#666;fill-rule:nonzero;"/><path d="M487.573,67.389l-0,2.495c-0,0.822 2.024,1.738 4.929,1.738c2.905,0 4.93,-0.916 4.93,-1.738l-0,-2.495c-0.887,0.757 -2.713,1.254 -4.93,1.254c-2.216,0 -4.043,-0.497 -4.929,-1.254Z" style="fill:#666;fill-rule:nonzero;"/><path d="M492.502,64.207c-2.905,0 -4.929,0.917 -4.929,1.739c-0,0.823 2.024,1.739 4.929,1.739c2.905,0 4.93,-0.916 4.93,-1.739c-0,-0.822 -2.024,-1.739 -4.93,-1.739Z" style="fill:#666;fill-rule:nonzero;"/><path d="M359.778,58.275l-4.437,-0l0,2.062c0,0.272 -0.183,0.51 -0.445,0.58c-0.775,0.203 -1.293,0.504 -2.01,0.92l-0.106,0.06c-0.234,0.136 -0.531,0.098 -0.723,-0.093l-1.494,-1.49l-2.872,2.861l1.492,1.486c0.193,0.192 0.231,0.49 0.094,0.725c-0.422,0.722 -0.761,1.341 -0.984,2.181c-0.069,0.262 -0.307,0.444 -0.579,0.444l-2.11,-0l0,4.483l2.091,-0c0.271,-0 0.51,0.183 0.579,0.446c0.203,0.773 0.501,1.29 0.913,2.003l0.065,0.111c0.135,0.234 0.097,0.53 -0.093,0.722l-1.487,1.496l2.853,2.87l1.48,-1.489c0.192,-0.194 0.492,-0.232 0.727,-0.094c0.748,0.437 1.342,0.764 2.165,0.983c0.262,0.07 0.444,0.308 0.444,0.579l0,2.11l4.483,-0l0,-2.111c0,-0.272 0.183,-0.511 0.446,-0.58c0.766,-0.202 1.273,-0.496 1.977,-0.903l0.132,-0.076c0.234,-0.136 0.53,-0.098 0.722,0.093l1.496,1.488l2.874,-2.856l-1.491,-1.483c-0.194,-0.192 -0.233,-0.491 -0.096,-0.727c0.41,-0.699 0.764,-1.303 0.986,-2.137c0.07,-0.262 0.307,-0.445 0.579,-0.445l2.113,-0l0,-4.289l-6.931,-0c-0.087,-0 -0.173,-0.006 -0.258,-0.013c0.273,0.633 0.427,1.329 0.427,2.061c0,2.877 -2.341,5.217 -5.217,5.217c-2.876,-0 -5.217,-2.34 -5.217,-5.217c0,-2.876 2.34,-5.216 5.217,-5.216c0.783,-0 1.523,0.178 2.19,0.488c-0.004,-0.062 -0.01,-0.125 -0.01,-0.188l0,-6.794c0,-0.091 0.006,-0.18 0.015,-0.269l0,0.001Z" style="fill:#a12f9d;fill-rule:nonzero;"/><path d="M357.583,66.068c-2.308,-0 -4.186,1.878 -4.186,4.186c0,2.308 1.878,4.185 4.186,4.185c2.308,-0 4.185,-1.877 4.185,-4.185c0,-2.308 -1.877,-4.186 -4.185,-4.186Z" style="fill:#a12f9d;fill-rule:nonzero;"/><path d="M371.779,52.435l0,1.572l1.482,-0l-1.482,-1.572Z" style="fill:#a12f9d;fill-rule:nonzero;"/><path d="M364.272,52.175c-0.413,-0 -0.747,0.333 -0.747,0.747l0,10.938c0,0.414 0.334,0.747 0.747,0.747l8.488,-0c0.414,-0 0.747,-0.333 0.747,-0.747l0,-8.822l-1.284,-0c-0.812,-0 -1.465,-0.655 -1.465,-1.467l0,-1.396l-6.486,-0Zm0.825,3.341l6.779,-0c0.226,-0 0.408,0.181 0.408,0.407l0,0.154c0,0.226 -0.182,0.408 -0.408,0.408l-6.779,-0c-0.226,-0 -0.408,-0.182 -0.408,-0.408l0,-0.154c0,-0.226 0.182,-0.407 0.408,-0.407Zm-0.001,2.289l6.78,-0c0.226,-0 0.408,0.182 0.408,0.408l0,0.153c0,0.226 -0.182,0.408 -0.408,0.408l-6.78,-0c-0.226,-0 -0.407,-0.182 -0.407,-0.408l0,-0.153c0,-0.226 0.181,-0.408 0.407,-0.408Zm0,2.29l6.78,-0c0.226,-0 0.408,0.181 0.408,0.407l0,0.154c0,0.226 -0.182,0.407 -0.408,0.407l-6.78,-0c-0.226,-0 -0.407,-0.181 -0.407,-0.407l0,-0.154c0,-0.226 0.181,-0.407 0.407,-0.407Z" style="fill:#a12f9d;fill-rule:nonzero;"/><path d="M362.175,55.014l-0.799,-0c-0.414,-0 -0.747,0.333 -0.747,0.747l0,10.938c0,0.414 0.333,0.747 0.747,0.747l8.488,-0c0.414,-0 0.747,-0.333 0.747,-0.747l0,-0.777l-6.087,-0c-1.301,-0 -2.349,-1.048 -2.349,-2.349l0,-8.559Z" style="fill:#a12f9d;fill-rule:nonzero;"/><defs><linearGradient id="_Linear3" x1="0" y1="0" x2="1" y2="0" gradientUnits="userSpaceOnUse" gradientTransform="matrix(0,-27.2696,23.8345,0,150.395,133.791)"><stop offset="0" style="stop-color:#ffdabe;stop-opacity:1"/><stop offset="1" style="stop-color:#fff5ee;stop-opacity:1"/></linearGradient><linearGradient id="_Linear6" x1="0" y1="0" x2="1" y2="0" gradientUnits="userSpaceOnUse" gradientTransform="matrix(0,-27.2696,23.8345,0,244.294,133.791)"><stop offset="0" style="stop-color:#ffdabe;stop-opacity:1"/><stop offset="1" style="stop-color:#fff5ee;stop-opacity:1"/></linearGradient><linearGradient id="_Linear9" x1="0" y1="0" x2="1" y2="0" gradientUnits="userSpaceOnUse" gradientTransform="matrix(0,-27.2696,23.8345,0,361.633,133.791)"><stop offset="0" style="stop-color:#ffdabe;stop-opacity:1"/><stop offset="1" style="stop-color:#fff5ee;stop-opacity:1"/></linearGradient><linearGradient id="_Linear12" x1="0" y1="0" x2="1" y2="0" gradientUnits="userSpaceOnUse" gradientTransform="matrix(0,-27.2696,23.8345,0,498.814,133.791)"><stop offset="0" style="stop-color:#ffdabe;stop-opacity:1"/><stop offset="1" style="stop-color:#fff5ee;stop-opacity:1"/></linearGradient><linearGradient id="_Linear15" x1="0" y1="0" x2="1" y2="0" gradientUnits="userSpaceOnUse" gradientTransform="matrix(0,-27.2696,23.8345,0,625.596,133.791)"><stop offset="0" style="stop-color:#ffdabe;stop-opacity:1"/><stop offset="1" style="stop-color:#fff5ee;stop-opacity:1"/></linearGradient></defs></svg>