<?xml version="1.0" encoding="UTF-8" standalone="no"?><!DOCTYPE svg PUBLIC "-//W3C//DTD SVG 1.1//EN" "http://www.w3.org/Graphics/SVG/1.1/DTD/svg11.dtd"><svg width="100%" height="100%" viewBox="0 0 657 177" version="1.1" xmlns="http://www.w3.org/2000/svg" xmlns:xlink="http://www.w3.org/1999/xlink" xml:space="preserve" xmlns:serif="http://www.serif.com/" style="fill-rule:evenodd;clip-rule:evenodd;stroke-linejoin:round;"><path d="M126.438,142.952l-0,-43.336" style="fill:none;fill-rule:nonzero;stroke:#71a4f7;stroke-width:1.5px;"/><path d="M130.338,100.366l-3.9,-7.8l-3.9,7.8l7.8,0Z" style="fill:#71a4f7;fill-rule:nonzero;"/><path d="M290.659,143.827l-43.3,-0l-0,-56.9l-7.2,-0" style="fill:none;fill-rule:nonzero;stroke:#909090;stroke-width:2px;"/><path d="M289.659,148.627l9.6,-4.8l-9.6,-4.8l-0,9.6Z" style="fill:#909090;fill-rule:nonzero;"/><path d="M337.912,128.321c-8.586,-8.586 -22.527,-8.586 -31.113,-0c-8.586,8.585 -8.586,22.527 -0,31.112c8.586,8.586 22.527,8.586 31.113,0c8.586,-8.585 8.586,-22.527 -0,-31.112Z" style="fill:#fff;stroke:#999;stroke-width:2px;"/><path d="M346.577,144.66l59.282,0" style="fill:none;fill-rule:nonzero;stroke:#909090;stroke-width:2px;"/><path d="M404.859,149.46l9.6,-4.8l-9.6,-4.8l0,9.6Z" style="fill:#909090;fill-rule:nonzero;"/><path d="M418.797,119.415l47.541,-0c1.726,-0 2.761,-0 3.451,0.288c0.995,0.362 1.779,1.146 2.141,2.14c0.288,0.691 0.288,1.726 0.288,3.451l0,38.371c0,1.725 0,2.76 -0.288,3.451c-0.362,0.995 -1.146,1.778 -2.141,2.14c-0.69,0.288 -1.725,0.288 -3.451,0.288l-47.541,0c-1.725,0 -2.761,0 -3.451,-0.288c-0.995,-0.362 -1.779,-1.145 -2.141,-2.14c-0.288,-0.691 -0.288,-1.726 -0.288,-3.451l0,-38.371c0,-1.725 0,-2.76 0.288,-3.451c0.362,-0.994 1.146,-1.778 2.141,-2.14c0.69,-0.288 1.726,-0.288 3.451,-0.288Z" style="fill:#fff;fill-rule:nonzero;stroke:#909090;stroke-width:2px;"/><g><clipPath id="_clip1"><rect x="82.235" y="0.034" width="158.052" height="26.8" clip-rule="nonzero"/></clipPath><g clip-path="url(#_clip1)"><text x="113.226px" y="11.099px" style="font-family:'ArialMT', 'Arial', sans-serif;font-size:12px;fill:#71a4f7;">code for database</text><text x="133.57px" y="25.099px" style="font-family:'ArialMT', 'Arial', sans-serif;font-size:12px;fill:#71a4f7;">population</text></g></g><text x="326.426px" y="8.736px" style="font-family:'ArialMT', 'Arial', sans-serif;font-size:12px;fill:#71a4f7;">code for data</text><text x="320.101px" y="22.736px" style="font-family:'ArialMT', 'Arial', sans-serif;font-size:12px;fill:#71a4f7;">transformations</text><text x="102.754px" y="160.084px" style="font-family:'ArialMT', 'Arial', sans-serif;font-size:12px;fill:#71a4f7;">Integrate</text><text x="102.086px" y="174.084px" style="font-family:'ArialMT', 'Arial', sans-serif;font-size:12px;fill:#71a4f7;">new data</text><text x="421.553px" y="137.606px" style="font-family:'ArialMT', 'Arial', sans-serif;font-size:12px;fill:#535353;">Storage</text><path d="M474.911,145.806l75.532,-0" style="fill:none;fill-rule:nonzero;stroke:#909090;stroke-width:2px;"/><path d="M549.443,150.606l9.6,-4.8l-9.6,-4.8l0,9.6Z" style="fill:#909090;fill-rule:nonzero;"/><path d="M567.616,118.812l47.541,-0c1.726,-0 2.761,-0 3.451,0.288c0.995,0.362 1.779,1.146 2.141,2.141c0.288,0.69 0.288,1.725 0.288,3.451l-0,38.37c-0,1.726 -0,2.761 -0.288,3.451c-0.362,0.995 -1.146,1.779 -2.141,2.141c-0.69,0.288 -1.725,0.288 -3.451,0.288l-47.541,-0c-1.726,-0 -2.761,-0 -3.451,-0.288c-0.995,-0.362 -1.779,-1.146 -2.141,-2.141c-0.288,-0.69 -0.288,-1.725 -0.288,-3.451l-0,-38.37c-0,-1.726 -0,-2.761 0.288,-3.451c0.362,-0.995 1.146,-1.779 2.141,-2.141c0.69,-0.288 1.725,-0.288 3.451,-0.288Z" style="fill:#fff;fill-rule:nonzero;stroke:#909090;stroke-width:2px;"/><path d="M215.87,42.52l47.542,-0c1.725,-0 2.76,-0 3.45,0.288c0.995,0.362 1.779,1.146 2.141,2.141c0.288,0.69 0.288,1.725 0.288,3.451l0,38.37c0,1.726 0,2.761 -0.288,3.451c-0.362,0.995 -1.146,1.779 -2.141,2.141c-0.69,0.288 -1.725,0.288 -3.45,0.288l-47.542,-0c-1.725,-0 -2.761,-0 -3.451,-0.288c-0.995,-0.362 -1.778,-1.146 -2.141,-2.141c-0.288,-0.69 -0.288,-1.725 -0.288,-3.451l0,-38.37c0,-1.726 0,-2.761 0.288,-3.451c0.363,-0.995 1.146,-1.779 2.141,-2.141c0.69,-0.288 1.726,-0.288 3.451,-0.288Z" style="fill:#fff;fill-rule:nonzero;stroke:#909090;stroke-width:2px;"/><text x="218.626px" y="60.711px" style="font-family:'ArialMT', 'Arial', sans-serif;font-size:12px;fill:#535353;">Storage</text><text x="26.656px" y="16.625px" style="font-family:'ArialMT', 'Arial', sans-serif;font-size:12px;fill:#535353;">Data</text><text x="15.315px" y="30.625px" style="font-family:'ArialMT', 'Arial', sans-serif;font-size:12px;fill:#535353;">Source 1</text><text x="26.279px" y="62.042px" style="font-family:'ArialMT', 'Arial', sans-serif;font-size:12px;fill:#535353;">Data</text><text x="14.938px" y="76.042px" style="font-family:'ArialMT', 'Arial', sans-serif;font-size:12px;fill:#535353;">Source 2</text><text x="26.279px" y="108.09px" style="font-family:'ArialMT', 'Arial', sans-serif;font-size:12px;fill:#535353;">Data</text><text x="14.938px" y="122.09px" style="font-family:'ArialMT', 'Arial', sans-serif;font-size:12px;fill:#535353;">Source 3</text><g><clipPath id="_clip2"><path d="M80.404,14.695l47.489,43.36l-7.822,8.567l-47.489,-43.361l7.822,-8.566Z" clip-rule="nonzero"/></clipPath><g clip-path="url(#_clip2)"><path d="M77.232,19.653l39.66,36.212" style="fill:none;fill-rule:nonzero;stroke:#909090;stroke-width:2px;"/><path d="M112.917,58.736l10.326,2.928l-3.852,-10.018l-6.474,7.09Z" style="fill:#909090;fill-rule:nonzero;"/></g></g><path d="M77.692,69.562l37.4,0" style="fill:none;fill-rule:nonzero;stroke:#909090;stroke-width:2px;"/><path d="M114.092,74.362l9.6,-4.8l-9.6,-4.8l0,9.6Z" style="fill:#909090;fill-rule:nonzero;"/><g><clipPath id="_clip3"><path d="M73.557,105.2l49.788,-31.943l6.264,9.764l-49.788,31.942l-6.264,-9.763Z" clip-rule="nonzero"/></clipPath><g clip-path="url(#_clip3)"><path d="M77.531,109.542l40.866,-26.219" style="fill:none;fill-rule:nonzero;stroke:#909090;stroke-width:2px;"/><path d="M120.147,87.903l5.488,-9.224l-10.672,1.144l5.184,8.08Z" style="fill:#909090;fill-rule:nonzero;"/></g></g><path d="M6.626,1.472l65.407,-0c1.541,-0 2.465,-0 3.081,0.257c0.888,0.323 1.588,1.023 1.911,1.911c0.257,0.616 0.257,1.541 0.257,3.081l0,25.316c0,1.54 0,2.464 -0.257,3.08c-0.323,0.889 -1.023,1.588 -1.911,1.912c-0.616,0.257 -1.54,0.257 -3.081,0.257l-65.407,-0c-1.54,-0 -2.464,-0 -3.08,-0.257c-0.889,-0.324 -1.588,-1.023 -1.912,-1.912c-0.257,-0.616 -0.257,-1.54 -0.257,-3.08l0,-25.316c0,-1.54 0,-2.465 0.257,-3.081c0.324,-0.888 1.023,-1.588 1.912,-1.911c0.616,-0.257 1.54,-0.257 3.08,-0.257Z" style="fill:none;fill-rule:nonzero;stroke:#909090;stroke-width:2px;"/><path d="M6.249,46.888l65.407,0c1.54,0 2.465,0 3.081,0.257c0.888,0.324 1.588,1.023 1.911,1.912c0.257,0.616 0.257,1.54 0.257,3.08l0,25.316c0,1.54 0,2.465 -0.257,3.081c-0.323,0.888 -1.023,1.588 -1.911,1.911c-0.616,0.257 -1.541,0.257 -3.081,0.257l-65.407,0c-1.54,0 -2.464,0 -3.081,-0.257c-0.888,-0.323 -1.587,-1.023 -1.911,-1.911c-0.257,-0.616 -0.257,-1.541 -0.257,-3.081l0,-25.316c0,-1.54 0,-2.464 0.257,-3.08c0.324,-0.889 1.023,-1.588 1.911,-1.912c0.617,-0.257 1.541,-0.257 3.081,-0.257Z" style="fill:none;fill-rule:nonzero;stroke:#909090;stroke-width:2px;"/><path d="M6.249,92.936l65.407,0c1.54,0 2.465,0 3.081,0.258c0.888,0.323 1.588,1.023 1.911,1.911c0.257,0.616 0.257,1.54 0.257,3.081l0,25.315c0,1.541 0,2.465 -0.257,3.081c-0.323,0.888 -1.023,1.588 -1.911,1.911c-0.616,0.257 -1.541,0.257 -3.081,0.257l-65.407,0c-1.54,0 -2.464,0 -3.081,-0.257c-0.888,-0.323 -1.587,-1.023 -1.911,-1.911c-0.257,-0.616 -0.257,-1.54 -0.257,-3.081l0,-25.315c0,-1.541 0,-2.465 0.257,-3.081c0.324,-0.888 1.023,-1.588 1.911,-1.911c0.617,-0.258 1.541,-0.258 3.081,-0.258Z" style="fill:none;fill-rule:nonzero;stroke:#909090;stroke-width:2px;"/><path d="M270.015,66.736l59.283,0" style="fill:none;fill-rule:nonzero;stroke:#909090;stroke-width:2px;"/><path d="M328.298,71.536l9.6,-4.8l-9.6,-4.8l0,9.6Z" style="fill:#909090;fill-rule:nonzero;"/><path d="M375.884,52.755c-8.586,-8.586 -22.527,-8.586 -31.113,-0c-8.586,8.586 -8.586,22.527 0,31.113c8.586,8.585 22.527,8.585 31.113,-0c8.586,-8.586 8.586,-22.527 0,-31.113Z" style="fill:#fff;stroke:#999;stroke-width:2px;"/><path d="M384.815,67.066l64.053,-0" style="fill:none;fill-rule:nonzero;stroke:#909090;stroke-width:2px;"/><path d="M447.868,71.866l9.6,-4.8l-9.6,-4.8l-0,9.6Z" style="fill:#909090;fill-rule:nonzero;"/><path d="M470.651,39.67l47.541,-0c1.726,-0 2.761,-0 3.451,0.288c0.995,0.362 1.779,1.146 2.141,2.141c0.288,0.69 0.288,1.725 0.288,3.45l0,38.371c0,1.725 0,2.761 -0.288,3.451c-0.362,0.995 -1.146,1.778 -2.141,2.141c-0.69,0.288 -1.725,0.288 -3.451,0.288l-47.541,-0c-1.726,-0 -2.761,-0 -3.451,-0.288c-0.995,-0.363 -1.779,-1.146 -2.141,-2.141c-0.288,-0.69 -0.288,-1.726 -0.288,-3.451l0,-38.371c0,-1.725 0,-2.76 0.288,-3.45c0.362,-0.995 1.146,-1.779 2.141,-2.141c0.69,-0.288 1.725,-0.288 3.451,-0.288Z" style="fill:#fff;fill-rule:nonzero;stroke:#909090;stroke-width:2px;"/><text x="473.407px" y="57.861px" style="font-family:'ArialMT', 'Arial', sans-serif;font-size:12px;fill:#535353;">Storage</text><path d="M527.783,66.252l59.283,0" style="fill:none;fill-rule:nonzero;stroke:#909090;stroke-width:2px;"/><path d="M586.066,71.052l9.6,-4.8l-9.6,-4.8l-0,9.6Z" style="fill:#909090;fill-rule:nonzero;"/><path d="M601.896,39.67l47.541,-0c1.726,-0 2.761,-0 3.451,0.288c0.995,0.362 1.779,1.146 2.141,2.141c0.288,0.69 0.288,1.725 0.288,3.45l0,38.371c0,1.725 0,2.761 -0.288,3.451c-0.362,0.995 -1.146,1.778 -2.141,2.141c-0.69,0.288 -1.725,0.288 -3.451,0.288l-47.541,-0c-1.726,-0 -2.761,-0 -3.451,-0.288c-0.995,-0.363 -1.779,-1.146 -2.141,-2.141c-0.288,-0.69 -0.288,-1.726 -0.288,-3.451l0,-38.371c0,-1.725 0,-2.76 0.288,-3.45c0.362,-0.995 1.146,-1.779 2.141,-2.141c0.69,-0.288 1.725,-0.288 3.451,-0.288Z" style="fill:#fff;fill-rule:nonzero;stroke:#909090;stroke-width:2px;"/><path d="M608.718,46.631c-0.171,-0 -0.31,0.139 -0.31,0.309l0,33.804c0,0.171 0.139,0.312 0.31,0.312l33.898,0c0.17,0 0.309,-0.142 0.309,-0.312l0,-0.928c0,-0.17 -0.139,-0.309 -0.309,-0.309l-32.349,-0c-0.171,-0 -0.309,-0.142 -0.309,-0.312l-0,-32.255c-0,-0.17 -0.139,-0.309 -0.31,-0.309l-0.93,-0Zm26.632,4.788l0,25.597l4.304,-0l0,-25.597l-4.304,-0Zm-15.321,6.243l-0,19.354l4.303,-0l0,-19.354l-4.303,0Zm7.66,5.108l0,14.246l4.304,-0l0,-14.246l-4.304,0Zm-15.321,8.008l-0,6.238l4.304,-0l-0,-6.238l-4.304,-0Z" style="fill:#fff;fill-rule:nonzero;stroke:#ffd479;stroke-width:1px;"/><path d="M183.576,68.311l17.57,0" style="fill:none;fill-rule:nonzero;stroke:#909090;stroke-width:2px;"/><path d="M200.146,73.111l9.6,-4.8l-9.6,-4.8l0,9.6Z" style="fill:#909090;fill-rule:nonzero;"/><path d="M147.439,44.02c-0.167,0.008 -0.33,0.058 -0.477,0.151c-0.293,0.183 -0.472,0.506 -0.472,0.855l0,14.929c0.064,-0.013 0.13,-0.021 0.2,-0.021l9.673,0l-2.473,-2.307c-0.174,-0.162 -0.256,-0.351 -0.249,-0.567c0.007,-0.216 0.09,-0.405 0.249,-0.567c0.173,-0.162 0.379,-0.246 0.618,-0.253c0.239,-0.007 0.445,0.071 0.618,0.232l3.97,3.705c0.086,0.081 0.148,0.169 0.184,0.263c0.036,0.095 0.054,0.196 0.054,0.304c-0,0.108 -0.018,0.21 -0.054,0.304c-0.036,0.094 -0.098,0.182 -0.184,0.263l-3.97,3.705c-0.173,0.162 -0.379,0.239 -0.618,0.232c-0.239,-0.007 -0.445,-0.091 -0.618,-0.253c-0.159,-0.162 -0.242,-0.351 -0.249,-0.567c-0.007,-0.216 0.075,-0.405 0.249,-0.567l2.473,-2.307l-9.673,-0c-0.07,-0 -0.136,-0.008 -0.2,-0.021l0,13.7c0.064,-0.012 0.13,-0.02 0.2,-0.02l9.673,-0l-2.473,-2.309c-0.174,-0.162 -0.256,-0.351 -0.249,-0.566c0.007,-0.216 0.09,-0.405 0.249,-0.567c0.173,-0.162 0.379,-0.246 0.618,-0.253c0.239,-0.007 0.445,0.071 0.618,0.233l3.97,3.704c0.086,0.081 0.148,0.169 0.184,0.264c0.036,0.094 0.054,0.195 0.054,0.303c-0,0.108 -0.018,0.209 -0.054,0.304c-0.036,0.094 -0.098,0.182 -0.184,0.263l-3.97,3.704c-0.173,0.162 -0.379,0.24 -0.618,0.234c-0.239,-0.007 -0.445,-0.091 -0.618,-0.253c-0.159,-0.162 -0.242,-0.351 -0.249,-0.567c-0.007,-0.216 0.075,-0.405 0.249,-0.567l2.473,-2.308l-9.673,-0c-0.07,-0 -0.136,-0.008 -0.2,-0.021l0,14.413c0,0.35 0.179,0.672 0.472,0.856c0.147,0.092 0.31,0.143 0.477,0.151c0.167,0.008 0.338,-0.025 0.493,-0.102l15.012,-7.452c0.343,-0.169 0.56,-0.521 0.56,-0.904l-0,-31.296c-0,-0.383 -0.217,-0.735 -0.56,-0.904l-15.012,-7.452c-0.155,-0.077 -0.326,-0.11 -0.493,-0.102l0,0.001Zm21.193,11.005c-2.002,0 -3.613,1.611 -3.613,3.613l-0,19.781c-0,2.002 1.611,3.613 3.613,3.613l4.264,0c2.002,0 3.613,-1.611 3.613,-3.613l-0,-19.781c-0,-2.002 -1.611,-3.613 -3.613,-3.613l-4.264,0Zm2.132,3.034c1.083,0 1.975,0.892 1.975,1.976c0,1.084 -0.892,1.975 -1.975,1.975c-1.084,0 -1.976,-0.891 -1.976,-1.975c0,-1.084 0.892,-1.976 1.976,-1.976Zm-0,5.136c1.083,0 1.975,0.892 1.975,1.976c0,1.084 -0.892,1.976 -1.975,1.976c-1.084,-0 -1.976,-0.892 -1.976,-1.976c0,-1.084 0.892,-1.976 1.976,-1.976Zm-0,6.98c0.539,0 0.974,0.434 0.974,0.973l-0,6.573c-0,0.54 -0.435,0.974 -0.974,0.974c-0.54,0 -0.974,-0.434 -0.974,-0.974l-0,-6.573c-0,-0.539 0.434,-0.973 0.974,-0.973Z" style="fill:#157800;fill-rule:nonzero;"/><g><path d="M243.141,74.597c-2.905,-0 -4.93,0.916 -4.93,1.739c0,0.822 2.024,1.739 4.93,1.739c2.905,-0 4.929,-0.917 4.929,-1.739c0,-0.823 -2.024,-1.739 -4.929,-1.739Z" style="fill:#666;fill-rule:nonzero;"/><path d="M238.211,77.779l0,2.495c0,0.822 2.024,1.738 4.93,1.738c2.905,-0 4.929,-0.916 4.929,-1.738l0,-2.495c-0.886,0.757 -2.713,1.254 -4.929,1.254c-2.216,0 -4.043,-0.497 -4.93,-1.254Z" style="fill:#666;fill-rule:nonzero;"/><path d="M238.211,81.59l0,2.494c0,0.822 2.024,1.738 4.93,1.738c2.905,0 4.929,-0.916 4.929,-1.738l0,-2.494c-0.886,0.756 -2.713,1.253 -4.929,1.253c-2.216,0 -4.043,-0.497 -4.93,-1.253Z" style="fill:#666;fill-rule:nonzero;"/></g><g><path d="M237.432,80.535c-0.172,0.007 -0.346,0.011 -0.523,0.011c-2.216,0 -4.043,-0.497 -4.929,-1.254l-0,2.495c-0,0.822 2.024,1.738 4.929,1.738c0.178,-0 0.352,-0.004 0.523,-0.011l0,-2.979Z" style="fill:#666;fill-rule:nonzero;"/><path d="M237.432,76.801c-0.172,0.006 -0.346,0.01 -0.523,0.01c-2.216,0 -4.043,-0.497 -4.929,-1.253l-0,2.494c-0,0.822 2.024,1.738 4.929,1.738c0.178,0 0.352,-0.004 0.523,-0.011l0,-2.978Z" style="fill:#666;fill-rule:nonzero;"/><path d="M231.98,71.815l-0,2.494c-0,0.823 2.024,1.739 4.929,1.739c0.178,-0 0.352,-0.005 0.523,-0.011l-0,-0.024c-0,-1.161 1.83,-2.071 4.406,-2.275l0,-1.923c-0.886,0.757 -2.713,1.254 -4.929,1.254c-2.216,-0 -4.043,-0.497 -4.929,-1.254l-0,0Z" style="fill:#666;fill-rule:nonzero;"/><path d="M231.98,68.004l-0,2.495c-0,0.822 2.024,1.738 4.929,1.738c2.905,-0 4.93,-0.916 4.93,-1.738l-0,-2.495c-0.887,0.757 -2.713,1.254 -4.93,1.254c-2.216,0 -4.043,-0.497 -4.929,-1.254Z" style="fill:#666;fill-rule:nonzero;"/><path d="M236.909,64.822c-2.905,0 -4.929,0.917 -4.929,1.739c-0,0.823 2.024,1.739 4.929,1.739c2.905,0 4.93,-0.916 4.93,-1.739c-0,-0.822 -2.024,-1.739 -4.93,-1.739Z" style="fill:#666;fill-rule:nonzero;"/></g><g><path d="M498.718,74.597c-2.905,-0 -4.929,0.916 -4.929,1.739c-0,0.822 2.024,1.739 4.929,1.739c2.906,-0 4.93,-0.917 4.93,-1.739c-0,-0.823 -2.024,-1.739 -4.93,-1.739Z" style="fill:#666;fill-rule:nonzero;"/><path d="M493.789,77.779l-0,2.495c-0,0.822 2.024,1.738 4.929,1.738c2.906,-0 4.93,-0.916 4.93,-1.738l-0,-2.495c-0.887,0.757 -2.713,1.254 -4.93,1.254c-2.216,0 -4.042,-0.497 -4.929,-1.254Z" style="fill:#666;fill-rule:nonzero;"/><path d="M493.789,81.59l-0,2.494c-0,0.822 2.024,1.738 4.929,1.738c2.906,0 4.93,-0.916 4.93,-1.738l-0,-2.494c-0.887,0.756 -2.713,1.253 -4.93,1.253c-2.216,0 -4.042,-0.497 -4.929,-1.253Z" style="fill:#666;fill-rule:nonzero;"/></g><g><path d="M493.01,80.535c-0.172,0.007 -0.346,0.011 -0.523,0.011c-2.216,0 -4.043,-0.497 -4.93,-1.254l0,2.495c0,0.822 2.025,1.738 4.93,1.738c0.178,-0 0.352,-0.004 0.523,-0.011l-0,-2.979Z" style="fill:#666;fill-rule:nonzero;"/><path d="M493.01,76.801c-0.172,0.006 -0.346,0.01 -0.523,0.01c-2.216,0 -4.043,-0.497 -4.93,-1.253l0,2.494c0,0.822 2.025,1.738 4.93,1.738c0.178,0 0.352,-0.004 0.523,-0.011l-0,-2.978Z" style="fill:#666;fill-rule:nonzero;"/><path d="M487.557,71.815l0,2.494c0,0.823 2.024,1.739 4.93,1.739c0.177,-0 0.352,-0.005 0.522,-0.011l0,-0.024c0,-1.161 1.831,-2.071 4.407,-2.275l0,-1.923c-0.886,0.757 -2.713,1.254 -4.929,1.254c-2.217,-0 -4.043,-0.497 -4.93,-1.254l0,0Z" style="fill:#666;fill-rule:nonzero;"/><path d="M487.557,68.004l0,2.495c0,0.822 2.024,1.738 4.93,1.738c2.905,-0 4.929,-0.916 4.929,-1.738l0,-2.495c-0.886,0.757 -2.713,1.254 -4.929,1.254c-2.217,0 -4.043,-0.497 -4.93,-1.254Z" style="fill:#666;fill-rule:nonzero;"/><path d="M492.487,64.822c-2.906,0 -4.93,0.917 -4.93,1.739c0,0.823 2.024,1.739 4.93,1.739c2.905,0 4.929,-0.916 4.929,-1.739c0,-0.822 -2.024,-1.739 -4.929,-1.739Z" style="fill:#666;fill-rule:nonzero;"/></g><g><path d="M445.668,154.571c-2.905,0 -4.929,0.917 -4.929,1.739c-0,0.822 2.024,1.739 4.929,1.739c2.905,0 4.93,-0.917 4.93,-1.739c-0,-0.822 -2.024,-1.739 -4.93,-1.739Z" style="fill:#666;fill-rule:nonzero;"/><path d="M440.739,157.753l-0,2.495c-0,0.822 2.024,1.738 4.929,1.738c2.905,-0 4.93,-0.916 4.93,-1.738l-0,-2.495c-0.887,0.757 -2.713,1.254 -4.93,1.254c-2.216,0 -4.043,-0.497 -4.929,-1.254Z" style="fill:#666;fill-rule:nonzero;"/><path d="M440.739,161.564l-0,2.494c-0,0.822 2.024,1.738 4.929,1.738c2.905,0 4.93,-0.916 4.93,-1.738l-0,-2.494c-0.887,0.756 -2.713,1.254 -4.93,1.254c-2.216,-0 -4.043,-0.498 -4.929,-1.254Z" style="fill:#666;fill-rule:nonzero;"/></g><g><path d="M439.959,160.51c-0.172,0.006 -0.345,0.01 -0.522,0.01c-2.217,0 -4.043,-0.497 -4.93,-1.253l0,2.494c0,0.822 2.024,1.738 4.93,1.738c0.177,0 0.352,-0.004 0.522,-0.011l0,-2.978Z" style="fill:#666;fill-rule:nonzero;"/><path d="M439.959,156.775c-0.172,0.006 -0.345,0.011 -0.522,0.011c-2.217,-0 -4.043,-0.498 -4.93,-1.254l0,2.494c0,0.822 2.024,1.738 4.93,1.738c0.177,0 0.352,-0.004 0.522,-0.011l0,-2.978Z" style="fill:#666;fill-rule:nonzero;"/><path d="M434.507,151.789l0,2.495c0,0.822 2.024,1.738 4.929,1.738c0.178,-0 0.352,-0.004 0.523,-0.011l0,-0.023c0,-1.162 1.831,-2.072 4.407,-2.275l-0,-1.924c-0.887,0.757 -2.713,1.254 -4.93,1.254c-2.216,0 -4.043,-0.497 -4.929,-1.254l0,0Z" style="fill:#666;fill-rule:nonzero;"/><path d="M434.507,147.979l0,2.494c0,0.822 2.024,1.738 4.929,1.738c2.906,0 4.93,-0.916 4.93,-1.738l-0,-2.494c-0.887,0.756 -2.713,1.253 -4.93,1.253c-2.216,0 -4.042,-0.497 -4.929,-1.253Z" style="fill:#666;fill-rule:nonzero;"/><path d="M439.436,144.797c-2.905,-0 -4.929,0.916 -4.929,1.739c0,0.822 2.024,1.739 4.929,1.739c2.906,-0 4.93,-0.917 4.93,-1.739c-0,-0.823 -2.024,-1.739 -4.93,-1.739Z" style="fill:#666;fill-rule:nonzero;"/></g><g><path d="M322.168,135.022l-4.436,-0l0,2.062c0,0.272 -0.183,0.511 -0.445,0.58c-0.776,0.204 -1.293,0.504 -2.01,0.92l-0.107,0.061c-0.234,0.135 -0.53,0.098 -0.722,-0.094l-1.495,-1.489l-2.871,2.86l1.492,1.486c0.193,0.192 0.23,0.49 0.093,0.726c-0.421,0.721 -0.76,1.34 -0.983,2.18c-0.07,0.262 -0.308,0.445 -0.579,0.445l-2.111,-0l0,4.483l2.091,-0c0.272,-0 0.51,0.182 0.579,0.445c0.204,0.774 0.502,1.29 0.914,2.003l0.065,0.111c0.135,0.235 0.096,0.531 -0.093,0.722l-1.487,1.496l2.853,2.87l1.479,-1.488c0.193,-0.194 0.493,-0.233 0.728,-0.095c0.748,0.437 1.341,0.765 2.165,0.984c0.262,0.07 0.444,0.307 0.444,0.579l0,2.109l4.483,0l-0,-2.111c-0,-0.272 0.183,-0.511 0.445,-0.58c0.767,-0.201 1.274,-0.495 1.977,-0.903l0.133,-0.076c0.234,-0.136 0.53,-0.097 0.722,0.094l1.496,1.487l2.874,-2.856l-1.492,-1.483c-0.193,-0.192 -0.233,-0.491 -0.095,-0.726c0.41,-0.7 0.764,-1.304 0.985,-2.138c0.07,-0.262 0.307,-0.444 0.579,-0.444l2.114,-0l-0,-4.29l-6.932,0c-0.087,0 -0.172,-0.005 -0.257,-0.013c0.273,0.633 0.426,1.329 0.426,2.061c0,2.877 -2.34,5.217 -5.217,5.217c-2.876,0 -5.216,-2.34 -5.216,-5.217c-0,-2.876 2.34,-5.216 5.216,-5.216c0.783,0 1.523,0.178 2.19,0.489c-0.004,-0.063 -0.009,-0.125 -0.009,-0.189l0,-6.793c0,-0.092 0.006,-0.181 0.014,-0.269l0,-0Z" style="fill:#a12f9d;fill-rule:nonzero;"/><path d="M319.973,142.815c-2.308,0 -4.185,1.878 -4.185,4.186c-0,2.308 1.877,4.185 4.185,4.185c2.308,0 4.186,-1.877 4.186,-4.185c-0,-2.308 -1.878,-4.186 -4.186,-4.186Z" style="fill:#a12f9d;fill-rule:nonzero;"/></g><g><path d="M334.17,129.183l-0,1.571l1.482,0l-1.482,-1.571Z" style="fill:#a12f9d;fill-rule:nonzero;"/><path d="M326.663,128.923c-0.414,-0 -0.747,0.333 -0.747,0.747l0,10.938c0,0.413 0.333,0.747 0.747,0.747l8.487,-0c0.414,-0 0.748,-0.334 0.748,-0.747l-0,-8.823l-1.285,0c-0.811,0 -1.465,-0.654 -1.465,-1.466l0,-1.396l-6.485,-0Zm0.825,3.34l6.779,0c0.226,0 0.407,0.181 0.407,0.407l0,0.154c0,0.226 -0.181,0.408 -0.407,0.408l-6.779,0c-0.226,0 -0.408,-0.182 -0.408,-0.408l-0,-0.154c-0,-0.226 0.182,-0.407 0.408,-0.407Zm-0.001,2.289l6.78,0c0.226,0 0.407,0.182 0.407,0.408l0,0.153c0,0.226 -0.181,0.408 -0.407,0.408l-6.78,0c-0.226,0 -0.407,-0.182 -0.407,-0.408l-0,-0.153c-0,-0.226 0.181,-0.408 0.407,-0.408Zm-0,2.29l6.78,0c0.226,0 0.407,0.181 0.407,0.407l0,0.154c0,0.226 -0.181,0.408 -0.407,0.408l-6.78,-0c-0.226,-0 -0.407,-0.182 -0.407,-0.408l-0,-0.154c-0,-0.226 0.181,-0.407 0.407,-0.407Z" style="fill:#a12f9d;fill-rule:nonzero;"/><path d="M324.565,131.761l-0.798,0c-0.414,0 -0.747,0.334 -0.747,0.747l-0,10.938c-0,0.414 0.333,0.748 0.747,0.748l8.487,-0c0.414,-0 0.747,-0.334 0.747,-0.748l0,-0.777l-6.087,0c-1.301,0 -2.348,-1.047 -2.348,-2.348l-0.001,-8.56Z" style="fill:#a12f9d;fill-rule:nonzero;"/></g><g><path d="M359.917,58.614l-4.437,-0l0,2.062c0,0.272 -0.183,0.51 -0.445,0.58c-0.775,0.203 -1.293,0.504 -2.01,0.92l-0.106,0.06c-0.234,0.136 -0.531,0.098 -0.723,-0.093l-1.494,-1.49l-2.872,2.861l1.492,1.486c0.193,0.192 0.231,0.49 0.094,0.725c-0.422,0.722 -0.761,1.341 -0.984,2.181c-0.069,0.262 -0.307,0.444 -0.579,0.444l-2.11,0l-0,4.483l2.091,0c0.271,0 0.51,0.183 0.579,0.446c0.203,0.773 0.501,1.29 0.913,2.003l0.065,0.111c0.135,0.234 0.097,0.53 -0.093,0.722l-1.487,1.496l2.853,2.87l1.48,-1.489c0.192,-0.194 0.492,-0.232 0.727,-0.094c0.748,0.437 1.342,0.764 2.165,0.983c0.262,0.07 0.444,0.308 0.444,0.579l0,2.11l4.483,0l0,-2.111c0,-0.272 0.183,-0.511 0.446,-0.58c0.766,-0.202 1.273,-0.496 1.977,-0.903l0.132,-0.076c0.234,-0.136 0.53,-0.098 0.722,0.093l1.496,1.488l2.874,-2.856l-1.491,-1.483c-0.194,-0.192 -0.233,-0.491 -0.096,-0.727c0.41,-0.699 0.764,-1.303 0.986,-2.137c0.07,-0.262 0.307,-0.445 0.579,-0.445l2.113,0l0,-4.289l-6.931,-0c-0.087,-0 -0.173,-0.006 -0.258,-0.013c0.273,0.633 0.427,1.329 0.427,2.061c-0,2.877 -2.341,5.217 -5.217,5.217c-2.876,-0 -5.217,-2.34 -5.217,-5.217c-0,-2.876 2.34,-5.216 5.217,-5.216c0.783,-0 1.523,0.178 2.19,0.488c-0.004,-0.062 -0.01,-0.125 -0.01,-0.188l0,-6.794c0,-0.091 0.006,-0.18 0.015,-0.269l-0,0.001Z" style="fill:#a12f9d;fill-rule:nonzero;"/><path d="M357.722,66.407c-2.308,-0 -4.186,1.878 -4.186,4.186c-0,2.308 1.878,4.185 4.186,4.185c2.308,0 4.185,-1.877 4.185,-4.185c0,-2.308 -1.877,-4.186 -4.185,-4.186Z" style="fill:#a12f9d;fill-rule:nonzero;"/></g><g><path d="M371.918,52.774l0,1.572l1.482,0l-1.482,-1.572Z" style="fill:#a12f9d;fill-rule:nonzero;"/><path d="M364.411,52.514c-0.413,0 -0.747,0.333 -0.747,0.747l0,10.938c0,0.414 0.334,0.747 0.747,0.747l8.488,0c0.414,0 0.747,-0.333 0.747,-0.747l-0,-8.822l-1.284,-0c-0.812,-0 -1.465,-0.655 -1.465,-1.467l-0,-1.396l-6.486,0Zm0.825,3.341l6.779,-0c0.226,-0 0.408,0.181 0.408,0.407l-0,0.154c-0,0.226 -0.182,0.408 -0.408,0.408l-6.779,0c-0.226,0 -0.408,-0.182 -0.408,-0.408l-0,-0.154c-0,-0.226 0.182,-0.407 0.408,-0.407Zm-0.001,2.289l6.78,-0c0.226,-0 0.408,0.182 0.408,0.408l-0,0.153c-0,0.226 -0.182,0.408 -0.408,0.408l-6.78,0c-0.226,0 -0.407,-0.182 -0.407,-0.408l-0,-0.153c-0,-0.226 0.181,-0.408 0.407,-0.408Zm0,2.29l6.78,-0c0.226,-0 0.408,0.181 0.408,0.407l-0,0.154c-0,0.226 -0.182,0.407 -0.408,0.407l-6.78,0c-0.226,0 -0.407,-0.181 -0.407,-0.407l-0,-0.154c-0,-0.226 0.181,-0.407 0.407,-0.407Z" style="fill:#a12f9d;fill-rule:nonzero;"/><path d="M362.314,55.353l-0.799,0c-0.414,0 -0.747,0.333 -0.747,0.747l0,10.938c0,0.414 0.333,0.747 0.747,0.747l8.488,0c0.414,0 0.747,-0.333 0.747,-0.747l-0,-0.777l-6.087,0c-1.301,0 -2.349,-1.048 -2.349,-2.349l-0,-8.559Z" style="fill:#a12f9d;fill-rule:nonzero;"/></g><path d="M578.066,156.76c-1.504,0.832 -2.991,1.656 -4.478,2.479c0.007,0.028 0.014,0.055 0.021,0.083c0.102,0 0.203,0 0.305,0c12.245,0 24.491,-0 36.736,0.001c0.117,-0 0.238,-0.009 0.351,0.015c0.207,0.045 0.337,0.186 0.339,0.4c0.001,0.211 -0.115,0.358 -0.331,0.401c-0.096,0.019 -0.196,0.026 -0.295,0.026c-12.841,0.001 -25.682,0.001 -38.523,0.001c-0.517,-0 -0.653,-0.139 -0.653,-0.664c0,-10.377 0,-20.755 0,-31.132c0,-0.435 0.15,-0.659 0.435,-0.654c0.264,0.004 0.408,0.234 0.408,0.65c0,10.089 0,20.178 0,30.267c0,0.106 0,0.213 0,0.372c0.407,-0.235 0.774,-0.456 1.149,-0.663c2.28,-1.26 4.558,-2.525 6.845,-3.773c3.23,-1.762 6.443,-3.552 9.507,-5.596c2.908,-1.941 5.66,-4.079 8.206,-6.48c2.886,-2.721 5.461,-5.708 7.678,-8.995c1.057,-1.568 2.013,-3.204 3.009,-4.814c0.232,-0.375 0.419,-0.485 0.673,-0.345c0.243,0.134 0.261,0.378 0.048,0.757c-1.907,3.388 -4.09,6.584 -6.609,9.549c-2.22,2.612 -4.666,4.992 -7.316,7.165c-3.183,2.609 -6.604,4.866 -10.174,6.9c-2.333,1.33 -4.701,2.599 -7.054,3.895c-0.087,0.048 -0.173,0.097 -0.277,0.155Z" style="fill:#ffd75e;fill-rule:nonzero;"/><path d="M603.335,142.492c0.038,-0.149 0.048,-0.312 0.134,-0.404c0.407,-0.433 0.831,-0.849 1.255,-1.265c0.2,-0.196 0.424,-0.199 0.621,-0.007c0.425,0.416 0.846,0.836 1.261,1.261c0.205,0.21 0.212,0.412 0.012,0.618c-0.419,0.432 -0.847,0.858 -1.279,1.279c-0.17,0.166 -0.389,0.195 -0.561,0.029c-0.474,-0.454 -0.93,-0.928 -1.391,-1.395c-0.023,-0.024 -0.031,-0.065 -0.052,-0.116m1.62,-0.73c-0.217,0.198 -0.435,0.395 -0.61,0.554c0.268,0.283 0.488,0.515 0.695,0.733c0.222,-0.221 0.449,-0.447 0.705,-0.701c-0.181,-0.169 -0.367,-0.351 -0.563,-0.522c-0.052,-0.046 -0.131,-0.061 -0.227,-0.064Z" style="fill:#ffd75f;fill-rule:nonzero;"/><path d="M602.636,153.03c-0.218,0.106 -0.386,0.045 -0.533,-0.102c-0.408,-0.407 -0.819,-0.813 -1.223,-1.225c-0.225,-0.23 -0.223,-0.427 0.004,-0.658c0.404,-0.412 0.813,-0.82 1.224,-1.225c0.219,-0.216 0.44,-0.215 0.662,0.003c0.405,0.399 0.807,0.801 1.206,1.206c0.226,0.229 0.242,0.44 0.025,0.662c-0.441,0.451 -0.896,0.888 -1.365,1.339m-0.348,-2.242c-0.201,0.176 -0.403,0.352 -0.55,0.481c0.28,0.297 0.504,0.535 0.701,0.745c0.222,-0.208 0.455,-0.425 0.706,-0.66c-0.205,-0.2 -0.398,-0.401 -0.606,-0.583c-0.044,-0.038 -0.147,-0.008 -0.251,0.017Z" style="fill:#ffd75e;fill-rule:nonzero;"/><path d="M599.469,153.296c0.269,0.269 0.526,0.522 0.779,0.78c0.26,0.266 0.265,0.466 0.011,0.724c-0.392,0.399 -0.788,0.794 -1.187,1.187c-0.243,0.239 -0.439,0.241 -0.678,0.007c-0.412,-0.405 -0.82,-0.814 -1.225,-1.226c-0.208,-0.212 -0.213,-0.427 -0.003,-0.643c0.415,-0.426 0.836,-0.847 1.264,-1.262c0.19,-0.185 0.404,-0.179 0.602,0.001c0.147,0.133 0.283,0.279 0.437,0.432m-0.676,0.496c-0.031,-0.008 -0.079,-0.034 -0.091,-0.022c-0.23,0.221 -0.455,0.447 -0.645,0.635c0.25,0.259 0.47,0.488 0.668,0.693c0.219,-0.212 0.449,-0.434 0.728,-0.704c-0.211,-0.192 -0.423,-0.384 -0.66,-0.602Z" style="fill:#ffd75f;fill-rule:nonzero;"/><path d="M595.612,149.996c0.224,-0.224 0.43,-0.438 0.645,-0.643c0.221,-0.211 0.419,-0.214 0.637,-0c0.425,0.415 0.845,0.835 1.26,1.26c0.197,0.202 0.194,0.412 -0.007,0.618c-0.41,0.418 -0.823,0.831 -1.241,1.241c-0.215,0.211 -0.427,0.221 -0.641,0.014c-0.428,-0.413 -0.849,-0.832 -1.259,-1.262c-0.208,-0.218 -0.192,-0.418 0.021,-0.641c0.186,-0.195 0.381,-0.383 0.585,-0.587m0.997,0.235c-0.249,0.221 -0.499,0.442 -0.736,0.652c0.26,0.268 0.483,0.499 0.683,0.705c0.244,-0.228 0.484,-0.452 0.738,-0.689c-0.22,-0.219 -0.436,-0.434 -0.685,-0.668Z" style="fill:#ffd75d;fill-rule:nonzero;"/><path d="M607.289,145.692c0.345,0.345 0.677,0.675 1.007,1.008c0.284,0.287 0.288,0.481 0.01,0.762c-0.381,0.384 -0.763,0.767 -1.148,1.147c-0.267,0.264 -0.455,0.266 -0.717,0.007c-0.397,-0.393 -0.792,-0.788 -1.185,-1.186c-0.234,-0.237 -0.238,-0.443 -0.006,-0.681c0.352,-0.362 0.712,-0.715 1.069,-1.072c0.407,-0.407 0.547,-0.406 0.97,0.015m-0.659,0.842c-0.192,0.172 -0.384,0.343 -0.566,0.506c0.282,0.286 0.507,0.514 0.696,0.706c0.239,-0.222 0.477,-0.444 0.719,-0.669c-0.23,-0.222 -0.461,-0.445 -0.7,-0.676c-0.03,0.026 -0.076,0.067 -0.149,0.133Z" style="fill:#ffd75d;fill-rule:nonzero;"/><path d="M603.158,146.686c0.313,0.327 0.318,0.494 0.024,0.792c-0.368,0.373 -0.737,0.743 -1.11,1.11c-0.302,0.296 -0.487,0.295 -0.782,0.003c-0.377,-0.375 -0.754,-0.751 -1.128,-1.129c-0.272,-0.274 -0.271,-0.46 0.003,-0.737c0.381,-0.385 0.764,-0.767 1.148,-1.149c0.265,-0.263 0.472,-0.261 0.741,0.006c0.365,0.362 0.727,0.727 1.104,1.104m-1.742,-0.064c-0.166,0.136 -0.333,0.271 -0.442,0.359c0.29,0.305 0.516,0.542 0.707,0.743c0.225,-0.205 0.461,-0.422 0.657,-0.601c-0.235,-0.245 -0.462,-0.481 -0.718,-0.747c-0.052,0.065 -0.115,0.142 -0.204,0.246Z" style="fill:#ffd75d;fill-rule:nonzero;"/><path d="M593.688,153.23c0.153,0.154 0.297,0.292 0.433,0.436c0.189,0.201 0.207,0.407 0.022,0.598c-0.426,0.442 -0.86,0.875 -1.301,1.302c-0.185,0.178 -0.392,0.171 -0.579,-0.011c-0.433,-0.422 -0.861,-0.849 -1.282,-1.283c-0.189,-0.195 -0.184,-0.402 0.008,-0.597c0.417,-0.426 0.838,-0.847 1.263,-1.264c0.206,-0.201 0.407,-0.199 0.617,0.003c0.272,0.263 0.537,0.535 0.819,0.816m-1.506,1.099c0.101,0.138 0.201,0.275 0.301,0.413c0.305,-0.307 0.531,-0.533 0.742,-0.745c-0.227,-0.231 -0.455,-0.463 -0.671,-0.683c-0.222,0.221 -0.449,0.446 -0.746,0.742c0.111,0.079 0.229,0.162 0.374,0.273Z" style="fill:#ffd65c;fill-rule:nonzero;"/><path d="M586.851,138.875c0.186,-0.658 0.619,-1.026 1.205,-1.046c0.51,-0.017 1.02,0.321 1.207,0.801c0.185,0.472 0.066,1.01 -0.302,1.368c-0.356,0.346 -0.9,0.455 -1.35,0.252c-0.497,-0.224 -0.768,-0.606 -0.768,-1.163c0,-0.063 0.004,-0.126 0.008,-0.212m1.086,-0.186c-0.21,0.104 -0.322,0.27 -0.262,0.503c0.048,0.187 0.174,0.309 0.387,0.318c0.206,0.01 0.347,-0.077 0.427,-0.263c0.136,-0.314 -0.103,-0.579 -0.552,-0.558Z" style="fill:#ffd75e;fill-rule:nonzero;"/><path d="M593.813,138.115c0.014,0.727 -0.435,1.299 -1.059,1.376c-0.681,0.084 -1.267,-0.314 -1.419,-0.965c-0.154,-0.659 0.255,-1.331 0.911,-1.497c0.658,-0.167 1.34,0.226 1.522,0.879c0.017,0.061 0.028,0.123 0.045,0.207m-1.56,0.434c0.157,0.144 0.35,0.202 0.513,0.061c0.106,-0.092 0.203,-0.271 0.191,-0.401c-0.012,-0.129 -0.143,-0.282 -0.264,-0.357c-0.159,-0.098 -0.335,-0.034 -0.457,0.117c-0.143,0.177 -0.132,0.363 0.017,0.58Z" style="fill:#ffd75e;fill-rule:nonzero;"/><path d="M586.775,142.005c0.439,0.535 0.467,1.158 0.087,1.648c-0.352,0.454 -0.995,0.615 -1.506,0.366c-0.494,-0.239 -0.743,-0.641 -0.729,-1.19c0.012,-0.533 0.288,-0.901 0.766,-1.109c0.511,-0.221 0.967,-0.096 1.382,0.285m-0.482,0.747c-0.04,-0.059 -0.072,-0.125 -0.12,-0.176c-0.15,-0.158 -0.331,-0.182 -0.512,-0.071c-0.174,0.108 -0.268,0.274 -0.203,0.482c0.065,0.211 0.213,0.324 0.445,0.31c0.259,-0.017 0.388,-0.176 0.39,-0.545Z" style="fill:#ffd75e;fill-rule:nonzero;"/><path d="M588.719,145.756c0.202,0.636 0.054,1.143 -0.424,1.51c-0.403,0.309 -0.969,0.32 -1.418,0.027c-0.424,-0.276 -0.653,-0.809 -0.553,-1.288c0.111,-0.531 0.505,-0.901 1.072,-1.005c0.447,-0.082 0.968,0.159 1.227,0.57c0.033,0.053 0.059,0.111 0.096,0.186m-1.586,0.4c-0.062,0.324 0.245,0.541 0.44,0.531c0.261,-0.014 0.474,-0.246 0.4,-0.499c-0.04,-0.138 -0.183,-0.297 -0.316,-0.346c-0.228,-0.082 -0.419,0.034 -0.524,0.314Z" style="fill:#ffd75e;fill-rule:nonzero;"/><path d="M579.334,141.374c0.603,0.487 0.697,1.221 0.246,1.809c-0.391,0.509 -1.156,0.617 -1.699,0.238c-0.557,-0.388 -0.702,-1.157 -0.324,-1.726c0.388,-0.585 1.126,-0.724 1.777,-0.321m-1.145,1.149c0.076,0.216 0.251,0.342 0.452,0.29c0.147,-0.038 0.324,-0.187 0.367,-0.324c0.038,-0.121 -0.053,-0.341 -0.16,-0.43c-0.095,-0.079 -0.303,-0.081 -0.438,-0.041c-0.208,0.062 -0.251,0.258 -0.221,0.505Z" style="fill:#ffd75e;fill-rule:nonzero;"/><path d="M589.792,141.746c0.343,-0.484 0.83,-0.699 1.311,-0.59c0.544,0.123 0.909,0.502 1.001,1.04c0.087,0.51 -0.159,1.028 -0.607,1.28c-0.497,0.28 -1.01,0.23 -1.456,-0.142c-0.378,-0.315 -0.531,-0.879 -0.362,-1.35c0.028,-0.076 0.068,-0.148 0.113,-0.238m1.202,0.234c-0.371,-0.056 -0.651,0.217 -0.542,0.534c0.068,0.199 0.222,0.343 0.42,0.301c0.149,-0.032 0.333,-0.161 0.393,-0.295c0.095,-0.212 0.006,-0.421 -0.271,-0.54Z" style="fill:#ffd75e;fill-rule:nonzero;"/><path d="M581.844,151.315c-0.723,-0.111 -1.193,-0.715 -1.11,-1.403c0.081,-0.671 0.737,-1.182 1.404,-1.093c0.688,0.091 1.158,0.698 1.084,1.401c-0.071,0.676 -0.667,1.159 -1.378,1.095m0.541,-1.405c-0.022,-0.039 -0.038,-0.084 -0.068,-0.116c-0.152,-0.16 -0.334,-0.221 -0.533,-0.102c-0.187,0.11 -0.289,0.278 -0.216,0.501c0.074,0.228 0.247,0.323 0.482,0.298c0.246,-0.027 0.365,-0.213 0.335,-0.581Z" style="fill:#ffd75d;fill-rule:nonzero;"/><path d="M596.992,140.649c-0.061,0.748 -0.413,1.169 -1.059,1.29c-0.536,0.101 -1.112,-0.21 -1.344,-0.726c-0.234,-0.521 -0.073,-1.161 0.378,-1.506c0.465,-0.354 1.121,-0.347 1.55,0.015c0.281,0.238 0.45,0.533 0.475,0.927m-0.829,0.064c-0.051,-0.353 -0.291,-0.531 -0.567,-0.416c-0.205,0.084 -0.323,0.243 -0.29,0.465c0.033,0.219 0.175,0.354 0.405,0.363c0.255,0.01 0.404,-0.119 0.452,-0.412Z" style="fill:#ffd75d;fill-rule:nonzero;"/><path d="M583.626,139.161c0.079,0.56 -0.084,1.005 -0.541,1.31c-0.416,0.278 -0.862,0.293 -1.301,0.047c-0.505,-0.282 -0.745,-0.849 -0.607,-1.405c0.132,-0.533 0.642,-0.937 1.205,-0.953c0.552,-0.016 1.053,0.38 1.244,1.001m-0.802,0.172c-0.082,-0.251 -0.264,-0.397 -0.512,-0.312c-0.138,0.048 -0.288,0.217 -0.329,0.361c-0.07,0.245 0.134,0.461 0.387,0.482c0.241,0.021 0.426,-0.175 0.454,-0.531Z" style="fill:#ffd75d;fill-rule:nonzero;"/><path d="M591.546,134.653c0.058,0.584 -0.155,1.017 -0.643,1.291c-0.437,0.246 -0.883,0.221 -1.303,-0.057c-0.462,-0.306 -0.664,-0.889 -0.499,-1.405c0.177,-0.552 0.673,-0.903 1.252,-0.886c0.546,0.016 1.01,0.388 1.159,0.931c0.009,0.034 0.021,0.069 0.034,0.126m-1.303,-0.239c-0.288,0.11 -0.406,0.266 -0.362,0.509c0.04,0.219 0.177,0.345 0.406,0.353c0.232,0.008 0.423,-0.153 0.451,-0.373c0.03,-0.244 -0.137,-0.426 -0.495,-0.489Z" style="fill:#ffd75d;fill-rule:nonzero;"/><path d="M596.262,134.865c0.909,-0.101 1.561,0.403 1.573,1.192c0.01,0.607 -0.433,1.158 -1.014,1.263c-0.632,0.115 -1.242,-0.253 -1.441,-0.869c-0.183,-0.569 0.089,-1.206 0.636,-1.485c0.072,-0.036 0.15,-0.063 0.246,-0.101m0.143,0.826c-0.231,0.113 -0.301,0.304 -0.226,0.536c0.064,0.2 0.222,0.3 0.434,0.289c0.219,-0.011 0.338,-0.151 0.392,-0.347c0.085,-0.311 -0.178,-0.541 -0.6,-0.478Z" style="fill:#ffd75d;fill-rule:nonzero;"/><path d="M582.648,144.336c0.487,0.354 0.684,0.854 0.555,1.376c-0.114,0.462 -0.555,0.864 -1.02,0.928c-0.551,0.076 -1.04,-0.168 -1.311,-0.656c-0.254,-0.458 -0.17,-1.058 0.204,-1.447c0.414,-0.431 0.969,-0.507 1.572,-0.201m-0.897,0.694c-0.257,0.245 -0.276,0.531 -0.04,0.709c0.179,0.135 0.371,0.135 0.543,-0.007c0.172,-0.143 0.212,-0.335 0.105,-0.531c-0.125,-0.231 -0.325,-0.29 -0.608,-0.171Z" style="fill:#ffd75d;fill-rule:nonzero;"/><path d="M586.862,135.316c0.334,0.477 0.363,0.963 0.069,1.435c-0.29,0.465 -0.741,0.662 -1.279,0.566c-0.514,-0.09 -0.85,-0.415 -0.993,-0.921c-0.146,-0.52 0.089,-1.093 0.557,-1.383c0.461,-0.286 1.084,-0.23 1.482,0.133c0.053,0.049 0.101,0.103 0.164,0.17m-1.012,0.337c-0.328,0.082 -0.485,0.313 -0.386,0.574c0.08,0.21 0.24,0.309 0.463,0.288c0.214,-0.021 0.379,-0.205 0.375,-0.421c-0.004,-0.264 -0.148,-0.41 -0.452,-0.441Z" style="fill:#ffd65d;fill-rule:nonzero;"/></svg>