<?xml version="1.0" encoding="UTF-8"?>
<svg width="1897pt" height="426.58pt" version="1.1" viewBox="0 0 1897 426.58" xmlns="http://www.w3.org/2000/svg">
 <defs>
  <filter id="filter91" x="-.040485" y="-.072414" width="1.081" height="1.1675" color-interpolation-filters="sRGB">
   <feFlood flood-color="rgb(0,0,0)" flood-opacity=".49804" in="SourceGraphic" result="flood"/>
   <feGaussianBlur in="SourceGraphic" result="blur" stdDeviation="2.000000"/>
   <feOffset dx="0.000000" dy="1.500000" in="blur" result="offset"/>
   <feComposite in="flood" in2="offset" operator="in" result="comp1"/>
   <feComposite in="comp1" in2="comp1" operator="atop" result="comp2"/>
  </filter>
  <filter id="filter96" x="-.16914" y="-.28572" width="1.3383" height="1.6607" color-interpolation-filters="sRGB">
   <feFlood flood-color="rgb(0,0,0)" flood-opacity=".49804" in="SourceGraphic" result="flood"/>
   <feGaussianBlur in="SourceGraphic" result="blur" stdDeviation="2.000000"/>
   <feOffset dx="0.000000" dy="1.500000" in="blur" result="offset"/>
   <feComposite in="flood" in2="offset" operator="in" result="comp1"/>
   <feComposite in="comp1" in2="comp1" operator="atop" result="comp2"/>
  </filter>
  <filter id="filter133" x="-.040485" y="-.072413" width="1.081" height="1.1675" color-interpolation-filters="sRGB">
   <feFlood flood-color="rgb(0,0,0)" flood-opacity=".49804" in="SourceGraphic" result="flood"/>
   <feGaussianBlur in="SourceGraphic" result="blur" stdDeviation="2.000000"/>
   <feOffset dx="0.000000" dy="1.500000" in="blur" result="offset"/>
   <feComposite in="flood" in2="offset" operator="in" result="comp1"/>
   <feComposite in="comp1" in2="comp1" operator="atop" result="comp2"/>
  </filter>
  <filter id="filter156" x="-.16915" y="-.28571" width="1.3383" height="1.6607" color-interpolation-filters="sRGB">
   <feFlood flood-color="rgb(0,0,0)" flood-opacity=".49804" in="SourceGraphic" result="flood"/>
   <feGaussianBlur in="SourceGraphic" result="blur" stdDeviation="2.000000"/>
   <feOffset dx="0.000000" dy="1.500000" in="blur" result="offset"/>
   <feComposite in="flood" in2="offset" operator="in" result="comp1"/>
   <feComposite in="comp1" in2="comp1" operator="atop" result="comp2"/>
  </filter>
  <filter id="filter164" x="-.040485" y="-.072413" width="1.081" height="1.1675" color-interpolation-filters="sRGB">
   <feFlood flood-color="rgb(0,0,0)" flood-opacity=".49804" in="SourceGraphic" result="flood"/>
   <feGaussianBlur in="SourceGraphic" result="blur" stdDeviation="2.000000"/>
   <feOffset dx="0.000000" dy="1.500000" in="blur" result="offset"/>
   <feComposite in="flood" in2="offset" operator="in" result="comp1"/>
   <feComposite in="comp1" in2="comp1" operator="atop" result="comp2"/>
  </filter>
  <filter id="filter168" x="-.17313" y="-.28571" width="1.3463" height="1.6607" color-interpolation-filters="sRGB">
   <feFlood flood-color="rgb(0,0,0)" flood-opacity=".49804" in="SourceGraphic" result="flood"/>
   <feGaussianBlur in="SourceGraphic" result="blur" stdDeviation="2.000000"/>
   <feOffset dx="0.000000" dy="1.500000" in="blur" result="offset"/>
   <feComposite in="flood" in2="offset" operator="in" result="comp1"/>
   <feComposite in="comp1" in2="comp1" operator="atop" result="comp2"/>
  </filter>
  <filter id="filter173" x="-.040485" y="-.072413" width="1.081" height="1.1675" color-interpolation-filters="sRGB">
   <feFlood flood-color="rgb(0,0,0)" flood-opacity=".49804" in="SourceGraphic" result="flood"/>
   <feGaussianBlur in="SourceGraphic" result="blur" stdDeviation="2.000000"/>
   <feOffset dx="0.000000" dy="1.500000" in="blur" result="offset"/>
   <feComposite in="flood" in2="offset" operator="in" result="comp1"/>
   <feComposite in="comp1" in2="comp1" operator="atop" result="comp2"/>
  </filter>
  <filter id="filter180" x="-.012346" y="-.072413" width="1.0247" height="1.1675" color-interpolation-filters="sRGB">
   <feFlood flood-color="rgb(0,0,0)" flood-opacity=".49804" in="SourceGraphic" result="flood"/>
   <feGaussianBlur in="SourceGraphic" result="blur" stdDeviation="2.000000"/>
   <feOffset dx="0.000000" dy="1.500000" in="blur" result="offset"/>
   <feComposite in="flood" in2="offset" operator="in" result="comp1"/>
   <feComposite in="comp1" in2="comp1" operator="atop" result="comp2"/>
  </filter>
  <filter id="filter189" x="-.21939" y="-.28572" width="1.4388" height="1.6607" color-interpolation-filters="sRGB">
   <feFlood flood-color="rgb(0,0,0)" flood-opacity=".49804" in="SourceGraphic" result="flood"/>
   <feGaussianBlur in="SourceGraphic" result="blur" stdDeviation="2.000000"/>
   <feOffset dx="0.000000" dy="1.500000" in="blur" result="offset"/>
   <feComposite in="flood" in2="offset" operator="in" result="comp1"/>
   <feComposite in="comp1" in2="comp1" operator="atop" result="comp2"/>
  </filter>
 </defs>
 <g transform="translate(-3.2129 -28.74)">
  <path transform="matrix(2.7778 .01077 -.01077 2.7778 1508.7 243.81)" d="m5.0786-8.3995 2.53e-5 6.3994-5.274e-4 2.1e-6 -5.0778 1.751e-4 -3.125e-4 3.9999 5.0784-1.772e-4 5.273e-4 -2e-6 2.94e-5 6.4004 16.8-8.3999z" color="#000000" fill="#a7a7a7" filter="url(#filter189)" stroke-linejoin="round" style="-inkscape-stroke:none"/>
  <path transform="matrix(2.7778 .01077 -.01077 2.7778 1508.7 243.81)" d="m0 0h7.0789" fill="none" stroke="#a7a7a7" stroke-linejoin="round" stroke-width="4"/>
  <path transform="matrix(2.7778 0 0 -2.7778 -43.011 767.47)" d="m563.68 180.1 16.833 8.335-16.768 8.465z" fill="#a7a7a7"/>
  <path transform="matrix(2.7778 0 0 -2.7778 -43.011 767.47)" d="m166.88 265.94h383.05c2.761 0 4.417 0 5.522-0.461 1.592-0.579 2.846-1.833 3.425-3.425 0.461-1.105 0.461-2.761 0.461-5.522v-134.75c0-2.761 0-4.417-0.461-5.522-0.579-1.592-1.833-2.846-3.425-3.425-1.105-0.461-2.761-0.461-5.522-0.461h-383.05c-2.761 0-4.417 0-5.522 0.461-1.592 0.579-2.846 1.833-3.425 3.425-0.462 1.105-0.462 2.761-0.462 5.522v134.75c0 2.761 0 4.417 0.462 5.522 0.579 1.592 1.833 2.846 3.425 3.425 1.105 0.461 2.761 0.461 5.522 0.461z" fill="#ddd" fill-opacity=".8"/>
  <path transform="matrix(2.7778 0 0 2.7778 415.37 255.25)" d="m9.4082-1c-2.7479 0-4.4547-0.053755-5.883 0.53525-1.8507 0.68121-3.3087 2.1397-3.9899 3.9904-0.58901 1.4283-0.53525 3.1346-0.53525 5.8825v45.467c0 2.7479-0.053753 4.4542 0.53525 5.8825 0.68185 1.8525 2.1409 3.3137 3.9941 3.9941 1.4276 0.58746 3.1333 0.53156 5.8788 0.53156h367.96c2.7445 0 4.4516 0.05534 5.8788-0.53156 1.8548-0.68106 3.3163-2.1431 3.9978-3.9978 0.5873-1.4276 0.53156-3.1332 0.53156-5.8788v-45.467c0-2.7456 0.0558-4.4512-0.53156-5.8788-0.68103-1.8533-2.1412-3.3145-3.9941-3.9962-1.4278-0.5883-3.1359-0.53314-5.8825-0.53314z" color="#000000" fill="#fff" filter="url(#filter180)" stroke-linejoin="round" style="-inkscape-stroke:none"/>
  <path transform="matrix(2.7778 0 0 2.7778 415.37 255.25)" d="m9.4087 0h367.96c2.761 0 4.418 0 5.522 0.46107 1.592 0.57947 2.846 1.8336 3.426 3.4257 0.461 1.1044 0.461 2.761 0.461 5.522v45.466c0 2.761 0 4.4176-0.461 5.522-0.58 1.5921-1.834 2.8462-3.426 3.4257-1.104 0.4611-2.761 0.4611-5.522 0.4611h-367.96c-2.761 0-4.4176 0-5.522-0.4611-1.5921-0.5795-2.8462-1.8336-3.4257-3.4257-0.46107-1.1044-0.46107-2.761-0.46107-5.522v-45.466c0-2.761 0-4.4176 0.46107-5.522 0.57947-1.5921 1.8336-2.8462 3.4257-3.4257 1.1044-0.46107 2.761-0.46107 5.522-0.46107z" fill="#fff" stroke="#909090" stroke-linejoin="round" stroke-width="2"/>
  <g transform="matrix(1.5788 0 0 1.5788 799.27 286.47)" fill="#909090" stroke-width="0">
   <g transform="translate(14.6,22.9)">
    <path d="m29.664 12.736c-6.8068 0-11.549 2.1475-11.549 4.0742 0 1.9261 4.7421 4.0742 11.549 4.0742 6.8068 0 11.549-2.1482 11.549-4.0742 0-1.9267-4.7421-4.0742-11.549-4.0742z" style="paint-order:markers fill stroke"/>
    <path d="m18.115 20.192v5.8438c0 1.9267 4.7421 4.0723 11.549 4.0723 6.8068 0 11.549-2.1455 11.549-4.0723v-5.8438c-2.0769 1.7725-6.3563 2.9375-11.549 2.9375-5.1925 0-9.4719-1.165-11.549-2.9375z" style="paint-order:markers fill stroke"/>
    <path d="m18.115 29.119v5.8438c0 1.9267 4.7421 4.0723 11.549 4.0723 6.8068 0 11.549-2.1455 11.549-4.0723v-5.8438c-2.0769 1.7725-6.3563 2.9375-11.549 2.9375-5.1925 0-9.4719-1.165-11.549-2.9375z" style="paint-order:markers fill stroke"/>
   </g>
   <path d="m30.889 49.549c-0.40264 0.01459-0.80965 0.02539-1.2246 0.02539-5.1925 0-9.472-1.165-11.549-2.9375v5.8438c0 1.9267 4.7421 4.0723 11.549 4.0723 0.41614 0 0.82452-0.0099 1.2246-0.02539v-6.9785z" style="paint-order:markers fill stroke"/>
   <path d="m30.889 40.799c-0.40264 0.01459-0.80965 0.02539-1.2246 0.02539-5.1925 0-9.472-1.165-11.549-2.9375v5.8438c0 1.9267 4.7421 4.0723 11.549 4.0723 0.41614 0 0.82452-0.0099 1.2246-0.02539v-6.9785z" style="paint-order:markers fill stroke"/>
   <path d="m18.115 29.119v5.8438c0 1.9267 4.7421 4.0723 11.549 4.0723 0.41614 0 0.82452-0.0099 1.2246-0.02539v-0.05469c0-2.722 4.2886-4.8537 10.324-5.3301v-4.5059c-2.0769 1.7725-6.3563 2.9375-11.549 2.9375-5.1925 0-9.472-1.165-11.549-2.9375z" style="paint-order:markers fill stroke"/>
   <path d="m18.115 20.191v5.8438c0 1.9267 4.7421 4.0723 11.549 4.0723 6.8068 0 11.549-2.1455 11.549-4.0723v-5.8438c-2.0769 1.7725-6.3563 2.9375-11.549 2.9375-5.1925 0-9.472-1.165-11.549-2.9375z" style="paint-order:markers fill stroke"/>
   <path d="m29.664 12.736c-6.8068 0-11.549 2.1475-11.549 4.0742 0 1.9261 4.7421 4.0742 11.549 4.0742 6.8068 0 11.549-2.1482 11.549-4.0742 0-1.9267-4.7421-4.0742-11.549-4.0742z" style="paint-order:markers fill stroke"/>
  </g>
  <g stroke-linejoin="round">
   <text x="933.25848" y="356.28387" fill="#525252" font-family="Arial" font-size="32px" font-weight="bold" letter-spacing=".6px" stroke-linecap="round" stroke-width="0" word-spacing="0px" style="line-height:0;paint-order:markers fill stroke" xml:space="preserve"><tspan x="933.25848" y="356.28387" fill="#525252" font-family="Arial" font-size="32px" font-weight="normal" letter-spacing=".6px" stroke-width="0">Storage</tspan></text>
   <path transform="matrix(2.7778 0 0 2.7778 1166 50.568)" d="m9.4081-1.0003c-2.7479 0-4.4542-0.053755-5.8825 0.53525-1.8507 0.68121-3.3092 2.1397-3.9904 3.9904-0.58901 1.4283-0.53525 3.1352-0.53525 5.883v45.467c0 2.7479-0.053753 4.4547 0.53525 5.883 0.68185 1.8525 2.1409 3.3137 3.9941 3.9941 1.4276 0.58746 3.1333 0.53104 5.8788 0.53104h97.744c2.7456 0 4.451 0.05618 5.8788-0.53104 1.8548-0.68106 3.3168-2.1437 3.9983-3.9983 0.58731-1.4276 0.53103-3.1332 0.53103-5.8788v-45.467c0-2.7456 0.0563-4.4518-0.53103-5.8794-0.6809-1.8529-2.1417-3.3122-3.9941-3.9941-1.4286-0.58877-3.1351-0.53525-5.883-0.53525z" color="#000000" fill="#fff" filter="url(#filter173)" style="-inkscape-stroke:none"/>
   <path transform="matrix(2.7778 0 0 2.7778 1166 50.568)" d="m9.4087 0h97.743c2.761 0 4.417 0 5.522 0.46107 1.592 0.57947 2.846 1.8336 3.426 3.4257 0.461 1.1044 0.461 2.761 0.461 5.522v45.466c0 2.761 0 4.4176-0.461 5.522-0.58 1.5921-1.834 2.8462-3.426 3.4257-1.105 0.4611-2.761 0.4611-5.522 0.4611h-97.743c-2.761 0-4.4176 0-5.522-0.4611-1.5921-0.5795-2.8462-1.8336-3.4257-3.4257-0.46107-1.1044-0.46107-2.761-0.46107-5.522v-45.466c0-2.761 0-4.4176 0.46107-5.522 0.57947-1.5921 1.8336-2.8462 3.4257-3.4257 1.1044-0.46107 2.761-0.46107 5.522-0.46107z" fill="#fff" stroke="#005392" stroke-width="2"/>
   <text x="1335.7155" y="150.48587" fill="#525252" font-family="Arial" font-size="32px" font-weight="bold" letter-spacing=".6px" stroke-linecap="round" stroke-width="0" word-spacing="0px" style="line-height:0;paint-order:markers fill stroke" xml:space="preserve"><tspan x="1335.7155" y="150.48587" fill="#525252" font-family="Arial" font-size="32px" font-weight="normal" letter-spacing=".6px" stroke-width="0">Serving</tspan></text>
  </g>
  <g transform="matrix(1.6409 0 0 1.6409 1197.1 82.214)">
   <g fill="#015698">
    <path d="m29.541 38.021v5.5078c0.29668 0.02426 0.59302 0.05652 0.88867 0.10156 5.1906 0.79078 10.377 1.6249 15.561 2.459 1.7884 0.28775 3.5691 0.61779 5.3516 0.94141 0.87172 0.15827 1.4012 0.6695 1.4648 1.3672 0.0297 0.32565-0.0485 0.64324-0.20898 0.92383 5.162-0.89499 8.3965-2.6555 8.3965-4.2891v-7.0117c-2.8281 2.1268-8.6558 3.5254-15.727 3.5254s-12.898-1.3985-15.727-3.5254z" style="paint-order:markers fill stroke"/>
    <path d="m29.541 26.816v8.2129c0 2.3111 6.4577 4.8867 15.727 4.8867 9.2689 0 15.727-2.5756 15.727-4.8867v-8.2129c-2.8281 2.1268-8.6558 3.5254-15.727 3.5254s-12.898-1.3985-15.727-3.5254zm5.6035 6.3496a0.73438 0.83909 16.289 0 1 0.10156 0c0.023 0.0033 0.04557 8e-3 0.06836 0.01172 0.04384 0.0123 0.08852 0.023 0.13281 0.03516 0.90288 0.24784 1.8992 0.46733 2.9785 0.64844 0.03492 0.0059 0.07038 0.01178 0.10547 0.01758a0.73438 0.83909 16.289 0 1 0.03125 0.0059 0.73438 0.83909 16.289 0 1 0.4707 1.0117 0.73438 0.83909 16.289 0 1-0.66797 0.61719c-0.10577-0.01449-0.21151-0.02977-0.31641-0.04492-0.01713-0.0029-0.03368-0.0049-0.05078-0.0078-1.1142-0.18837-2.1575-0.41898-3.1191-0.68555-0.02771-0.0077-0.05446-0.01574-0.08203-0.02344a0.73438 0.83909 16.289 0 1-0.35352-0.96289 0.73438 0.83909 16.289 0 1 0.70117-0.62305zm20.025 0.18359a0.84092 0.73451 73.982 0 1 0.80273 0.62305 0.84092 0.73451 73.982 0 1-0.33398 0.95508c-0.06057 0.01532-0.12048 0.03182-0.18164 0.04687-0.98741 0.243-2.0508 0.45001-3.1797 0.61524-0.11932 0.01746-0.24056 0.03424-0.36133 0.05078a0.83909 0.73438 73.711 0 1-0.66797-0.61719 0.83909 0.73438 73.711 0 1 0.4707-1.0117 0.83909 0.73438 73.711 0 1 0.03906-0.0078c0.03294-0.0047 0.06486-0.01093 0.09766-0.01563 1.1478-0.16615 2.2103-0.37457 3.1777-0.61523a0.84092 0.73451 73.982 0 1 0.03906-0.0078c0.03294-0.0047 0.06486-0.01093 0.09766-0.01563zm-11.932 1.0254c0.7471 0.03572 1.5105 0.06055 2.3008 0.06055 0.69484-1e-5 1.3678-0.0191 2.0293-0.04687 0.28693 0.09354 0.49414 0.3627 0.49414 0.68164v0.26367c0 0.33048-0.22221 0.60781-0.52539 0.69141-0.24512 0.0094-0.48957 0.01939-0.73828 0.02539h-2.543c-0.36386-0.0089-0.72204-0.0247-1.0781-0.04102-0.27867-0.09812-0.47852-0.36272-0.47852-0.67578v-0.26367c0-0.33547 0.22882-0.61641 0.53906-0.69531z" style="paint-order:markers fill stroke"/>
    <path d="m29.541 15.41v8.4121c0 2.3119 6.4577 4.8887 15.727 4.8887 9.2689 0 15.727-2.5768 15.727-4.8887v-8.4121c-2.8281 2.126-8.6558 3.5254-15.727 3.5254s-12.898-1.3994-15.727-3.5254zm5.7285 6.4316a0.73438 0.83909 16.289 0 1 0.10156 0c0.023 0.0033 0.04557 8e-3 0.06836 0.01172 0.04384 0.0123 0.08852 0.023 0.13281 0.03516 0.90288 0.24784 1.8992 0.46733 2.9785 0.64844 0.03492 0.0059 0.07038 0.01178 0.10547 0.01758a0.73438 0.83909 16.289 0 1 0.03125 0.0059 0.73438 0.83909 16.289 0 1 0.4707 1.0117 0.73438 0.83909 16.289 0 1-0.66797 0.61719c-0.10577-0.01449-0.21151-0.02977-0.31641-0.04492-0.01713-0.0029-0.03368-0.0049-0.05078-0.0078-1.1142-0.18837-2.1575-0.41897-3.1191-0.68555-0.02771-0.0077-0.05446-0.01574-0.08203-0.02344a0.73438 0.83909 16.289 0 1-0.35352-0.96289 0.73438 0.83909 16.289 0 1 0.70117-0.62305zm20.025 0.18359a0.84092 0.73451 73.982 0 1 0.80273 0.62305 0.84092 0.73451 73.982 0 1-0.33398 0.95508c-0.06057 0.01532-0.12048 0.03183-0.18164 0.04687-0.98741 0.243-2.0508 0.45-3.1797 0.61523-0.11932 0.01746-0.24056 0.03424-0.36133 0.05078a0.83909 0.73438 73.711 0 1-0.66797-0.61719 0.83909 0.73438 73.711 0 1 0.4707-1.0117 0.83909 0.73438 73.711 0 1 0.03906-0.0078c0.03294-0.0047 0.06486-0.01093 0.09766-0.01563 1.1478-0.16615 2.2103-0.37457 3.1777-0.61523a0.84092 0.73451 73.982 0 1 0.03906-0.0078c0.03294-0.0047 0.06486-0.01093 0.09766-0.01563zm-11.932 1.0254c0.7471 0.03572 1.5105 0.06055 2.3008 0.06055 0.69484-1e-5 1.3678-0.0191 2.0293-0.04687 0.28693 0.09354 0.49414 0.3627 0.49414 0.68164v0.26367c0 0.33048-0.22221 0.60781-0.52539 0.69141-0.24512 0.0094-0.48957 0.01939-0.73828 0.02539h-2.543c-0.36386-0.0089-0.72204-0.0247-1.0781-0.04102-0.27867-0.09812-0.47852-0.36272-0.47852-0.67578v-0.26367c0-0.33547 0.22882-0.61641 0.53906-0.69531z" style="paint-order:markers fill stroke"/>
    <path d="m45.268 7.5312c-9.2689 0-15.727 2.5748-15.727 4.8867 0 2.3111 6.4577 4.8867 15.727 4.8867 9.2689-1e-6 15.727-2.5756 15.727-4.8867 0-2.3119-6.4577-4.8867-15.727-4.8867z" style="paint-order:markers fill stroke"/>
   </g>
   <path d="m40.544 65.845c-0.52106 0.02118-1.0109 0.01999-1.539 0.02047-2.2796-0.80072-4.5118-1.6304-6.7647-2.3991-3.2873-1.1217-6.5813-2.2253-9.8887-3.286-1.8461-0.59209-3.7532-0.95589-5.6919-1.0567-2.0249-0.1053-4.0537-0.1405-6.0812-0.18945-1.0142-0.02448-1.6927-0.38272-1.6933-1.397-0.00157-2.5845-0.00107-5.169 0-7.7535 2.745e-4 -0.75448 0.16802-0.92133 0.922-0.91787 1.6615 0.0076 3.6244-0.02981 5.2834 0.03909 2.1732 0.09026 4.111-0.60741 5.9774-1.6074 1.0158-0.54425 1.9909-1.1797 3.0447-1.6342 1.5052-0.64919 3.1258-0.67514 4.7181-0.43256 5.1907 0.79078 10.375 1.6247 15.559 2.4587 1.7884 0.28775 3.5701 0.61829 5.3525 0.94191 0.87172 0.15827 1.4008 0.66822 1.4644 1.3659 0.06822 0.74805-0.40744 1.468-1.2335 1.7428-0.39885 0.13268-0.8403 0.1943-1.2621 0.19251-5.9371-0.02521-11.874-0.06458-17.811-0.10833-0.57241-0.0042-1.0241-0.07641-1.4674 0.31725-0.50097 0.44494-0.37256 1.2233 0.27588 1.3661 0.92402 0.20349 1.7752 0.25256 2.697 0.41437 2.2601 0.39674 3.822 0.87871 5.3568 2.2372 0.67765 0.5998 1.3749 1.1843 2.1092 1.7117 1.1748 0.84379 2.45 0.89442 3.6856 0.17209 1.7908-1.0469 3.5551-2.1411 5.3057-3.2545 4.3577-2.7715 8.7087-5.5538 13.044-8.3605 0.78441-0.50788 1.5235-0.4876 2.3082-0.1193 0.75095 0.35245 0.81066 1.3724 0.11329 1.899-1.3731 1.0368-2.7536 2.0637-4.1285 3.0979-6.1269 4.6086-12.251 9.221-18.384 13.821-0.37586 0.28187-0.82475 0.46636-1.2708 0.71854z" fill="#015698" stroke-width=".092314"/>
   <path d="m42.272 56.32c-1.7427-0.0058-3.2907-1.9683-3.2891-2.3381 0.39727-0.0072 6.3819 0.0097 6.7564 0.0347 0.02598 0.4724-1.7741 2.3091-3.4668 2.3034z" fill="#015496" stroke-width=".080317"/>
  </g>
  <path transform="matrix(2.7778 0 0 2.7778 790.67 50.568)" d="m9.4084-1.0003c-2.7479 0-4.4547-0.053755-5.883 0.53525-1.8507 0.68121-3.3092 2.1397-3.9904 3.9904-0.58901 1.4283-0.53473 3.1352-0.53473 5.883v45.467c0 2.7479-0.05428 4.4547 0.53473 5.883 0.68185 1.8525 2.1409 3.3137 3.9941 3.9941 1.4276 0.58746 3.1338 0.53104 5.8794 0.53104h97.744c2.7456 0 4.4515 0.05618 5.8794-0.53104 1.8548-0.68106 3.3163-2.1437 3.9978-3.9983 0.5873-1.4276 0.53103-3.1332 0.53103-5.8788v-45.467c0-2.7456 0.0563-4.4518-0.53103-5.8794-0.6809-1.8529-2.1417-3.3122-3.9941-3.9941-1.4286-0.58877-3.1351-0.53525-5.883-0.53525z" color="#000000" fill="#fff" filter="url(#filter164)" stroke-linejoin="round" style="-inkscape-stroke:none"/>
  <path transform="matrix(2.7778 0 0 2.7778 1115.3 196.09)" d="m10.926-8.4v6.3998h-10.926v3.9999h10.926v6.4004l16.8-8.4001z" color="#000000" fill="#a7a7a7" filter="url(#filter168)" stroke-linejoin="round" style="-inkscape-stroke:none"/>
  <path transform="matrix(2.7778 0 0 2.7778 1115.3 196.09)" d="m0 0h12.926" fill="none" stroke="#a7a7a7" stroke-linejoin="round" stroke-width="4"/>
  <path transform="matrix(2.7778 0 0 -2.7778 -43.011 767.47)" d="m427.92 197.3 16.8 8.4-16.8 8.4z" fill="#a7a7a7"/>
  <path transform="matrix(2.7778 0 0 2.7778 790.67 50.568)" d="m9.4087 0h97.743c2.761 0 4.417 0 5.522 0.46107 1.592 0.57947 2.846 1.8336 3.426 3.4257 0.461 1.1044 0.461 2.761 0.461 5.522v45.466c0 2.761 0 4.4176-0.461 5.522-0.58 1.5921-1.834 2.8462-3.426 3.4257-1.105 0.4611-2.761 0.4611-5.522 0.4611h-97.743c-2.761 0-4.4176 0-5.522-0.4611-1.5921-0.5795-2.8462-1.8336-3.4257-3.4257-0.46107-1.1044-0.46107-2.761-0.46107-5.522v-45.466c0-2.761 0-4.4176 0.46107-5.522 0.57947-1.5921 1.8336-2.8462 3.4257-3.4257 1.1044-0.46107 2.761-0.46107 5.522-0.46107z" fill="#fff" stroke="#942092" stroke-linejoin="round" stroke-width="2"/>
  <g transform="matrix(1.4085 0 0 1.4085 785.45 83.293)" fill="#942092">
   <g transform="matrix(.97398 0 0 .97398 -2.3681 4.2935)">
    <path d="m41.713 11.279h-9.5252v4.4277c0 0.58372-0.39339 1.0962-0.95653 1.2453-1.665 0.43715-2.7764 1.0829-4.3154 1.9752l-0.2286 0.13034c-0.50272 0.29057-1.1394 0.2109-1.5521-0.20053l-3.2085-3.1985-6.1663 6.1422 3.2045 3.1904c0.414 0.41272 0.49496 1.0528 0.20053 1.5581-0.90515 1.5493-1.6333 2.8786-2.1116 4.6824-0.14914 0.56314-0.66085 0.95452-1.2433 0.95452h-4.532v9.6255h4.4899c0.58372 0 1.0955 0.3921 1.2433 0.95653 0.43714 1.6611 1.0767 2.7701 1.9612 4.3014l0.14037 0.23863c0.28929 0.50272 0.20704 1.1387-0.20053 1.5501l-3.1924 3.2125 6.1262 6.1623 3.1764-3.1965c0.414-0.41657 1.0581-0.49954 1.5621-0.20254 1.6059 0.93858 2.8805 1.641 4.6483 2.1116 0.56314 0.15043 0.95452 0.66085 0.95452 1.2433v4.53h9.6255v-4.534c0-0.58371 0.39339-1.0962 0.95653-1.2453 1.6457-0.432 2.7345-1.0635 4.2452-1.9391l0.28475-0.16243c0.50143-0.29186 1.1374-0.20962 1.5501 0.20053l3.2125 3.1944 6.1703-6.1322-3.2025-3.1844c-0.41528-0.41272-0.50026-1.0549-0.20454-1.5601 0.88072-1.5017 1.6399-2.7991 2.1156-4.5901 0.15043-0.56314 0.65962-0.95452 1.2433-0.95452h4.538v-9.2104h-14.883c-0.18678 0-0.37102-0.01195-0.55346-0.02807 0.58702 1.3588 0.91642 2.854 0.91642 4.4257 0 6.1771-5.0258 11.202-11.202 11.202-6.176 0-11.202-5.0247-11.202-11.202 0-6.176 5.0258-11.2 11.202-11.2 1.6809 0 3.2701 0.38238 4.7024 1.0488-0.0087-0.13442-0.02005-0.26838-0.02005-0.40507v-14.587c0-0.19553 0.01242-0.38676 0.03008-0.57753z" style="paint-order:markers fill stroke"/>
    <path d="m37 28.013c-4.9558 0-8.9874 4.0328-8.9874 8.9874 0 4.9558 4.0316 8.9874 8.9874 8.9874s8.9874-4.0316 8.9874-8.9874c0-4.9546-4.0316-8.9874-8.9874-8.9874z" style="paint-order:markers fill stroke"/>
   </g>
   <g transform="translate(2.1191,-15.331)">
    <path d="m61.24 18.398v3.2871h3.0996z" style="paint-order:markers fill stroke"/>
    <path d="m45.541 17.854c-0.86562 0-1.5625 0.69688-1.5625 1.5625v22.875c0 0.86562 0.69688 1.5625 1.5625 1.5625h17.75c0.86562 0 1.5625-0.69688 1.5625-1.5625v-18.451h-2.6855c-1.6981 0-3.0645-1.3684-3.0645-3.0664v-2.9199zm1.7246 6.9863h14.178c0.47237 0 0.85156 0.37919 0.85156 0.85156v0.32227c0 0.47237-0.37919 0.85352-0.85156 0.85352h-14.178c-0.47237 0-0.85352-0.38114-0.85352-0.85352v-0.32227c0-0.47237 0.38114-0.85156 0.85352-0.85156zm-2e-3 4.7871h14.18c0.47237 0 0.85156 0.38114 0.85156 0.85352v0.32031c0 0.47237-0.37919 0.85352-0.85156 0.85352h-14.18c-0.47237 0-0.85156-0.38114-0.85156-0.85352v-0.32031c0-0.47237 0.37919-0.85352 0.85156-0.85352zm0 4.7891h14.18c0.47237 0 0.85156 0.37919 0.85156 0.85156v0.32227c0 0.47237-0.37919 0.85156-0.85156 0.85156h-14.18c-0.47237 0-0.85156-0.37919-0.85156-0.85156v-0.32227c0-0.47237 0.37919-0.85156 0.85156-0.85156z" style="paint-order:markers fill stroke"/>
    <path d="m41.154 23.791h-1.6699c-0.86562 0-1.5625 0.69688-1.5625 1.5625v22.875c0 0.86562 0.69688 1.5625 1.5625 1.5625h17.75c0.86562 0 1.5625-0.69688 1.5625-1.5625v-1.625h-12.73c-2.721 0-4.9121-2.1912-4.9121-4.9121z" style="paint-order:markers fill stroke"/>
   </g>
  </g>
  <text x="880.4101" y="151.68187" fill="#525252" font-family="Arial" font-size="32px" font-weight="bold" letter-spacing=".6px" stroke-linecap="round" stroke-linejoin="round" stroke-width="0" word-spacing="0px" style="line-height:0;paint-order:markers fill stroke" xml:space="preserve"><tspan x="880.4101" y="151.68187" fill="#525252" font-family="Arial" font-size="32px" font-weight="normal" letter-spacing=".6px" stroke-width="0">Transformation</tspan></text>
 </g>
 <g transform="translate(-3.2129 -28.74)">
  <path transform="matrix(2.7778 0 0 2.7778 740.57 197.08)" d="m11.578-8.4v6.3998h-11.578v3.9999h11.578v6.4004l16.8-8.4001z" color="#000000" fill="#a7a7a7" filter="url(#filter156)" stroke-linejoin="round" style="-inkscape-stroke:none"/>
  <path transform="matrix(2.7778 0 0 2.7778 415.37 50.568)" d="m9.4082-1.0003c-2.7479 0-4.4547-0.053755-5.883 0.53525-1.8507 0.68121-3.3087 2.1397-3.9899 3.9904-0.58901 1.4283-0.53525 3.1352-0.53525 5.883v45.467c0 2.7479-0.053753 4.4547 0.53525 5.883 0.68185 1.8525 2.1409 3.3137 3.9941 3.9941 1.4276 0.58746 3.1333 0.53104 5.8788 0.53104h97.744c2.7456 0 4.451 0.05618 5.8788-0.53104 1.8548-0.68106 3.3162-2.1437 3.9978-3.9983 0.58731-1.4276 0.53156-3.1332 0.53156-5.8788v-45.467c0-2.7456 0.0558-4.4518-0.53156-5.8794-0.6809-1.8529-2.1417-3.3122-3.9941-3.9941-1.4286-0.58877-3.1346-0.53525-5.8825-0.53525z" color="#000000" fill="#fff" filter="url(#filter133)" stroke-linejoin="round" style="-inkscape-stroke:none"/>
  <path transform="matrix(2.7778 0 0 2.7778 740.57 197.08)" d="m0 0h13.578" fill="none" stroke="#a7a7a7" stroke-linejoin="round" stroke-width="4"/>
  <path transform="matrix(2.7778 0 0 -2.7778 -43.011 767.47)" d="m293.67 196.94 16.8 8.4-16.8 8.4z" fill="#a7a7a7"/>
  <g>
   <path transform="matrix(2.7778 0 0 2.7778 415.37 50.568)" d="m9.4087 0h97.743c2.761 0 4.417 0 5.522 0.46107 1.592 0.57947 2.846 1.8336 3.426 3.4257 0.461 1.1044 0.461 2.761 0.461 5.522v45.466c0 2.761 0 4.4176-0.461 5.522-0.58 1.5921-1.834 2.8462-3.426 3.4257-1.105 0.4611-2.761 0.4611-5.522 0.4611h-97.743c-2.761 0-4.4176 0-5.522-0.4611-1.5921-0.5795-2.8462-1.8336-3.4257-3.4257-0.46107-1.1044-0.46107-2.761-0.46107-5.522v-45.466c0-2.761 0-4.4176 0.46107-5.522 0.57947-1.5921 1.8336-2.8462 3.4257-3.4257 1.1044-0.46107 2.761-0.46107 5.522-0.46107z" fill="#fff" stroke="#4e8f00" stroke-linejoin="round" stroke-width="2"/>
   <path d="m460.97 85.096c-0.3505 0.01668-0.69288 0.12286-1.0006 0.31674-0.6154 0.38556-0.99149 1.0631-0.99149 1.7959v31.33c0.13359-0.0265 0.2719-0.0432 0.41922-0.0432h20.3l-5.19-4.8427c-0.36414-0.33989-0.53709-0.73635-0.52189-1.1895 0.0153-0.45319 0.18801-0.84966 0.52189-1.1895 0.36414-0.33989 0.79684-0.51673 1.2975-0.53088 0.50066-0.0142 0.93335 0.14783 1.2975 0.48768l8.3304 7.7743c0.18206 0.17001 0.31105 0.3542 0.38699 0.55247 0.0754 0.19831 0.11338 0.41044 0.11338 0.63707 0 0.2266-0.0377 0.44056-0.11338 0.63883-0.0754 0.19832-0.20488 0.38256-0.38699 0.55249l-8.3304 7.7743c-0.36414 0.33987-0.79683 0.50182-1.2975 0.48768-0.50069-0.0153-0.93339-0.19106-1.2975-0.53089-0.3338-0.33988-0.50669-0.73634-0.52189-1.1895-0.0153-0.45321 0.15795-0.84965 0.52189-1.1895l5.19-4.8427h-20.3c-0.1474 0-0.28555-0.0175-0.41922-0.0432v28.752c0.13359-0.0265 0.2719-0.0432 0.41922-0.0432h20.3l-5.19-4.8445c-0.36414-0.33987-0.53709-0.73632-0.52189-1.1895 0.0153-0.4532 0.18801-0.84963 0.52189-1.1895 0.36414-0.33988 0.79684-0.51673 1.2975-0.53088 0.50066-0.0132 0.93335 0.14961 1.2975 0.48949l8.3304 7.7743c0.18206 0.17 0.31105 0.35421 0.38699 0.55246 0.0754 0.1983 0.11338 0.41046 0.11338 0.63707 0 0.2266-0.0377 0.43877-0.11338 0.63704-0.0754 0.19831-0.20488 0.38256-0.38699 0.5525l-8.3304 7.7743c-0.36414 0.33987-0.79683 0.50367-1.2975 0.48948-0.50069-0.0132-0.93339-0.19107-1.2975-0.5309-0.3338-0.33987-0.50669-0.73633-0.52189-1.1895-0.0153-0.45318 0.15795-0.84964 0.52189-1.1895l5.19-4.8445h-20.3c-0.1474 0-0.28555-0.0175-0.41922-0.0432v30.249c0 0.73295 0.37609 1.4105 0.99149 1.7959 0.30776 0.19391 0.65014 0.29995 1.0006 0.31673 0.3505 0.0175 0.7092-0.0519 1.0347-0.21409l31.506-15.639c0.71823-0.35588 1.1733-1.0936 1.1733-1.8986v-65.678c0-0.80493-0.45507-1.5427-1.1733-1.8986l-31.506-15.639c-0.32554-0.16215-0.68424-0.23161-1.0347-0.21416zm44.477 23.097c-4.2004 0-7.5834 3.3812-7.5834 7.5816v41.515c0 4.2004 3.383 7.5816 7.5834 7.5816h8.9494c4.2006 0 7.5818-3.3812 7.5818-7.5816v-41.515c0-4.2004-3.3812-7.5816-7.5818-7.5816zm4.4738 6.367a4.1463 4.1463 0 0 1 4.1462 4.1463 4.1463 4.1463 0 0 1-4.1462 4.1462 4.1463 4.1463 0 0 1-4.1463-4.1462 4.1463 4.1463 0 0 1 4.1463-4.1463zm0 10.779a4.1463 4.1463 0 0 1 4.1462 4.1463 4.1463 4.1463 0 0 1-4.1462 4.1463 4.1463 4.1463 0 0 1-4.1463-4.1463 4.1463 4.1463 0 0 1 4.1463-4.1463zm0 14.648c1.1321 0 2.0443 0.91046 2.0443 2.0425v13.794c0 1.1321-0.91226 2.0443-2.0443 2.0443-1.1321 0-2.0443-0.91224-2.0443-2.0443v-13.794c0-1.1321 0.91216-2.0425 2.0443-2.0425z" fill="#4e8f00" stroke-width="2.1004"/>
   <text x="567.37262" y="147.75925" fill="#525252" font-family="Arial" font-size="32px" font-weight="bold" letter-spacing=".6px" stroke-linecap="round" stroke-linejoin="round" stroke-width="0" word-spacing="0px" style="line-height:0;paint-order:markers fill stroke" xml:space="preserve"><tspan x="567.37262" y="147.75925" fill="#525252" font-family="Arial" font-size="32px" font-weight="normal" letter-spacing=".6px" stroke-width="0">Ingestion</tspan></text>
  </g>
 </g>
 <g transform="translate(-3.2129 -28.74)">
  <path transform="matrix(2.7778 0 0 2.7778 1573.7 50.576)" d="m9.4087 0h97.743c2.761 0 4.417 0 5.522 0.46107 1.592 0.57947 2.846 1.8336 3.426 3.4257 0.461 1.1044 0.461 2.761 0.461 5.522v119.03c0 2.761 0 4.417-0.461 5.522-0.58 1.592-1.834 2.846-3.426 3.425-1.105 0.462-2.761 0.462-5.522 0.462h-97.743c-2.761 0-4.4176 0-5.522-0.462-1.5921-0.579-2.8462-1.833-3.4257-3.425-0.46107-1.105-0.46107-2.761-0.46107-5.522v-119.03c0-2.761 0-4.4176 0.46107-5.522 0.57947-1.5921 1.8336-2.8462 3.4257-3.4257 1.1044-0.46107 2.761-0.46107 5.522-0.46107z" fill="#fff" stroke="#ffd478" stroke-linejoin="round" stroke-width="2"/>
  <g>
   <path transform="matrix(2.7778 0 0 2.7778 19.328 152.91)" d="m9.4082-0.99991c-2.7479 0-4.4547-0.053755-5.883 0.53525-1.8507 0.68121-3.3087 2.1391-3.9899 3.9899-0.58901 1.4283-0.53525 3.1352-0.53525 5.883v45.467c0 2.7479-0.053753 4.4547 0.53525 5.883 0.68185 1.8525 2.1409 3.3137 3.9941 3.9941 1.4276 0.58746 3.1333 0.53104 5.8788 0.53104h97.744c2.7456 0 4.451 0.05618 5.8788-0.53104 1.8548-0.68106 3.3168-2.1431 3.9983-3.9978 0.58731-1.4276 0.53104-3.1338 0.53104-5.8794v-45.467c0-2.7456 0.0563-4.4512-0.53104-5.8788-0.68089-1.8529-2.1422-3.3122-3.9946-3.9941-1.4286-0.58877-3.1346-0.53525-5.8825-0.53525z" color="#000000" fill="#fff" filter="url(#filter91)" stroke-linejoin="round" style="-inkscape-stroke:none"/>
   <path transform="matrix(2.7778 0 0 2.7778 342.13 243.86)" d="m11.578-8.3998v6.3998h-11.578v3.9999h11.578v6.3998l16.8-8.4001z" color="#000000" fill="#a7a7a7" filter="url(#filter96)" stroke-linejoin="round" style="-inkscape-stroke:none"/>
   <g>
    <path transform="matrix(2.7778 0 0 2.7778 342.13 243.86)" d="m0 0h13.578" fill="none" stroke="#a7a7a7" stroke-linejoin="round" stroke-width="4"/>
    <path transform="matrix(2.7778 0 0 -2.7778 -43.011 767.47)" d="m150.23 180.1 16.8 8.4-16.8 8.4z" fill="#a7a7a7"/>
   </g>
   <path transform="matrix(2.7778 0 0 2.7778 19.328 152.91)" d="m9.4087 0h97.743c2.761 0 4.417 0 5.522 0.46107 1.592 0.57947 2.846 1.8336 3.426 3.4257 0.461 1.1044 0.461 2.761 0.461 5.522v45.466c0 2.761 0 4.4176-0.461 5.522-0.58 1.5921-1.834 2.8462-3.426 3.4257-1.105 0.4611-2.761 0.4611-5.522 0.4611h-97.743c-2.761 0-4.4176 0-5.522-0.4611-1.5921-0.5795-2.8462-1.8336-3.4257-3.4257-0.46107-1.1044-0.46107-2.761-0.46107-5.522v-45.466c0-2.761 0-4.4176 0.46107-5.522 0.57947-1.5921 1.8336-2.8462 3.4257-3.4257 1.1044-0.46107 2.761-0.46107 5.522-0.46107z" fill="#fff" stroke="#ff7d78" stroke-linejoin="round" stroke-width="2"/>
   <text x="151.6913" y="253.98228" fill="#525252" font-family="Arial" font-size="32px" font-weight="bold" letter-spacing=".6px" stroke-linecap="round" stroke-linejoin="round" stroke-width="0" word-spacing="0px" style="line-height:0;paint-order:markers fill stroke" xml:space="preserve"><tspan x="151.6913" y="253.98228" fill="#525252" font-family="Arial" font-size="32px" font-weight="normal" letter-spacing=".6px" stroke-width="0">Generation</tspan></text>
   <g transform="matrix(1.5317 0 0 1.5317 24.756 186.12)" fill="#ff7d78">
    <path d="m29.469 9.332v12.832c0 0.31985-0.08077 0.62099-0.22266 0.88281-0.02838 0.05237-0.05866 0.10126-0.0918 0.15039v2e-3c-0.33147 0.49059-0.89407 0.8125-1.5332 0.8125h-12.766v28.691c0 2.5977 2.0917 4.6895 4.6895 4.6895h25.727c2.5977 0 4.6895-2.0917 4.6895-4.6895v-38.684c0-2.5977-2.0917-4.6875-4.6895-4.6875zm2.1113 20.381h8.9395c1.0235 0 1.8457 0.82414 1.8457 1.8477s-0.82219 1.8477-1.8457 1.8477h-8.9395c-1.0235 0-1.8477-0.82414-1.8477-1.8477s0.82414-1.8477 1.8477-1.8477zm-7.2148 8.2246h16.184c1.0236 0 1.8477 0.82414 1.8477 1.8477s-0.82408 1.8477-1.8477 1.8477h-16.184c-1.0236 0-1.8477-0.82414-1.8477-1.8477s0.82408-1.8477 1.8477-1.8477zm0.56445 8.3613h16.184c1.0236 0 1.8477 0.82408 1.8477 1.8477 0 1.0236-0.82408 1.8477-1.8477 1.8477h-16.184c-1.0236 0-1.8477-0.82408-1.8477-1.8477 0-1.0236 0.82408-1.8477 1.8477-1.8477z" style="paint-order:markers fill stroke"/>
    <path d="m25.773 10.189-10.066 10.127h10.066z" style="paint-order:markers fill stroke"/>
    <path d="m53.516 16.641v35.041c4.4e-5 8.0347-5.8376 9.1895-11.49 9.1895h-7.3848l-11.947-0.0039c0.40194 2.1839 1.8995 3.834 4.2031 3.834h27.727c2.5977 0 4.6895-2.0917 4.6895-4.6895v-38.682c0-2.5977-2.0917-4.6891-4.6895-4.6891-0.66272-3.1e-5 -1.1074 1.4e-5 -1.1074 0z" style="paint-order:markers fill stroke"/>
   </g>
  </g>
  <g fill="#febd0d">
   <g transform="matrix(1.5333 0 0 1.5333 1594.6 309.9)" stroke-linecap="round" stroke-linejoin="round">
    <path d="m60.868 38.32 3.4373-4.3081-1.5623-1.2468-1.2237 1.5326c-1.3609-5.2575-8.4098-11.215-11.722-12.077-0.13179-0.0343-0.26429-0.06777-0.39717-0.10147-0.10198-0.02112-0.20712-0.02652-0.31068-0.01539-0.43072 0.04541-0.78335 0.36378-0.87345 0.7874-0.0023 0.01105-0.0038 0.02165-0.0058 0.03269-0.0087 1e-3 -0.0065 0.0027-6.79e-4 0.0039-0.09133 0.528 0.25124 1.039 0.78008 1.1498 3.8363 0.80647 9.8168 6.9345 10.578 10.644l-1.7881-1.4277-1.2472 1.5642z" stroke-width="2" style="paint-order:markers fill stroke"/>
    <path d="m10.762 12.324a1.0001 1.0001 0 0 0-1 1v10.639a1.0001 1.0001 0 0 0 0.03125 0.11914 1.0001 1.0001 0 0 0-0.03125 0.11719v21.275a1.0001 1.0001 0 0 0 1 1h23.875c0.09702-0.68455 0.24332-1.3521 0.43945-2h-23.314v-8.6367h34.062a1.0001 1.0001 0 0 0 0.97461-0.9043c0.0086-7.63e-4 0.0168-0.0032 0.02539-0.0039v-10.73a1.0001 1.0001 0 0 0-0.03125-0.11719 1.0001 1.0001 0 0 0 0.03125-0.11914v-10.639a1.0001 1.0001 0 0 0-1-1zm1 2h33.062v8.6387h-33.062zm0 10.875h33.062v8.6387h-33.062z" color="#000000" style="-inkscape-stroke:none;paint-order:markers fill stroke"/>
    <path d="m13.906 16.162a1.0001 1.0001 0 0 0-1 1v2.9629a1.0001 1.0001 0 0 0 1 1h3.1641a1.0001 1.0001 0 0 0 1-1v-2.9629a1.0001 1.0001 0 0 0-1-1zm5.832 0a1.0001 1.0001 0 0 0-1 1v2.9629a1.0001 1.0001 0 0 0 1 1h3.166a1.0001 1.0001 0 0 0 1-1v-2.9629a1.0001 1.0001 0 0 0-1-1zm10.727 1.5098c-0.53252 0-0.96094 0.42842-0.96094 0.96094v0.02148c0 0.53252 0.42842 0.96094 0.96094 0.96094h12.109c0.53252 0 0.96094-0.42842 0.96094-0.96094v-0.02148c0-0.53252-0.42842-0.96094-0.96094-0.96094zm-15.559 0.49023h1.1641v0.96289h-1.1641zm5.832 0h1.166v0.96289h-1.166z" color="#000000" style="-inkscape-stroke:none;paint-order:markers fill stroke"/>
    <path d="m13.98 27.037a1.0001 1.0001 0 0 0-1 1v2.9629a1.0001 1.0001 0 0 0 1 1h3.1641a1.0001 1.0001 0 0 0 1-1v-2.9629a1.0001 1.0001 0 0 0-1-1zm5.832 0a1.0001 1.0001 0 0 0-1 1v2.9629a1.0001 1.0001 0 0 0 1 1h3.166a1.0001 1.0001 0 0 0 1-1v-2.9629a1.0001 1.0001 0 0 0-1-1zm10.727 1.5098c-0.53252 0-0.96289 0.42842-0.96289 0.96094v0.02149c0 0.53252 0.43037 0.96094 0.96289 0.96094h12.107c0.53252 0 0.96289-0.42842 0.96289-0.96094v-0.02149c0-0.53252-0.43037-0.96094-0.96289-0.96094zm-15.559 0.49023h1.1641v0.96289h-1.1641zm5.832 0h1.166v0.96289h-1.166z" color="#000000" style="-inkscape-stroke:none;paint-order:markers fill stroke"/>
    <path d="m13.98 37.912a1.0001 1.0001 0 0 0-1 1v2.9629a1.0001 1.0001 0 0 0 1 1h3.1641a1.0001 1.0001 0 0 0 1-1v-2.9629a1.0001 1.0001 0 0 0-1-1zm5.832 0a1.0001 1.0001 0 0 0-1 1v2.9629a1.0001 1.0001 0 0 0 1 1h3.166a1.0001 1.0001 0 0 0 1-1v-2.9629a1.0001 1.0001 0 0 0-1-1zm10.727 1.5098c-0.53252 0-0.96289 0.42842-0.96289 0.96094v0.02149c0 0.53252 0.43037 0.96094 0.96289 0.96094h5.9297c0.42234-0.69199 0.9055-1.3402 1.4414-1.9434zm-15.559 0.49023h1.1641v0.96289h-1.1641zm5.832 0h1.166v0.96289h-1.166z" color="#000000" style="-inkscape-stroke:none;paint-order:markers fill stroke"/>
    <path d="m48 34.875c-7.4405 0-13.5 6.0595-13.5 13.5s6.0595 13.5 13.5 13.5c7.2002 0 13.091-5.678 13.465-12.787 0.01224-0.09746 0.03516-0.21897 0.03516-0.375 0-0.09584-0.01092-0.12936-0.01172-0.12305 0.0019-0.04608 0.01172-0.11238 0.01172-0.21484 0-7.4405-6.0595-13.5-13.5-13.5zm-0.67773 2.0625v5.3613c-2.0059 0.06783-3.8721 0.32767-5.5254 0.75391-0.34103-1.2659-0.79526-2.3852-1.3457-3.3203 1.8638-1.6296 4.2461-2.6366 6.8711-2.7949zm1.9668 0.05078c2.3308 0.26525 4.4474 1.1973 6.1465 2.6445-0.55258 0.91029-1.0095 2.002-1.3574 3.2422-1.4531-0.32809-3.0659-0.52237-4.7891-0.58008v-5.3066zm7.5781 4.1406c0.88085 1.0753 1.5381 2.311 1.9863 3.6562-0.82058-0.54119-1.7674-1.0184-2.8906-1.3965 0.244-0.86971 0.55966-1.6039 0.9043-2.2598zm-17.84 0.14258c0.34556 0.68642 0.66151 1.4467 0.90039 2.3496-1.1473 0.42866-2.0928 0.96132-2.8945 1.5586 0.42267-1.4395 1.0831-2.7603 1.9941-3.9082zm8.2949 2.9531v8.918c-1.8854-0.06522-3.5848-0.28928-5.0312-0.6582 0.16608-1.1342 0.28125-2.3115 0.28125-3.5332 0-1.3926-0.14353-2.7253-0.35547-3.9922 1.4698-0.38728 3.1934-0.66098 5.1055-0.73438zm1.9668 0.03711c1.6158 0.05693 3.0791 0.23907 4.3496 0.52539-0.23101 1.3174-0.38672 2.7081-0.38672 4.1641 0 1.2831 0.12452 2.5208 0.30664 3.707-1.2518 0.27688-2.6867 0.45187-4.2695 0.50781v-8.9043zm6.25 1.1016c1.162 0.42212 2.1968 0.90006 2.8418 1.4375 0.74144 0.61782 1.1035 1.2544 1.1367 1.8242-0.0025 0.09308-0.0077 0.19374-0.01367 0.30273-0.07845 0.56098-0.47452 1.1868-1.2266 1.7852-0.65149 0.51834-1.6711 0.97578-2.8066 1.3809-0.14108-1.0078-0.25-2.0494-0.25-3.1426 0-1.2627 0.13569-2.4536 0.31836-3.5879zm-15.217 0.24024c0.15935 1.0658 0.2832 2.1735 0.2832 3.3477 0 1.0048-0.09787 1.9629-0.21875 2.8984-1.0563-0.42336-2.0161-0.88956-2.6035-1.4004-0.68911-0.59932-1.0098-1.2021-1.0098-1.7363 0-0.52974 0.31473-1.1258 0.99219-1.7207 0.5762-0.506 1.5197-0.96673 2.5566-1.3887zm-2.9883 6.8691c0.76877 0.52352 1.6526 0.99336 2.7012 1.377-0.1789 0.75649-0.41693 1.4205-0.67188 2.0488-0.87405-1.0041-1.5429-2.1617-2.0293-3.4258zm21.287 0.17969c-0.50951 1.2577-1.2082 2.4056-2.1035 3.3984-0.25932-0.61304-0.50064-1.2631-0.68555-2.0059 1.1071-0.36664 1.972-0.86898 2.7891-1.3926zm-16.709 1.7539c1.6253 0.4093 3.4509 0.65829 5.4102 0.72461v4.6855c-2.4247-0.14472-4.6483-1.0046-6.4414-2.4219 0.42153-0.88264 0.76542-1.889 1.0312-2.9883zm12.041 0.17188c0.27132 1.0733 0.61973 2.0503 1.041 2.9082-1.6185 1.2446-3.5729 2.0395-5.7051 2.2812v-4.6309c1.6748-0.05594 3.2432-0.24631 4.6641-0.55859z" color="#000000" style="-inkscape-stroke:none"/>
   </g>
   <g transform="matrix(1.1793 0 0 1.1793 1608.1 198.54)">
    <g fill-rule="evenodd" stroke-dasharray="1.42018, 1.42018" stroke-miterlimit="8" stroke-width=".16387">
     <path d="m31.629 15.296-1.3618 0.40231 0.25156 0.85166 1.3618-0.40231zm-2.724 0.80429-1.3621 0.4023 0.25156 0.85166 1.3621-0.4023zm-2.724 0.80461-1.3621 0.40198 0.25156 0.85166 1.3621-0.40199zm-2.7243 0.80429-1.3618 0.4023 0.25156 0.85166 1.3618-0.40231zm-2.724 0.80429-1.3621 0.4023 0.25156 0.85166 1.3621-0.40199zm-2.724 0.80461-1.3621 0.40231 0.25156 0.85166 1.3621-0.4023zm-2.724 0.80429-1.3621 0.40231 0.25156 0.85166 1.3618-0.40231z" color="#000000" style="-inkscape-stroke:none"/>
     <path d="m31.523 15.472-1.0456 0.9608 0.60074 0.65387 1.0456-0.9608zm-2.0912 1.9219-1.0456 0.96111 0.60074 0.65387 1.0456-0.96112zm-2.0912 1.9222-1.0456 0.96111 0.60074 0.65387 1.0456-0.96112zm-2.0912 1.9219-1.0456 0.96112 0.60074 0.65386 1.0456-0.96112zm-2.0912 1.9222-1.0456 0.96112 0.60074 0.65387 1.0456-0.96112zm-2.0912 1.9222-1.0456 0.9608 0.60074 0.65387 1.0456-0.9608zm-2.0912 1.9219-1.0456 0.96111 0.60106 0.65387 1.0456-0.96112zm-2.0912 1.9222-1.0456 0.96111 0.60106 0.65386 1.0456-0.96111zm-2.0912 1.9219-1.0456 0.96111 0.60106 0.65387 1.0456-0.96112z" color="#000000" style="-inkscape-stroke:none"/>
     <path d="m31.456 15.644-0.77292 1.1916 0.74508 0.48328 0.77292-1.1912zm-1.5458 2.3828-0.77324 1.1912 0.74508 0.4836 0.77293-1.1916zm-1.5462 2.3828-0.77292 1.1912 0.74476 0.48328 0.77324-1.1912zm-1.5462 2.3828-0.77293 1.1912 0.74508 0.48328 0.77292-1.1912zm-1.5458 2.3825-0.77324 1.1916 0.74508 0.48328 0.77293-1.1912zm-1.5462 2.3828-0.77292 1.1912 0.74476 0.4836 0.77324-1.1916zm-1.5462 2.3828-0.77292 1.1912 0.74508 0.4836 0.77292-1.1916zm-1.5458 2.3828-0.77325 1.1912 0.74508 0.48328 0.77292-1.1912zm-1.5462 2.3825-0.77292 1.1916 0.74508 0.48328 0.77293-1.1912zm-1.5458 2.3828-0.77324 1.1916 0.74508 0.48328 0.77293-1.1912zm-1.5462 2.3828-0.77292 1.1912 0.74476 0.4836 0.77324-1.1916zm-1.5462 2.3828-0.77292 1.1912 0.74508 0.4836 0.77293-1.1916z" color="#000000" style="-inkscape-stroke:none"/>
     <path d="m31.571 15.474-0.04801 0.10338 0.80621 0.37286 0.04801-0.1037zm-0.64362 1.3925-0.59594 1.2892 0.80589 0.37254 0.59594-1.2892zm-1.1919 2.5783-0.59594 1.2888 0.80589 0.37286 0.59594-1.2892zm-1.1919 2.578-0.59594 1.2892 0.80589 0.37254 0.59594-1.2888zm-1.1919 2.5783-0.59594 1.2892 0.80589 0.37254 0.59594-1.2892zm-1.1919 2.578-0.59594 1.2892 0.80589 0.37254 0.59594-1.2888zm-1.1919 2.5783-0.59594 1.2892 0.80621 0.37254 0.59562-1.2892zm-1.1919 2.5783-0.59594 1.2888 0.80621 0.37286 0.59594-1.2892zm-1.1919 2.578-0.59594 1.2892 0.80621 0.37254 0.59594-1.2892zm-1.1919 2.5783-0.59594 1.2888 0.80621 0.37286 0.59594-1.2892zm-1.1919 2.578-0.59594 1.2892 0.80621 0.37254 0.59594-1.2888zm-1.1919 2.5783-0.59594 1.2892 0.80621 0.37254 0.59594-1.2892zm-1.1919 2.578-0.59594 1.2892 0.80621 0.37254 0.59594-1.2888zm-1.1919 2.5783-0.59594 1.2892 0.80621 0.37254 0.59593-1.2892zm-1.1919 2.578-0.59593 1.2892 0.80621 0.37286 0.59594-1.2892zm-1.1919 2.5783-0.59594 1.2892 0.80621 0.37254 0.59594-1.2892z" color="#000000" style="-inkscape-stroke:none"/>
     <path d="m30.939 37.166-1.012 0.99664 0.62314 0.63274 1.012-0.99664zm-2.0237 1.993-1.012 0.99664 0.62314 0.63274 1.012-0.99664zm-2.0237 1.993-1.012 0.99664 0.62314 0.63274 1.0117-0.99664zm-2.024 1.993-1.0117 0.99664 0.62314 0.63274 1.0117-0.99664zm-2.0237 1.993-1.012 0.99664 0.62314 0.63274 1.012-0.99664zm-2.0237 1.993-1.012 0.99664 0.62314 0.63274 1.012-0.99664zm-2.024 1.993-1.0117 0.99664 0.62314 0.63274 1.0117-0.99664zm-2.0237 1.993-1.0117 0.99664 0.62282 0.63274 1.012-0.99664zm-2.0237 1.993-1.012 0.99664 0.62314 0.63274 1.012-0.99632z" color="#000000" style="-inkscape-stroke:none"/>
     <path d="m14.133 53.958-0.16963 0.87182 1.3941 0.27108 0.1693-0.8715zm2.788 0.54249-0.16963 0.8715 1.3941 0.2714 0.16963-0.87182zm2.788 0.54217-0.16931 0.87182 1.3938 0.27108 0.16963-0.87182zm2.7883 0.54249-0.16963 0.8715 1.3941 0.2714 0.16963-0.87182zm2.788 0.54217-0.16963 0.87182 1.3941 0.27108 0.16963-0.87182zm2.7883 0.54249-0.16963 0.8715 1.3941 0.27108 0.16931-0.8715zm2.788 0.54217-0.16963 0.87182 1.1144 0.21667 0.16963-0.87182z" color="#000000" style="-inkscape-stroke:none"/>
     <path d="m31.253 36.559-1.3349 0.48424 0.30277 0.83501 1.3349-0.48456zm-2.6702 0.96848-1.3349 0.48456 0.30277 0.8347 1.3353-0.48424zm-2.6699 0.9688-1.3353 0.48424 0.30309 0.8347 1.3349-0.48424zm-2.6702 0.96848-1.3349 0.48424 0.30277 0.83502 1.3349-0.48424zm-2.6702 0.9688-1.3349 0.48424 0.30277 0.8347 1.3353-0.48424zm-2.6699 0.96848-1.3353 0.48424 0.30309 0.83501 1.3349-0.48456zm-2.6702 0.96848-1.3349 0.48456 0.30277 0.8347 1.3349-0.48424z" color="#000000" style="-inkscape-stroke:none"/>
     <path d="m14.33 42.881-0.56297 0.68683 1.0987 0.9003 0.56265-0.68683zm2.1972 1.8003-0.56297 0.68683 1.0984 0.9003 0.56297-0.68715zm2.1968 1.8003-0.56297 0.68683 1.0987 0.9003 0.56265-0.68715zm2.1972 1.8003-0.56297 0.68683 1.0984 0.89999 0.56297-0.68683zm2.1968 1.8003-0.56297 0.68683 1.0987 0.89998 0.56265-0.68683zm2.1968 1.8-0.56265 0.68715 1.0984 0.89998 0.56297-0.68683zm2.1972 1.8003-0.56297 0.68683 1.0987 0.90031 0.56265-0.68683zm2.1968 1.8003-0.56265 0.68683 1.0984 0.90031 0.56297-0.68715zm2.1972 1.8003-0.56297 0.68683 0.26724 0.21892 0.56297-0.68683z" color="#000000" style="-inkscape-stroke:none"/>
     <path d="m14.16 31.729-0.22276 0.85966 1.3746 0.35622 0.22276-0.85966zm2.7496 0.71276-0.22308 0.85966 1.3749 0.35622 0.22276-0.85966zm2.7492 0.71275-0.22276 0.85966 1.3746 0.35654 0.22308-0.85966zm2.7496 0.71276-0.22275 0.85966 1.3746 0.35654 0.22276-0.85966zm2.7496 0.71275-0.22308 0.85966 1.3749 0.35654 0.22276-0.85966zm2.7492 0.71308-0.22276 0.85966 1.3746 0.35622 0.22308-0.85966zm2.7496 0.71276-0.22276 0.85966 1.3746 0.35622 0.22276-0.85966z" color="#000000" style="-inkscape-stroke:none"/>
     <path d="m14.414 31.906-0.73004 0.50536 0.80845 1.1679 0.73004-0.50568zm1.6169 2.3351-0.73004 0.50568 0.80845 1.1675 0.73004-0.50536zm1.6169 2.3354-0.73004 0.50536 0.80845 1.1679 0.73004-0.50568zm1.6169 2.3351-0.73004 0.50568 0.80845 1.1675 0.73004-0.50536zm1.6169 2.3354-0.73004 0.50536 0.80813 1.1679 0.73036-0.50568zm1.6169 2.3351-0.73036 0.50568 0.80845 1.1676 0.73036-0.50568zm1.6169 2.3354-0.73036 0.50536 0.80845 1.1675 0.73004-0.50536zm1.6166 2.3351-0.73004 0.50568 0.80845 1.1675 0.73004-0.50568zm1.6169 2.3354-0.73004 0.50536 0.80845 1.1675 0.73004-0.50536zm1.6169 2.3351-0.73004 0.50568 0.80845 1.1675 0.73004-0.50568zm1.6169 2.3354-0.73004 0.50536 0.80845 1.1675 0.73004-0.50536zm1.6169 2.3351-0.73004 0.50568 0.0576 0.08322 0.73004-0.50568z" color="#000000" style="-inkscape-stroke:none"/>
     <path d="m14.343 20.554-0.58826 0.66539 1.0639 0.94063 0.58826-0.66539zm2.128 1.8813-0.58826 0.66539 1.0639 0.94063 0.58825-0.66539zm2.128 1.8813-0.58825 0.66539 1.0639 0.94063 0.58826-0.66539zm2.128 1.8813-0.58825 0.66539 1.0639 0.94063 0.58825-0.66539zm2.128 1.8813-0.58825 0.66539 1.0638 0.94063 0.58826-0.66539zm2.128 1.8813-0.58825 0.66539 1.0638 0.94063 0.58826-0.66539zm2.128 1.8813-0.58826 0.66539 1.0639 0.94063 0.58825-0.66539zm2.128 1.8813-0.58826 0.66539 1.0639 0.94063 0.58826-0.66539zm2.128 1.8813-0.58826 0.66539 0.88718 0.78413 0.58794-0.66539z" color="#000000" style="-inkscape-stroke:none"/>
     <path d="m14.448 20.694-0.79981 0.38566 0.61706 1.2792 0.79981-0.38598zm1.2341 2.5582-0.79981 0.38598 0.61706 1.2789 0.79981-0.38566zm1.2341 2.5582-0.79981 0.38598 0.61706 1.2789 0.79981-0.38566zm1.2341 2.5582-0.79981 0.38598 0.61706 1.2792 0.79981-0.38598zm1.2341 2.5585-0.79981 0.38566 0.61706 1.2792 0.79981-0.38598zm1.2341 2.5582-0.79981 0.38566 0.61706 1.2792 0.79981-0.38598zm1.2341 2.5582-0.79981 0.38598 0.61706 1.2789 0.79981-0.38566zm1.2341 2.5582-0.79981 0.38598 0.61706 1.2789 0.79981-0.38566zm1.2341 2.5582-0.79981 0.38598 0.61706 1.2792 0.79981-0.38598zm1.2341 2.5585-0.79981 0.38566 0.61706 1.2792 0.79981-0.38598zm1.2341 2.5582-0.79981 0.38566 0.61706 1.2792 0.79981-0.38598zm1.2341 2.5582-0.79981 0.38598 0.61706 1.2789 0.79981-0.38566zm1.2341 2.5582-0.79981 0.38598 0.61706 1.2789 0.79981-0.38566zm1.2341 2.5582-0.79981 0.38598 0.61706 1.2792 0.79981-0.38598zm1.2341 2.5585-0.79981 0.38566 0.55113 1.1426 0.79981-0.38566z" color="#000000" style="-inkscape-stroke:none"/>
    </g>
    <g transform="matrix(.10247 0 0 .10247 -32.319 .23926)">
     <path d="m719.55 165.43 159.51 158.45-6.108 6.148-159.51-158.45zm152.89 131.33 9.671 36.261-36.325-9.43c-2.316-0.601-3.706-2.967-3.105-5.283 0.601-2.317 2.967-3.707 5.283-3.106l29.135 7.564-5.276 5.311-7.757-29.084c-0.617-2.312 0.758-4.687 3.07-5.303 2.312-0.617 4.687 0.758 5.304 3.07z"/>
     <path d="m717.5 352.17h158.54v8.666h-158.54zm134.73-14.577 32.417 18.91-32.417 18.91c-2.067 1.206-4.72 0.507-5.926-1.56s-0.508-4.72 1.559-5.926l26-15.167v7.486l-26-15.166c-2.067-1.206-2.765-3.86-1.559-5.927s3.859-2.765 5.926-1.56z"/>
     <path d="m719.55 552.07 159.51-158.45-6.108-6.148-159.51 158.45zm152.89-131.33 9.671-36.261-36.325 9.43c-2.316 0.601-3.706 2.967-3.105 5.283 0.601 2.317 2.967 3.707 5.283 3.106l29.135-7.564-5.276-5.311-7.757 29.084c-0.617 2.312 0.758 4.687 3.07 5.303 2.312 0.617 4.687-0.758 5.304-3.07z"/>
     <g fill-rule="evenodd">
      <path d="m345 182.33c0-5.154 4.179-9.333 9.333-9.333h88.334c5.154 0 9.333 4.179 9.333 9.333v37.334c0 5.154-4.179 9.333-9.333 9.333h-88.334c-5.154 0-9.333-4.179-9.333-9.333z"/>
      <path d="m344 292.33c0-5.155 4.179-9.334 9.334-9.334h89.332c5.155 0 9.334 4.179 9.334 9.334v37.332c0 5.155-4.179 9.334-9.334 9.334h-89.332c-5.155 0-9.334-4.179-9.334-9.334z"/>
      <path d="m344 400.33c0-5.155 4.179-9.334 9.334-9.334h89.332c5.155 0 9.334 4.179 9.334 9.334v37.332c0 5.155-4.179 9.334-9.334 9.334h-89.332c-5.155 0-9.334-4.179-9.334-9.334z"/>
      <path d="m344 509.33c0-5.155 4.179-9.334 9.334-9.334h89.332c5.155 0 9.334 4.179 9.334 9.334v37.332c0 5.155-4.179 9.334-9.334 9.334h-89.332c-5.155 0-9.334-4.179-9.334-9.334z"/>
     </g>
     <g fill-rule="evenodd" stroke-miterlimit="8" stroke-width="17.333">
      <path d="m672.5 95.834c-29.589 0-53.666 24.405-53.666 54.166s24.077 54.166 53.666 54.166 53.666-24.405 53.666-54.166-24.077-54.166-53.666-54.166zm0 17.332c20.117 0 36.334 16.337 36.334 36.834s-16.217 36.834-36.334 36.834-36.334-16.337-36.334-36.834 16.217-36.834 36.334-36.834z" color="#000000" style="-inkscape-stroke:none"/>
      <path d="m672.5 302.83c-29.537 0-53.666 24.129-53.666 53.666s24.129 53.666 53.666 53.666 53.666-24.129 53.666-53.666-24.129-53.666-53.666-53.666zm0 17.332c20.169 0 36.334 16.165 36.334 36.334s-16.165 36.334-36.334 36.334-36.334-16.165-36.334-36.334 16.165-36.334 36.334-36.334z" color="#000000" style="-inkscape-stroke:none"/>
      <path d="m671.5 508.83c-29.589 0-53.666 24.405-53.666 54.166s24.077 54.166 53.666 54.166 53.666-24.405 53.666-54.166-24.077-54.166-53.666-54.166zm0 17.332c20.117 0 36.334 16.337 36.334 36.834s-16.217 36.834-36.334 36.834-36.334-16.337-36.334-36.834 16.217-36.834 36.334-36.834z" color="#000000"/>
     </g>
    </g>
    <path d="m58.981 34.805c0-0.52813 0.42822-0.95634 0.95634-0.95634h9.0515c0.52813 0 0.95634 0.42822 0.95634 0.95634v3.8256c0 0.52812-0.42822 0.95634-0.95634 0.95634h-9.0515c-0.52813 0-0.95634-0.42822-0.95634-0.95634z" fill-rule="evenodd" stroke-width=".10247"/>
   </g>
   <g transform="matrix(1.5197 0 0 1.5197 1589.6 61.455)">
    <path d="m31.019 14.282c-9.0949 0-16.5 7.4051-16.5 16.5s7.4051 16.5 16.5 16.5c3.5417 0 6.8239-1.1268 9.5156-3.0352l11.879 14.205c0.78147 0.81613 1.8213 1.2656 2.9277 1.2656 1.1073 0 2.1453-0.44953 2.9277-1.2656 1.6154-1.6841 1.6154-4.4253 0-6.1094l-14.314-11.34c2.228-2.8134 3.5645-6.3634 3.5645-10.221 0-9.0949-7.4051-16.5-16.5-16.5zm0 3c7.4736 0 13.5 6.0264 13.5 13.5s-6.0264 13.5-13.5 13.5c-7.4736 0-13.5-6.0264-13.5-13.5s6.0264-13.5 13.5-13.5z" stroke-width="0" style="paint-order:markers fill stroke"/>
    <path d="m37.295 21.702a1.3 1.3 0 0 0-1.2988 1.2988 1.3 1.3 0 0 0 0.2832 0.80664l-2.5059 2.9414a1.3 1.3 0 0 0-0.63672-0.16601 1.3 1.3 0 0 0-1.0273 0.50781l-1.8867-0.99609a1.3 1.3 0 0 0 0.05469-0.37305 1.3 1.3 0 0 0-1.3008-1.3008 1.3 1.3 0 0 0-1.2988 1.3008 1.3 1.3 0 0 0 0.23633 0.74414l-2.3906 2.4785a1.3 1.3 0 0 0-0.70508-0.20899 1.3 1.3 0 0 0-1.3008 1.3008 1.3 1.3 0 0 0 1.3008 1.2988 1.3 1.3 0 0 0 1.3008-1.2988 1.3 1.3 0 0 0-0.23633-0.74414l2.3887-2.4785a1.3 1.3 0 0 0 0.70508 0.20899 1.3 1.3 0 0 0 1.0098-0.48633l1.8984 1.002a1.3 1.3 0 0 0-0.04883 0.34375 1.3 1.3 0 0 0 1.3008 1.3008 1.3 1.3 0 0 0 1.2988-1.3008 1.3 1.3 0 0 0-0.28125-0.80664l2.5059-2.9434a1.3 1.3 0 0 0 0.63477 0.16992 1.3 1.3 0 0 0 1.3008-1.3008 1.3 1.3 0 0 0-1.3008-1.2988z" style="paint-order:markers fill stroke"/>
    <g transform="translate(-.11712 -.14632)" stroke-width="0">
     <rect x="35.728" y="27.251" width="3.3675" height="13.056" ry=".88981" style="paint-order:markers fill stroke"/>
     <rect x="31.569" y="32.017" width="3.3675" height="8.2893" ry=".56496" style="paint-order:markers fill stroke"/>
     <rect x="27.41" y="29.789" width="3.3675" height="10.517" ry=".71679" style="paint-order:markers fill stroke"/>
     <rect x="23.251" y="34.245" width="3.3675" height="6.0615" ry=".41313" style="paint-order:markers fill stroke"/>
    </g>
   </g>
  </g>
  <g fill="#525252" font-family="Arial" font-size="32px" letter-spacing=".6px" stroke-linecap="round" stroke-linejoin="round" stroke-width="0" word-spacing="0px">
   <text transform="translate(-6.8766e-6)" x="1727.0704" y="350.64725" font-weight="bold" style="line-height:0;paint-order:markers fill stroke" xml:space="preserve"><tspan x="1727.0704" y="350.64725" fill="#525252" font-family="Arial" font-size="32px" font-weight="normal" letter-spacing=".6px" stroke-width="0">Reverse</tspan></text>
   <text transform="translate(-6.8766e-6)" x="1758.3829" y="389.45975" font-weight="bold" style="line-height:0;paint-order:markers fill stroke" xml:space="preserve"><tspan x="1758.3829" y="389.45975" fill="#525252" font-family="Arial" font-size="32px" font-weight="normal" letter-spacing=".6px" stroke-width="0">ETL</tspan></text>
   <text transform="translate(4.6038e-5)" x="1726.246" y="233.84825" style="line-height:0;paint-order:markers fill stroke" xml:space="preserve"><tspan x="1726.246" y="233.84825">Machine</tspan><tspan x="1726.246" y="233.84825"/></text>
   <text transform="translate(4.6038e-5)" x="1724.1903" y="273.02524" style="line-height:0;paint-order:markers fill stroke" xml:space="preserve"><tspan x="1724.1903" y="273.02524">Learning</tspan><tspan x="1724.1903" y="273.02524"/></text>
   <text x="1722.2458" y="129.14825" font-weight="bold" style="line-height:0;paint-order:markers fill stroke" xml:space="preserve"><tspan x="1722.2458" y="129.14825" fill="#525252" font-family="Arial" font-size="32px" font-weight="normal" letter-spacing=".6px" stroke-width="0">Analytics</tspan></text>
  </g>
 </g>
</svg>
