<?xml version="1.0" encoding="UTF-8" standalone="no"?><!DOCTYPE svg PUBLIC "-//W3C//DTD SVG 1.1//EN" "http://www.w3.org/Graphics/SVG/1.1/DTD/svg11.dtd"><svg width="100%" height="100%" viewBox="0 0 514 119" version="1.1" xmlns="http://www.w3.org/2000/svg" xmlns:xlink="http://www.w3.org/1999/xlink" xml:space="preserve" xmlns:serif="http://www.serif.com/" style="fill-rule:evenodd;clip-rule:evenodd;stroke-linejoin:round;"><rect x="1" y="1" width="69.459" height="25.384" style="fill:#eee;"/><rect x="70.459" y="1" width="134.264" height="25.384" style="fill:#ffeceb;"/><rect x="1" y="26.384" width="69.459" height="25.384" style="fill:#eee;"/><rect x="70.459" y="26.384" width="134.264" height="25.384" style="fill:#ffeceb;"/><rect x="1" y="51.768" width="69.459" height="25.384" style="fill:#eee;"/><rect x="70.459" y="51.768" width="134.264" height="25.384" style="fill:#ffeceb;"/><rect x="1" y="77.152" width="69.459" height="25.384" style="fill:#eee;"/><rect x="70.459" y="77.152" width="134.264" height="25.384" style="fill:#ffeceb;"/><path d="M70.459,0.5l-0,102.536" style="fill:none;fill-rule:nonzero;stroke:#fff;stroke-width:1px;"/><path d="M0.5,26.384l204.723,-0" style="fill:none;fill-rule:nonzero;stroke:#fff;stroke-width:1px;"/><path d="M0.5,51.768l204.723,-0" style="fill:none;fill-rule:nonzero;stroke:#fff;stroke-width:1px;"/><path d="M0.5,77.152l204.723,-0" style="fill:none;fill-rule:nonzero;stroke:#fff;stroke-width:1px;"/><path d="M1,0.5l-0,102.536" style="fill:none;fill-rule:nonzero;stroke:#fff;stroke-width:1px;"/><path d="M204.723,0.5l-0.001,102.536" style="fill:none;fill-rule:nonzero;stroke:#fff;stroke-width:1px;"/><path d="M0.5,1l204.723,0" style="fill:none;fill-rule:nonzero;stroke:#fff;stroke-width:1px;"/><path d="M0.5,102.536l204.723,-0" style="fill:none;fill-rule:nonzero;stroke:#fff;stroke-width:1px;"/><rect x="308.813" y="1" width="69.459" height="25.384" style="fill:#eee;"/><rect x="378.272" y="1" width="134.264" height="25.384" style="fill:#ffeceb;"/><rect x="308.813" y="26.384" width="69.459" height="25.384" style="fill:#eee;"/><rect x="378.272" y="26.384" width="134.264" height="25.384" style="fill:#ffeceb;"/><rect x="308.813" y="51.768" width="69.459" height="25.384" style="fill:#eee;"/><rect x="378.272" y="51.768" width="134.264" height="25.384" style="fill:#ffeceb;"/><rect x="308.813" y="77.152" width="69.459" height="25.384" style="fill:#eee;"/><rect x="378.272" y="77.152" width="134.264" height="25.384" style="fill:#ffeceb;"/><text x="20.165px" y="17.054px" style="font-family:'Arial-BoldMT', 'Arial', sans-serif;font-weight:700;font-size:10px;fill:#535353;">sale id</text><text x="99.243px" y="17.054px" style="font-family:'Arial-BoldMT', 'Arial', sans-serif;font-weight:700;font-size:10px;fill:#535353;">sale price (USD)</text><text x="32.949px" y="42.438px" style="font-family:'ArialMT', 'Arial', sans-serif;font-size:10px;fill:#535353;">1</text><text x="132.029px" y="42.438px" style="font-family:'ArialMT', 'Arial', sans-serif;font-size:10px;fill:#535353;">10</text><text x="32.949px" y="67.822px" style="font-family:'ArialMT', 'Arial', sans-serif;font-size:10px;fill:#535353;">2</text><text x="132.029px" y="67.822px" style="font-family:'ArialMT', 'Arial', sans-serif;font-size:10px;fill:#535353;">20</text><text x="32.949px" y="93.206px" style="font-family:'ArialMT', 'Arial', sans-serif;font-size:10px;fill:#535353;">3</text><text x="132.029px" y="93.206px" style="font-family:'ArialMT', 'Arial', sans-serif;font-size:10px;fill:#535353;">50</text><text x="327.978px" y="17.054px" style="font-family:'Arial-BoldMT', 'Arial', sans-serif;font-weight:700;font-size:10px;fill:#535353;">sale id</text><text x="407.056px" y="17.054px" style="font-family:'Arial-BoldMT', 'Arial', sans-serif;font-weight:700;font-size:10px;fill:#535353;">sale price (EUR)</text><text x="340.762px" y="42.438px" style="font-family:'ArialMT', 'Arial', sans-serif;font-size:10px;fill:#535353;">1</text><text x="435.672px" y="42.438px" style="font-family:'ArialMT', 'Arial', sans-serif;font-size:10px;fill:#535353;">9.15</text><text x="340.762px" y="67.822px" style="font-family:'ArialMT', 'Arial', sans-serif;font-size:10px;fill:#535353;">2</text><text x="432.891px" y="67.822px" style="font-family:'ArialMT', 'Arial', sans-serif;font-size:10px;fill:#535353;">18.31</text><text x="340.762px" y="93.206px" style="font-family:'ArialMT', 'Arial', sans-serif;font-size:10px;fill:#535353;">3</text><text x="432.891px" y="93.206px" style="font-family:'ArialMT', 'Arial', sans-serif;font-size:10px;fill:#535353;">45.77</text><g transform="matrix(1,0,0,1,-31.4619,-231.444)"><text x="139.415px" y="350.108px" style="font-family:'Arial-BoldMT', 'Arial', sans-serif;font-weight:700;font-size:13px;fill:#535353;">T<tspan x="146.39px 154.331px " y="350.108px 350.108px ">ot</tspan>al</text><text x="169.499px" y="350.108px" style="font-family:'ArialMT', 'Arial', sans-serif;font-size:13px;fill:#535353;">: 80</text></g><g transform="matrix(1,0,0,1,-31.4619,-231.444)"><text x="443.507px" y="350.108px" style="font-family:'Arial-BoldMT', 'Arial', sans-serif;font-weight:700;font-size:13px;fill:#535353;">T<tspan x="450.482px 458.421px " y="350.108px 350.108px ">ot</tspan>al</text><text x="473.588px" y="350.108px" style="font-family:'ArialMT', 'Arial', sans-serif;font-size:13px;fill:#535353;">:73.23</text></g><path d="M378.272,0.5l-0,102.536" style="fill:none;fill-rule:nonzero;stroke:#fff;stroke-width:1px;"/><path d="M308.313,26.384l204.722,-0" style="fill:none;fill-rule:nonzero;stroke:#fff;stroke-width:1px;"/><path d="M308.313,51.768l204.722,-0" style="fill:none;fill-rule:nonzero;stroke:#fff;stroke-width:1px;"/><path d="M308.313,77.152l204.722,-0" style="fill:none;fill-rule:nonzero;stroke:#fff;stroke-width:1px;"/><path d="M308.813,0.5l-0,102.536" style="fill:none;fill-rule:nonzero;stroke:#fff;stroke-width:1px;"/><path d="M512.535,0.5l0,102.536" style="fill:none;fill-rule:nonzero;stroke:#fff;stroke-width:1px;"/><path d="M308.313,1l204.722,0" style="fill:none;fill-rule:nonzero;stroke:#fff;stroke-width:1px;"/><path d="M308.313,102.536l204.722,-0" style="fill:none;fill-rule:nonzero;stroke:#fff;stroke-width:1px;"/><path d="M231.059,46.681l42.818,-0" style="fill:none;fill-rule:nonzero;stroke:#909090;stroke-width:2px;"/><path d="M272.877,51.481l9.6,-4.8l-9.6,-4.8l-0,9.6Z" style="fill:#909090;fill-rule:nonzero;"/></svg>