<?xml version="1.0" encoding="UTF-8"?>
<!-- Created with Inkscape (http://www.inkscape.org/) -->
<svg width="900" height="305" version="1.1" viewBox="0 0 900 305" xmlns="http://www.w3.org/2000/svg">
 <defs>
  <filter id="filter132" x="-.043722" y="-.49997" width="1.0874" height="2.1562" color-interpolation-filters="sRGB">
   <feFlood flood-color="rgb(0,0,0)" flood-opacity=".49804" in="SourceGraphic" result="flood"/>
   <feGaussianBlur in="SourceGraphic" result="blur" stdDeviation="2.000000"/>
   <feOffset dx="0.000000" dy="1.500000" in="blur" result="offset"/>
   <feComposite in="flood" in2="offset" operator="in" result="comp1"/>
   <feComposite in="comp1" in2="comp1" operator="atop" result="comp2"/>
  </filter>
  <filter id="filter135" x="-.036076" y="-.49997" width="1.0722" height="2.1562" color-interpolation-filters="sRGB">
   <feFlood flood-color="rgb(0,0,0)" flood-opacity=".49804" in="SourceGraphic" result="flood"/>
   <feGaussianBlur in="SourceGraphic" result="blur" stdDeviation="2.000000"/>
   <feOffset dx="0.000000" dy="1.500000" in="blur" result="offset"/>
   <feComposite in="flood" in2="offset" operator="in" result="comp1"/>
   <feComposite in="comp1" in2="comp1" operator="atop" result="comp2"/>
  </filter>
  <filter id="filter148" x="-.022434" y="-.032669" width="1.0449" height="1.0755" color-interpolation-filters="sRGB">
   <feFlood flood-color="rgb(0,0,0)" flood-opacity=".49804" in="SourceGraphic" result="flood"/>
   <feGaussianBlur in="SourceGraphic" result="blur" stdDeviation="2.000000"/>
   <feOffset dx="0.000000" dy="1.500000" in="blur" result="offset"/>
   <feComposite in="flood" in2="offset" operator="in" result="comp1"/>
   <feComposite in="comp1" in2="comp1" operator="atop" result="comp2"/>
  </filter>
  <filter id="filter88" x="-.047968" y="-.079668" width="1.0959" height="1.1842" color-interpolation-filters="sRGB">
   <feFlood flood-color="rgb(0,0,0)" flood-opacity=".49804" in="SourceGraphic" result="flood"/>
   <feGaussianBlur in="SourceGraphic" result="blur" stdDeviation="2.000000"/>
   <feOffset dx="0.000000" dy="1.500000" in="blur" result="offset"/>
   <feComposite in="flood" in2="offset" operator="in" result="comp1"/>
   <feComposite in="comp1" in2="comp1" operator="atop" result="comp2"/>
  </filter>
 </defs>
 <g transform="translate(-37.354 25.679)">
  <path transform="matrix(1.3333,0,0,1.3333,193.7,65.703)" d="m15.295 0h27.176c4.4883 0 7.1813 0 8.9767 0.74953 2.5881 0.94201 4.6269 2.9808 5.5689 5.5689 0.7495 1.7953 0.7495 4.4884 0.7495 8.9768v94.495c0 4.488 0 7.181-0.7495 8.976-0.942 2.589-2.9808 4.627-5.5689 5.569-1.7954 0.75-4.4884 0.75-8.9767 0.75h-27.176c-4.4884 0-7.1814 0-8.9768-0.75-2.5881-0.942-4.6269-2.98-5.5689-5.569-0.74953-1.795-0.74953-4.488-0.74953-8.976v-94.495c0-4.4884 0-7.1814 0.74953-8.9768 0.94201-2.5881 2.9808-4.6269 5.5689-5.5689 1.7953-0.74953 4.4884-0.74953 8.9768-0.74953z" fill="#fff" stroke="#909090" stroke-linejoin="round" stroke-width="2"/>
  <path d="m239.94 203.8c-2.9267 0-7.8796 0.42274-7.8796 2.007v6.7118c0 1.0097 2.0116 1.5472 4.2282 1.8046v1.5513c0 0.28112-0.22926 0.5105-0.5105 0.5105h-2.55c-0.64399 0-1.1678 0.52388-1.1678 1.1678v1.3687c-0.94292 0.0977-1.8047 0.60031-2.35 1.3878-1.0252 1.4801-0.65498 3.5181 0.82565 4.5437l0.0404 0.0284c0.53818 0.3599 1.1652 0.5504 1.8125 0.551h9e-3c0.64317 0 1.2666-0.18746 1.8014-0.54143l0.0547-0.0382c0.32356-0.22404 0.60085-0.50146 0.82487-0.82486 1.0252-1.4802 0.65538-3.5184-0.82487-4.5436-0.46055-0.31895-0.98686-0.51132-1.537-0.56526v-1.3663c0-0.28112 0.22925-0.51051 0.5105-0.51051h2.55c0.64399 0 1.1678-0.52388 1.1678-1.1678v-1.483c0.92614 0.0844 1.8573 0.12417 2.6652 0.13258v4.3973c-0.94288 0.0977-1.8039 0.60028-2.3492 1.3878-1.0252 1.4801-0.65498 3.5181 0.82564 4.5437l0.0396 0.0287c0.53818 0.35988 1.1652 0.55036 1.8125 0.55097h9e-3c0.64309 0 1.2666-0.18747 1.8014-0.54143l0.0547-0.0382c0.32354-0.22407 0.60083-0.50135 0.82488-0.82487 0.4966-0.71698 0.68468-1.5848 0.52873-2.4429-0.15577-0.85814-0.63662-1.6041-1.3536-2.1007-0.46054-0.31895-0.98674-0.51131-1.537-0.56526v-4.3949c0.81763-8e-3 1.7613-0.0492 2.6985-0.13575v1.4862c0 0.64396 0.52372 1.1678 1.1678 1.1678h2.5508c0.2811 0 0.50968 0.22936 0.50968 0.5105v1.3655c-0.95612 0.0894-1.8308 0.59416-2.3825 1.3909-1.0252 1.4801-0.65502 3.5181 0.82564 4.5437l0.0396 0.0287c0.53813 0.35988 1.1651 0.55037 1.8125 0.55098h9e-3c0.6431 0 1.2666-0.18746 1.8014-0.54144l0.0547-0.0382c0.32354-0.22407 0.60095-0.50149 0.82489-0.82487 0.49659-0.717 0.6845-1.5848 0.52874-2.4429-0.15593-0.85813-0.63651-1.6041-1.3536-2.1007-0.45106-0.31261-0.96486-0.50388-1.5029-0.56209v-1.3695c0-0.64394-0.52387-1.1678-1.1678-1.1678h-2.5508c-0.28127 0-0.51052-0.22938-0.51052-0.51051v-1.5553c2.2034-0.25895 4.1949-0.79606 4.1949-1.8006v-6.7118c0-1.5842-4.953-2.007-7.8796-2.007zm0 0.65737v7.9e-4c6.4167 0 7.2191 1.3491 7.2175 1.3759-0.43535 1.9188-14.392 1.4071-14.44-0.0382 0.11846-0.40524 2.2876-1.3386 7.2232-1.3386zm-7.2183 4.731c0.48811 1.6838 13.846 1.6989 14.434 7e-3l5e-3 0.85979c-2.5064 1.4906-11.938 1.4906-14.444 0zm-0.33345 10.372h0.0175c0.86069 0 1.6644 0.42368 2.1507 1.1337 0.39361 0.57464 0.54005 1.2683 0.41204 1.953-0.088 0.47013-0.29814 0.89652-0.60732 1.2456-0.11184-0.59399-0.48649-1.096-0.99795-1.3814 0.24906-0.24934 0.4033-0.59379 0.4033-0.97332 0-0.75967-0.61782-1.3774-1.3774-1.3774-0.75966 0-1.3774 0.61772-1.3774 1.3774 0 0.37954 0.15422 0.72398 0.40331 0.97332-0.50623 0.28243-0.87872 0.77695-0.99478 1.3631-0.40556-0.46838-0.63626-1.0723-0.63672-1.7053-4e-4 -0.69659 0.27003-1.3515 0.76216-1.8442 0.49216-0.49279 1.1466-0.7641 1.8426-0.76455zm7.5508 0h0.0175c0.86063 0 1.6643 0.42368 2.1507 1.1337 0.39359 0.57464 0.54005 1.2683 0.41204 1.953-0.088 0.47013-0.29813 0.89652-0.60731 1.2456-0.11173-0.59399-0.4864-1.096-0.99796-1.3814 0.24919-0.24934 0.4033-0.59379 0.4033-0.97332 0-0.75967-0.61772-1.3774-1.3774-1.3774s-1.3775 0.61772-1.3775 1.3774c0 0.37954 0.15423 0.72398 0.40332 0.97332-0.50618 0.28243-0.87877 0.7771-0.99478 1.3631-0.40558-0.46838-0.63627-1.0723-0.63671-1.7053-4.1e-4 -0.69659 0.27002-1.3515 0.76214-1.8442 0.49218-0.49279 1.1467-0.7641 1.8427-0.76455zm7.5508 0h0.0175c0.86076 0 1.6652 0.42368 2.1515 1.1337 0.68802 1.0046 0.57484 2.3238-0.1961 3.1979-0.11207-0.59371-0.48683-1.0954-0.99795-1.3806 0.24905-0.24935 0.40332-0.59379 0.40332-0.97331 0-0.75969-0.61773-1.3774-1.3774-1.3774-0.75968 0-1.3774 0.61772-1.3774 1.3774 0 0.37954 0.15411 0.72397 0.4033 0.97331-0.50623 0.28245-0.87874 0.77696-0.99478 1.3631-0.40557-0.4684-0.63642-1.0723-0.63671-1.7053-4.1e-4 -0.69659 0.27012-1.3515 0.76216-1.8442 0.49216-0.49279 1.1467-0.7641 1.8427-0.76457z" fill="#666" stroke-width=".14796"/>
  <g transform="matrix(.49307 0 0 .49307 221.78 163.5)">
   <path transform="translate(0,-1.0676)" d="m37.051 26.551a9.741 10.55 0 0 0-9.623 8.9473 6.191 6.0615 0 0 0-0.87695-0.06055 6.191 6.0615 0 0 0-6.1895 6.0605 6.191 6.0615 0 0 0 5.9043 6.0312v-6.4082c0-1.1379 0.91676-2.0547 2.0547-2.0547h17.443c1.1379 0 2.0547 0.91676 2.0547 2.0547v6.1504a6.9961 6.6552 0 0 0 6.668-6.623 6.9961 6.6552 0 0 0-6.9961-6.6562 6.9961 6.6552 0 0 0-1.1074 0.0918 9.741 10.55 0 0 0-9.332-7.5332z" fill="#666" style="paint-order:markers fill stroke"/>
   <g transform="matrix(1.0158 0 0 1.0121 -.58576 .94479)">
    <rect x="28.269" y="38.243" width="17.461" height="22.696" ry="1.0568" fill="#fff" stroke="#666" stroke-linecap="round" stroke-linejoin="round" stroke-width="1.25" style="paint-order:markers fill stroke"/>
    <path d="m37 47.382c-0.84276 0-1.6359 0.16552-2.3809 0.49805s-1.4145 0.80382-2.0078 1.4121c-0.13484 0.13788-0.20615 0.30896-0.21289 0.51172-0.0067 0.20276 0.05052 0.3755 0.17188 0.52148 0.11462 0.13788 0.25723 0.20884 0.42578 0.21289 0.16855 0.0041 0.32024-0.05773 0.45508-0.1875 0.48543-0.47852 1.0294-0.84969 1.6328-1.1133 0.60342-0.26359 1.2418-0.39648 1.916-0.39648s1.3126 0.13289 1.916 0.39648c0.60342 0.26359 1.1474 0.63476 1.6328 1.1133 0.13484 0.12977 0.28653 0.19156 0.45508 0.1875 0.16855-0.0041 0.31117-0.07501 0.42578-0.21289 0.12136-0.14599 0.17862-0.31872 0.17188-0.52148-0.0067-0.20276-0.07805-0.37384-0.21289-0.51172-0.5933-0.60829-1.2628-1.0796-2.0078-1.4121-0.745-0.33253-1.5381-0.49805-2.3809-0.49805zm0 2.9199c-0.50566 0-0.98632 0.09456-1.4414 0.28516-0.45509 0.1906-0.86747 0.45624-1.2383 0.79688-0.13484 0.12166-0.20312 0.28176-0.20312 0.48047s0.05726 0.37159 0.17188 0.51758c0.11462 0.13788 0.25723 0.21064 0.42578 0.21875 0.16855 0.0081 0.32024-0.04466 0.45508-0.1582 0.2562-0.21087 0.53947-0.37639 0.84961-0.49805s0.63662-0.18359 0.98047-0.18359 0.67033 0.06194 0.98047 0.18359c0.31014 0.12166 0.59341 0.28718 0.84961 0.49805 0.13484 0.11355 0.28653 0.16812 0.45508 0.16406 0.16855-0.0041 0.31117-0.07501 0.42578-0.21289 0.12136-0.14599 0.17915-0.31692 0.17578-0.51562-0.0034-0.19871-0.07219-0.35881-0.20703-0.48047-0.37082-0.34064-0.78319-0.61004-1.2383-0.80469-0.45509-0.19465-0.93575-0.29102-1.4414-0.29102zm0 2.9199c-0.28317 0-0.52323 0.11636-0.71875 0.35156s-0.29297 0.52459-0.29297 0.86523 0.09745 0.62808 0.29297 0.86328 0.43558 0.35352 0.71875 0.35352 0.52323-0.11831 0.71875-0.35352c0.19552-0.2352 0.29297-0.52264 0.29297-0.86328s-0.09745-0.63003-0.29297-0.86523-0.43558-0.35156-0.71875-0.35156z" fill="#666" stroke-width=".011092"/>
    <path d="m37 44.709c-1.1518 0-2.2358 0.16048-3.254 0.48288s-1.9328 0.77934-2.7437 1.3691c-0.18428 0.13368-0.2821 0.29955-0.29131 0.49613-0.0092 0.19659 0.06969 0.36406 0.23553 0.5056 0.15664 0.13368 0.3502 0.20247 0.58056 0.2064 0.23035 0.0039 0.43759-0.05598 0.62188-0.18179 0.66342-0.46394 1.4087-0.82381 2.2334-1.0794 0.82467-0.25556 1.6962-0.38441 2.6177-0.38441 0.92142 0 1.793 0.12884 2.6177 0.38441 0.82467 0.25556 1.57 0.61543 2.2334 1.0794 0.18429 0.12582 0.39152 0.18572 0.62188 0.18179 0.23036-0.0039 0.42391-0.07271 0.58056-0.2064 0.16586-0.14154 0.24474-0.30902 0.23553-0.5056-0.0092-0.19658-0.10702-0.36245-0.29131-0.49613-0.81086-0.58976-1.7255-1.0467-2.7437-1.3691s-2.1022-0.48288-3.254-0.48288z" fill="#666" stroke-width=".011233"/>
   </g>
   <g transform="translate(0,-1.1996)" fill="#666">
    <path d="m37 10.176a3.2 3.2 0 0 0-3.1992 3.1992 3.2 3.2 0 0 0 2.3809 3.0879v7.0488h1.6367v-7.0488a3.2 3.2 0 0 0 2.3809-3.0879 3.2 3.2 0 0 0-3.1992-3.1992z" style="paint-order:markers fill stroke"/>
    <path d="m18.812 17.741c-1.2706 1.2275-1.3059 3.2525-0.07902 4.5237 1.0089 1.0412 2.5917 1.274 3.8577 0.56741l4.8965 5.0706 1.1774-1.1369-4.8965-5.0706c0.75036-1.2405 0.57297-2.8305-0.43233-3.8751-1.2275-1.2706-3.2525-1.3059-4.5237-0.07902z" style="paint-order:markers fill stroke"/>
    <path d="m55.188 17.741c1.2706 1.2275 1.3059 3.2525 0.07902 4.5237-1.0089 1.0412-2.5917 1.274-3.8577 0.56741l-4.8965 5.0706-1.1774-1.1369 4.8965-5.0706c-0.75036-1.2405-0.57297-2.8305 0.43233-3.8751 1.2275-1.2706 3.2525-1.3059 4.5237-0.07902z" style="paint-order:markers fill stroke"/>
   </g>
  </g>
  <g transform="matrix(.34139 0 0 .34139 227.44 133.63)" fill="#676767">
   <path d="m15.994 4.4473c-1.298 0-2.3906 1.0926-2.3906 2.3906v61.113c0 1.298 1.0926 2.3906 2.3906 2.3906h41.73c1.298 0 2.3887-1.0926 2.3887-2.3906v-50.521c0-7.166-5.8144-12.982-12.98-12.982zm0.60938 3h30.529c5.5559 0 9.9805 4.4265 9.9805 9.9824v49.912h-40.51z" color="#000000" stroke-linecap="round" stroke-linejoin="round" style="-inkscape-stroke:none;paint-order:markers fill stroke"/>
   <rect x="23.25" y="14.092" width="27.5" height="2.3" ry="1.1657" style="paint-order:markers fill stroke"/>
   <rect x="23.25" y="25.075" width="27.5" height="2.3" ry="1.1657" style="paint-order:markers fill stroke"/>
   <rect x="23.25" y="35.85" width="27.5" height="2.3" ry="1.1657" style="paint-order:markers fill stroke"/>
   <path d="m42.715 51.273v1.1133h1.252v5.4336h-1.207v1.1133h3.957v-1.1133h-1.209v-5.4336h1.1641v-1.1133h-2.7051z" style="paint-order:markers fill stroke"/>
   <path d="m35.514 58.908v-7.6354h2.474q1.4063 0 1.8333 0.11458 0.65625 0.17188 1.099 0.75 0.44271 0.57292 0.44271 1.4844 0 0.70313-0.25521 1.1823t-0.65104 0.75521q-0.39063 0.27083-0.79688 0.35938-0.55209 0.10938-1.599 0.10938h-1.0052v2.8802zm1.5417-6.3438v2.1667h0.84375q0.91146 0 1.2188-0.11979 0.30729-0.11979 0.47917-0.375 0.17708-0.25521 0.17708-0.59375 0-0.41667-0.24479-0.6875t-0.61979-0.33854q-0.27604-0.05208-1.1094-0.05208z" stroke-linecap="round" stroke-linejoin="round" stroke-width="3" style="paint-order:markers fill stroke" aria-label="P"/>
   <path d="m34.299 58.908h-1.6771l-0.66667-1.7344h-3.0521l-0.63021 1.7344h-1.6354l2.974-7.6354h1.6302zm-2.8386-3.0208-1.0521-2.8333-1.0313 2.8333z" stroke-linecap="round" stroke-linejoin="round" stroke-width="3" style="paint-order:markers fill stroke" aria-label="A"/>
  </g>
  <g transform="matrix(.3341 0 0 .3341 227.69 101.31)" fill="#666">
   <rect x="23.897" y="19.983" width="32" height="3" rx="1.6369" ry="1.8783" style="paint-order:markers fill stroke"/>
   <rect x="23.897" y="27.872" width="32" height="3" rx="1.6369" ry="1.8783" style="paint-order:markers fill stroke"/>
   <rect x="23.897" y="35.761" width="32" height="3" rx="1.6369" ry="1.8783" style="paint-order:markers fill stroke"/>
   <rect x="23.897" y="43.651" width="32" height="3" rx="1.6369" ry="1.8783" style="paint-order:markers fill stroke"/>
   <rect x="23.897" y="51.54" width="32" height="3" rx="1.6369" ry="1.8783" style="paint-order:markers fill stroke"/>
   <path d="m21.115 5.0684c-2.658 0-4.7637 2.2741-4.7637 4.9453v0.55469h-1.0371c-2.658 0-4.7637 2.274-4.7637 4.9453v48.797c0 2.6713 2.1057 4.9453 4.7637 4.9453h37.676c2.658 0 4.7656-2.274 4.7656-4.9453v-0.55469h1.0352c2.658 0 4.7637-2.2741 4.7637-4.9453v-42.281c0-0.40645-0.16492-0.7955-0.45703-1.0781l-10.301-9.9609c-0.53462-0.39611-0.97936-0.42188-1.0859-0.42188-10.196-0.00169-20.398 0-30.596 0zm0 3h28.822v5.2012c1.08e-4 2.6711 2.1057 4.9453 4.7637 4.9453h5.8535v40.596c0 1.1461-0.80531 1.9453-1.7637 1.9453h-37.676c-0.95836 0-1.7637-0.79924-1.7637-1.9453v-48.797c0-1.1461 0.80531-1.9453 1.7637-1.9453zm31.822 1.7324 5.5996 5.4141h-3.8359c-0.95836 0-1.7636-0.79916-1.7637-1.9453v-3.4687zm-37.623 3.7676h1.0371v45.242c0 2.6712 2.1057 4.9453 4.7637 4.9453h33.641v0.55469c0 1.146-0.80721 1.9453-1.7656 1.9453h-37.676c-0.95841 0-1.7637-0.79935-1.7637-1.9453v-48.797c0-1.146 0.80526-1.9453 1.7637-1.9453z" color="#000000" stroke-linecap="round" stroke-linejoin="round" style="-inkscape-stroke:none;paint-order:markers fill stroke"/>
  </g>
  <g transform="matrix(.31288 0 0 .31288 228.34 71.51)" fill="#666" stroke-linecap="round" stroke-linejoin="round">
   <g stroke-dasharray="10.4716, 3.49052" stroke-width="3.4905">
    <path d="m15.648 53.988v10h0.02734a21.811 6.2355 0 0 0 21.799 6.1719 21.811 6.2355 0 0 0 21.797-6.1719v-10h-0.01367a21.811 6.2355 0 0 1-21.797 6.1719 21.811 6.2355 0 0 1-21.799-6.1719zm40.232 6.0273a1.7 1.7 0 0 1 1.6992 1.6992 1.7 1.7 0 0 1-1.6992 1.6992 1.7 1.7 0 0 1-1.7012-1.6992 1.7 1.7 0 0 1 1.7012-1.6992zm-6 1.5039a1.7 1.7 0 0 1 1.6992 1.7012 1.7 1.7 0 0 1-1.6992 1.6992 1.7 1.7 0 0 1-1.7012-1.6992 1.7 1.7 0 0 1 1.7012-1.7012zm-6 0.76367a1.7 1.7 0 0 1 1.6992 1.6992 1.7 1.7 0 0 1-1.6992 1.6992 1.7 1.7 0 0 1-1.7012-1.6992 1.7 1.7 0 0 1 1.7012-1.6992z" style="paint-order:markers fill stroke"/>
    <path d="m15.649 40.961v10h0.02734a21.811 6.2355 0 0 0 21.799 6.1719 21.811 6.2355 0 0 0 21.797-6.1719v-10h-0.01367a21.811 6.2355 0 0 1-21.797 6.1719 21.811 6.2355 0 0 1-21.799-6.1719z" style="paint-order:markers fill stroke"/>
    <path d="m15.419 27.935v10h0.02734a21.811 6.2355 0 0 0 21.799 6.1719 21.811 6.2355 0 0 0 21.797-6.1719v-10h-0.01367a21.811 6.2355 0 0 1-21.797 6.1719 21.811 6.2355 0 0 1-21.799-6.1719z" style="paint-order:markers fill stroke"/>
    <path d="m15.42 14.909v10h0.02734a21.811 6.2355 0 0 0 21.799 6.1719 21.811 6.2355 0 0 0 21.797-6.1719v-10h-0.01367a21.811 6.2355 0 0 1-21.797 6.1719 21.811 6.2355 0 0 1-21.799-6.1719z" style="paint-order:markers fill stroke"/>
   </g>
   <ellipse cx="37.232" cy="10.908" rx="21.811" ry="7.1465" stroke-dasharray="7.5, 2.5" stroke-width="2.5" style="paint-order:markers fill stroke"/>
  </g>
  <text transform="matrix(0,-1.3333,1.3333,0,217.94,217.86)" xml:space="preserve"><tspan x="0 11.5552 20.454399 24.8992 33.798401 38.243198 48.915199 57.8144 66.7136 72.041603 80.041603 88.940804" y="0" fill="#525252" font-family="Arial" font-size="16px">Data Sources</tspan></text>
 </g>
 <g transform="translate(-37.654 -191.05)">
  <path transform="matrix(1.3333,0,0,1.3333,271.46,366.16)" d="m100.2-4.4335-0.0132 3.8013h-1e-3l-100.18-0.36768-0.0073242 1.9995 100.18 0.36768-0.0132 3.7998 9.6182-4.7651z" color="#000000" fill="#909090" filter="url(#filter132)" stroke-linejoin="round" style="-inkscape-stroke:none"/>
  <path transform="matrix(1.3333,0,0,1.3333,271.46,366.16)" d="m0 0 101.18 0.37051" fill="none" stroke="#909090" stroke-linejoin="round" stroke-width="2"/>
  <path transform="matrix(1.3333,0,0,-1.3333,0,540)" d="m303.76 125.21 9.618 4.765-9.583 4.835z" fill="#909090"/>
 </g>
 <text x="260.91916" y="162.30118" font-size="16px" stroke-width="1.3333" xml:space="preserve"><tspan x="260.91916 275.1485 287.01407 294.11807 302.42102 314.28662 326.15222" y="162.30118" fill="#346ac3" font-family="Arial" font-size="21.333px" font-weight="700" stroke-width="1.3333">Extract</tspan></text>
 <text x="264.77115" y="207.44385" font-size="16px" stroke-width="1.3333" xml:space="preserve"><tspan x="264.77115 270.98715 281.36954 294.85062 300.03622 310.41861 320.80103 325.9866" y="207.44385" fill="#a7a7a7" font-family="Arial" font-size="18.667px" stroke-width="1.3333">raw data</tspan></text>
 <g transform="translate(-37.654 -191.05)">
  <path transform="matrix(1.3333,0,0,1.3333,424.21,366.96)" d="m123.45-4.7903v3.7998l-123.45-0.010254v2.001l123.45 0.00879v3.8013l9.6006-4.7988z" color="#000000" fill="#909090" filter="url(#filter135)" stroke-linejoin="round" style="-inkscape-stroke:none"/>
  <path transform="matrix(1.3333,0,0,1.3333,424.21,366.96)" d="m0 0 124.45 0.010642" fill="none" stroke="#909090" stroke-linejoin="round" stroke-width="2"/>
  <path transform="matrix(1.3333,0,0,-1.3333,0,540)" d="m441.6 124.97 9.601 4.799-9.6 4.801z" fill="#909090"/>
 </g>
 <g transform="translate(155.02 73.062)" font-size="16px" stroke-width="1.3333">
  <text x="288.09091" y="89.212082" xml:space="preserve"><tspan x="288.09091 301.12131 314.15173 326.00879" y="89.212082" fill="#346ac3" font-family="Arial" font-size="21.333px" font-weight="700" stroke-width="1.3333">Load</tspan></text>
  <text x="278.37091" y="134.38141" xml:space="preserve"><tspan x="278.37091 284.58691 294.96933 308.45038 313.63599 324.01837 334.40079 339.5864" y="134.38141" fill="#a7a7a7" font-family="Arial" font-size="18.667px" stroke-width="1.3333">raw data</tspan></text>
 </g>
 <g transform="translate(-159.24 30.175)">
  <g fill="#fff" stroke-linejoin="round">
   <path transform="matrix(1.3333,0,0,1.3333,739.77,50.622)" d="m14.274-1.0003c-4.1761 0-6.7398-0.055146-8.7407 0.77344-2.6727 0.98094-4.7788 3.087-5.7598 5.7598-0.82858 2.0009-0.77344 4.5646-0.77344 8.7407v116.38c0 4.1754-0.055288 6.74 0.77344 8.7407 0.98094 2.6724 3.0869 4.7789 5.7598 5.7598 2.0011 0.82923 4.5646 0.77343 8.7407 0.77343h183.41c4.174 0 6.7376 0.0558 8.7378-0.77197 2.6747-0.98039 4.783-3.0879 5.7642-5.7612 0.82807-2.0006 0.77197-4.5653 0.77197-8.7407v-116.38c0-4.1761 0.056-6.7399-0.77197-8.7407-0.98116-2.6737-3.0896-4.7807-5.7642-5.7612-2.0001-0.82716-4.5638-0.77197-8.7378-0.77197z" color="#000000" filter="url(#filter148)" style="-inkscape-stroke:none"/>
   <path transform="matrix(1.3333,0,0,1.3333,739.77,50.622)" d="m14.274 0h183.41c4.189 0 6.702 0 8.377 0.6995 2.416 0.87912 4.319 2.7818 5.198 5.1972 0.699 1.6755 0.699 4.1887 0.699 8.3774v116.38c0 4.188 0 6.702-0.699 8.377-0.879 2.415-2.782 4.318-5.198 5.197-1.675 0.7-4.188 0.7-8.377 0.7h-183.41c-4.1887 0-6.7019 0-8.3774-0.7-2.4154-0.879-4.318-2.782-5.1972-5.197-0.6995-1.675-0.6995-4.189-0.6995-8.377v-116.38c0-4.1887 0-6.7019 0.6995-8.3774 0.87912-2.4154 2.7818-4.318 5.1972-5.1972 1.6755-0.6995 4.1887-0.6995 8.3774-0.6995z" stroke="#909090" stroke-width="2"/>
  </g>
  <g transform="matrix(.80652 0 0 .80652 782.79 82.615)" fill="#666" stroke-linecap="round" stroke-linejoin="round">
   <g stroke-dasharray="10.4716, 3.49052" stroke-width="3.4905">
    <path d="m15.648 53.988v10h0.02734a21.811 6.2355 0 0 0 21.799 6.1719 21.811 6.2355 0 0 0 21.797-6.1719v-10h-0.01367a21.811 6.2355 0 0 1-21.797 6.1719 21.811 6.2355 0 0 1-21.799-6.1719zm40.232 6.0273a1.7 1.7 0 0 1 1.6992 1.6992 1.7 1.7 0 0 1-1.6992 1.6992 1.7 1.7 0 0 1-1.7012-1.6992 1.7 1.7 0 0 1 1.7012-1.6992zm-6 1.5039a1.7 1.7 0 0 1 1.6992 1.7012 1.7 1.7 0 0 1-1.6992 1.6992 1.7 1.7 0 0 1-1.7012-1.6992 1.7 1.7 0 0 1 1.7012-1.7012zm-6 0.76367a1.7 1.7 0 0 1 1.6992 1.6992 1.7 1.7 0 0 1-1.6992 1.6992 1.7 1.7 0 0 1-1.7012-1.6992 1.7 1.7 0 0 1 1.7012-1.6992z" style="paint-order:markers fill stroke"/>
    <path d="m15.649 40.961v10h0.02734a21.811 6.2355 0 0 0 21.799 6.1719 21.811 6.2355 0 0 0 21.797-6.1719v-10h-0.01367a21.811 6.2355 0 0 1-21.797 6.1719 21.811 6.2355 0 0 1-21.799-6.1719z" style="paint-order:markers fill stroke"/>
    <path d="m15.419 27.935v10h0.02734a21.811 6.2355 0 0 0 21.799 6.1719 21.811 6.2355 0 0 0 21.797-6.1719v-10h-0.01367a21.811 6.2355 0 0 1-21.797 6.1719 21.811 6.2355 0 0 1-21.799-6.1719z" style="paint-order:markers fill stroke"/>
    <path d="m15.42 14.909v10h0.02734a21.811 6.2355 0 0 0 21.799 6.1719 21.811 6.2355 0 0 0 21.797-6.1719v-10h-0.01367a21.811 6.2355 0 0 1-21.797 6.1719 21.811 6.2355 0 0 1-21.799-6.1719z" style="paint-order:markers fill stroke"/>
   </g>
   <ellipse cx="37.232" cy="10.908" rx="21.811" ry="7.1465" stroke-dasharray="7.5, 2.5" stroke-width="2.5" style="paint-order:markers fill stroke"/>
  </g>
  <text transform="matrix(0,-1.3333,1.3333,0,768.61,232.87)" xml:space="preserve"><tspan x="0 8 16.8992 22.2272 31.1264 40.0256 44.470402 48.915199 60.470402 69.369598 77.369598 81.8144 85.369598 94.268799 103.168 107.6128 111.168 120.0672" y="0" fill="#525252" font-family="Arial" font-size="16px">Target Destination</tspan></text>
  <g transform="matrix(.95235 0 0 .95235 777.67 146.45)" fill="#666">
   <path d="m36.858 9.6462c-0.84669 0.056772-1.6461 0.38639-2.1209 0.81827-5.4687 5.5446-10.558 10.655-16.985 17.109-0.22122 0.29807-0.19983 0.71939 0.06827 0.99568 0.24838 0.25597 0.62778 0.30402 0.92442 0.14103 5.7128-5.6982 11.463-11.359 17.072-17.16 0.54953-0.54655 1.7554-0.50345 2.3661 0.0014 7.4098 7.5003 14.856 14.965 22.293 22.438 0.95022 0.95537 1.0067 2.1873 0.4181 2.7728l-0.17435 0.17349-7.58e-4 9.85e-4c-0.58879 0.58561-1.8201 0.52271-2.7703-0.43256l7.2e-5 -4.34e-4 -20.404-20.514c-0.29929-0.30074-0.78615-0.3008-1.0854 0l-20.406 20.516c-0.9502 0.95534-2.1816 1.0186-2.7703 0.43306l-0.17591-0.17492c-0.58868-0.58551-0.53204-1.8175 0.41811-2.7728 1.1833-1.2043 2.3723-2.4031 3.5611-3.602 0.14286-0.28481 0.09767-0.63964-0.13804-0.88256-0.29802-0.30712-0.78426-0.31547-1.0904-0.01844-1.1488 1.1316-2.2808 2.2804-3.4181 3.4236-1.4143 1.422-1.7279 3.6288-0.41213 4.9375l0.17591 0.17492c1.3158 1.3087 3.5208 0.9829 4.935-0.43904l19.864-19.97 19.861 19.969c1.414 1.4216 3.6182 1.7469 4.9341 0.43954l7.58e-4 -9.85e-4 0.17496-0.17338 7.58e-4 -9.85e-4c1.3159-1.3088 1.0016-3.5156-0.41262-4.9375-7.4726-7.4205-14.837-15.024-22.298-22.444-0.6637-0.66013-1.5573-0.87654-2.404-0.81977z" color="#000000" stroke-linecap="round" stroke-linejoin="round" stroke-width=".25515" style="-inkscape-stroke:none;paint-order:markers fill stroke"/>
   <path d="m36.966 27.84c-3.1557 0-5.9258 0.53942-7.9186 1.4457-1.9928 0.90626-3.2282 2.1945-3.2282 3.6932v15.657c0 1.499 1.2354 2.787 3.2282 3.6932 1.9928 0.90618 4.7629 1.4457 7.9186 1.4457 2.4833 0 4.3366-0.30411 6.2183-0.81977 0.30412-0.18315 0.47223-0.51816 0.39418-0.84867-0.10131-0.42903-0.53297-0.61287-0.89302-0.58107-1.7047 0.4924-3.5611 0.7142-5.7194 0.74103-2.8908 0-5.3416-0.49406-7.06-1.203-0.85918-0.35447-1.5349-0.76321-1.9894-1.1841-0.45446-0.42086-0.68272-0.84747-0.68272-1.2434v-2.6547c1.8772 1.5755 5.434 2.5769 9.7321 2.5769 4.2977 0 7.8547-1.0011 9.7321-2.5764v2.6541c-0.1163 1.0869-1.1779 1.66-2.0362 2.1473-0.24975 0.25229-0.33033 0.61876-0.17342 0.91993 0.16272 0.31233 0.52917 0.45485 0.89202 0.37674 1.234-0.64544 2.7329-1.7733 2.7329-3.444v-15.657c0-1.4987-1.2359-2.7869-3.2287-3.6932-1.9928-0.90626-4.7629-1.4457-7.9186-1.4457zm0 1.5085c2.8909 0 5.3421 0.49407 7.0605 1.203 0.85918 0.35446 1.5349 0.7632 1.9894 1.1841 0.45447 0.42085 0.68223 0.84748 0.68223 1.2434 0 0.3957-0.22776 0.82208-0.68223 1.2429-0.45446 0.42077-1.1302 0.82963-1.9894 1.1841-1.7184 0.70884-4.1696 1.2025-7.0605 1.2025s-5.3416-0.49365-7.06-1.2025c-0.85918-0.35442-1.5349-0.76328-1.9894-1.1841-0.45446-0.42078-0.68272-0.84715-0.68272-1.2429 0-0.39588 0.22826-0.8225 0.68272-1.2434 0.45446-0.42086 1.1302-0.82959 1.9894-1.1841 1.7184-0.70892 4.1691-1.203 7.06-1.203zm-9.7321 6.1914c1.8772 1.575 5.434 2.5769 9.7321 2.5769 4.2977 0 7.8547-1.0017 9.7321-2.5764v2.6591c0 0.39588-0.22776 0.8225-0.68223 1.2434-0.45446 0.42086-1.1302 0.8296-1.9894 1.1841-1.7184 0.70892-4.1696 1.2025-7.0605 1.2025-2.8908 0-5.3416-0.49357-7.06-1.2025-0.85918-0.35445-1.5349-0.7632-1.9894-1.1841-0.45446-0.42085-0.68272-0.84747-0.68272-1.2434zm0 5.2216c1.8772 1.5755 5.434 2.5769 9.7321 2.5769 4.2977 0 7.8547-1.0011 9.7321-2.5764v2.6586c0 0.3957-0.22776 0.82208-0.68223 1.2429-0.45446 0.42077-1.1302 0.82913-1.9894 1.1836-1.7184 0.70885-4.1696 1.203-7.0605 1.203-2.8908 0-5.3416-0.49415-7.06-1.203-0.85918-0.35442-1.5349-0.76278-1.9894-1.1836-0.45446-0.42078-0.68272-0.84715-0.68272-1.2429z" color="#000000" stroke-width=".25515" style="-inkscape-stroke:none"/>
   <path d="m34.771 39.313a0.63787 0.63787 0 0 0-0.63787 0.63787 0.63787 0.63787 0 0 0 0.63787 0.63787 0.63787 0.63787 0 0 0 0.63787-0.63787 0.63787 0.63787 0 0 0-0.63787-0.63787zm2.6163 0a0.63787 0.63787 0 0 0-0.63787 0.63787 0.63787 0.63787 0 0 0 0.63787 0.63787 0.63787 0.63787 0 0 0 0.63787-0.63787 0.63787 0.63787 0 0 0-0.63787-0.63787zm2.6158 0a0.63787 0.63787 0 0 0-0.63787 0.63787 0.63787 0.63787 0 0 0 0.63787 0.63787 0.63787 0.63787 0 0 0 0.63787-0.63787 0.63787 0.63787 0 0 0-0.63787-0.63787zm-5.2321 5.2171a0.63787 0.63787 0 0 0-0.63787 0.63787 0.63787 0.63787 0 0 0 0.63787 0.63787 0.63787 0.63787 0 0 0 0.63787-0.63787 0.63787 0.63787 0 0 0-0.63787-0.63787zm2.6163 0a0.63787 0.63787 0 0 0-0.63787 0.63787 0.63787 0.63787 0 0 0 0.63787 0.63787 0.63787 0.63787 0 0 0 0.63787-0.63787 0.63787 0.63787 0 0 0-0.63787-0.63787zm2.6158 0a0.63787 0.63787 0 0 0-0.63787 0.63787 0.63787 0.63787 0 0 0 0.63787 0.63787 0.63787 0.63787 0 0 0 0.63787-0.63787 0.63787 0.63787 0 0 0-0.63787-0.63787zm-5.2321 5.2176a0.63787 0.63787 0 0 0-0.63787 0.63787 0.63787 0.63787 0 0 0 0.63787 0.63787 0.63787 0.63787 0 0 0 0.63787-0.63787 0.63787 0.63787 0 0 0-0.63787-0.63787zm2.6163 0a0.63787 0.63787 0 0 0-0.63787 0.63787 0.63787 0.63787 0 0 0 0.63787 0.63787 0.63787 0.63787 0 0 0 0.63787-0.63787 0.63787 0.63787 0 0 0-0.63787-0.63787zm2.6158 0a0.63787 0.63787 0 0 0-0.63787 0.63787 0.63787 0.63787 0 0 0 0.63787 0.63787 0.63787 0.63787 0 0 0 0.63787-0.63787 0.63787 0.63787 0 0 0-0.63787-0.63787z" style="paint-order:markers fill stroke"/>
   <path d="m19.551 37c-0.41964 0-0.75748 0.31682-0.75748 0.71063v17.93c0 0.27962 0.2241 0.7505 0.71362 0.7505h16.693v1.9899h-2.706c-0.42273 3.8e-5 -0.76541 0.34272-0.76545 0.76544v1.8164h-17.568c-0.39381 0-0.71113 0.33783-0.71113 0.75748v0.01591c0 0.41963 0.31732 0.75747 0.71113 0.75747h17.568v1.8169c4.2e-5 0.42272 0.34272 0.7654 0.76545 0.76544h6.9688c0.42273-4.5e-5 0.76541-0.34272 0.76545-0.76544v-1.8169h17.57c0.39381 0 0.71063-0.33784 0.71063-0.75747v-0.01591c0-0.41965-0.31682-0.75748-0.71063-0.75748h-17.57v-1.8164c-4.2e-5 -0.42272-0.34272-0.7654-0.76545-0.76544h-2.7319v-1.9899h16.677c0.44038 0 0.72908-0.42278 0.72908-0.7505v-17.93c0-0.39381-0.33784-0.71063-0.75747-0.71063h-0.01594c-0.41964 0-0.75747 0.31682-0.75747 0.71063v17.149h-15.876v-0.94734c0-0.39381-0.33783-0.71063-0.75748-0.71063h-0.01594c-0.41964 0-0.75748 0.31682-0.75748 0.71063v0.94734h-15.876v-17.149c0-0.39381-0.33783-0.71063-0.75748-0.71063zm14.709 22.912h5.4379v3.6334h-5.4379z" style="paint-order:markers fill stroke"/>
  </g>
 </g>
 <g transform="translate(-29.309 -55.649)">
  <text transform="matrix(1.3333 0 0 1.3333 814.82 71.248)" xml:space="preserve"><tspan x="0 10.1108 21 34.2132 38.102402 48.2132 51.324001 54.434799 57.545601 61.434799 68.434799 76.221603 84.0084" y="0" fill="#525252" font-family="Arial" font-size="14px">HOW will you </tspan></text>
  <text transform="matrix(1.3333 0 0 1.3333 814.26 92.581)" xml:space="preserve"><tspan x="0 7.7867999 14.7868 22.573601 26.462799 30.351999 38.138802 45.925598 49.8148 57.601601 65.388397 69.277603 77.0644" y="0" fill="#525252" font-family="Arial" font-size="14px">use the data?</tspan></text>
  <path transform="matrix(1.3333 0 0 1.3333 754.14 78.007)" d="m2.1082 32.426 0.37645-1.452c6.2266-19.026 18.454-29.35 36.683-30.974" fill="none" stroke="#ff2600" stroke-linejoin="round" stroke-width="3"/>
  <path transform="matrix(1.3333 0 0 -1.3333 0 540)" d="m562.53 320.37 3.076-14.434 9.702 11.121-7.217-1.538z" fill="#ff2600"/>
  <path transform="matrix(1.3333 0 0 1.3333 37.042 182.42)" d="m25.352-1.0005c-7.4275 0-11.944-0.056979-15.246 1.3154-4.5456 1.6633-8.1277 5.2455-9.791 9.791-1.3724 3.3025-1.314 7.8186-1.314 15.246v7.5439c0 7.4274-0.058459 11.944 1.314 15.246 1.6645 4.5489 5.251 8.1337 9.8013 9.7954 3.3018 1.3687 7.8149 1.311 15.236 1.311h47.361c7.4182 0 11.933 0.05759 15.234-1.3096 4.5516-1.6613 8.1394-5.2472 9.8042-9.7969 1.3725-3.3025 1.3154-7.8187 1.3154-15.246v-7.5439c0-7.4275 0.05701-11.944-1.3154-15.246-1.6635-4.5461-5.2475-8.128-9.7939-9.791-3.3022-1.371-7.8196-1.3154-15.245-1.3154z" color="#000000" fill="#4185f3" filter="url(#filter88)" stroke-linejoin="round" style="-inkscape-stroke:none"/>
  <path transform="matrix(1.3333 0 0 1.3333 37.042 182.42)" d="m25.352 0h47.361c7.4396 0 11.903 0 14.879 1.2424 4.29 1.5614 7.6693 4.9407 9.2307 9.2306 1.2424 2.9759 1.2424 7.4396 1.2424 14.879v7.5441c0 7.4395 0 11.903-1.2424 14.879-1.5614 4.2899-4.9407 7.6693-9.2307 9.2307-2.9758 1.2424-7.4395 1.2424-14.879 1.2424h-47.361c-7.4396 0-11.903 0-14.879-1.2424-4.2899-1.5614-7.6692-4.9408-9.2306-9.2307-1.2424-2.9758-1.2424-7.4396-1.2424-14.879v-7.5441c0-7.4396 0-11.903 1.2424-14.879 1.5614-4.2899 4.9407-7.6692 9.2306-9.2306 2.9759-1.2424 7.4396-1.2424 14.879-1.2424z" fill="#4185f3" stroke="#4185f3" stroke-linejoin="round" stroke-width="2"/>
  <text transform="matrix(1.3333 0 0 1.3333 53.4 297.21)" xml:space="preserve"><tspan x="0 13.34 17.784 28.908001 40.032001 44.476002 48.919998 60.043999" y="0" fill="#525252" font-family="Arial" font-size="20px">Pipeline</tspan></text>
  <text transform="matrix(1.3333 0 0 1.3333 81.265 231.95)" xml:space="preserve"><tspan x="0 16.674999" y="0" fill="#ffffff" font-family="Arial" font-size="25px" font-weight="700">EL</tspan></text>
 </g>
 <text x="650.04895" y="299.20465" font-size="16px" stroke-width="1.3333" xml:space="preserve"><tspan x="650.04895 667.38177 680.73053 688.72253 702.07135 708.73853 724.74658 743.41376 756.76257 778.10333" y="299.20465" fill="#346ac3" font-family="Arial" font-size="24px" font-weight="700" stroke-width="1.3333">Data Swamp</tspan></text>
</svg>
