<?xml version="1.0" encoding="UTF-8"?>
<!-- Created with Inkscape (http://www.inkscape.org/) -->
<svg width="530.84" height="120.34" version="1.1" viewBox="0 0 530.84 120.34" xmlns="http://www.w3.org/2000/svg">
 <defs>
  <filter id="filter89" x="-.052449" y="-1.2083" width="1.1104" height="3.2082" color-interpolation-filters="sRGB">
   <feFlood flood-color="rgb(0,0,0)" flood-opacity=".50196" in="SourceGraphic" result="flood"/>
   <feGaussianBlur in="SourceGraphic" result="blur" stdDeviation="4.000000"/>
   <feOffset dx="1.000000" dy="-2.000000" in="blur" result="offset"/>
   <feComposite in="flood" in2="offset" operator="in" result="comp1"/>
   <feComposite in="comp1" in2="comp1" operator="atop" result="comp2"/>
  </filter>
  <filter id="filter99" x="-.039337" y="-.74995" width="1.0828" height="2.6561" color-interpolation-filters="sRGB">
   <feFlood flood-color="rgb(0,0,0)" flood-opacity=".50196" in="SourceGraphic" result="flood"/>
   <feGaussianBlur in="SourceGraphic" result="blur" stdDeviation="4.000000"/>
   <feOffset dx="1.000000" dy="2.000000" in="blur" result="offset"/>
   <feComposite in="flood" in2="offset" operator="in" result="comp1"/>
   <feComposite in="comp1" in2="comp1" operator="atop" result="comp2"/>
  </filter>
  <filter id="filter129" x="-.055944" y="-.088171" width="1.1274" height="1.2498" color-interpolation-filters="sRGB">
   <feFlood flood-color="rgb(0,0,0)" flood-opacity=".50196" in="SourceGraphic" result="flood"/>
   <feGaussianBlur in="SourceGraphic" result="blur" stdDeviation="3.000000"/>
   <feOffset dx="2.000000" dy="6.000000" in="blur" result="offset"/>
   <feComposite in="flood" in2="offset" operator="in" result="comp1"/>
   <feComposite in="comp1" in2="comp1" operator="atop" result="comp2"/>
  </filter>
 </defs>
 <text x="-0.22785364" y="110.52331" font-size="16px" stroke-width="1.3333" xml:space="preserve"><tspan x="-0.22785364" y="110.52331" dx="0 -0.3397333" fill="#525252" font-family="Arial" font-size="18.667px" stroke-width="1.3333">Web server</tspan></text>
 <g transform="translate(-259.49 -182.64)">
  <path d="m616.71 232.71v12.801l12.801-6.4004zm-231.25 5.0664v2.668h3.5547v-2.668zm7.1113 0v2.668h3.5547v-2.668zm7.1094 0v2.668h3.5586v-2.668zm7.1133 0v2.668h3.5547v-2.668zm7.1113 0v2.668h3.5547v-2.668zm7.1094 0v2.668h3.5566v-2.668zm7.1113 0v2.668h3.5547v-2.668zm7.1133 0v2.668h3.5547v-2.668zm7.1094 0v2.668h3.5566v-2.668zm7.1113 0v2.668h3.5547v-2.668zm7.1113 0v2.668h3.5547v-2.668zm7.1094 0v2.668h3.5586v-2.668zm7.1133 0v2.668h3.5547v-2.668zm7.1113 0v2.668h3.5547v-2.668zm7.1094 0v2.668h3.5566v-2.668zm7.1113 0v2.668h3.5547v-2.668zm7.1133 0v2.668h3.5547v-2.668zm7.1094 0v2.668h3.5566v-2.668zm7.1113 0v2.668h3.5547v-2.668zm7.1113 0v2.668h3.5547v-2.668zm7.1094 0v2.668h3.5586v-2.668zm7.1133 0v2.668h3.5547v-2.668zm7.1113 0v2.668h3.5547v-2.668zm7.1094 0v2.668h3.5566v-2.668zm7.1113 0v2.668h3.5547v-2.668zm7.1133 0v2.668h3.5547v-2.668zm7.1094 0v2.668h3.5566v-2.668zm7.1113 0v2.668h3.5547v-2.668zm7.1113 0v2.668h3.5547v-2.668zm7.1094 0v2.668h3.5586v-2.668zm7.1133 0v2.668h3.5547v-2.668zm7.1113 0v2.668h3.5547v-2.668zm7.1094 0v2.668h3.5566v-2.668z" fill="#a12e9d" filter="url(#filter99)" stroke-dasharray="2.66667, 2.66667" stroke-width="1.3333"/>
  <path transform="matrix(1.3333 0 0 1.3333 386.07 239.11)" d="m0 0h174.43" fill="none" stroke="#a12e9d" stroke-dasharray="2, 2" stroke-width="2"/>
  <path transform="matrix(1.3333 0 0 -1.3333 0 540)" d="m462.98 220.86 9.6 4.8-9.6 4.8z" fill="#a12e9d"/>
  <path transform="matrix(-1.3333 0 0 -1.3333 630.11 264.62)" d="m173.43 4.8004 9.5991-4.8003-9.5991-4.8003zm-0.10107-3.7998v-2.001h-2.6675v2.001zm-5.3335 0v-2.001h-2.666v2.001zm-5.3335 0v-2.001h-2.666v2.001zm-5.332 0v-2.001h-2.6689v2.001zm-5.335 0v-2.001h-2.666v2.001zm-5.3335 0v-2.001h-2.666v2.001zm-5.332 0v-2.001h-2.6675v2.001zm-5.3335 0v-2.001h-2.666v2.001zm-5.335 0v-2.001h-2.666v2.001zm-5.332 0v-2.001h-2.6675v2.001zm-5.3335 0v-2.001h-2.666v2.001zm-5.3335 0v-2.001h-2.666v2.001zm-5.332 0v-2.001h-2.6689v2.001zm-5.335 0v-2.001h-2.666v2.001zm-5.3335 0v-2.001h-2.666v2.001zm-5.332 0v-2.001h-2.6675v2.001zm-5.3335 0v-2.001h-2.666v2.001zm-5.335 0v-2.001h-2.666v2.001zm-5.332 0v-2.001h-2.6675v2.001zm-5.3335 0v-2.001h-2.666v2.001zm-5.3335 0v-2.001h-2.666v2.001zm-5.332 0v-2.001h-2.6689v2.001zm-5.335 0v-2.001h-2.666v2.001zm-5.3335 0v-2.001h-2.666v2.001zm-5.332 0v-2.001h-2.6675v2.001zm-5.3335 0v-2.001h-2.666v2.001zm-5.335 0v-2.001h-2.666v2.001zm-5.332 0v-2.001h-2.6675v2.001zm-5.3335 0v-2.001h-2.666v2.001zm-5.3335 0v-2.001h-2.666v2.001zm-5.332 0v-2.001h-2.6689v2.001zm-5.335 0v-2.001h-2.666v2.001zm-5.3335 0v-2.001h-2.666v2.001z" fill="#4185f3" filter="url(#filter89)" stroke-dasharray="2, 2"/>
  <path transform="matrix(-1.3333 0 0 -1.3333 630.11 264.62)" d="m0 0h174.43" fill="none" stroke="#4185f3" stroke-dasharray="2, 2" stroke-width="2"/>
  <path transform="matrix(1.3333 0 0 -1.3333 0 540)" d="m299.15 211.34-9.6-4.8 9.6-4.8z" fill="#4185f3"/>
 </g>
 <g font-size="16px" stroke-width="1.3333">
  <text x="184.31615" y="109.00197" xml:space="preserve"><tspan x="184.31615" y="109.00197" dx="0 0 0 0 -0.336" fill="#4185f3" font-family="Arial" font-size="18.667px" font-weight="700" stroke-width="1.3333">HTTP Request</tspan></text>
  <text x="170.82281" y="13.361968" xml:space="preserve"><tspan x="170.82281" y="13.361968" fill="#a12e9d" font-family="Arial" font-size="18.667px" font-weight="700" stroke-width="1.3333">Respond with the </tspan></text>
  <text x="161.96815" y="38.839306" xml:space="preserve"><tspan x="161.96815" y="38.839306" fill="#a12e9d" font-family="Arial" font-size="18.667px" font-weight="700" stroke-width="1.3333">requested resource</tspan></text>
 </g>
 <g transform="matrix(1.2305 0 0 1.2305 -3.4253 7.1188)">
  <path d="m53.113 28.954-36.299 0.0034c-0.52128 4.17e-4 -1.0439 0.0257-1.5636 0.06996-2.2846 0.19452-4.3978 2.3831-4.5643 4.8755-0.12043 1.8021-0.09943 3.6186-0.07817 5.4278 0.01488 1.2699 0.41064 2.4349 1.1408 3.4326 1.1289 1.5425 2.6457 2.155 4.4123 2.1544 9.1582-0.0024 18.316-1e-3 27.475-0.0034-0.46322 0.70825-0.8698 1.4936-1.2132 2.3524l-25.608 0.0024c-0.52128 4.18e-4 -1.0439 0.0257-1.5636 0.06996-2.2846 0.19452-4.3978 2.3831-4.5643 4.8754-0.12043 1.8021-0.09943 3.6186-0.07817 5.4278 0.01488 1.2699 0.41064 2.4349 1.1408 3.4326 1.1289 1.5425 2.6457 2.155 4.4123 2.1544 6.4251-0.0017 12.85-0.0022 19.275-0.0024 1.0666 1.9981 3.1238 3.5032 6.2527 3.5014 7.7751-0.15689 15.572 0.30652 23.339-0.23873 1.9559-0.14412 3.549-1.1084 4.5884-2.9605 2.4943-4.4445-0.04332-10.055-4.7905-10.647-0.98084-0.12228-0.97669-0.12254-1.0375-1.1972-0.15158-2.6782-0.83766-5.1483-2.4999-7.1812-0.8754-1.1944-1.9082-2.1488-3.0319-2.876 0.24949-0.6259 0.4135-1.3255 0.46712-2.1001 0.12454-1.799 0.0822-3.624-0.0257-5.4271-0.1277-2.1338-1.196-3.6459-2.9452-4.5775-0.83235-0.44328-1.7246-0.56925-2.6391-0.56911zm-36.895 1.4999c7.1889 0.0094 14.266 0.05626 37.138 0.07577 1.7015 0.0014 3.0307 0.72626 3.7523 2.4474 0.26628 0.63512 0.35547 1.3938 0.38897 2.1039 0.06012 1.2744 0.02232 2.5545 0.01584 3.8322-0.0038 0.7793-0.13678 1.4764-0.37693 2.0811-4.1134-2.0112-9.1181-1.1773-12.405 2.4879-9.5329-0.02112-19.066-0.07423-28.599-0.05611-1.7031-0.0012-3.0142-0.73634-3.7531-2.4499-0.231-0.53562-0.35589-1.1684-0.37591-1.7628-0.05129-1.5234-0.08333-3.0544-0.0012-4.5746 0.14213-2.6316 1.7432-4.1882 4.2154-4.185zm36.214 10.612c0.32391-0.0041 0.65281 0.0091 0.98691 0.03979 2.1882 0.20033 4.028 1.2168 5.6772 2.7465 2.4252 2.2495 3.458 5.174 3.5174 8.5807 0.03019 1.7292 0.02695 1.7189 1.601 1.7628 1.5399 0.04291 2.8962 0.55898 3.9554 1.8584 2.5989 3.1886 1.2314 9.4765-4.6515 9.4809-7.3294 0.0055-14.659 0.0055-21.988 6.27e-4 -1.5752-1e-3 -3.0499-0.36125-4.229-1.6088-1.4058-1.4872-1.8796-3.312-1.4822-5.3813 0.38527-2.0062 1.488-3.4051 3.2832-4.0023 0.8009-0.26647 1.6764-0.28014 2.5216-0.36659 0.78424-0.08023 0.87274-0.13985 0.86099-0.99092-0.02522-1.8287 0.18384-3.6068 0.81324-5.3192 0.63547-1.7288 1.6865-3.0962 2.9734-4.2737 1.8693-1.6274 3.8934-2.4986 6.1608-2.527zm-36.214 7.6998c5.4098 0.0072 13.324 0.03367 25.671 0.05522-0.29418 1.054-0.49897 2.2012-0.59814 3.4419-0.04126 0.51619-0.19248 0.67135-0.65263 0.69563-2.142 0.11304-3.9196 1.0287-5.1176 3.034-0.97869 1.6382-1.218 3.8137-0.66467 5.7785-6.241-0.02256-12.482-0.04495-18.723-0.0331-1.7031-0.0012-3.0142-0.73634-3.7531-2.4499-0.231-0.53562-0.35589-1.1684-0.37591-1.7628-0.05129-1.5234-0.08333-3.0544-0.0012-4.5746 0.14213-2.6316 1.7432-4.1882 4.2154-4.185z" fill="#757272" stroke-width=".10935"/>
  <g transform="matrix(.10449 0 0 .11445 9.3381 4.3163)">
   <path d="m418.95 55.276c8.7519-0.0012 17.291 1.1 25.258 4.9732 16.742 8.1399 26.965 21.351 28.187 39.996 1.0327 15.755 1.4378 31.7 0.24591 47.419-2.1997 29.009-22.606 46.961-51.942 47.054-118.47 0.0919-236.94 0.01-355.41 0.0397-16.908 5e-3 -31.425-5.3455-42.229-18.823-6.9878-8.7173-10.775-18.897-10.918-29.992-0.2036-15.808-0.40432-31.681 0.74836-47.427 1.5942-21.777 21.818-40.899 43.683-42.599 4.9745-0.38667 9.9753-0.6068 14.964-0.61056m349.42 127.06c24.479-0.047 39.97-15.66 40.102-40.075 0.0607-11.164 0.42324-22.351-0.15223-33.486-0.32061-6.2042-1.1758-12.833-3.7243-18.383-6.9064-15.039-19.626-21.371-35.911-21.384-218.9-0.17048-286.63-0.58048-355.44-0.66285-23.661-0.02832-38.983 13.572-40.343 36.566-0.78575 13.283-0.4801 26.661 0.01085 39.972 0.19157 5.1937 1.3877 10.721 3.5984 15.401 7.0726 14.972 19.621 21.395 35.92 21.407 118.64-0.20599 237.29 0.78207 355.93 0.64347z" fill="#757272"/>
   <path d="m271.83 118.61c42.256 0.054 84.082 0.12189 125.91 0.20211 1.4962 3e-3 3.0098 6e-3 4.4846 0.21995 3.5545 0.51653 5.2047 2.8704 5.2289 6.2519 0.0243 3.392-1.7131 5.7518-5.1355 6.4086-42.436 0.61715-84.987 0.17799-127.45 0.12121-0.83316-1e-3 -1.6674 0.0179-2.4993-0.0168-4.0946-0.17089-7.2961-1.6545-7.6204-6.2246-0.32345-4.5581 2.3094-6.6684 7.0878-6.9625z" fill="#777474"/>
   <path d="m162.07 140.88c-6.7872-11.04-6.9495-21.885 0.35764-32.155 6.7894-9.5418 16.496-13.331 28.031-11.019 11.744 2.3537 19.127 9.7433 21.856 21.379 2.9549 12.598-3.5626 25.502-15.331 31.115-12.189 5.8136-25.235 2.424-34.914-9.3204m37.58-11.883c1.5102-6.1793-0.53348-11.362-5.2717-15.161-4.999-4.0088-10.791-4.3148-16.417-1.202-5.2756 2.9192-7.6992 7.6399-7.4327 13.692 0.28177 6.3988 4.5074 11.695 10.77 13.511 10.567 3.0641 17.345-6.7266 18.351-10.84z" fill="#757373"/>
   <path d="m132.51 134.44c-6.837 16.326-23.555 22.906-38.785 15.591-13.894-6.6743-19.436-24.527-11.929-38.433 6.6189-12.262 21.708-17.626 34.817-12.377 14.05 5.6265 20.337 19.305 15.897 35.219m-30.284 5.4226c8.52 1.391 15.689-2.3925 18.096-9.551 2.3815-7.0808-0.78672-14.916-7.3798-18.252-7.5991-3.8444-16.652-0.79621-20.334 6.8465-3.8752 8.0442-0.22756 16.595 9.6175 20.956z" fill="#757373"/>
  </g>
  <g transform="matrix(.10449 0 0 .11445 9.3381 22.628)">
   <path d="m271.83 118.61c42.256 0.054 84.082 0.12189 125.91 0.20211 1.4962 3e-3 3.0098 6e-3 4.4846 0.21995 3.5545 0.51653 5.2047 2.8704 5.2289 6.2519 0.0243 3.392-1.7131 5.7518-5.1355 6.4086-42.436 0.61715-84.987 0.17799-127.45 0.12121-0.83316-1e-3 -1.6674 0.0179-2.4993-0.0168-4.0946-0.17089-7.2961-1.6545-7.6204-6.2246-0.32345-4.5581 2.3094-6.6684 7.0878-6.9625z" fill="#777474"/>
   <path d="m162.07 140.88c-6.7872-11.04-6.9495-21.885 0.35764-32.155 6.7894-9.5418 16.496-13.331 28.031-11.019 11.744 2.3537 19.127 9.7433 21.856 21.379 2.9549 12.598-3.5626 25.502-15.331 31.115-12.189 5.8136-25.235 2.424-34.914-9.3204m37.58-11.883c1.5102-6.1793-0.53348-11.362-5.2717-15.161-4.999-4.0088-10.791-4.3148-16.417-1.202-5.2756 2.9192-7.6992 7.6399-7.4327 13.692 0.28177 6.3988 4.5074 11.695 10.77 13.511 10.567 3.0641 17.345-6.7266 18.351-10.84z" fill="#757373"/>
   <path d="m132.51 134.44c-6.837 16.326-23.555 22.906-38.785 15.591-13.894-6.6743-19.436-24.527-11.929-38.433 6.6189-12.262 21.708-17.626 34.817-12.377 14.05 5.6265 20.337 19.305 15.897 35.219m-30.284 5.4226c8.52 1.391 15.689-2.3925 18.096-9.551 2.3815-7.0808-0.78672-14.916-7.3798-18.252-7.5991-3.8444-16.652-0.79621-20.334 6.8465-3.8752 8.0442-0.22756 16.595 9.6175 20.956z" fill="#757373"/>
  </g>
  <g transform="matrix(.10449 0 0 .11445 9.3381 40.94)" fill="#757373">
   <path d="m162.07 140.88c-6.7872-11.04-6.9495-21.885 0.35764-32.155 6.7894-9.5418 16.496-13.331 28.031-11.019 11.744 2.3537 19.127 9.7433 21.856 21.379 2.9549 12.598-3.5626 25.502-15.331 31.115-12.189 5.8136-25.235 2.424-34.914-9.3204m37.58-11.883c1.5102-6.1793-0.53348-11.362-5.2717-15.161-4.999-4.0088-10.791-4.3148-16.417-1.202-5.2756 2.9192-7.6992 7.6399-7.4327 13.692 0.28177 6.3988 4.5074 11.695 10.77 13.511 10.567 3.0641 17.345-6.7266 18.351-10.84z"/>
   <path d="m132.51 134.44c-6.837 16.326-23.555 22.906-38.785 15.591-13.894-6.6743-19.436-24.527-11.929-38.433 6.6189-12.262 21.708-17.626 34.817-12.377 14.05 5.6265 20.337 19.305 15.897 35.219m-30.284 5.4226c8.52 1.391 15.689-2.3925 18.096-9.551 2.3815-7.0808-0.78672-14.916-7.3798-18.252-7.5991-3.8444-16.652-0.79621-20.334 6.8465-3.8752 8.0442-0.22756 16.595 9.6175 20.956z"/>
  </g>
 </g>
 <g transform="matrix(.010718 0 0 .010718 371.27 -19.971)" clip-rule="evenodd" fill-rule="evenodd" stroke-linejoin="round" stroke-miterlimit="2">
  <rect transform="matrix(88.68 0 0 91.152 -55238 -14544)" x="652.89" y="208.32" width="128.7" height="81.659" fill="#666" filter="url(#filter129)" stroke-linecap="round" stroke-linejoin="round" stroke-width="10" style="paint-order:stroke fill markers"/>
  <path d="m2474.2 3849.6h11189c225.42 0 409.59 184.58 409.59 409.58v7619.2c0 225.42-184.58 409.59-409.59 409.59h-11189c-225.42 0-409.59-184.17-409.59-409.59v-7619.2c0-225.42 184.17-409.58 409.59-409.58z" fill="#424242"/>
  <rect x="2474.2" y="5122.9" width="11189" height="6765.4" fill="#e1f5fe"/>
  <path d="m13263 4245.8c131.88 0 238.75 106.88 238.75 238.75 0 131.87-106.87 238.75-238.75 238.75-131.88 0-238.75-106.88-238.75-238.75 0-131.88 106.87-238.75 238.75-238.75z" fill="#9ccc65"/>
  <path d="m12524 4245.8c131.88 0 238.75 106.88 238.75 238.75 0 131.87-106.88 238.75-238.75 238.75s-238.75-106.88-238.75-238.75c0-131.88 106.88-238.75 238.75-238.75z" fill="#f4ff81"/>
  <path d="m9972.1 7448.3 1822.9 915 295.42 148.33-260.42 202.5-549.17 427.5 750 882.5-318.33 269.17-760.83-895.42-505.42 393.33-260.42 202.5-71.251-322.5-438.75-1991.7-94.166-427.08 390.42 195.83z" fill="#424242"/>
  <g fill="#536dfe">
   <rect x="3923.3" y="8445.8" width="4683.8" height="492.92"/>
   <rect x="3923.3" y="7213.3" width="4683.8" height="492.92"/>
   <rect x="3923.3" y="9678.3" width="4683.8" height="492.92"/>
  </g>
 </g>
</svg>
