<?xml version="1.0" encoding="UTF-8"?>
<!-- Created with Inkscape (http://www.inkscape.org/) -->
<svg width="800" height="150" version="1.1" viewBox="0 0 800 150" xmlns="http://www.w3.org/2000/svg">
 <defs>
  <clipPath id="clipPath41">
   <path transform="matrix(1 0 0 -1 -117.34 99.874)" d="m116.34 94.974h89.949v9.8h-89.949z"/>
  </clipPath>
  <clipPath id="clipPath43">
   <path d="m116.34 94.974h89.949v9.8h-89.949z"/>
  </clipPath>
  <clipPath id="clipPath45">
   <path transform="matrix(1 0 0 -1 -312.2 99.874)" d="m311.2 94.974h280.25v9.8h-280.25z"/>
  </clipPath>
  <clipPath id="clipPath47">
   <path d="m311.2 94.974h280.25v9.8h-280.25z"/>
  </clipPath>
  <clipPath id="clipPath49">
   <path transform="matrix(1 0 0 -1 -217.72 51.874)" d="m213.62 45.587h89.112v20.952h-89.112z"/>
  </clipPath>
  <clipPath id="clipPath53">
   <path transform="matrix(1 0 0 -1 -198.83 144.56)" d="m0 0h720v405h-720z"/>
  </clipPath>
 </defs>
 <g transform="matrix(1.0822 0 0 1.0822 -8.6857 45.25)" fill="#666" stroke-linecap="round" stroke-linejoin="round">
  <g stroke-dasharray="10.4716, 3.49052" stroke-width="3.4905">
   <path d="m15.648 53.988v10h0.02734a21.811 6.2355 0 0 0 21.799 6.1719 21.811 6.2355 0 0 0 21.797-6.1719v-10h-0.01367a21.811 6.2355 0 0 1-21.797 6.1719 21.811 6.2355 0 0 1-21.799-6.1719zm40.232 6.0273a1.7 1.7 0 0 1 1.6992 1.6992 1.7 1.7 0 0 1-1.6992 1.6992 1.7 1.7 0 0 1-1.7012-1.6992 1.7 1.7 0 0 1 1.7012-1.6992zm-6 1.5039a1.7 1.7 0 0 1 1.6992 1.7012 1.7 1.7 0 0 1-1.6992 1.6992 1.7 1.7 0 0 1-1.7012-1.6992 1.7 1.7 0 0 1 1.7012-1.7012zm-6 0.76367a1.7 1.7 0 0 1 1.6992 1.6992 1.7 1.7 0 0 1-1.6992 1.6992 1.7 1.7 0 0 1-1.7012-1.6992 1.7 1.7 0 0 1 1.7012-1.6992z" style="paint-order:markers fill stroke"/>
   <path d="m15.649 40.961v10h0.02734a21.811 6.2355 0 0 0 21.799 6.1719 21.811 6.2355 0 0 0 21.797-6.1719v-10h-0.01367a21.811 6.2355 0 0 1-21.797 6.1719 21.811 6.2355 0 0 1-21.799-6.1719z" style="paint-order:markers fill stroke"/>
   <path d="m15.419 27.935v10h0.02734a21.811 6.2355 0 0 0 21.799 6.1719 21.811 6.2355 0 0 0 21.797-6.1719v-10h-0.01367a21.811 6.2355 0 0 1-21.797 6.1719 21.811 6.2355 0 0 1-21.799-6.1719z" style="paint-order:markers fill stroke"/>
   <path d="m15.42 14.909v10h0.02734a21.811 6.2355 0 0 0 21.799 6.1719 21.811 6.2355 0 0 0 21.797-6.1719v-10h-0.01367a21.811 6.2355 0 0 1-21.797 6.1719 21.811 6.2355 0 0 1-21.799-6.1719z" style="paint-order:markers fill stroke"/>
  </g>
  <ellipse cx="37.232" cy="10.908" rx="21.811" ry="7.1465" stroke-dasharray="7.5, 2.5" stroke-width="2.5" style="paint-order:markers fill stroke"/>
 </g>
 <path transform="matrix(1.3333 0 0 1.3333 98.614 80.756)" d="m0 0h80.899" clip-path="url(#clipPath41)" fill="none" stroke="#909090" stroke-linejoin="round" stroke-width="1.5"/>
 <path transform="matrix(1.3333 0 0 -1.3333 -57.844 213.92)" d="m197.49 95.974 7.8 3.9-7.8 3.8999z" clip-path="url(#clipPath43)" fill="#909090"/>
 <path transform="matrix(1.3333 0 0 1.3333 358.43 80.756)" d="m0 0h271.2" clip-path="url(#clipPath45)" fill="none" stroke="#909090" stroke-linejoin="round" stroke-width="1.5"/>
 <path transform="matrix(1.3333 0 0 -1.3333 -57.844 213.92)" d="m582.65 95.974 7.8 3.9-7.8 3.8999z" clip-path="url(#clipPath47)" fill="#909090"/>
 <text transform="matrix(1.3333 0 0 1.3333 232.45 144.76)" clip-path="url(#clipPath49)" xml:space="preserve"><tspan x="0 7.5588002 18.884399 26.888399 30.222 39.555599 42.222 48.8964 55.570801 58.9044 66.908401 74.237999" y="0" fill="#525252" font-family="Arial" font-size="12px">AWS Glue ETL</tspan></text>
 <text transform="matrix(1.3333 0 0 1.3333 207.26 21.18)" clip-path="url(#clipPath53)" xml:space="preserve"><tspan x="0 5.0004001 15.9948 26.989201 37.000801 47.012402 53.006401 58.006802 69.001198 79.995598 84.996002 94.6548 105.6492 116.6436" y="0" fill="#346ac3" font-family="Arial" font-size="18px" font-weight="700">Ingestion Tool</tspan></text>
 <path d="m738.43 32.385c-0.3193 0.0153-0.6312 0.11193-0.91155 0.28854-0.5606 0.35121-0.90323 0.96844-0.90323 1.6361v28.54c0.12179-0.0242 0.2477-0.0394 0.38192-0.0394h18.494l-4.728-4.4116c-0.33171-0.30962-0.48926-0.67079-0.47541-1.0836 0.0135-0.41282 0.17132-0.774 0.47541-1.0836 0.33171-0.30962 0.72589-0.47071 1.182-0.4836 0.45611-0.0129 0.85027 0.13468 1.182 0.44426l7.5886 7.0821c0.16593 0.15481 0.28336 0.32268 0.35252 0.50329 0.0688 0.18062 0.10325 0.37391 0.10325 0.58033s-0.0344 0.40135-0.10325 0.58199c-0.0688 0.18059-0.18659 0.34849-0.35252 0.50328l-7.5886 7.0821c-0.33172 0.30961-0.72588 0.45716-1.182 0.44426-0.4561-0.0129-0.85028-0.17397-1.182-0.48362-0.30409-0.30962-0.46156-0.67079-0.47541-1.0836-0.0134-0.41285 0.14378-0.77401 0.47541-1.0836l4.728-4.4116h-18.494c-0.13422 0-0.26013-0.0151-0.38192-0.0394v26.192c0.12179-0.0241 0.2477-0.0394 0.38192-0.0394h18.494l-4.728-4.4132c-0.33171-0.30962-0.48926-0.67079-0.47541-1.0836 0.0135-0.41284 0.17132-0.77399 0.47541-1.0836 0.33171-0.30962 0.72589-0.47073 1.182-0.48362 0.45611-0.0129 0.85027 0.13633 1.182 0.44591l7.5886 7.0821c0.16593 0.15482 0.28336 0.32269 0.35252 0.5033 0.0688 0.18061 0.10325 0.3739 0.10325 0.58034 0 0.20642-0.0344 0.39971-0.10325 0.58034-0.0688 0.1806-0.18659 0.34847-0.35252 0.50328l-7.5886 7.0821c-0.33172 0.30961-0.72588 0.45881-1.182 0.4459-0.4561-0.0129-0.85028-0.17396-1.182-0.48361-0.30409-0.30963-0.46156-0.6708-0.47541-1.0836-0.0134-0.41284 0.14378-0.774 0.47541-1.0836l4.728-4.4132h-18.494c-0.13422 0-0.26013-0.0151-0.38192-0.0394v27.556c0 0.66768 0.34263 1.2849 0.90323 1.6361 0.28035 0.17659 0.59225 0.27324 0.91155 0.28851 0.31929 0.016 0.64605-0.0474 0.94259-0.19508l28.7-14.246c0.65428-0.32419 1.0688-0.99624 1.0688-1.7295v-59.83c0-0.73326-0.41457-1.4053-1.0688-1.7296l-28.7-14.246c-0.29654-0.14771-0.6233-0.21099-0.94259-0.19509zm40.517 21.041c-3.8265 0-6.9082 3.0802-6.9082 6.9066v37.819c0 3.8265 3.0818 6.9067 6.9082 6.9067h8.1526c3.8266 0 6.9067-3.0802 6.9067-6.9067v-37.819c0-3.8265-3.0802-6.9066-6.9067-6.9066zm4.0755 5.8001a3.7771 3.7771 0 0 1 3.7771 3.7771 3.7771 3.7771 0 0 1-3.7771 3.7771 3.7771 3.7771 0 0 1-3.7771-3.7771 3.7771 3.7771 0 0 1 3.7771-3.7771zm0 9.8196a3.7771 3.7771 0 0 1 3.7771 3.7771 3.7771 3.7771 0 0 1-3.7771 3.7771 3.7771 3.7771 0 0 1-3.7771-3.7771 3.7771 3.7771 0 0 1 3.7771-3.7771zm0 13.344c1.0313 0 1.8624 0.82939 1.8624 1.8607v12.566c0 1.0313-0.83104 1.8624-1.8624 1.8624s-1.8623-0.83101-1.8623-1.8624v-12.566c0-1.0313 0.83097-1.8607 1.8623-1.8607z" fill="#157800" stroke-width="1.9134"/>
 <g transform="translate(246.39 37.899)" fill-rule="evenodd">
  <g id="Icon-Architecture-BG/64/Analytics" fill="#8c4fff">
   <rect id="Rectangle" width="80" height="80"/>
  </g>
  <path id="AWS-Glue_Icon_64_Squid" d="m33 23h2v-2h-2zm-2 1v-4c0-0.552 0.447-1 1-1h4c0.553 0 1 0.448 1 1v4c0 0.552-0.447 1-1 1h-4c-0.553 0-1-0.448-1-1zm10-7h2v-2h-2zm-2 1v-4c0-0.552 0.447-1 1-1h4c0.553 0 1 0.448 1 1v4c0 0.552-0.447 1-1 1h-4c-0.553 0-1-0.448-1-1zm4 9h2v-2h-2zm-1-4h4c0.553 0 1 0.448 1 1v4c0 0.552-0.447 1-1 1h-4c-0.553 0-1-0.448-1-1v-4c0-0.552 0.447-1 1-1zm-2 10.5c-1.761 0-8.146-0.075-12.299-1.096l10.145 16.062c0.1 0.16 0.154 0.345 0.154 0.534v2.277c1.404 0.407 2.701 0.411 4 0.016v-2.293c0-0.189 0.054-0.374 0.154-0.534l10.145-16.062c-4.153 1.021-10.538 1.096-12.299 1.096zm-15.746-2.808c-0.159-0.232-0.254-0.482-0.254-0.755 0-2.845 9.384-3.371 14.978-3.432l0.021 2c-6.872 0.075-11.071 0.859-12.551 1.443 1.57 0.656 6.195 1.552 13.552 1.552 7.338 0 11.957-0.891 13.539-1.546-0.646-0.261-1.984-0.647-4.66-0.974l0.242-1.985c6.062 0.74 6.879 1.902 6.879 2.942 0 0.273-0.095 0.523-0.254 0.755l-11.746 18.598v2.71c0 0.408-0.248 0.776-0.627 0.928-1.091 0.438-2.187 0.656-3.307 0.656-1.11 0-2.242-0.215-3.412-0.646-0.392-0.145-0.654-0.519-0.654-0.938v-2.71zm22.67 28.925c0.155 0.374 0.069 0.804-0.217 1.09l-6 6c-0.195 0.195-0.451 0.293-0.707 0.293s-0.512-0.098-0.707-0.293l-6-6c-0.286-0.286-0.372-0.716-0.217-1.09 0.154-0.373 0.52-0.617 0.924-0.617h3v-3h2v4c0 0.552-0.447 1-1 1h-1.586l3.586 3.586 3.586-3.586h-1.586c-0.553 0-1-0.448-1-1v-4h2v3h3c0.404 0 0.77 0.244 0.924 0.617z" fill="#fff"/>
 </g>
</svg>
