<?xml version="1.0" encoding="UTF-8"?>
<!-- Created with Inkscape (http://www.inkscape.org/) -->
<svg width="800" height="200" version="1.1" viewBox="0 0 800 200" xmlns="http://www.w3.org/2000/svg">
 <defs>
  <filter id="filter9" x="-.059482" y="-.065297" width="1.119" height="1.1482" color-interpolation-filters="sRGB">
   <feFlood flood-color="rgb(0,0,0)" flood-opacity=".49804" in="SourceGraphic" result="flood"/>
   <feGaussianBlur in="SourceGraphic" result="blur" stdDeviation="2.000000"/>
   <feOffset dx="0.000000" dy="1.500000" in="blur" result="offset"/>
   <feComposite in="flood" in2="offset" operator="in" result="comp1"/>
   <feComposite in="comp1" in2="comp1" operator="atop" result="comp2"/>
  </filter>
 </defs>
 <g transform="matrix(1.0822 0 0 1.0822 -8.6857 123.53)" fill="#666" stroke-linecap="round" stroke-linejoin="round">
  <g stroke-dasharray="10.4716, 3.49052" stroke-width="3.4905">
   <path d="m15.648 53.988v10h0.02734a21.811 6.2355 0 0 0 21.799 6.1719 21.811 6.2355 0 0 0 21.797-6.1719v-10h-0.01367a21.811 6.2355 0 0 1-21.797 6.1719 21.811 6.2355 0 0 1-21.799-6.1719zm40.232 6.0273a1.7 1.7 0 0 1 1.6992 1.6992 1.7 1.7 0 0 1-1.6992 1.6992 1.7 1.7 0 0 1-1.7012-1.6992 1.7 1.7 0 0 1 1.7012-1.6992zm-6 1.5039a1.7 1.7 0 0 1 1.6992 1.7012 1.7 1.7 0 0 1-1.6992 1.6992 1.7 1.7 0 0 1-1.7012-1.6992 1.7 1.7 0 0 1 1.7012-1.7012zm-6 0.76367a1.7 1.7 0 0 1 1.6992 1.6992 1.7 1.7 0 0 1-1.6992 1.6992 1.7 1.7 0 0 1-1.7012-1.6992 1.7 1.7 0 0 1 1.7012-1.6992z" style="paint-order:markers fill stroke"/>
   <path d="m15.649 40.961v10h0.02734a21.811 6.2355 0 0 0 21.799 6.1719 21.811 6.2355 0 0 0 21.797-6.1719v-10h-0.01367a21.811 6.2355 0 0 1-21.797 6.1719 21.811 6.2355 0 0 1-21.799-6.1719z" style="paint-order:markers fill stroke"/>
   <path d="m15.419 27.935v10h0.02734a21.811 6.2355 0 0 0 21.799 6.1719 21.811 6.2355 0 0 0 21.797-6.1719v-10h-0.01367a21.811 6.2355 0 0 1-21.797 6.1719 21.811 6.2355 0 0 1-21.799-6.1719z" style="paint-order:markers fill stroke"/>
   <path d="m15.42 14.909v10h0.02734a21.811 6.2355 0 0 0 21.799 6.1719 21.811 6.2355 0 0 0 21.797-6.1719v-10h-0.01367a21.811 6.2355 0 0 1-21.797 6.1719 21.811 6.2355 0 0 1-21.799-6.1719z" style="paint-order:markers fill stroke"/>
  </g>
  <ellipse cx="37.232" cy="10.908" rx="21.811" ry="7.1465" stroke-dasharray="7.5, 2.5" stroke-width="2.5" style="paint-order:markers fill stroke"/>
 </g>
 <g transform="matrix(1.0822 0 0 1.0822 -8.6857 -2.5706)" fill="#666" stroke-linecap="round" stroke-linejoin="round">
  <g stroke-dasharray="10.4716, 3.49052" stroke-width="3.4905">
   <path d="m15.648 53.988v10h0.02734a21.811 6.2355 0 0 0 21.799 6.1719 21.811 6.2355 0 0 0 21.797-6.1719v-10h-0.01367a21.811 6.2355 0 0 1-21.797 6.1719 21.811 6.2355 0 0 1-21.799-6.1719zm40.232 6.0273a1.7 1.7 0 0 1 1.6992 1.6992 1.7 1.7 0 0 1-1.6992 1.6992 1.7 1.7 0 0 1-1.7012-1.6992 1.7 1.7 0 0 1 1.7012-1.6992zm-6 1.5039a1.7 1.7 0 0 1 1.6992 1.7012 1.7 1.7 0 0 1-1.6992 1.6992 1.7 1.7 0 0 1-1.7012-1.6992 1.7 1.7 0 0 1 1.7012-1.7012zm-6 0.76367a1.7 1.7 0 0 1 1.6992 1.6992 1.7 1.7 0 0 1-1.6992 1.6992 1.7 1.7 0 0 1-1.7012-1.6992 1.7 1.7 0 0 1 1.7012-1.6992z" style="paint-order:markers fill stroke"/>
   <path d="m15.649 40.961v10h0.02734a21.811 6.2355 0 0 0 21.799 6.1719 21.811 6.2355 0 0 0 21.797-6.1719v-10h-0.01367a21.811 6.2355 0 0 1-21.797 6.1719 21.811 6.2355 0 0 1-21.799-6.1719z" style="paint-order:markers fill stroke"/>
   <path d="m15.419 27.935v10h0.02734a21.811 6.2355 0 0 0 21.799 6.1719 21.811 6.2355 0 0 0 21.797-6.1719v-10h-0.01367a21.811 6.2355 0 0 1-21.797 6.1719 21.811 6.2355 0 0 1-21.799-6.1719z" style="paint-order:markers fill stroke"/>
   <path d="m15.42 14.909v10h0.02734a21.811 6.2355 0 0 0 21.799 6.1719 21.811 6.2355 0 0 0 21.797-6.1719v-10h-0.01367a21.811 6.2355 0 0 1-21.797 6.1719 21.811 6.2355 0 0 1-21.799-6.1719z" style="paint-order:markers fill stroke"/>
  </g>
  <ellipse cx="37.232" cy="10.908" rx="21.811" ry="7.1465" stroke-dasharray="7.5, 2.5" stroke-width="2.5" style="paint-order:markers fill stroke"/>
 </g>
 <g fill="none" stroke="#909090" stroke-linejoin="round" stroke-width="2">
  <path d="m71.079 33.469 160.37 82.299"/>
  <path d="m73.804 169.63 162.92-52.041"/>
  <path d="m339.12 113.4h381.11"/>
 </g>
 <path d="m719.23 118.6 10.4-5.2-10.4-5.2z" fill="#909090"/>
 <text x="221.68967" y="35.662682" font-size="16px" stroke-width="1.3333" xml:space="preserve"><tspan x="221.68967 239.02248 253.68167 268.34088 283.00006 296.34888 309.69766 317.68967 332.34888 341.68967" y="35.662682" fill="#346ac3" font-family="Arial" font-size="24px" font-weight="700" stroke-width="1.3333">Connectors</tspan></text>
 <path d="m737.92 66.129c-0.3193 0.0153-0.6312 0.11193-0.91155 0.28854-0.5606 0.35121-0.90323 0.96844-0.90323 1.6361v28.54c0.12179-0.0242 0.2477-0.0394 0.38192-0.0394h18.494l-4.728-4.4116c-0.33171-0.30962-0.48926-0.67079-0.47541-1.0836 0.0135-0.41282 0.17132-0.774 0.47541-1.0836 0.33171-0.30962 0.72589-0.47071 1.182-0.4836 0.45611-0.0129 0.85027 0.13468 1.182 0.44426l7.5886 7.0821c0.16593 0.15481 0.28336 0.32268 0.35252 0.50329 0.0688 0.18062 0.10325 0.37391 0.10325 0.58033s-0.0344 0.40135-0.10325 0.58199c-0.0688 0.18059-0.18659 0.34849-0.35252 0.50328l-7.5886 7.0821c-0.33172 0.30961-0.72588 0.45716-1.182 0.44426-0.4561-0.0129-0.85028-0.17397-1.182-0.48362-0.30409-0.30962-0.46156-0.67079-0.47541-1.0836-0.0134-0.41285 0.14378-0.77401 0.47541-1.0836l4.728-4.4116h-18.494c-0.13422 0-0.26013-0.0151-0.38192-0.0394v26.192c0.12179-0.0241 0.2477-0.0394 0.38192-0.0394h18.494l-4.728-4.4132c-0.33171-0.30962-0.48926-0.67079-0.47541-1.0836 0.0135-0.41284 0.17132-0.77399 0.47541-1.0836 0.33171-0.30962 0.72589-0.47073 1.182-0.48362 0.45611-0.0129 0.85027 0.13633 1.182 0.44591l7.5886 7.0821c0.16593 0.15482 0.28336 0.32269 0.35252 0.5033 0.0688 0.18061 0.10325 0.3739 0.10325 0.58034 0 0.20642-0.0344 0.39971-0.10325 0.58034-0.0688 0.1806-0.18659 0.34847-0.35252 0.50328l-7.5886 7.0821c-0.33172 0.30961-0.72588 0.45881-1.182 0.4459-0.4561-0.0129-0.85028-0.17396-1.182-0.48361-0.30409-0.30963-0.46156-0.6708-0.47541-1.0836-0.0134-0.41284 0.14378-0.774 0.47541-1.0836l4.728-4.4132h-18.494c-0.13422 0-0.26013-0.0151-0.38192-0.0394v27.556c0 0.66768 0.34263 1.2849 0.90323 1.6361 0.28035 0.17659 0.59225 0.27324 0.91155 0.28851 0.31929 0.016 0.64605-0.0474 0.94259-0.19508l28.7-14.246c0.65428-0.32419 1.0688-0.99624 1.0688-1.7295v-59.83c0-0.73326-0.41457-1.4053-1.0688-1.7296l-28.7-14.246c-0.29654-0.14771-0.6233-0.21099-0.94259-0.19509zm40.517 21.041c-3.8265 0-6.9082 3.0802-6.9082 6.9066v37.819c0 3.8265 3.0818 6.9067 6.9082 6.9067h8.1526c3.8266 0 6.9067-3.0802 6.9067-6.9067v-37.819c0-3.8265-3.0802-6.9066-6.9067-6.9066zm4.0755 5.8001a3.7771 3.7771 0 0 1 3.7771 3.7771 3.7771 3.7771 0 0 1-3.7771 3.7771 3.7771 3.7771 0 0 1-3.7771-3.7771 3.7771 3.7771 0 0 1 3.7771-3.7771zm0 9.8196a3.7771 3.7771 0 0 1 3.7771 3.7771 3.7771 3.7771 0 0 1-3.7771 3.7771 3.7771 3.7771 0 0 1-3.7771-3.7771 3.7771 3.7771 0 0 1 3.7771-3.7771zm0 13.344c1.0313 0 1.8624 0.82939 1.8624 1.8607v12.566c0 1.0313-0.83104 1.8624-1.8624 1.8624s-1.8623-0.83101-1.8623-1.8624v-12.566c0-1.0313 0.83097-1.8607 1.8623-1.8607z" fill="#157800" stroke-width="1.9134"/>
 <path transform="matrix(1.3333 0 0 1.3333 230.1 60.064)" d="m22.93 0h47.449c6.7287 0 10.766 0 13.458 1.1237 3.8801 1.4122 6.9365 4.4687 8.3488 8.3487 1.1236 2.6915 1.1236 6.7288 1.1236 13.458v39.14c0 6.7288 0 10.766-1.1236 13.458-1.4123 3.88-4.4687 6.9365-8.3488 8.3487-2.6915 1.1237-6.7288 1.1237-13.458 1.1237h-47.449c-6.7288 0-10.766 0-13.458-1.1237-3.88-1.4122-6.9365-4.4687-8.3487-8.3487-1.1237-2.6915-1.1237-6.7288-1.1237-13.458v-39.14c0-6.7288 0-10.766 1.1237-13.458 1.4122-3.88 4.4687-6.9365 8.3487-8.3487 2.6915-1.1237 6.7288-1.1237 13.458-1.1237z" fill="#fff" filter="url(#filter9)" stroke="#525252" stroke-linejoin="round" stroke-width="1.5"/>
 <path d="m260.67 60.064h63.265c8.9716 0 14.355 0 17.943 1.4982 5.1735 1.883 9.2487 5.9583 11.132 11.132 1.4981 3.5887 1.4981 8.9717 1.4981 17.943v52.187c0 8.9717 0 14.355-1.4981 17.943-1.8831 5.1733-5.9583 9.2487-11.132 11.132-3.5887 1.4983-8.9717 1.4983-17.943 1.4983h-63.265c-8.9717 0-14.355 0-17.943-1.4983-5.1734-1.8829-9.2487-5.9583-11.132-11.132-1.4982-3.5887-1.4982-8.9717-1.4982-17.943v-52.187c0-8.9717 0-14.355 1.4982-17.943 1.883-5.1734 5.9582-9.2487 11.132-11.132 3.5886-1.4982 8.9717-1.4982 17.943-1.4982z" fill="#fff" stroke="#525252" stroke-linejoin="round" stroke-width="2"/>
 <g transform="translate(-57.934 -89.248)">
  <text transform="matrix(1.3333 0 0 1.3333 294.58 197.17)" xml:space="preserve"><tspan x="0 7.7867999 17.8976 28.0084 38.119202 42.014 52.908798 63.0196 73.130402 83.241203" y="0" fill="#525252" font-family="Arial" font-size="14px" font-weight="700">JDBC/ODBC </tspan></text>
  <text transform="matrix(1.3333 0 0 1.3333 334.65 222.65)" xml:space="preserve"><tspan x="0 10.1108 19.448799" y="0" fill="#525252" font-family="Arial" font-size="14px" font-weight="700">API</tspan></text>
 </g>
</svg>
