<?xml version="1.0" encoding="UTF-8"?>
<!-- Created with Inkscape (http://www.inkscape.org/) -->
<svg width="887.69" height="237.64" version="1.1" viewBox="0 0 887.69 237.64" xml:space="preserve" xmlns="http://www.w3.org/2000/svg" xmlns:xlink="http://www.w3.org/1999/xlink"><defs><linearGradient id="linearGradient84"><stop stop-color="#bbb" offset="0"/><stop stop-color="#ededed" offset="1"/></linearGradient><filter id="filter73" x="-.059691" y="-.11007" width="1.1194" height="1.2486" color-interpolation-filters="sRGB"><feFlood flood-color="rgb(0,0,0)" flood-opacity=".49804" in="SourceGraphic" result="flood"/><feGaussianBlur in="SourceGraphic" result="blur" stdDeviation="2.000000"/><feOffset dx="0.000000" dy="1.500000" in="blur" result="offset"/><feComposite in="flood" in2="offset" operator="in" result="comp1"/><feComposite in="comp1" in2="comp1" operator="atop" result="comp2"/></filter><filter id="filter75" x="-.057584" y="-.71164" width="1.1153" height="2.6156" color-interpolation-filters="sRGB"><feFlood flood-color="rgb(0,0,0)" flood-opacity=".49804" in="SourceGraphic" result="flood"/><feGaussianBlur in="SourceGraphic" result="blur" stdDeviation="2.000000"/><feOffset dx="0.000000" dy="1.500000" in="blur" result="offset"/><feComposite in="flood" in2="offset" operator="in" result="comp1"/><feComposite in="comp1" in2="comp1" operator="atop" result="comp2"/></filter><filter id="filter79" x="-.072136" y="-.61536" width="1.1443" height="2.423" color-interpolation-filters="sRGB"><feFlood flood-color="rgb(0,0,0)" flood-opacity=".49804" in="SourceGraphic" result="flood"/><feGaussianBlur in="SourceGraphic" result="blur" stdDeviation="2.000000"/><feOffset dx="0.000000" dy="1.500000" in="blur" result="offset"/><feComposite in="flood" in2="offset" operator="in" result="comp1"/><feComposite in="comp1" in2="comp1" operator="atop" result="comp2"/></filter><filter id="filter81" x="-.059691" y="-.11007" width="1.1194" height="1.2486" color-interpolation-filters="sRGB"><feFlood flood-color="rgb(0,0,0)" flood-opacity=".49804" in="SourceGraphic" result="flood"/><feGaussianBlur in="SourceGraphic" result="blur" stdDeviation="2.000000"/><feOffset dx="0.000000" dy="1.500000" in="blur" result="offset"/><feComposite in="flood" in2="offset" operator="in" result="comp1"/><feComposite in="comp1" in2="comp1" operator="atop" result="comp2"/></filter><filter id="filter83" x="-.018904" y="-.086337" width="1.0378" height="1.196" color-interpolation-filters="sRGB"><feFlood flood-color="rgb(0,0,0)" flood-opacity=".49804" in="SourceGraphic" result="flood"/><feGaussianBlur in="SourceGraphic" result="blur" stdDeviation="2.000000"/><feOffset dx="0.000000" dy="1.500000" in="blur" result="offset"/><feComposite in="flood" in2="offset" operator="in" result="comp1"/><feComposite in="comp1" in2="comp1" operator="atop" result="comp2"/></filter><linearGradient id="linearGradient85" x1="18.902" x2="18.902" y1="26.02" y2="5.4127e-6" gradientUnits="userSpaceOnUse" xlink:href="#linearGradient84"/><filter id="filter86" x="-.15353" y="-.22307" width="1.3071" height="1.5038" color-interpolation-filters="sRGB"><feFlood flood-color="rgb(0,0,0)" flood-opacity=".49804" in="SourceGraphic" result="flood"/><feGaussianBlur in="SourceGraphic" result="blur" stdDeviation="2.000000"/><feOffset dx="0.000000" dy="1.500000" in="blur" result="offset"/><feComposite in="flood" in2="offset" operator="in" result="comp1"/><feComposite in="comp1" in2="comp1" operator="atop" result="comp2"/></filter></defs><g stroke="#71a3f6" stroke-linejoin="round"><path transform="matrix(1.3333 0 0 1.3333 7.7338 58.813)" d="m26.326 0h44.52c7.7254 0 12.361 0 15.451 1.2901 4.4548 1.6214 7.964 5.1306 9.5854 9.5854 1.2901 3.0901 1.2901 7.7254 1.2901 15.451 0 7.7486 0 12.398-1.2901 15.497-1.6214 4.4548-5.1306 7.9639-9.5854 9.5853-3.0901 1.2901-7.7254 1.2901-15.451 1.2901h-44.52c-7.7254 0-12.361 0-15.451-1.2901-4.4548-1.6214-7.964-5.1305-9.5854-9.5853-1.2901-3.0902-1.2901-7.7254-1.2901-15.451 0-7.7485 0-12.398 1.2901-15.497 1.6214-4.4548 5.1306-7.964 9.5854-9.5854 3.0901-1.2901 7.7254-1.2901 15.451-1.2901z" fill="#fff" filter="url(#filter73)" stroke-width="2"/><path d="m42.836 58.813h59.361c10.301 0 16.481 0 20.601 1.7201 5.9397 2.1619 10.619 6.8408 12.781 12.781 1.7201 4.1201 1.7201 10.301 1.7201 20.601 0 10.331 0 16.53-1.7201 20.663-2.1619 5.9397-6.8408 10.619-12.781 12.78-4.1201 1.7201-10.301 1.7201-20.601 1.7201h-59.361c-10.301 0-16.481 0-20.601-1.7201-5.9397-2.1619-10.619-6.8407-12.781-12.78-1.7201-4.1203-1.7201-10.301-1.7201-20.601 0-10.331 0-16.53 1.7201-20.663 2.1619-5.9397 6.8408-10.619 12.781-12.781 4.1201-1.7201 10.301-1.7201 20.601-1.7201z" fill="#fff" stroke-width="2.6667"/><path transform="matrix(1.3333 0 0 1.3333 138.65 93.429)" d="m88.389-3.8783 0.010254 3.8979-88.399 0.23584 88.397-0.23438h0.0015l0.010219 3.8994 7.7886-3.9199z" fill="none" filter="url(#filter75)" stroke-width="1.5"/><path d="m138.65 93.77 118.86-0.31604" fill="none" stroke-width="2"/></g><path d="m256.53 98.657 10.385-5.228-10.413-5.172z" fill="#71a3f6"/><path transform="matrix(1.3333 0 0 1.3333 750.39 55.107)" d="m26.326 0h44.52c7.7254 0 12.361 0 15.451 1.2901 4.4548 1.6214 7.964 5.1306 9.5854 9.5854 1.2901 3.0901 1.2901 7.7254 1.2901 15.451 0 7.7486 0 12.398-1.2901 15.497-1.6214 4.4548-5.1306 7.9639-9.5854 9.5853-3.0901 1.2901-7.7254 1.2901-15.451 1.2901h-44.52c-7.7254 0-12.361 0-15.451-1.2901-4.4548-1.6214-7.964-5.1305-9.5854-9.5853-1.2901-3.0902-1.2901-7.7254-1.2901-15.451 0-7.7485 0-12.398 1.2901-15.497 1.6214-4.4548 5.1306-7.964 9.5854-9.5854 3.0901-1.2901 7.7254-1.2901 15.451-1.2901z" fill="#fff" filter="url(#filter81)" stroke="#ffab40" stroke-linejoin="round" stroke-width="2"/><path d="m785.49 55.107h59.361c10.301 0 16.481 0 20.601 1.7201 5.9397 2.1619 10.619 6.8408 12.781 12.781 1.7201 4.1201 1.7201 10.301 1.7201 20.601 0 10.331 0 16.53-1.7201 20.663-2.1619 5.9397-6.8408 10.619-12.781 12.78-4.1201 1.7201-10.301 1.7201-20.601 1.7201h-59.361c-10.301 0-16.481 0-20.601-1.7201-5.9397-2.1619-10.619-6.8407-12.781-12.78-1.7201-4.1203-1.7201-10.301-1.7201-20.601 0-10.331 0-16.53 1.7201-20.663 2.1619-5.9397 6.8408-10.619 12.781-12.781 4.1201-1.7201 10.301-1.7201 20.601-1.7201z" fill="#fff" stroke="#ffab40" stroke-linejoin="round" stroke-width="2.6667"/><g transform="translate(-36.157 -177.09)"><path transform="matrix(1.3333 0 0 1.3333 696.5 267.83)" d="m58.705-3.8413 0.02344 3.1494-58.734 0.44531 0.011719 1.5 58.734-0.44531 0.023437 3.1509 7.771-3.9595z" color="#000000" fill="#0097a7" filter="url(#filter79)" stroke-linejoin="round" style="-inkscape-stroke:none"/><path transform="matrix(1.3333 0 0 1.3333 696.5 267.83)" d="m0 0.50472 59.484-0.45124" fill="none" stroke="#0097a7" stroke-linejoin="round" stroke-width="1.5"/><path transform="matrix(1.3333 0 0 -1.3333 0 540)" d="m581.14 200.16 7.77 3.959-7.829 3.841z" fill="#0097a7"/></g><path transform="matrix(1.3333 0 0 1.3333 267.91 50.05)" d="m49.134 0h195.32c13.992 0 22.388 0 27.985 1.9384 8.928 3.2495 15.961 10.282 19.21 19.21 1.282 3.5233 1.939 7.2438 1.939 10.993 0 3.7494-0.657 7.4699-1.939 10.993-3.249 8.9279-10.282 15.961-19.21 19.21-5.597 1.9384-13.993 1.9384-27.985 1.9384h-195.32c-13.993 0-22.388 0-27.985-1.9384-8.9279-3.2495-15.961-10.282-19.21-19.21-1.2824-3.5233-1.9384-7.2438-1.9384-10.993 0-3.7493 0.65602-7.4698 1.9384-10.993 3.2495-8.9279 10.282-15.961 19.21-19.21 5.5971-1.9384 13.993-1.9384 27.985-1.9384z" fill="none" filter="url(#filter83)" stroke="#0097a7" stroke-linejoin="round" stroke-width="1.5"/><path d="m333.42 50.05h260.43c18.656 0 29.851 0 37.313 2.5845 11.904 4.3327 21.281 13.71 25.613 25.614 1.7093 4.6977 2.5853 9.6584 2.5853 14.657 0 4.9992-0.876 9.9599-2.5853 14.658-4.332 11.904-13.709 21.281-25.613 25.614-7.4627 2.5845-18.657 2.5845-37.313 2.5845h-260.43c-18.657 0-29.851 0-37.314-2.5845-11.904-4.3327-21.281-13.71-25.614-25.614-1.7098-4.6977-2.5845-9.6584-2.5845-14.658 0-4.9991 0.87469-9.9597 2.5845-14.657 4.3327-11.904 13.71-21.281 25.614-25.614 7.4628-2.5845 18.657-2.5845 37.314-2.5845z" fill="#fff" stroke="#0097a7" stroke-linejoin="round" stroke-width="2"/><g transform="translate(-36.157 -177.09)" fill="url(#linearGradient85)" stroke="#a7a7a7" stroke-linejoin="round" stroke-width="2"><g><path transform="matrix(1.3333 0 0 1.3333 610.54 251.32)" d="m3.8748 0h30.055c1.137 0 1.8193 0 2.2741 0.18988 0.6557 0.23864 1.1721 0.75513 1.4108 1.4108 0.1899 0.45483 0.1899 1.1371 0.1899 2.2741v18.27c0 1.1371 0 1.8193-0.1899 2.2741-0.2387 0.6557-0.7551 1.1722-1.4108 1.4108-0.4548 0.1899-1.1371 0.1899-2.2741 0.1899h-30.055c-1.137 0-1.8193 0-2.2741-0.1899-0.65566-0.2386-1.1721-0.7551-1.4108-1.4108-0.18988-0.4548-0.18988-1.137-0.18988-2.2741v-18.27c0-1.137 0-1.8193 0.18988-2.2741 0.23864-0.65566 0.75513-1.1721 1.4108-1.4108 0.45483-0.18988 1.1371-0.18988 2.2741-0.18988z" filter="url(#filter86)"/><path transform="matrix(1.3333 0 0 1.3333 610.54 251.32)" d="m3.8748 0h30.055c1.137 0 1.8193 0 2.2741 0.18988 0.6557 0.23864 1.1721 0.75513 1.4108 1.4108 0.1899 0.45483 0.1899 1.1371 0.1899 2.2741v18.27c0 1.1371 0 1.8193-0.1899 2.2741-0.2387 0.6557-0.7551 1.1722-1.4108 1.4108-0.4548 0.1899-1.1371 0.1899-2.2741 0.1899h-30.055c-1.137 0-1.8193 0-2.2741-0.1899-0.65566-0.2386-1.1721-0.7551-1.4108-1.4108-0.18988-0.4548-0.18988-1.137-0.18988-2.2741v-18.27c0-1.137 0-1.8193 0.18988-2.2741 0.23864-0.65566 0.75513-1.1721 1.4108-1.4108 0.45483-0.18988 1.1371-0.18988 2.2741-0.18988z"/></g><g transform="translate(-66.82)"><path transform="matrix(1.3333 0 0 1.3333 610.54 251.32)" d="m3.8748 0h30.055c1.137 0 1.8193 0 2.2741 0.18988 0.6557 0.23864 1.1721 0.75513 1.4108 1.4108 0.1899 0.45483 0.1899 1.1371 0.1899 2.2741v18.27c0 1.1371 0 1.8193-0.1899 2.2741-0.2387 0.6557-0.7551 1.1722-1.4108 1.4108-0.4548 0.1899-1.1371 0.1899-2.2741 0.1899h-30.055c-1.137 0-1.8193 0-2.2741-0.1899-0.65566-0.2386-1.1721-0.7551-1.4108-1.4108-0.18988-0.4548-0.18988-1.137-0.18988-2.2741v-18.27c0-1.137 0-1.8193 0.18988-2.2741 0.23864-0.65566 0.75513-1.1721 1.4108-1.4108 0.45483-0.18988 1.1371-0.18988 2.2741-0.18988z" filter="url(#filter86)"/><path transform="matrix(1.3333 0 0 1.3333 610.54 251.32)" d="m3.8748 0h30.055c1.137 0 1.8193 0 2.2741 0.18988 0.6557 0.23864 1.1721 0.75513 1.4108 1.4108 0.1899 0.45483 0.1899 1.1371 0.1899 2.2741v18.27c0 1.1371 0 1.8193-0.1899 2.2741-0.2387 0.6557-0.7551 1.1722-1.4108 1.4108-0.4548 0.1899-1.1371 0.1899-2.2741 0.1899h-30.055c-1.137 0-1.8193 0-2.2741-0.1899-0.65566-0.2386-1.1721-0.7551-1.4108-1.4108-0.18988-0.4548-0.18988-1.137-0.18988-2.2741v-18.27c0-1.137 0-1.8193 0.18988-2.2741 0.23864-0.65566 0.75513-1.1721 1.4108-1.4108 0.45483-0.18988 1.1371-0.18988 2.2741-0.18988z"/></g><g transform="translate(-136.8)"><path transform="matrix(1.3333 0 0 1.3333 610.54 251.32)" d="m3.8748 0h30.055c1.137 0 1.8193 0 2.2741 0.18988 0.6557 0.23864 1.1721 0.75513 1.4108 1.4108 0.1899 0.45483 0.1899 1.1371 0.1899 2.2741v18.27c0 1.1371 0 1.8193-0.1899 2.2741-0.2387 0.6557-0.7551 1.1722-1.4108 1.4108-0.4548 0.1899-1.1371 0.1899-2.2741 0.1899h-30.055c-1.137 0-1.8193 0-2.2741-0.1899-0.65566-0.2386-1.1721-0.7551-1.4108-1.4108-0.18988-0.4548-0.18988-1.137-0.18988-2.2741v-18.27c0-1.137 0-1.8193 0.18988-2.2741 0.23864-0.65566 0.75513-1.1721 1.4108-1.4108 0.45483-0.18988 1.1371-0.18988 2.2741-0.18988z" filter="url(#filter86)"/><path transform="matrix(1.3333 0 0 1.3333 610.54 251.32)" d="m3.8748 0h30.055c1.137 0 1.8193 0 2.2741 0.18988 0.6557 0.23864 1.1721 0.75513 1.4108 1.4108 0.1899 0.45483 0.1899 1.1371 0.1899 2.2741v18.27c0 1.1371 0 1.8193-0.1899 2.2741-0.2387 0.6557-0.7551 1.1722-1.4108 1.4108-0.4548 0.1899-1.1371 0.1899-2.2741 0.1899h-30.055c-1.137 0-1.8193 0-2.2741-0.1899-0.65566-0.2386-1.1721-0.7551-1.4108-1.4108-0.18988-0.4548-0.18988-1.137-0.18988-2.2741v-18.27c0-1.137 0-1.8193 0.18988-2.2741 0.23864-0.65566 0.75513-1.1721 1.4108-1.4108 0.45483-0.18988 1.1371-0.18988 2.2741-0.18988z"/></g><g transform="translate(-203.62)"><path transform="matrix(1.3333 0 0 1.3333 610.54 251.32)" d="m3.8748 0h30.055c1.137 0 1.8193 0 2.2741 0.18988 0.6557 0.23864 1.1721 0.75513 1.4108 1.4108 0.1899 0.45483 0.1899 1.1371 0.1899 2.2741v18.27c0 1.1371 0 1.8193-0.1899 2.2741-0.2387 0.6557-0.7551 1.1722-1.4108 1.4108-0.4548 0.1899-1.1371 0.1899-2.2741 0.1899h-30.055c-1.137 0-1.8193 0-2.2741-0.1899-0.65566-0.2386-1.1721-0.7551-1.4108-1.4108-0.18988-0.4548-0.18988-1.137-0.18988-2.2741v-18.27c0-1.137 0-1.8193 0.18988-2.2741 0.23864-0.65566 0.75513-1.1721 1.4108-1.4108 0.45483-0.18988 1.1371-0.18988 2.2741-0.18988z" filter="url(#filter86)"/><path transform="matrix(1.3333 0 0 1.3333 610.54 251.32)" d="m3.8748 0h30.055c1.137 0 1.8193 0 2.2741 0.18988 0.6557 0.23864 1.1721 0.75513 1.4108 1.4108 0.1899 0.45483 0.1899 1.1371 0.1899 2.2741v18.27c0 1.1371 0 1.8193-0.1899 2.2741-0.2387 0.6557-0.7551 1.1722-1.4108 1.4108-0.4548 0.1899-1.1371 0.1899-2.2741 0.1899h-30.055c-1.137 0-1.8193 0-2.2741-0.1899-0.65566-0.2386-1.1721-0.7551-1.4108-1.4108-0.18988-0.4548-0.18988-1.137-0.18988-2.2741v-18.27c0-1.137 0-1.8193 0.18988-2.2741 0.23864-0.65566 0.75513-1.1721 1.4108-1.4108 0.45483-0.18988 1.1371-0.18988 2.2741-0.18988z"/></g><g transform="translate(-271.92)"><path transform="matrix(1.3333 0 0 1.3333 610.54 251.32)" d="m3.8748 0h30.055c1.137 0 1.8193 0 2.2741 0.18988 0.6557 0.23864 1.1721 0.75513 1.4108 1.4108 0.1899 0.45483 0.1899 1.1371 0.1899 2.2741v18.27c0 1.1371 0 1.8193-0.1899 2.2741-0.2387 0.6557-0.7551 1.1722-1.4108 1.4108-0.4548 0.1899-1.1371 0.1899-2.2741 0.1899h-30.055c-1.137 0-1.8193 0-2.2741-0.1899-0.65566-0.2386-1.1721-0.7551-1.4108-1.4108-0.18988-0.4548-0.18988-1.137-0.18988-2.2741v-18.27c0-1.137 0-1.8193 0.18988-2.2741 0.23864-0.65566 0.75513-1.1721 1.4108-1.4108 0.45483-0.18988 1.1371-0.18988 2.2741-0.18988z" filter="url(#filter86)"/><path transform="matrix(1.3333 0 0 1.3333 610.54 251.32)" d="m3.8748 0h30.055c1.137 0 1.8193 0 2.2741 0.18988 0.6557 0.23864 1.1721 0.75513 1.4108 1.4108 0.1899 0.45483 0.1899 1.1371 0.1899 2.2741v18.27c0 1.1371 0 1.8193-0.1899 2.2741-0.2387 0.6557-0.7551 1.1722-1.4108 1.4108-0.4548 0.1899-1.1371 0.1899-2.2741 0.1899h-30.055c-1.137 0-1.8193 0-2.2741-0.1899-0.65566-0.2386-1.1721-0.7551-1.4108-1.4108-0.18988-0.4548-0.18988-1.137-0.18988-2.2741v-18.27c0-1.137 0-1.8193 0.18988-2.2741 0.23864-0.65566 0.75513-1.1721 1.4108-1.4108 0.45483-0.18988 1.1371-0.18988 2.2741-0.18988z"/></g></g><g transform="translate(-36.157 -177.09)"><text transform="matrix(1.3333 0 0 1.3333 80.047 264.84)" xml:space="preserve"><tspan x="0 10.672 18.672001 27.571199 36.470402 40.915199" y="0" fill="#525252" font-family="Arial" font-size="16px">Event </tspan></text><text transform="matrix(1.3333 0 0 1.3333 64.042 288.84)" xml:space="preserve"><tspan x="0 10.672 16 24.8992 33.798401 42.697601 50.697601 59.596802" y="0" fill="#525252" font-family="Arial" font-size="16px">Producer</tspan></text><text transform="matrix(1.3333 0 0 1.3333 824.12 262.46)" xml:space="preserve"><tspan x="0 10.672 18.672001 27.571199 36.470402 40.915199" y="0" fill="#525252" font-family="Arial" font-size="16px">Event </tspan></text><text transform="matrix(1.3333 0 0 1.3333 802.2 286.46)" xml:space="preserve"><tspan x="0 11.5552 20.454399 29.3536 37.3536 46.2528 59.580799 68.480003" y="0" fill="#525252" font-family="Arial" font-size="16px">Consumer</tspan></text></g><text x="241.74728" y="21.47266" font-size="16px" stroke-width="1.3333" xml:space="preserve"><tspan x="241.74728 261.73929 275.08807 288.43689 301.78568 315.13449 329.79367 343.14249 349.80966 368.47687 383.13608 396.48486 411.14407 424.49289 431.16006 445.81927 455.16006 461.82727 477.83527 485.82727 495.16806 508.51688 521.86566 543.20648 549.87366 564.5329 579.19208 585.85931 601.86725 608.53448 621.88324 629.87531 637.86725 652.52649 661.86725" y="21.47266" fill="#346ac3" font-family="Arial" font-size="24px" font-weight="700" stroke-width="1.3333">Message Queue or Streaming Platform</tspan></text><text x="26.124878" y="235.45479" font-size="16px" stroke-width="1.3333" xml:space="preserve"><tspan x="26.124878 30.569677 39.468876 48.953674 53.398476 64.953674 73.852875 81.852875 85.408073 93.408073" y="235.45479" fill="#525252" font-family="Arial" font-size="16px" stroke-width="1.3333">IoT Device</tspan></text><g transform="matrix(1.1342 0 0 1.1342 27.102 143.35)"><path d="m37 25.103c-2.1743 0-4.1194 0.59603-5.8359 1.7878-1.7166 1.1918-2.8614 2.7494-3.4336 4.6729-1.7395 0.35544-3.1469 1.1708-4.2227 2.4462s-1.6133 2.728-1.6133 4.3589c0 1.9027 0.7386 3.5127 2.2148 4.8299 0.8048 0.71811 1.7024 1.2346 2.6875 1.5612l-0.09988-5.7774c-0.01717-0.99315 1.1366-2.1888 2.297-2.1888l15.912-4.14e-4c1.1936-3.2e-5 2.297 1.0777 2.297 2.0065l1.37e-4 6.2634c1.1751-0.21014 2.208-0.71997 3.0996-1.5344 1.2016-1.0977 1.8027-2.4304 1.8027-3.9985 0-1.4427-0.52112-2.7022-1.5625-3.779-1.0414-1.0768-2.3504-1.699-3.9297-1.8663 0-2.4463-0.9335-4.5212-2.7988-6.2252s-4.1366-2.5568-6.8145-2.5568z" fill="#666" stroke-width=".032814"/><rect x="28.269" y="38.243" width="17.461" height="22.696" ry="1.2104" fill="#fff" stroke="#666" stroke-linecap="round" stroke-linejoin="round" stroke-width="1.5" style="paint-order:markers fill stroke"/><g fill="#666"><path d="m37 10.176a3.2 3.2 0 0 0-3.1992 3.1992 3.2 3.2 0 0 0 2.3809 3.0879v7.0488h1.6367v-7.0488a3.2 3.2 0 0 0 2.3809-3.0879 3.2 3.2 0 0 0-3.1992-3.1992z" style="paint-order:markers fill stroke"/><path d="m18.812 17.741c-1.2706 1.2275-1.3059 3.2525-0.07902 4.5237 1.0089 1.0412 2.5917 1.274 3.8577 0.56741l4.8965 5.0706 1.1774-1.1369-4.8965-5.0706c0.75036-1.2405 0.57297-2.8305-0.43233-3.8751-1.2275-1.2706-3.2525-1.3059-4.5237-0.07902z" style="paint-order:markers fill stroke"/><path d="m55.188 17.741c1.2706 1.2275 1.3059 3.2525 0.07902 4.5237-1.0089 1.0412-2.5917 1.274-3.8577 0.56741l-4.8965 5.0706-1.1774-1.1369 4.8965-5.0706c-0.75036-1.2405-0.57297-2.8305 0.43233-3.8751 1.2275-1.2706 3.2525-1.3059 4.5237-0.07902z" style="paint-order:markers fill stroke"/><path d="m37 47.382c-0.84276 0-1.6359 0.16552-2.3809 0.49805s-1.4145 0.80382-2.0078 1.4121c-0.13484 0.13788-0.20615 0.30896-0.21289 0.51172-0.0067 0.20276 0.05052 0.3755 0.17188 0.52148 0.11462 0.13788 0.25723 0.20884 0.42578 0.21289 0.16855 0.0041 0.32024-0.05773 0.45508-0.1875 0.48543-0.47852 1.0294-0.84969 1.6328-1.1133 0.60342-0.26359 1.2418-0.39648 1.916-0.39648s1.3126 0.13289 1.916 0.39648c0.60342 0.26359 1.1474 0.63476 1.6328 1.1133 0.13484 0.12977 0.28653 0.19156 0.45508 0.1875 0.16855-0.0041 0.31117-0.07501 0.42578-0.21289 0.12136-0.14599 0.17862-0.31872 0.17188-0.52148-0.0067-0.20276-0.07805-0.37384-0.21289-0.51172-0.5933-0.60829-1.2628-1.0796-2.0078-1.4121-0.745-0.33253-1.5381-0.49805-2.3809-0.49805zm0 2.9199c-0.50566 0-0.98632 0.09456-1.4414 0.28516-0.45509 0.1906-0.86747 0.45624-1.2383 0.79688-0.13484 0.12166-0.20312 0.28176-0.20312 0.48047s0.05726 0.37159 0.17188 0.51758c0.11462 0.13788 0.25723 0.21064 0.42578 0.21875 0.16855 0.0081 0.32024-0.04466 0.45508-0.1582 0.2562-0.21087 0.53947-0.37639 0.84961-0.49805s0.63662-0.18359 0.98047-0.18359 0.67033 0.06194 0.98047 0.18359c0.31014 0.12166 0.59341 0.28718 0.84961 0.49805 0.13484 0.11355 0.28653 0.16812 0.45508 0.16406 0.16855-0.0041 0.31117-0.07501 0.42578-0.21289 0.12136-0.14599 0.17915-0.31692 0.17578-0.51562-0.0034-0.19871-0.07219-0.35881-0.20703-0.48047-0.37082-0.34064-0.78319-0.61004-1.2383-0.80469-0.45509-0.19465-0.93575-0.29102-1.4414-0.29102zm0 2.9199c-0.28317 0-0.52323 0.11636-0.71875 0.35156s-0.29297 0.52459-0.29297 0.86523 0.09745 0.62808 0.29297 0.86328 0.43558 0.35352 0.71875 0.35352 0.52323-0.11831 0.71875-0.35352c0.19552-0.2352 0.29297-0.52264 0.29297-0.86328s-0.09745-0.63003-0.29297-0.86523-0.43558-0.35156-0.71875-0.35156z" stroke-width=".011092"/><path d="m37 44.709c-1.1518 0-2.2358 0.16048-3.254 0.48288s-1.9328 0.77934-2.7437 1.3691c-0.18428 0.13368-0.2821 0.29955-0.29131 0.49613-0.0092 0.19659 0.06969 0.36406 0.23553 0.5056 0.15664 0.13368 0.3502 0.20247 0.58056 0.2064 0.23035 0.0039 0.43759-0.05598 0.62188-0.18179 0.66342-0.46394 1.4087-0.82381 2.2334-1.0794 0.82467-0.25556 1.6962-0.38441 2.6177-0.38441 0.92142 0 1.793 0.12884 2.6177 0.38441 0.82467 0.25556 1.57 0.61543 2.2334 1.0794 0.18429 0.12582 0.39152 0.18572 0.62188 0.18179 0.23036-0.0039 0.42391-0.07271 0.58056-0.2064 0.16586-0.14154 0.24474-0.30902 0.23553-0.5056-0.0092-0.19658-0.10702-0.36245-0.29131-0.49613-0.81086-0.58976-1.7255-1.0467-2.7437-1.3691s-2.1022-0.48288-3.254-0.48288z" stroke-width=".011233"/></g></g></svg>
