<?xml version="1.0" encoding="UTF-8" standalone="no"?><!DOCTYPE svg PUBLIC "-//W3C//DTD SVG 1.1//EN" "http://www.w3.org/Graphics/SVG/1.1/DTD/svg11.dtd"><svg width="100%" height="100%" viewBox="0 0 918 190" version="1.1" xmlns="http://www.w3.org/2000/svg" xmlns:xlink="http://www.w3.org/1999/xlink" xml:space="preserve" xmlns:serif="http://www.serif.com/" style="fill-rule:evenodd;clip-rule:evenodd;stroke-linejoin:round;"><g><g><text x="29.538px" y="161.752px" style="font-family:'ArialMT', 'Arial', sans-serif;font-size:21.333px;fill:#525252;">Software</text></g><g><text x="19.45px" y="185.752px" style="font-family:'ArialMT', 'Arial', sans-serif;font-size:21.333px;fill:#525252;">Application</text></g><g><text x="491.684px" y="165.689px" style="font-family:'ArialMT', 'Arial', sans-serif;font-size:21.333px;fill:#525252;">Exhaust / Byproduct</text></g></g><path d="M299.501,9.609l575.039,0c8.971,0 14.354,0 17.942,1.499c5.174,1.882 9.249,5.958 11.132,11.131c1.497,3.588 1.497,8.971 1.497,17.943l0,58.393c0,8.972 0,14.354 -1.497,17.943c-1.883,5.174 -5.958,9.249 -11.132,11.132c-3.588,1.497 -8.971,1.497 -17.942,1.497l-575.039,0c-8.972,0 -14.354,0 -17.943,-1.497c-5.174,-1.883 -9.248,-5.958 -11.132,-11.132c-1.497,-3.589 -1.497,-8.971 -1.497,-17.943l-0,-58.393c-0,-8.972 -0,-14.355 1.497,-17.943c1.884,-5.173 5.958,-9.249 11.132,-11.131c3.589,-1.499 8.971,-1.499 17.943,-1.499Z" style="fill:#fff;fill-rule:nonzero;"/><path d="M299.52,9.6l575.05,0c8.971,0 14.355,0 17.943,1.499c5.173,1.882 9.249,5.958 11.132,11.132c1.497,3.588 1.497,8.97 1.497,17.943l0,58.395c0,8.972 0,14.355 -1.497,17.944c-1.883,5.173 -5.959,9.249 -11.132,11.132c-3.588,1.497 -8.972,1.497 -17.943,1.497l-575.05,0c-8.972,0 -14.355,0 -17.944,-1.497c-5.173,-1.883 -9.248,-5.959 -11.132,-11.132c-1.497,-3.59 -1.497,-8.972 -1.497,-17.944l-0,-58.395c-0,-8.972 -0,-14.355 1.497,-17.943c1.884,-5.174 5.959,-9.25 11.132,-11.132c3.589,-1.499 8.972,-1.499 17.944,-1.499Z" style="fill:#fff;fill-rule:nonzero;"/><g opacity="0.8"><circle cx="287.688" cy="24.633" r="8" style="fill:#feb1ac;"/><path d="M287.688,16.633c4.415,0 8,3.585 8,8c0,4.416 -3.585,8 -8,8c-4.415,0 -8,-3.584 -8,-8c0,-4.415 3.585,-8 8,-8Zm0,2.5c-3.035,0 -5.5,2.465 -5.5,5.5c0,3.036 2.465,5.5 5.5,5.5c3.036,0 5.5,-2.464 5.5,-5.5c0,-3.035 -2.464,-5.5 -5.5,-5.5Z" style="fill:#df3e36;"/><text x="284.157px" y="28.004px" style="font-family:'ArialMT', 'Arial', sans-serif;font-size:13px;fill:#525252;">x</text></g><g opacity="0.8"><circle cx="311.407" cy="24.633" r="8" style="fill:#fedd98;"/><path d="M311.407,16.633c4.415,0 8,3.585 8,8c-0,4.416 -3.585,8 -8,8c-4.416,0 -8,-3.584 -8,-8c-0,-4.415 3.584,-8 8,-8Zm-0,2.5c-3.036,0 -5.5,2.465 -5.5,5.5c-0,3.036 2.464,5.5 5.5,5.5c3.035,0 5.5,-2.464 5.5,-5.5c-0,-3.035 -2.465,-5.5 -5.5,-5.5Z" style="fill:#cc8733;"/><rect x="307.969" y="23.724" width="7.013" height="1.862" style="fill:#525252;"/></g><g opacity="0.8"><circle cx="333.907" cy="24.633" r="8" style="fill:#96e4a1;"/><path d="M333.907,16.633c4.415,0 8,3.585 8,8c0,4.416 -3.585,8 -8,8c-4.415,0 -8,-3.584 -8,-8c0,-4.415 3.585,-8 8,-8Zm0,2.5c-3.035,0 -5.5,2.465 -5.5,5.5c0,3.036 2.465,5.5 5.5,5.5c3.036,0 5.5,-2.464 5.5,-5.5c0,-3.035 -2.464,-5.5 -5.5,-5.5Z" style="fill:#14a61f;"/><path d="M331.477,24.443l0,-2.292l2.186,-0l-2.186,2.292Z" style="fill:none;fill-rule:nonzero;stroke:#525252;stroke-width:2.67px;"/><path d="M336.337,24.823l0,2.292l-2.186,-0l2.186,-2.292Z" style="fill:none;fill-rule:nonzero;stroke:#525252;stroke-width:2.67px;"/></g><path d="M299.52,8.267c-8.962,-0 -14.415,-0.076 -18.439,1.599c-5.507,2.019 -9.848,6.36 -11.867,11.867c-1.675,4.025 -1.6,9.477 -1.6,18.439l0,58.396c0,8.962 -0.075,14.415 1.6,18.439c2.019,5.507 6.36,9.848 11.867,11.867c4.025,1.675 9.477,1.6 18.439,1.6l575.05,-0c8.963,-0 14.415,0.076 18.439,-1.6c5.507,-2.019 9.848,-6.36 11.867,-11.867c1.676,-4.025 1.6,-9.477 1.6,-18.439l-0,-58.396c-0,-8.962 0.076,-14.415 -1.6,-18.439c-2.019,-5.507 -6.36,-9.848 -11.867,-11.867c-4.024,-1.675 -9.477,-1.599 -18.439,-1.599l-575.05,-0Zm-0.009,2.666l575.059,-0c8.972,-0 14.279,0.08 17.43,1.396c0.019,0.008 0.038,0.015 0.057,0.021c4.803,1.749 8.587,5.533 10.336,10.336c0.006,0.02 0.014,0.038 0.021,0.057c1.316,3.151 1.397,8.458 1.397,17.43l-0,2.385l-633.54,-0l-0,-2.385c-0,-8.972 0.081,-14.278 1.396,-17.43c0.008,-0.019 0.015,-0.037 0.022,-0.057c1.748,-4.803 5.532,-8.587 10.336,-10.336c0.019,-0.006 0.038,-0.013 0.056,-0.021c3.151,-1.316 8.458,-1.396 17.43,-1.396Zm-29.231,34.291l633.54,-0l0,53.346c0,8.971 -0.081,14.279 -1.396,17.43c-0.008,0.018 -0.015,0.037 -0.022,0.056c-1.748,4.804 -5.532,8.588 -10.336,10.336c-0.019,0.007 -0.038,0.014 -0.057,0.022c-3.15,1.315 -8.457,1.394 -17.43,1.394l-575.05,0c-8.971,0 -14.278,-0.079 -17.43,-1.394c-0.018,-0.008 -0.037,-0.015 -0.056,-0.022c-4.804,-1.748 -8.588,-5.532 -10.336,-10.336c-0.007,-0.019 -0.014,-0.038 -0.022,-0.056c-1.315,-3.152 -1.396,-8.458 -1.396,-17.43l-0.009,-53.346Z" style="fill:#909090;fill-rule:nonzero;"/><g><g><text x="286.391px" y="72.327px" style="font-family:'ArialMT', 'Arial', sans-serif;font-size:17.333px;fill:#525252;">01-01-2025:10.30 67945 success user added a product x to their cart</text></g><g><text x="286.391px" y="92.327px" style="font-family:'ArialMT', 'Arial', sans-serif;font-size:17.333px;fill:#525252;">01-01-2025:10.32 38910 fail invalid values typed for product quantity</text></g><g><text x="286.391px" y="112.327px" style="font-family:'ArialMT', 'Arial', sans-serif;font-size:17.333px;fill:#525252;">01-01-2025:10.38 17462 fail customer table corrupted</text></g></g><g><path d="M169.993,123.43c-0.643,-0.152 -1.439,-0.58 -1.972,-1.058c-0.584,-0.525 -1.035,-1.382 -1.21,-2.298c-0.075,-0.389 -0.14,-2.909 -0.185,-7.103c-0.054,-5.124 -0.096,-6.528 -0.199,-6.63c-0.099,-0.1 -0.941,-0.146 -3.516,-0.194c-3.457,-0.064 -3.916,-0.093 -5.496,-0.353c-2.173,-0.357 -3.918,-0.92 -6.027,-1.944c-2.525,-1.227 -4.42,-2.558 -6.287,-4.418c-1.926,-1.919 -3.288,-3.817 -4.402,-6.134c-1.275,-2.653 -1.807,-4.74 -2.521,-9.893c-0.258,-1.861 -0.322,-2.103 -0.712,-2.692c-0.697,-1.052 -1.547,-1.57 -3.416,-2.081c-1.344,-0.368 -2.112,-0.638 -2.457,-0.864l-0.247,-0.162l-0,-15.812l0.276,-0.259c0.557,-0.521 0.807,-0.583 2.382,-0.583c0.805,0 1.542,0.044 1.638,0.097c0.096,0.053 0.784,0.215 1.53,0.359c2.149,0.415 4.271,1.037 5.389,1.578c1.8,0.873 3.415,1.889 5.16,3.246c3.596,2.798 6.266,6.752 7.525,11.145c0.47,1.642 0.674,2.788 1.123,6.33c0.123,0.969 0.427,2.138 0.69,2.653c0.285,0.559 1.355,1.5 2.072,1.822c1.217,0.546 1.951,0.647 4.697,0.648c2.342,0.001 2.502,-0.011 2.635,-0.191c0.113,-0.154 0.137,-0.666 0.123,-2.562c-0.016,-2.135 0.004,-2.457 0.201,-3.249c0.12,-0.484 0.305,-1.049 0.411,-1.256c0.359,-0.701 0.991,-1.307 1.752,-1.679c1.43,-0.7 -1.287,-0.648 34.944,-0.659c23.262,-0.007 32.983,0.021 33.467,0.099c2.66,0.428 3.803,1.759 4.142,4.824c0.034,0.302 0.109,0.608 0.167,0.678c0.166,0.2 0.563,0.16 3.177,-0.322c4.548,-0.84 12.643,-2.061 13.653,-2.061c0.297,-0 0.673,0.068 0.836,0.152c0.619,0.32 0.599,0.074 0.597,7.603c-0.002,6.515 -0.012,6.883 -0.193,7.281c-0.222,0.49 -0.449,0.636 -0.99,0.636c-0.739,-0 -8.668,-1.19 -12.427,-1.864c-4.534,-0.814 -4.462,-0.803 -4.649,-0.685c-0.16,0.101 -0.175,0.497 -0.199,5.043l-0.026,4.934l0.227,0.142c0.203,0.128 1.107,0.002 8.615,-1.201c4.614,-0.739 8.488,-1.345 8.609,-1.345c0.388,-0.002 0.7,0.399 0.874,1.124c0.14,0.583 0.161,1.538 0.161,7.054c0,6.204 -0.006,6.395 -0.207,6.935c-0.237,0.632 -0.494,0.859 -0.975,0.859c-0.184,-0 -2.084,-0.292 -4.222,-0.649c-5.969,-0.995 -12.105,-1.963 -12.443,-1.963c-0.566,-0 -0.645,0.215 -0.575,1.565c0.038,0.738 0.019,1.427 -0.051,1.797c-0.296,1.569 -1.319,2.78 -2.891,3.423l-0.586,0.239l-33.805,-0.006c-19.632,-0.003 -33.965,-0.043 -34.187,-0.096l0,0Zm67.818,-2.987c0.18,-0.129 0.406,-0.378 0.502,-0.553c0.164,-0.298 0.176,-1.442 0.204,-18c0.017,-9.725 0.001,-17.926 -0.034,-18.224c-0.105,-0.891 -0.616,-1.455 -0.936,-1.466l-66.842,-0.051l-0.368,0.206c-0.202,0.114 -0.469,0.354 -0.592,0.534l-0.225,0.328l0,18.207c0,19.889 -0.04,18.546 0.573,18.961c0.155,0.105 0.349,0.221 0.432,0.259c0.083,0.038 15.182,0.06 33.554,0.05l33.403,-0.018l0.329,-0.233Zm-58.367,-4.659c-0.894,-0.518 -0.918,-1.841 -0.044,-2.381l0.341,-0.211l24.201,0c23.246,0 24.214,0.007 24.543,0.184c0.671,0.36 0.894,1.219 0.498,1.924c-0.434,0.771 1.908,0.705 -25.032,0.703l-24.132,-0.002l-0.375,-0.217Zm77.413,0.036c0.152,-0.167 0.165,-0.608 0.141,-4.736c-0.024,-4.158 -0.041,-4.56 -0.197,-4.658c-0.129,-0.082 -1.992,0.182 -7.581,1.074c-4.076,0.65 -7.468,1.231 -7.54,1.29c-0.098,0.081 -0.129,0.625 -0.129,2.252c0,2.116 0.003,2.147 0.226,2.288c0.179,0.112 14.125,2.633 14.752,2.667c0.088,0.005 0.236,-0.075 0.328,-0.177l0,0Zm-90.534,-12.539c0.174,-0.157 0.184,-0.465 0.182,-5.701c-0.001,-3.195 -0.04,-5.597 -0.094,-5.681c-0.075,-0.119 -0.603,-0.16 -2.836,-0.221c-3.34,-0.09 -4.358,-0.266 -5.853,-1.015c-1.509,-0.754 -2.579,-1.866 -3.368,-3.495c-0.482,-0.997 -0.633,-1.67 -0.962,-4.265c-0.454,-3.586 -0.921,-5.307 -2.101,-7.735c-1.377,-2.833 -3.148,-4.988 -5.831,-7.094c-1.445,-1.135 -3.755,-2.356 -5.771,-3.05c-1.14,-0.393 -3.055,-0.813 -4.18,-0.917c-1.144,-0.106 -1.049,-0.618 -1.049,5.706l-0,5.431l0.358,0.339c0.198,0.186 0.416,0.338 0.486,0.338c0.262,0 2.257,1.076 2.954,1.593c0.942,0.699 1.916,1.978 2.339,3.072c0.39,1.006 0.55,1.851 0.69,3.623c0.43,5.474 1.802,8.92 4.853,12.195c3.618,3.883 7.39,5.936 12.38,6.736c1.274,0.204 2.579,0.279 5.116,0.293c2.201,0.012 2.526,-0.006 2.687,-0.152l0,0Zm90.478,-8.292c0.09,-0.091 0.121,-1.278 0.121,-4.724l-0,-4.603l-0.235,-0.107c-0.184,-0.084 -1.771,0.14 -7.459,1.057c-3.974,0.64 -7.327,1.208 -7.451,1.262c-0.225,0.097 -0.226,0.113 -0.226,2.298c-0,1.641 0.032,2.227 0.126,2.305c0.125,0.103 14.11,2.597 14.697,2.62c0.168,0.007 0.361,-0.042 0.427,-0.108l0,-0Z" style="fill:#00f;fill-rule:nonzero;"/><path d="M71.268,14.14c-42.186,-0 -54.136,0.048 -54.955,0.217c-2.788,0.575 -5.622,2.703 -6.932,5.207c-1.38,2.638 -1.254,-1.107 -1.353,40.248c-0.073,30.305 -0.13,36.973 -0.318,37.09c-0.127,0.078 -1.109,0.191 -2.182,0.25c-4.504,0.246 -5.527,1.787 -5.527,5.224c0.049,0.64 1.259,14.218 15.254,16.789c-0,0 76.338,0.112 114.2,-0.324c4.12,-1.389 7.581,-3.922 9.757,-7.142c0.923,-1.366 1.879,-3.421 2.35,-5.047c0.53,-1.832 0.846,-4.627 0.656,-5.827c-0.178,-1.129 -0.836,-2.306 -1.56,-2.794c-0.775,-0.522 -2.688,-0.935 -4.346,-0.938c-0.749,-0.001 -1.479,-0.077 -1.623,-0.168c-0.231,-0.146 -0.272,-4.521 -0.359,-37.025c-0.077,-28.804 -0.146,-37.072 -0.319,-37.822c-0.34,-1.479 -1.537,-3.577 -2.736,-4.799c-1.337,-1.361 -2.907,-2.287 -4.695,-2.765l-1.399,-0.373l-53.913,-0.001Zm-0.174,2.707c25.081,-0 50.162,0.058 51.814,0.174c3.788,0.266 4.982,0.709 6.649,2.471c1.093,1.155 1.583,2.391 1.812,4.562c0.103,0.973 0.171,15.49 0.172,37.047c0.003,31.994 -0.024,35.473 -0.272,35.721c-0.555,0.556 -33.92,0.059 -36.59,0.465c-4.047,0.616 -5.565,3.815 -7.611,4.762l-0.002,-0c-1.613,0.746 -30.951,0.306 -31.113,0.267c-3.118,-0.745 -3.829,-4.327 -8.445,-5.029c-2.892,-0.44 -35.97,0.162 -36.58,-0.512c-0.271,-0.3 -0.289,-2.905 -0.244,-36.855c0.044,-34.123 0.068,-36.599 0.351,-37.541c0.434,-1.44 0.87,-2.219 1.719,-3.068c1.581,-1.581 2.868,-2.033 6.523,-2.289c1.653,-0.116 26.735,-0.174 51.816,-0.174l0.001,-0.001Zm0.012,7.848c-46.376,-0 -51.917,0.028 -52.156,0.267c-0.147,0.147 -0.314,0.52 -0.369,0.828c-0.055,0.309 -0.076,14.587 -0.049,31.729c0.048,30.366 0.057,31.175 0.381,31.533l0.332,0.368l103.74,-0l0.355,-0.381c0.356,-0.382 0.356,-0.422 0.356,-32.014c-0,-31.399 -0.003,-31.634 -0.35,-31.98c-0.347,-0.348 -0.581,-0.35 -52.238,-0.35l-0.002,-0Zm0.074,2.597c24.767,0 49.535,0.076 49.688,0.229c0.161,0.161 0.209,6.962 0.209,29.545c0,28.198 -0.012,29.346 -0.318,29.623c-0.296,0.267 -3.991,0.289 -49.623,0.289c-44.588,-0 -49.328,-0.026 -49.576,-0.273c-0.247,-0.248 -0.274,-3.177 -0.274,-29.625c0,-22.595 0.048,-29.397 0.209,-29.559c0.153,-0.153 24.918,-0.229 49.686,-0.229l-0.001,0Zm-29.84,9.455c-0.185,0 -4.935,4.688 -5.986,5.913c-0.408,0.457 -0.457,0.593 -0.457,1.199l-0,0.679l1.101,1.213c0.606,0.656 2.053,2.139 3.215,3.289l2.102,2.104l1.236,-1.225c0.693,-0.667 1.287,-1.323 1.324,-1.459c0.062,-0.197 -0.359,-0.681 -2.041,-2.363c-1.162,-1.162 -2.115,-2.164 -2.115,-2.238c0,-0.062 0.941,-1.064 2.104,-2.227c1.162,-1.162 2.101,-2.188 2.101,-2.287c0,-0.086 -0.544,-0.705 -1.199,-1.373c-0.655,-0.68 -1.286,-1.225 -1.385,-1.225l0,0Zm7.906,3.112c-0.444,0 -1.039,0.032 -1.797,0.092l-0.865,0.074l0,3.711l3.709,-0l0.037,-1.781c0.025,-1.2 -0.012,-1.831 -0.111,-1.942c-0.074,-0.093 -0.333,-0.143 -0.791,-0.152c-0.057,-0.001 -0.118,-0.002 -0.182,-0.002l0,-0Zm26.572,0.129c-9.621,-0.013 -17.549,0.013 -17.586,0.062c-0.111,0.099 -0.11,3.289 -0.011,3.549c0.037,0.093 0.47,0.142 2.873,0.168c1.201,0.013 2.894,0.021 5.277,0.025c2.382,0.004 5.453,0.004 9.41,0.004l17.488,0l0.061,-0.283c0.037,-0.148 0.049,-1.003 0.037,-1.881l-0.037,-1.607l-17.512,-0.037Zm-3.945,7.635c-10.633,-0 -21.264,0.051 -21.369,0.156c-0.161,0.161 -0.223,3.476 -0.074,3.859c0.074,0.186 2.076,0.197 21.443,0.197c19.367,0 21.371,-0.011 21.445,-0.197c0.148,-0.383 0.086,-3.698 -0.074,-3.859c-0.106,-0.105 -10.739,-0.156 -21.371,-0.156l0,-0Zm-19.33,8.037c-0.104,0.001 -0.208,0.003 -0.312,0.005c-0.837,0.017 -1.647,0.072 -1.727,0.153c-0.099,0.099 -0.149,0.68 -0.149,1.781c0,1.323 0.037,1.682 0.198,1.83c0.16,0.173 0.433,0.185 1.818,0.123c0.903,-0.037 1.707,-0.086 1.793,-0.123c0.111,-0.025 0.149,-0.507 0.149,-1.83c-0,-1.509 -0.025,-1.794 -0.198,-1.855c-0.162,-0.065 -0.844,-0.091 -1.572,-0.084l0,-0Zm29.113,0.009c-6.381,0 -11.637,0.037 -11.674,0.086c-0.049,0.037 -0.088,0.903 -0.088,1.905c0,1.546 0.026,1.83 0.199,1.892c0.112,0.037 5.33,0.074 11.6,0.074c8.707,0 11.439,-0.037 11.551,-0.148c0.161,-0.161 0.223,-3.24 0.075,-3.611c-0.075,-0.173 -1.212,-0.198 -11.662,-0.198l-0.001,0Zm-21.037,0.022c-1.366,0.004 -2.35,0.027 -2.387,0.064c-0.16,0.149 -0.098,3.562 0.063,3.723c0.235,0.235 7.308,0.212 7.506,-0.023c0.099,-0.112 0.138,-0.742 0.113,-1.942l-0.037,-1.781l-3.785,-0.037c-0.52,-0.003 -1.018,-0.005 -1.473,-0.004l0,-0Zm30.857,7.769c-1.014,0 -1.806,0.049 -1.855,0.123c-0.038,0.062 -0.112,0.855 -0.149,1.758c-0.062,1.385 -0.037,1.669 0.111,1.805c0.149,0.111 0.669,0.148 1.967,0.123l1.779,-0.037l0.038,-1.608c0.012,-0.89 -0,-1.731 -0.038,-1.892c-0.061,-0.272 -0.097,-0.272 -1.853,-0.272l0,0Zm-35.143,0.018c-4.644,0.003 -5.893,0.042 -5.93,0.144c-0.024,0.087 -0.035,0.939 -0.023,1.879l0.037,1.731l23.496,-0l-0,-3.709l-11.723,-0.037c-2.384,-0.006 -4.309,-0.009 -5.857,-0.008l0,-0Zm23.727,-0c-1.456,0.005 -2.018,0.047 -2.102,0.131c-0.173,0.173 -0.211,3.265 -0.05,3.537c0.086,0.111 0.94,0.148 3.871,0.123l3.76,-0.037l-0,-3.709l-3.709,-0.037c-0.699,-0.006 -1.285,-0.01 -1.77,-0.008l0,-0Zm22.434,2.58c-0.173,0 -2.411,2.25 -2.498,2.51c-0.062,0.198 0.346,0.668 1.979,2.301c1.125,1.125 2.054,2.126 2.054,2.213c0,0.098 -0.903,1.113 -2.004,2.263c-1.113,1.15 -2.028,2.166 -2.052,2.252c-0.013,0.074 0.556,0.728 1.273,1.446l1.311,1.298l2.795,-2.843c3.339,-3.401 3.5,-3.6 3.5,-4.416c-0,-0.73 0.023,-0.693 -3.637,-4.403c-1.435,-1.434 -2.659,-2.621 -2.721,-2.621l0,0Zm-42.125,5.209c-8.763,0.002 -9.884,0.045 -9.939,0.184c-0.149,0.371 -0.087,3.325 0.074,3.486c0.111,0.111 5.046,0.148 21.457,0.148l21.309,0l0.06,-0.283c0.037,-0.148 0.05,-1.003 0.037,-1.881l-0.037,-1.607l-21.406,-0.037c-4.863,-0.006 -8.633,-0.011 -11.555,-0.01l0,0Zm52.811,28.729c9.735,0.014 20.443,0.189 25.34,0.389c0.936,0.503 1.095,1.286 0.697,3.449c-1.536,6.642 -5.536,11.6 -12.586,12.58c0,-0 -107.67,0.277 -108.64,0.207c-5.07,-0.369 -7.904,-1.451 -10.643,-4.063c-3.597,-3.43 -6.078,-11.258 -3.551,-12.305c0.346,-0.143 6.388,-0.184 22.195,-0.15c25.258,0.055 22.174,-0.242 25.133,2.426c1.9,1.712 2.905,2.286 4.547,2.598c1.238,0.234 29.636,0.227 30.877,-0.008c3.39,-0.643 5.058,-3.6 7.139,-4.539c0.995,-0.449 9.754,-0.598 19.488,-0.584l0.004,0Zm-92.684,3.557c-0.824,-0.039 -1.684,0.129 -2.512,0.543c-1.864,0.931 -2.763,2.59 -2.588,4.773c0.148,1.835 1.441,3.545 3.165,4.182c1.119,0.413 3.016,0.266 4,-0.311c1.574,-0.922 2.562,-2.615 2.56,-4.379c-0.004,-2.728 -2.153,-4.694 -4.625,-4.808l0,-0Zm13.562,0.033c-0.311,0.015 -0.604,0.056 -0.852,0.123c-2.718,0.736 -4.195,3.639 -3.255,6.396c0.375,1.103 1.775,2.535 2.851,2.914c3.123,1.103 6.321,-0.997 6.578,-4.318c0.149,-1.923 -0.889,-3.769 -2.617,-4.65c-0.658,-0.336 -1.771,-0.512 -2.705,-0.465l0,-0Zm0.389,2.67c1.561,-0.03 2.813,1.589 2.064,3.051c-0.171,0.334 -0.578,0.784 -0.904,1.002c-0.7,0.467 -1.283,0.495 -2.09,0.097c-1.742,-0.858 -1.584,-3.421 0.248,-4.031c0.231,-0.077 0.459,-0.115 0.682,-0.119l-0,-0Zm-14.234,0.023c0.475,-0.006 0.957,0.094 1.275,0.303c0.522,0.342 1.018,1.262 1.018,1.885c-0,0.658 -0.588,1.574 -1.233,1.92c-0.971,0.52 -1.804,0.377 -2.631,-0.452c-0.889,-0.891 -0.725,-2.548 0.328,-3.32c0.297,-0.217 0.767,-0.33 1.243,-0.336l-0,0Z" style="fill:#00f;fill-rule:nonzero;"/></g></svg>