<?xml version="1.0" encoding="UTF-8"?>
<svg clip-rule="evenodd" fill-rule="evenodd" stroke-linejoin="round" stroke-miterlimit="2" version="1.1" viewBox="0 0 290 112" xml:space="preserve" xmlns="http://www.w3.org/2000/svg"><path d="m102.15 31.712v17.411c0 2.207-1.792 4-4 4h-77.225c-2.208-0-4-1.793-4-4v-17.411c-0-2.207 1.792-4 4-4h77.225c2.208 0 4 1.793 4 4z" fill="#ebebeb"/><g fill="#909090" font-family="'ArialMT', 'Arial', sans-serif" font-size="16px"><text x="16.256px" y="81.5px">User</text><text x="54.29px" y="81.5px">clicking</text><text x="31.856px" y="100.5px">on a</text><text x="67.356px" y="100.5px">link</text></g><g fill="#909090" font-family="'ArialMT', 'Arial', sans-serif" font-size="16px"><text x="138.489px" y="82.5px">Sensor</text><text x="193.289px" y="82.5px">measuring</text><text x="271.922px" y="82.5px">a</text><text x="138.489px" y="101.5px">temperature</text><text x="228.589px" y="101.5px">change</text></g><circle cx="211.82" cy="37.614" r="23.5" fill="#fff"/><path d="m211.82 13.133c13.511 0 24.48 10.969 24.48 24.481 0 13.511-10.969 24.48-24.48 24.48-13.512 0-24.481-10.969-24.481-24.48-0-13.512 10.969-24.481 24.481-24.481zm-0 0.981c-12.97-0-23.5 10.53-23.5 23.5s10.53 23.5 23.5 23.5 23.5-10.53 23.5-23.5-10.53-23.5-23.5-23.5z"/><clipPath id="_clip1"><rect x="195.29" y="21.416" width="34.003" height="30.406"/></clipPath><g clip-path="url(#_clip1)" fill-rule="nonzero"><path d="m214.62 48.158c-0.211-0.377-0.31-0.81-0.474-1.212-0.026-0.064-0.109-0.117-0.177-0.147-0.056-0.024-0.13-5e-3 -0.196-5e-3 -5.256 0-10.512-2e-3 -15.768 2e-3 -0.777 1e-3 -1.421-0.251-1.839-0.927-0.13-0.21-0.198-0.465-0.255-0.709-0.044-0.189-0.037-0.392-0.037-0.589-2e-3 -5.067-1e-3 -10.134-2e-3 -15.201-0-0.445-4e-3 -0.891 0.228-1.293 0.374-0.646 0.927-1.003 1.68-1.034 0.172-7e-3 0.345-9e-3 0.517-9e-3 5.708-1e-3 11.416-1e-3 17.124-1e-3h0.336c0-0.152-2e-3 -0.288 1e-3 -0.424 0.043-2.254 1.824-4.257 4.053-4.559 2.464-0.334 4.655 1.088 5.313 3.488 0.13 0.475 0.16 0.99 0.161 1.487 0.013 3.597 7e-3 7.194 8e-3 10.792-0 0.493 0.019 0.985 8e-3 1.478-0.017 0.824 0.212 1.569 0.673 2.25 0.648 0.958 1.018 2.015 1.117 3.168 0.113 1.314-0.149 2.556-0.787 3.702-1.034 1.857-2.628 2.953-4.711 3.343-2.299 0.287-5.098-0.246-6.973-3.6zm10.028-21.864c-0.137-1.041-0.569-1.946-1.366-2.628-1.29-1.102-2.776-1.391-4.342-0.729-1.554 0.657-2.429 1.879-2.548 3.591-0.028 0.401-0.025 0.805-0.025 1.207-2e-3 3.875-1e-3 7.751-2e-3 11.626 0 0.115-4e-3 0.23-0.011 0.345-0.055 0.906-0.441 1.682-0.916 2.436-1.305 2.074-1.179 4.799 0.342 6.721 1.548 1.956 3.583 2.696 6.03 2.215 1.399-0.276 2.528-1.024 3.399-2.152 1.315-1.705 1.612-3.596 0.941-5.622-0.183-0.553-0.496-1.069-0.799-1.572-0.491-0.816-0.683-1.692-0.681-2.632 5e-3 -3.95 2e-3 -7.9 1e-3 -11.849 0-0.304-0.012-0.607-0.022-0.956m-9.673 4.474h-15.642v4.583h16.407v-4.583h-0.765m-15.603 8.569c-0.229 0.758 0.143 1.47 0.872 1.663 0.704 0.186 1.413-0.254 1.568-0.974 0.131-0.609-0.228-1.242-0.824-1.452-0.642-0.226-1.284 0.065-1.616 0.763m10.632-0.167c-0.253 0.506-0.197 1.025 0.152 1.422 0.363 0.411 0.891 0.555 1.383 0.377 0.491-0.178 0.83-0.644 0.846-1.164 0.017-0.55-0.346-1.061-0.877-1.236-0.567-0.187-1.103 0.018-1.504 0.601m-3.092 1.281c0.287-0.516 0.256-1.035-0.088-1.473-0.304-0.388-0.847-0.559-1.33-0.421-0.537 0.154-0.901 0.62-0.921 1.178-0.019 0.552 0.32 1.05 0.843 1.235 0.542 0.193 1.102 7e-3 1.496-0.519z" fill="#1c1c1c"/><path d="m224.02 43.049c1.161 1.877 0.927 3.942-0.608 5.457-1.171 1.157-3.042 1.478-4.599 0.79-2.565-1.133-3.338-4.394-1.543-6.558 0.717-0.865 1.074-1.83 1.068-2.962-0.021-4.154-0.016-8.309-0.021-12.464-3e-3 -2.589 2.709-3.069 3.844-1.706 0.409 0.491 0.539 1.053 0.539 1.67-3e-3 4.032-3e-3 8.063-1e-3 12.095 1e-3 0.697-0.032 1.408 0.28 2.056 0.197 0.411 0.457 0.792 0.699 1.18 0.096 0.152 0.221 0.285 0.342 0.442m-5.06-15.928c-0.033 0.934-3e-3 1.869-7e-3 2.804-1e-3 0.17 0.049 0.226 0.223 0.225 0.894-8e-3 1.788-8e-3 2.681 0 0.189 2e-3 0.235-0.064 0.233-0.242-0.012-0.919-0.01-1.837-0.019-2.755-9e-3 -0.945-0.534-1.507-1.23-1.642-0.443-0.086-1.816-0.204-1.881 1.61z" fill="#1b1b1b"/></g><g fill-rule="nonzero"><path d="m24.549 27.62c24.368-0 48.697 1e-3 73.026-2e-3 1.088-1e-3 2.11 0.21 2.977 0.901 1.052 0.838 1.561 1.938 1.559 3.295-9e-3 5.757 2e-3 13.42-0.014 19.177-1e-3 0.51-1.579-1.366-1.675-1.52-0.073-0.118-0.077-0.337-0.077-0.512-3e-3 -5.399-0-10.798-7e-3 -16.198-1e-3 -0.508-0.028-1.022-0.109-1.523-0.167-1.024-1.034-1.763-2.081-1.804-0.458-0.018-0.918 4e-3 -1.378 4e-3 -25.235 1e-3 -50.47-1e-3 -75.705 0.01-0.514 0-1.062 0.051-1.536 0.231-0.926 0.351-1.298 1.147-1.334 2.092-0.034 0.904-0.016 1.811-0.018 2.717-8e-3 4.493-0.017 8.986-0.022 13.479-1e-3 0.357 0.016 0.715 0.04 1.071 0.094 1.418 0.962 2.256 2.392 2.309 0.345 0.013 0.689 0.013 1.034 0.013 20.64 1e-3 41.28 1e-3 61.92 1e-3 0.089-0 0.179 3e-3 0.268-3e-3 0.8-0.048 0.731-0.102 0.725 0.723-0.01 1.221 0.17 1.06-1.046 1.06-20.831 2e-3 -41.663 2e-3 -62.494 1e-3 -0.861 0-1.711-0.059-2.482-0.505-1.403-0.813-2.117-2.048-2.119-3.652-7e-3 -5.756-1e-3 -11.513 0.026-17.269 0.012-2.375 1.731-4.045 4.111-4.067 1.327-0.012 2.655-0.019 4.02-0.029h-1e-3z" fill="#090a09"/><path d="m96.69 48.206c1.353 1.15 2.685 2.281 4.017 3.413 0.039 0.033 0.076 0.068 0.115 0.101 0.25 0.213 0.368 0.508 0.218 0.783-0.096 0.175-0.356 0.33-0.563 0.362-0.982 0.156-1.971 0.27-2.958 0.393-0.481 0.061-0.962 0.122-1.445 0.161-0.327 0.027-0.384 0.15-0.258 0.445 0.874 2.039 1.738 4.081 2.604 6.124 0.069 0.164 0.141 0.329 0.186 0.501 0.103 0.388-1e-3 0.656-0.367 0.815-1.297 0.564-2.598 1.122-3.907 1.657-0.526 0.215-0.811 0.04-1.074-0.583-0.64-1.516-1.276-3.033-1.913-4.549-0.238-0.564-0.476-1.128-0.717-1.691-0.053-0.125-0.118-0.246-0.207-0.427-0.483 0.384-0.927 0.736-1.371 1.089-0.809 0.642-1.609 1.297-2.432 1.921-0.415 0.313-0.84 0.197-0.994-0.235-0.049-0.138-0.05-0.302-0.04-0.452 0.113-1.744 0.228-3.488 0.35-5.232 0.242-3.45 0.488-6.898 0.732-10.348 0.028-0.394 0.056-0.789 0.087-1.183 0.023-0.289 0.086-0.558 0.386-0.695 0.308-0.14 0.538 9e-3 0.762 0.198 2.922 2.472 5.845 4.943 8.789 7.432m-4.739 7.759c0.154 0.365 0.308 0.729 0.462 1.093 0.586 1.386 1.171 2.772 1.758 4.158 0.062 0.149 0.097 0.341 0.339 0.241 0.869-0.359 1.739-0.716 2.642-1.089-0.07-0.185-0.118-0.327-0.176-0.464-0.874-2.08-1.75-4.159-2.623-6.24-0.078-0.187-0.153-0.381-0.192-0.579-0.098-0.491 0.051-0.687 0.545-0.747 1.279-0.154 2.559-0.306 3.838-0.461 0.103-0.012 0.203-0.04 0.39-0.079-3.666-3.095-7.26-6.131-10.854-9.165-0.036 0.017-0.072 0.034-0.108 0.052-0.336 4.692-0.671 9.385-1.013 14.16 0.176-0.125 0.281-0.192 0.377-0.269 0.963-0.776 1.926-1.553 2.888-2.332 0.486-0.394 0.759-0.356 1.047 0.203 0.245 0.475 0.441 0.976 0.681 1.519l-1e-3 -1e-3z" fill="#080908"/><path d="m91.727 41.687c-0.542-0.466-0.481-1.042 0.136-1.314s1.247-0.518 1.88-0.752c0.434-0.161 0.831 0.018 0.984 0.402 0.147 0.369-0.04 0.778-0.466 0.957-0.61 0.257-1.222 0.513-1.848 0.727-0.197 0.068-0.44 0-0.686-0.02z" fill="#0b0c0b"/><path d="m86.255 39.259c-0.203-0.177-0.446-0.316-0.541-0.523-0.274-0.601-0.494-1.227-0.723-1.848-0.176-0.476-0.026-0.835 0.398-1.007 0.395-0.16 0.784 0.03 0.971 0.496 0.241 0.603 0.473 1.209 0.695 1.819 0.237 0.649-0.07 1.066-0.8 1.063z" fill="#090a09"/><path d="m84.567 44.458c-0.182 0.171-0.332 0.36-0.528 0.449-0.557 0.251-1.131 0.465-1.702 0.686-0.485 0.187-0.909 0.043-1.071-0.352-0.173-0.423 0.026-0.819 0.529-1.022 0.567-0.23 1.137-0.453 1.71-0.665 0.691-0.255 1.155 0.129 1.062 0.904z" fill="#0a0b0a"/><path d="m81.344 40.117c6e-3 -0.717 0.461-1.035 1.087-0.768 0.609 0.26 1.211 0.539 1.806 0.83 0.42 0.206 0.564 0.616 0.38 0.987-0.193 0.392-0.551 0.516-0.997 0.321-0.606-0.266-1.217-0.526-1.803-0.833-0.192-0.1-0.314-0.335-0.473-0.537z" fill="#0a0b0a"/><path d="m90.639 35.946c0.675 0.184 0.853 0.541 0.592 1.146-0.247 0.573-0.498 1.145-0.756 1.713-0.219 0.481-0.593 0.648-1.013 0.465-0.412-0.179-0.54-0.581-0.327-1.064 0.258-0.582 0.524-1.161 0.788-1.741 0.135-0.296 0.329-0.516 0.716-0.519z" fill="#090a09"/><path d="m91.941 55.938c-0.228-0.516-0.424-1.017-0.669-1.492-0.289-0.559-0.561-0.597-1.047-0.203-0.962 0.779-1.925 1.556-2.889 2.332-0.096 0.077-0.2 0.144-0.376 0.269 0.341-4.775 0.677-9.467 1.012-14.16 0.036-0.018 0.072-0.035 0.108-0.052 3.595 3.035 7.189 6.07 10.855 9.165-0.187 0.039-0.288 0.067-0.39 0.079-1.28 0.155-2.559 0.307-3.839 0.461-0.493 0.06-0.643 0.256-0.545 0.747 0.04 0.198 0.114 0.392 0.193 0.579 0.872 2.081 1.748 4.16 2.623 6.24 0.057 0.138 0.106 0.279 0.176 0.465-0.904 0.372-1.773 0.73-2.642 1.088-0.242 0.1-0.277-0.092-0.34-0.241-0.586-1.386-1.172-2.772-1.757-4.158-0.154-0.364-0.308-0.728-0.473-1.12v1e-3z" fill="#fdfdfd"/></g></svg>
