<?xml version="1.0" encoding="UTF-8" standalone="no"?><!DOCTYPE svg PUBLIC "-//W3C//DTD SVG 1.1//EN" "http://www.w3.org/Graphics/SVG/1.1/DTD/svg11.dtd"><svg width="100%" height="100%" viewBox="0 0 528 147" version="1.1" xmlns="http://www.w3.org/2000/svg" xmlns:xlink="http://www.w3.org/1999/xlink" xml:space="preserve" xmlns:serif="http://www.serif.com/" style="fill-rule:evenodd;clip-rule:evenodd;stroke-linejoin:round;stroke-miterlimit:2;"><rect x="0" y="0" width="517.083" height="25.2" style="fill:#ddd;"/><rect x="0.33" y="30.722" width="526.684" height="25.2" style="fill:#ddd;"/><rect x="0.33" y="61.443" width="526.684" height="25.2" style="fill:#ddd;"/><rect x="0.33" y="91.485" width="526.684" height="25.2" style="fill:#ddd;"/><rect x="0.33" y="121.706" width="526.684" height="25.2" style="fill:#ddd;"/><g transform="matrix(1,0,0,1,-22.0555,-94.44)"><g transform="matrix(16,0,0,16,380.914,111.235)"></g><g transform="matrix(16,0,0,16,385.714,111.235)"></g><text x="25.656px" y="111.235px" style="font-family:'CourierNewPS-BoldMT', 'Courier New', monospace;font-weight:700;font-size:16px;fill:#525252;">https://api.spotify.com/v1/me/shows?oﬀset=</text><text x="428.922px" y="111.235px" style="font-family:'CourierNewPS-BoldMT', 'Courier New', monospace;font-weight:700;font-size:16px;fill:#ff2600;">0</text><text x="438.523px" y="111.235px" style="font-family:'CourierNewPS-BoldMT', 'Courier New', monospace;font-weight:700;font-size:16px;fill:#525252;">&amp;limit=20</text></g><g transform="matrix(1,0,0,1,-22.0555,-94.44)"><g transform="matrix(16,0,0,16,381.243,141.957)"></g><g transform="matrix(16,0,0,16,386.044,141.957)"></g><text x="25.985px" y="141.957px" style="font-family:'CourierNewPS-BoldMT', 'Courier New', monospace;font-weight:700;font-size:16px;fill:#525252;">https://api.spotify.com/v1/me/shows?oﬀset=</text><text x="429.251px" y="141.957px" style="font-family:'CourierNewPS-BoldMT', 'Courier New', monospace;font-weight:700;font-size:16px;fill:#ff2600;">20</text><text x="448.454px" y="141.957px" style="font-family:'CourierNewPS-BoldMT', 'Courier New', monospace;font-weight:700;font-size:16px;fill:#525252;">&amp;limit=20</text></g><g transform="matrix(1,0,0,1,-22.0555,-94.44)"><g transform="matrix(16,0,0,16,381.243,172.679)"></g><g transform="matrix(16,0,0,16,386.044,172.679)"></g><text x="25.985px" y="172.679px" style="font-family:'CourierNewPS-BoldMT', 'Courier New', monospace;font-weight:700;font-size:16px;fill:#525252;">https://api.spotify.com/v1/me/shows?oﬀset=</text><text x="429.251px" y="172.679px" style="font-family:'CourierNewPS-BoldMT', 'Courier New', monospace;font-weight:700;font-size:16px;fill:#ff2600;">40</text><text x="448.454px" y="172.679px" style="font-family:'CourierNewPS-BoldMT', 'Courier New', monospace;font-weight:700;font-size:16px;fill:#525252;">&amp;limit=20</text></g><g transform="matrix(1,0,0,1,-22.0555,-94.44)"><g transform="matrix(16,0,0,16,381.243,202.72)"></g><g transform="matrix(16,0,0,16,386.044,202.72)"></g><text x="25.985px" y="202.72px" style="font-family:'CourierNewPS-BoldMT', 'Courier New', monospace;font-weight:700;font-size:16px;fill:#525252;">https://api.spotify.com/v1/me/shows?oﬀset=</text><text x="429.251px" y="202.72px" style="font-family:'CourierNewPS-BoldMT', 'Courier New', monospace;font-weight:700;font-size:16px;fill:#ff2600;">60</text><text x="448.454px" y="202.72px" style="font-family:'CourierNewPS-BoldMT', 'Courier New', monospace;font-weight:700;font-size:16px;fill:#525252;">&amp;limit=20</text></g><g transform="matrix(1,0,0,1,-22.0555,-94.44)"><g transform="matrix(16,0,0,16,381.243,232.942)"></g><g transform="matrix(16,0,0,16,386.044,232.942)"></g><text x="25.985px" y="232.942px" style="font-family:'CourierNewPS-BoldMT', 'Courier New', monospace;font-weight:700;font-size:16px;fill:#525252;">https://api.spotify.com/v1/me/shows?oﬀset=</text><text x="429.251px" y="232.942px" style="font-family:'CourierNewPS-BoldMT', 'Courier New', monospace;font-weight:700;font-size:16px;fill:#ff2600;">80</text><text x="448.454px" y="232.942px" style="font-family:'CourierNewPS-BoldMT', 'Courier New', monospace;font-weight:700;font-size:16px;fill:#525252;">&amp;limit=20</text></g></svg>