<?xml version="1.0" encoding="UTF-8" standalone="no"?><!DOCTYPE svg PUBLIC "-//W3C//DTD SVG 1.1//EN" "http://www.w3.org/Graphics/SVG/1.1/DTD/svg11.dtd"><svg width="100%" height="100%" viewBox="0 0 436 250" version="1.1" xmlns="http://www.w3.org/2000/svg" xmlns:xlink="http://www.w3.org/1999/xlink" xml:space="preserve" xmlns:serif="http://www.serif.com/" style="fill-rule:evenodd;clip-rule:evenodd;"><path d="M100.739,43.848l63.163,0" style="fill:none;fill-rule:nonzero;stroke:#a12e9d;stroke-width:2px;stroke-dasharray:2,2;"/><path d="M162.902,48.648l9.6,-4.8l-9.6,-4.8l0,9.6Z" style="fill:#a12e9d;fill-rule:nonzero;"/><path d="M170.987,63.773l-63.163,0" style="fill:none;fill-rule:nonzero;stroke:#4185f3;stroke-width:2px;stroke-dasharray:2,2;"/><path d="M108.824,58.973l-9.6,4.8l9.6,4.8l0,-9.6Z" style="fill:#4185f3;fill-rule:nonzero;"/><path d="M259.376,43.211l63.163,0" style="fill:none;fill-rule:nonzero;stroke:#a12e9d;stroke-width:2px;stroke-dasharray:2,2;"/><path d="M321.539,48.011l9.6,-4.8l-9.6,-4.8l0,9.6Z" style="fill:#a12e9d;fill-rule:nonzero;"/><path d="M329.624,63.137l-63.163,0" style="fill:none;fill-rule:nonzero;stroke:#4185f3;stroke-width:2px;stroke-dasharray:2,2;"/><path d="M267.46,58.337l-9.6,4.8l9.6,4.8l0,-9.6Z" style="fill:#4185f3;fill-rule:nonzero;"/><path d="M35.597,21.839l23.903,0c6.729,0 10.766,0 13.458,1.123c3.88,1.412 6.936,4.469 8.348,8.349c1.124,2.691 1.124,6.729 1.124,13.457l0,18.425c0,6.729 0,10.766 -1.124,13.458c-1.412,3.88 -4.468,6.936 -8.348,8.348c-2.692,1.124 -6.729,1.124 -13.458,1.124l-23.903,0c-6.729,0 -10.766,0 -13.458,-1.124c-3.88,-1.412 -6.936,-4.468 -8.348,-8.348c-1.124,-2.692 -1.124,-6.729 -1.124,-13.458l0,-18.425c0,-6.728 0,-10.766 1.124,-13.457c1.412,-3.88 4.468,-6.937 8.348,-8.349c2.692,-1.123 6.729,-1.123 13.458,-1.123Z" style="fill:#fff;fill-rule:nonzero;"/><path d="M35.597,21.839l23.903,0c6.729,0 10.766,0 13.458,1.124c3.88,1.412 6.936,4.468 8.349,8.348c1.123,2.692 1.123,6.729 1.123,13.458l-0,18.425c-0,6.728 -0,10.766 -1.123,13.457c-1.413,3.88 -4.469,6.937 -8.349,8.349c-2.692,1.124 -6.729,1.124 -13.458,1.124l-23.903,0c-6.729,0 -10.766,0 -13.458,-1.124c-3.88,-1.412 -6.936,-4.469 -8.348,-8.349c-1.124,-2.691 -1.124,-6.729 -1.124,-13.457l0,-18.425c0,-6.729 0,-10.766 1.124,-13.458c1.412,-3.88 4.468,-6.936 8.348,-8.348c2.692,-1.124 6.729,-1.124 13.458,-1.124Z" style="fill:none;fill-rule:nonzero;stroke:#909090;stroke-width:2px;stroke-linejoin:round;"/><text x="382.012px" y="86.982px" style="font-family:'ArialMT', 'Arial', sans-serif;font-size:14px;fill:#525252;">Code</text><text x="109.324px" y="37.067px" style="font-family:'ArialMT', 'Arial', sans-serif;font-size:14px;fill:#a12e9d;">respond</text><text x="112.757px" y="83.074px" style="font-family:'ArialMT', 'Arial', sans-serif;font-size:14px;fill:#4185f3;">request</text><text x="267.961px" y="36.431px" style="font-family:'ArialMT', 'Arial', sans-serif;font-size:14px;fill:#a12e9d;">respond</text><text x="251.3px" y="84.437px" style="font-family:'ArialMT', 'Arial', sans-serif;font-size:14px;fill:#4185f3;">HTTP</text><text x="287.599px" y="84.437px" style="font-family:'ArialMT', 'Arial', sans-serif;font-size:14px;fill:#4185f3;">r<tspan x="291.489px " y="84.437px ">e</tspan>quest</text><text x="24.782px" y="41.169px" style="font-family:'ArialMT', 'Arial', sans-serif;font-size:15px;fill:#525252;">Spotify</text><text x="31.701px" y="58.169px" style="font-family:'ArialMT', 'Arial', sans-serif;font-size:15px;fill:#525252;">Data</text><text x="21.654px" y="75.169px" style="font-family:'ArialMT', 'Arial', sans-serif;font-size:15px;fill:#525252;">Catalog</text><text x="171.8px" y="10.192px" style="font-family:'ArialMT', 'Arial', sans-serif;font-size:14px;fill:#525252;">Restful</text><text x="218.491px" y="10.192px" style="font-family:'ArialMT', 'Arial', sans-serif;font-size:14px;fill:#525252;">API</text><path d="M11.701,113.787l71.696,0c3.14,0 5.024,0 6.28,0.524c1.811,0.659 3.237,2.086 3.896,3.896c0.525,1.256 0.525,3.141 0.525,6.281l-0,112.894c-0,3.14 -0,5.024 -0.525,6.28c-0.659,1.811 -2.085,3.237 -3.896,3.896c-1.256,0.525 -3.14,0.525 -6.28,0.525l-71.696,0c-3.14,0 -5.025,0 -6.281,-0.525c-1.81,-0.659 -3.237,-2.085 -3.896,-3.896c-0.524,-1.256 -0.524,-3.14 -0.524,-6.28l0,-112.894c0,-3.14 0,-5.025 0.524,-6.281c0.659,-1.81 2.086,-3.237 3.896,-3.896c1.256,-0.524 3.141,-0.524 6.281,-0.524Z" style="fill:#fff;fill-rule:nonzero;stroke:#932092;stroke-width:2px;stroke-linejoin:round;"/><text x="15.323px" y="154.117px" style="font-family:'ArialMT', 'Arial', sans-serif;font-size:22.4px;fill:#525252;">•</text><text x="29.534px" y="152.034px" style="font-family:'ArialMT', 'Arial', sans-serif;font-size:14px;fill:#525252;">Music</text><text x="15.323px" y="174.78px" style="font-family:'ArialMT', 'Arial', sans-serif;font-size:22.4px;fill:#525252;">•</text><text x="29.533px" y="172.697px" style="font-family:'ArialMT', 'Arial', sans-serif;font-size:14px;fill:#525252;">Artists</text><text x="15.323px" y="195.442px" style="font-family:'ArialMT', 'Arial', sans-serif;font-size:22.4px;fill:#525252;">•</text><text x="29.534px" y="193.36px" style="font-family:'ArialMT', 'Arial', sans-serif;font-size:14px;fill:#525252;">Albums</text><text x="15.323px" y="216.105px" style="font-family:'ArialMT', 'Arial', sans-serif;font-size:22.4px;fill:#525252;">•</text><g><text x="29.533px" y="214.022px" style="font-family:'ArialMT', 'Arial', sans-serif;font-size:14px;fill:#525252;">T</text><text x="37.565px" y="214.022px" style="font-family:'ArialMT', 'Arial', sans-serif;font-size:14px;fill:#525252;">racks</text></g><text x="15.323px" y="236.767px" style="font-family:'ArialMT', 'Arial', sans-serif;font-size:22.4px;fill:#525252;">•</text><text x="29.534px" y="234.685px" style="font-family:'ArialMT', 'Arial', sans-serif;font-size:14px;fill:#525252;">Playlist</text><text x="10.588px" y="130.918px" style="font-family:'Arial-BoldMT', 'Arial', sans-serif;font-weight:700;font-size:15px;fill:#932092;">Resource</text><text x="120.48px" y="169.739px" style="font-family:'ArialMT', 'Arial', sans-serif;font-size:14px;fill:#525252;">Each resource is</text><text x="125.918px" y="185.739px" style="font-family:'ArialMT', 'Arial', sans-serif;font-size:14px;fill:#525252;">represented by</text><text x="131.39px" y="201.739px" style="font-family:'ArialMT', 'Arial', sans-serif;font-size:14px;fill:#525252;">an</text><text x="150.853px" y="201.739px" style="font-family:'Arial-BoldMT', 'Arial', sans-serif;font-weight:700;font-size:14px;fill:#525252;">endpoint</text><text x="209.95px" y="201.739px" style="font-family:'ArialMT', 'Arial', sans-serif;font-size:14px;fill:#525252;">.</text><text x="246.348px" y="93.566px" style="font-family:'ArialMT', 'Arial', sans-serif;font-size:9px;fill:#e6a91a;">Endpoint +</text><text x="291.64px" y="93.566px" style="font-family:'ArialMT', 'Arial', sans-serif;font-size:9px;fill:#e6a91a;">Access token</text><path d="M188.399,21.429c-1.298,0 -2.39,1.092 -2.39,2.39l0,61.113c0,1.298 1.092,2.391 2.39,2.391l41.73,0c1.298,0 2.389,-1.093 2.389,-2.391l0,-50.521c0,-7.166 -5.814,-12.982 -12.98,-12.982l-31.139,0Zm0.61,3l30.529,0c5.556,0 9.98,4.426 9.98,9.982l0,49.912l-40.51,0l0.001,-59.894Z" style="fill:#909090;fill-rule:nonzero;"/><rect x="195.655" y="31.073" width="27.5" height="2.3" style="fill:#909090;"/><rect x="195.655" y="42.056" width="27.5" height="2.3" style="fill:#909090;"/><rect x="195.655" y="52.831" width="27.5" height="2.3" style="fill:#909090;"/><path d="M215.12,68.254l-0,1.114l1.252,0l-0,5.433l-1.207,0l-0,1.113l3.957,0l-0,-1.113l-1.209,0l-0,-5.433l1.164,0l-0,-1.114l-3.957,0Z" style="fill:#909090;fill-rule:nonzero;"/><path d="M207.919,75.889l0,-7.635l2.474,0c0.938,0 1.549,0.038 1.834,0.114c0.437,0.115 0.803,0.365 1.099,0.75c0.295,0.382 0.442,0.877 0.442,1.485c0,0.469 -0.085,0.863 -0.255,1.182c-0.17,0.32 -0.387,0.571 -0.651,0.755c-0.26,0.181 -0.526,0.301 -0.797,0.36c-0.368,0.073 -0.901,0.109 -1.599,0.109l-1.005,0l-0,2.88l-1.542,0Zm1.542,-6.344l-0,2.167l0.844,0c0.607,0 1.014,-0.04 1.219,-0.12c0.204,-0.08 0.364,-0.205 0.479,-0.375c0.118,-0.17 0.177,-0.368 0.177,-0.593c-0,-0.278 -0.082,-0.507 -0.245,-0.688c-0.163,-0.18 -0.37,-0.293 -0.62,-0.338c-0.184,-0.035 -0.554,-0.053 -1.109,-0.053l-0.745,0Z" style="fill:#909090;fill-rule:nonzero;"/><path d="M206.704,75.889l-1.677,0l-0.667,-1.734l-3.052,0l-0.63,1.734l-1.635,0l2.974,-7.635l1.63,0l3.057,7.635Zm-2.838,-3.021l-1.052,-2.833l-1.032,2.833l2.084,0Z" style="fill:#909090;fill-rule:nonzero;"/><path d="M366.404,18.714c-1.813,0 -3.286,1.472 -3.286,3.286l0.003,46.007c0,1.812 0.775,3.744 2.587,3.73l58.302,-0.441l-0.098,-3.289l-58.207,0.444l0.699,-36.592l65.724,0l0,36.148l-8.633,0.003l-0.027,3.286l8.66,-0.003c1.812,-0.001 3.286,-1.474 3.286,-3.286l-0,-46.007c-0,-1.814 -1.474,-3.286 -3.286,-3.286l-65.724,0Zm-0,3.286l65.724,0l0,6.572l-65.724,0l0,-6.572Zm3.305,1.643c-0.907,0 -1.643,0.735 -1.643,1.643c-0,0.907 0.736,1.643 1.643,1.643c0.907,0 1.643,-0.736 1.643,-1.643c-0,-0.908 -0.736,-1.643 -1.643,-1.643Zm4.93,0c-0.907,0 -1.643,0.735 -1.643,1.643c-0,0.907 0.736,1.643 1.643,1.643c0.907,0 1.643,-0.736 1.643,-1.643c0,-0.908 -0.736,-1.643 -1.643,-1.643Zm4.929,0c-0.907,0 -1.643,0.735 -1.643,1.643c-0,0.907 0.736,1.643 1.643,1.643c0.907,0 1.643,-0.736 1.643,-1.643c0,-0.908 -0.736,-1.643 -1.643,-1.643Z" style="fill:#909090;fill-rule:nonzero;"/><path d="M400.706,40.884l-6.142,18.426l2.909,0.971l6.142,-18.425l-2.909,-0.972Zm-10.254,2.36l-7.677,6.142c-0.364,0.29 -0.576,0.732 -0.576,1.197c0,0.467 0.212,0.909 0.576,1.2l7.677,6.141l1.92,-2.396l-6.178,-4.945l6.178,-4.943l-1.92,-2.396Zm17.275,0l-1.92,2.397l6.181,4.942l-6.181,4.945l1.92,2.397l7.677,-6.142c0.366,-0.29 0.576,-0.733 0.576,-1.2c0,-0.465 -0.21,-0.906 -0.576,-1.197l-7.677,-6.142Z" style="fill:#909090;fill-rule:nonzero;"/></svg>