<?xml version="1.0" encoding="UTF-8"?>
<!-- Created with Inkscape (http://www.inkscape.org/) -->
<svg width="900" height="150" version="1.1" viewBox="0 0 900 150" xmlns="http://www.w3.org/2000/svg" xmlns:xlink="http://www.w3.org/1999/xlink">
 <defs>
  <linearGradient id="linearGradient51" x1="7.0979" x2="7.0099" y1="14.852" y2="-1.005" gradientUnits="userSpaceOnUse" xlink:href="#linearGradient6"/>
  <linearGradient id="linearGradient6">
   <stop stop-color="#909090" offset="0"/>
   <stop stop-color="#ddd" offset="1"/>
  </linearGradient>
  <filter id="filter49" x="-.41924" y="-.41924" width="1.8385" height="1.9468" color-interpolation-filters="sRGB">
   <feFlood flood-color="rgb(0,0,0)" flood-opacity=".49804" in="SourceGraphic" result="flood"/>
   <feGaussianBlur in="SourceGraphic" result="blur" stdDeviation="2.000000"/>
   <feOffset dx="0.000000" dy="1.500000" in="blur" result="offset"/>
   <feComposite in="flood" in2="offset" operator="in" result="comp1"/>
   <feComposite in="SourceGraphic" in2="comp1" result="comp2"/>
  </filter>
  <filter id="filter512" x="-.11739" y="-.61548" width="1.2348" height="2.4233" color-interpolation-filters="sRGB">
   <feFlood flood-color="rgb(0,0,0)" flood-opacity=".49804" in="SourceGraphic" result="flood"/>
   <feGaussianBlur in="SourceGraphic" result="blur" stdDeviation="2.000000"/>
   <feOffset dx="0.000000" dy="1.500000" in="blur" result="offset"/>
   <feComposite in="flood" in2="offset" operator="in" result="comp1"/>
   <feComposite in="SourceGraphic" in2="comp1" result="comp2"/>
  </filter>
 </defs>
 <text x="763.91406" y="77.196548" font-size="16px" stroke-width="1.3333" xml:space="preserve"><tspan x="763.91406 768.35889 777.25806 786.15729 795.05646 803.05646" y="77.196548" fill="#525252" font-family="Arial" font-size="16px" stroke-width="1.3333">Ingest</tspan></text>
 <text x="315.37808" y="17.531219" font-size="16px" stroke-width="1.3333" xml:space="preserve"><tspan x="315.37808 329.60739 336.7114 345.01434 356.87994 368.74554 387.71515 393.64154 399.56793 412.59833 425.62875 437.49432 449.35992 456.46393 462.39035 475.42075" y="17.531219" fill="#346ac3" font-family="Arial" font-size="21.333px" font-weight="700" stroke-width="1.3333">Stream Ingestion</tspan></text>
 <path d="m828.94 37.328c-0.3804 0.0182-0.752 0.13335-1.086 0.34375-0.6679 0.41844-1.0761 1.1538-1.0761 1.9492v34.002c0.1451-0.0288 0.2951-0.0469 0.455-0.0469h22.033l-5.6328-5.2559c-0.3952-0.36888-0.5829-0.79917-0.5664-1.291 0.016-0.49183 0.2041-0.92213 0.5664-1.291 0.3952-0.36889 0.8648-0.56081 1.4082-0.57617 0.5434-0.0153 1.013 0.16046 1.4082 0.52929l9.041 8.4375c0.1977 0.18444 0.3376 0.38444 0.42 0.59961 0.082 0.21518 0.123 0.44547 0.123 0.69141 0 0.24592-0.041 0.47816-0.123 0.69336-0.082 0.21516-0.2223 0.41519-0.42 0.59961l-9.041 8.4375c-0.3952 0.36888-0.8648 0.54467-1.4082 0.5293-0.5434-0.0153-1.013-0.20726-1.4082-0.57618-0.3623-0.36888-0.5499-0.79917-0.5664-1.291-0.016-0.49185 0.1713-0.92214 0.5664-1.291l5.6328-5.2559h-22.033c-0.1599 0-0.3099-0.018-0.455-0.0469v31.205c0.1451-0.0288 0.2951-0.0469 0.455-0.0469h22.033l-5.6328-5.2578c-0.3952-0.36888-0.5829-0.79917-0.5664-1.291 0.016-0.49185 0.2041-0.92212 0.5664-1.291 0.3952-0.36888 0.8648-0.56082 1.4082-0.57618 0.5434-0.0153 1.013 0.16242 1.4082 0.53125l9.041 8.4375c0.1977 0.18444 0.3376 0.38444 0.42 0.59961 0.082 0.21518 0.123 0.44547 0.123 0.69141 0 0.24592-0.041 0.47621-0.123 0.69141-0.082 0.21517-0.2223 0.41517-0.42 0.59961l-9.041 8.4375c-0.3952 0.36888-0.8648 0.54663-1.4082 0.53125-0.5434-0.0153-1.013-0.20726-1.4082-0.57618-0.3623-0.36888-0.5499-0.79917-0.5664-1.291-0.016-0.49186 0.1713-0.92214 0.5664-1.291l5.6328-5.2578h-22.033c-0.1599 0-0.3099-0.018-0.455-0.0469v32.83c0 0.79547 0.4082 1.5308 1.0761 1.9492 0.334 0.2104 0.7056 0.32555 1.086 0.34375 0.3804 0.019 0.7697-0.0564 1.123-0.23243l34.193-16.973c0.7795-0.38623 1.2734-1.1869 1.2734-2.0605v-71.281c0-0.8736-0.4939-1.6743-1.2734-2.0606l-34.193-16.973c-0.3533-0.17598-0.7426-0.25137-1.123-0.23242zm48.271 25.068c-4.5588 0-8.2304 3.6697-8.2304 8.2285v45.057c0 4.5588 3.6716 8.2285 8.2304 8.2285h9.7129c4.5589 0 8.2286-3.6697 8.2286-8.2285v-45.057c0-4.5588-3.6697-8.2285-8.2286-8.2285zm4.8555 6.9102a4.5 4.5 0 0 1 4.5 4.5 4.5 4.5 0 0 1-4.5 4.5 4.5 4.5 0 0 1-4.5-4.5 4.5 4.5 0 0 1 4.5-4.5zm0 11.699a4.5 4.5 0 0 1 4.5 4.5 4.5 4.5 0 0 1-4.5 4.5 4.5 4.5 0 0 1-4.5-4.5 4.5 4.5 0 0 1 4.5-4.5zm0 15.898c1.2287 0 2.2188 0.98813 2.2188 2.2168v14.971c0 1.2287-0.9901 2.2188-2.2188 2.2188s-2.2187-0.99007-2.2187-2.2188v-14.971c0-1.2287 0.99-2.2168 2.2187-2.2168z" fill="#157800" stroke-width="2.2796"/>
 <g fill="url(#linearGradient51)" stroke="#a7a7a7" stroke-linejoin="round" stroke-width="2">
  <path transform="matrix(1.3333 0 0 1.3333 7.74 82.102)" d="m3.175 0h7.4965c0.9317 0 1.4907 0 1.8634 0.15559 0.5372 0.19554 0.9605 0.61876 1.156 1.156 0.1556 0.37268 0.1556 0.9317 0.1556 1.8634v7.4965c0 0.9317 0 1.4907-0.1556 1.8634-0.1955 0.5372-0.6188 0.9605-1.156 1.156-0.3727 0.1556-0.9317 0.1556-1.8634 0.1556h-7.4965c-0.9317 0-1.4907 0-1.8634-0.1556-0.53724-0.1955-0.96046-0.6188-1.156-1.156-0.15559-0.3727-0.15559-0.9317-0.15559-1.8634v-7.4965c0-0.9317 0-1.4907 0.15559-1.8634 0.19554-0.53724 0.61876-0.96046 1.156-1.156 0.37268-0.15559 0.9317-0.15559 1.8634-0.15559z" filter="url(#filter49)"/>
  <path transform="matrix(1.3333 0 0 1.3333 41.682 82.102)" d="m3.175 0h7.4965c0.9317 0 1.4907 0 1.8634 0.15559 0.5372 0.19554 0.9605 0.61876 1.156 1.156 0.1556 0.37268 0.1556 0.9317 0.1556 1.8634v7.4965c0 0.9317 0 1.4907-0.1556 1.8634-0.1955 0.5372-0.6188 0.9605-1.156 1.156-0.3727 0.1556-0.9317 0.1556-1.8634 0.1556h-7.4965c-0.9317 0-1.4907 0-1.8634-0.1556-0.53724-0.1955-0.96046-0.6188-1.156-1.156-0.15559-0.3727-0.15559-0.9317-0.15559-1.8634v-7.4965c0-0.9317 0-1.4907 0.15559-1.8634 0.19554-0.53724 0.61876-0.96046 1.156-1.156 0.37268-0.15559 0.9317-0.15559 1.8634-0.15559z" filter="url(#filter49)"/>
  <path transform="matrix(1.3333 0 0 1.3333 686.58 82.102)" d="m3.175 0h7.4965c0.9317 0 1.4907 0 1.8634 0.15559 0.5372 0.19554 0.9605 0.61876 1.156 1.156 0.1556 0.37268 0.1556 0.9317 0.1556 1.8634v7.4965c0 0.9317 0 1.4907-0.1556 1.8634-0.1955 0.5372-0.6188 0.9605-1.156 1.156-0.3727 0.1556-0.9317 0.1556-1.8634 0.1556h-7.4965c-0.9317 0-1.4907 0-1.8634-0.1556-0.53724-0.1955-0.96046-0.6188-1.156-1.156-0.15559-0.3727-0.15559-0.9317-0.15559-1.8634v-7.4965c0-0.9317 0-1.4907 0.15559-1.8634 0.19554-0.53724 0.61876-0.96046 1.156-1.156 0.37268-0.15559 0.9317-0.15559 1.8634-0.15559z" filter="url(#filter49)"/>
  <path transform="matrix(1.3333 0 0 1.3333 720.52 82.568)" d="m3.175 0h7.4965c0.9317 0 1.4907 0 1.8634 0.15559 0.5372 0.19554 0.9605 0.61876 1.156 1.156 0.1556 0.37268 0.1556 0.9317 0.1556 1.8634v7.4965c0 0.9317 0 1.4907-0.1556 1.8634-0.1955 0.5372-0.6188 0.9605-1.156 1.156-0.3727 0.1556-0.9317 0.1556-1.8634 0.1556h-7.4965c-0.9317 0-1.4907 0-1.8634-0.1556-0.53724-0.1955-0.96046-0.6188-1.156-1.156-0.15559-0.3727-0.15559-0.9317-0.15559-1.8634v-7.4965c0-0.9317 0-1.4907 0.15559-1.8634 0.19554-0.53724 0.61876-0.96046 1.156-1.156 0.37268-0.15559 0.9317-0.15559 1.8634-0.15559z" filter="url(#filter49)"/>
  <path transform="matrix(1.3333 0 0 1.3333 75.624 82.102)" d="m3.175 0h7.4965c0.9317 0 1.4907 0 1.8634 0.15559 0.5372 0.19554 0.9605 0.61876 1.156 1.156 0.1556 0.37268 0.1556 0.9317 0.1556 1.8634v7.4965c0 0.9317 0 1.4907-0.1556 1.8634-0.1955 0.5372-0.6188 0.9605-1.156 1.156-0.3727 0.1556-0.9317 0.1556-1.8634 0.1556h-7.4965c-0.9317 0-1.4907 0-1.8634-0.1556-0.53724-0.1955-0.96046-0.6188-1.156-1.156-0.15559-0.3727-0.15559-0.9317-0.15559-1.8634v-7.4965c0-0.9317 0-1.4907 0.15559-1.8634 0.19554-0.53724 0.61876-0.96046 1.156-1.156 0.37268-0.15559 0.9317-0.15559 1.8634-0.15559z" filter="url(#filter49)"/>
  <path transform="matrix(1.3333 0 0 1.3333 109.57 82.102)" d="m3.175 0h7.4965c0.9317 0 1.4907 0 1.8634 0.15559 0.5372 0.19554 0.9605 0.61876 1.156 1.156 0.1556 0.37268 0.1556 0.9317 0.1556 1.8634v7.4965c0 0.9317 0 1.4907-0.1556 1.8634-0.1955 0.5372-0.6188 0.9605-1.156 1.156-0.3727 0.1556-0.9317 0.1556-1.8634 0.1556h-7.4965c-0.9317 0-1.4907 0-1.8634-0.1556-0.53724-0.1955-0.96046-0.6188-1.156-1.156-0.15559-0.3727-0.15559-0.9317-0.15559-1.8634v-7.4965c0-0.9317 0-1.4907 0.15559-1.8634 0.19554-0.53724 0.61876-0.96046 1.156-1.156 0.37268-0.15559 0.9317-0.15559 1.8634-0.15559z" filter="url(#filter49)"/>
  <path transform="matrix(1.3333 0 0 1.3333 143.51 82.102)" d="m3.175 0h7.4965c0.9317 0 1.4907 0 1.8634 0.15559 0.5372 0.19554 0.9605 0.61876 1.156 1.156 0.1556 0.37268 0.1556 0.9317 0.1556 1.8634v7.4965c0 0.9317 0 1.4907-0.1556 1.8634-0.1955 0.5372-0.6188 0.9605-1.156 1.156-0.3727 0.1556-0.9317 0.1556-1.8634 0.1556h-7.4965c-0.9317 0-1.4907 0-1.8634-0.1556-0.53724-0.1955-0.96046-0.6188-1.156-1.156-0.15559-0.3727-0.15559-0.9317-0.15559-1.8634v-7.4965c0-0.9317 0-1.4907 0.15559-1.8634 0.19554-0.53724 0.61876-0.96046 1.156-1.156 0.37268-0.15559 0.9317-0.15559 1.8634-0.15559z" filter="url(#filter49)"/>
  <path transform="matrix(1.3333 0 0 1.3333 177.45 82.102)" d="m3.175 0h7.4965c0.9317 0 1.4907 0 1.8634 0.15559 0.5372 0.19554 0.9605 0.61876 1.156 1.156 0.1556 0.37268 0.1556 0.9317 0.1556 1.8634v7.4965c0 0.9317 0 1.4907-0.1556 1.8634-0.1955 0.5372-0.6188 0.9605-1.156 1.156-0.3727 0.1556-0.9317 0.1556-1.8634 0.1556h-7.4965c-0.9317 0-1.4907 0-1.8634-0.1556-0.53724-0.1955-0.96046-0.6188-1.156-1.156-0.15559-0.3727-0.15559-0.9317-0.15559-1.8634v-7.4965c0-0.9317 0-1.4907 0.15559-1.8634 0.19554-0.53724 0.61876-0.96046 1.156-1.156 0.37268-0.15559 0.9317-0.15559 1.8634-0.15559z" filter="url(#filter49)"/>
  <path transform="matrix(1.3333 0 0 1.3333 211.39 82.102)" d="m3.175 0h7.4965c0.9317 0 1.4907 0 1.8634 0.15559 0.5372 0.19554 0.9605 0.61876 1.156 1.156 0.1556 0.37268 0.1556 0.9317 0.1556 1.8634v7.4965c0 0.9317 0 1.4907-0.1556 1.8634-0.1955 0.5372-0.6188 0.9605-1.156 1.156-0.3727 0.1556-0.9317 0.1556-1.8634 0.1556h-7.4965c-0.9317 0-1.4907 0-1.8634-0.1556-0.53724-0.1955-0.96046-0.6188-1.156-1.156-0.15559-0.3727-0.15559-0.9317-0.15559-1.8634v-7.4965c0-0.9317 0-1.4907 0.15559-1.8634 0.19554-0.53724 0.61876-0.96046 1.156-1.156 0.37268-0.15559 0.9317-0.15559 1.8634-0.15559z" filter="url(#filter49)"/>
  <path transform="matrix(1.3333 0 0 1.3333 245.33 82.102)" d="m3.175 0h7.4965c0.9317 0 1.4907 0 1.8634 0.15559 0.5372 0.19554 0.9605 0.61876 1.156 1.156 0.1556 0.37268 0.1556 0.9317 0.1556 1.8634v7.4965c0 0.9317 0 1.4907-0.1556 1.8634-0.1955 0.5372-0.6188 0.9605-1.156 1.156-0.3727 0.1556-0.9317 0.1556-1.8634 0.1556h-7.4965c-0.9317 0-1.4907 0-1.8634-0.1556-0.53724-0.1955-0.96046-0.6188-1.156-1.156-0.15559-0.3727-0.15559-0.9317-0.15559-1.8634v-7.4965c0-0.9317 0-1.4907 0.15559-1.8634 0.19554-0.53724 0.61876-0.96046 1.156-1.156 0.37268-0.15559 0.9317-0.15559 1.8634-0.15559z" filter="url(#filter49)"/>
  <path transform="matrix(1.3333 0 0 1.3333 279.28 82.102)" d="m3.175 0h7.4965c0.9317 0 1.4907 0 1.8634 0.15559 0.5372 0.19554 0.9605 0.61876 1.156 1.156 0.1556 0.37268 0.1556 0.9317 0.1556 1.8634v7.4965c0 0.9317 0 1.4907-0.1556 1.8634-0.1955 0.5372-0.6188 0.9605-1.156 1.156-0.3727 0.1556-0.9317 0.1556-1.8634 0.1556h-7.4965c-0.9317 0-1.4907 0-1.8634-0.1556-0.53724-0.1955-0.96046-0.6188-1.156-1.156-0.15559-0.3727-0.15559-0.9317-0.15559-1.8634v-7.4965c0-0.9317 0-1.4907 0.15559-1.8634 0.19554-0.53724 0.61876-0.96046 1.156-1.156 0.37268-0.15559 0.9317-0.15559 1.8634-0.15559z" filter="url(#filter49)"/>
  <path transform="matrix(1.3333 0 0 1.3333 313.22 82.102)" d="m3.175 0h7.4965c0.9317 0 1.4907 0 1.8634 0.15559 0.5372 0.19554 0.9605 0.61876 1.156 1.156 0.1556 0.37268 0.1556 0.9317 0.1556 1.8634v7.4965c0 0.9317 0 1.4907-0.1556 1.8634-0.1955 0.5372-0.6188 0.9605-1.156 1.156-0.3727 0.1556-0.9317 0.1556-1.8634 0.1556h-7.4965c-0.9317 0-1.4907 0-1.8634-0.1556-0.53724-0.1955-0.96046-0.6188-1.156-1.156-0.15559-0.3727-0.15559-0.9317-0.15559-1.8634v-7.4965c0-0.9317 0-1.4907 0.15559-1.8634 0.19554-0.53724 0.61876-0.96046 1.156-1.156 0.37268-0.15559 0.9317-0.15559 1.8634-0.15559z" filter="url(#filter49)"/>
  <path transform="matrix(1.3333 0 0 1.3333 347.16 82.102)" d="m3.175 0h7.4965c0.9317 0 1.4907 0 1.8634 0.15559 0.5372 0.19554 0.9605 0.61876 1.156 1.156 0.1556 0.37268 0.1556 0.9317 0.1556 1.8634v7.4965c0 0.9317 0 1.4907-0.1556 1.8634-0.1955 0.5372-0.6188 0.9605-1.156 1.156-0.3727 0.1556-0.9317 0.1556-1.8634 0.1556h-7.4965c-0.9317 0-1.4907 0-1.8634-0.1556-0.53724-0.1955-0.96046-0.6188-1.156-1.156-0.15559-0.3727-0.15559-0.9317-0.15559-1.8634v-7.4965c0-0.9317 0-1.4907 0.15559-1.8634 0.19554-0.53724 0.61876-0.96046 1.156-1.156 0.37268-0.15559 0.9317-0.15559 1.8634-0.15559z" filter="url(#filter49)"/>
  <path transform="matrix(1.3333 0 0 1.3333 381.1 82.102)" d="m3.175 0h7.4965c0.9317 0 1.4907 0 1.8634 0.15559 0.5372 0.19554 0.9605 0.61876 1.156 1.156 0.1556 0.37268 0.1556 0.9317 0.1556 1.8634v7.4965c0 0.9317 0 1.4907-0.1556 1.8634-0.1955 0.5372-0.6188 0.9605-1.156 1.156-0.3727 0.1556-0.9317 0.1556-1.8634 0.1556h-7.4965c-0.9317 0-1.4907 0-1.8634-0.1556-0.53724-0.1955-0.96046-0.6188-1.156-1.156-0.15559-0.3727-0.15559-0.9317-0.15559-1.8634v-7.4965c0-0.9317 0-1.4907 0.15559-1.8634 0.19554-0.53724 0.61876-0.96046 1.156-1.156 0.37268-0.15559 0.9317-0.15559 1.8634-0.15559z" filter="url(#filter49)"/>
  <path transform="matrix(1.3333 0 0 1.3333 415.04 82.102)" d="m3.175 0h7.4965c0.9317 0 1.4907 0 1.8634 0.15559 0.5372 0.19554 0.9605 0.61876 1.156 1.156 0.1556 0.37268 0.1556 0.9317 0.1556 1.8634v7.4965c0 0.9317 0 1.4907-0.1556 1.8634-0.1955 0.5372-0.6188 0.9605-1.156 1.156-0.3727 0.1556-0.9317 0.1556-1.8634 0.1556h-7.4965c-0.9317 0-1.4907 0-1.8634-0.1556-0.53724-0.1955-0.96046-0.6188-1.156-1.156-0.15559-0.3727-0.15559-0.9317-0.15559-1.8634v-7.4965c0-0.9317 0-1.4907 0.15559-1.8634 0.19554-0.53724 0.61876-0.96046 1.156-1.156 0.37268-0.15559 0.9317-0.15559 1.8634-0.15559z" filter="url(#filter49)"/>
  <path transform="matrix(1.3333 0 0 1.3333 448.99 82.102)" d="m3.175 0h7.4965c0.9317 0 1.4907 0 1.8634 0.15559 0.5372 0.19554 0.9605 0.61876 1.156 1.156 0.1556 0.37268 0.1556 0.9317 0.1556 1.8634v7.4965c0 0.9317 0 1.4907-0.1556 1.8634-0.1955 0.5372-0.6188 0.9605-1.156 1.156-0.3727 0.1556-0.9317 0.1556-1.8634 0.1556h-7.4965c-0.9317 0-1.4907 0-1.8634-0.1556-0.53724-0.1955-0.96046-0.6188-1.156-1.156-0.15559-0.3727-0.15559-0.9317-0.15559-1.8634v-7.4965c0-0.9317 0-1.4907 0.15559-1.8634 0.19554-0.53724 0.61876-0.96046 1.156-1.156 0.37268-0.15559 0.9317-0.15559 1.8634-0.15559z" filter="url(#filter49)"/>
  <path transform="matrix(1.3333 0 0 1.3333 482.93 82.102)" d="m3.175 0h7.4965c0.9317 0 1.4907 0 1.8634 0.15559 0.5372 0.19554 0.9605 0.61876 1.156 1.156 0.1556 0.37268 0.1556 0.9317 0.1556 1.8634v7.4965c0 0.9317 0 1.4907-0.1556 1.8634-0.1955 0.5372-0.6188 0.9605-1.156 1.156-0.3727 0.1556-0.9317 0.1556-1.8634 0.1556h-7.4965c-0.9317 0-1.4907 0-1.8634-0.1556-0.53724-0.1955-0.96046-0.6188-1.156-1.156-0.15559-0.3727-0.15559-0.9317-0.15559-1.8634v-7.4965c0-0.9317 0-1.4907 0.15559-1.8634 0.19554-0.53724 0.61876-0.96046 1.156-1.156 0.37268-0.15559 0.9317-0.15559 1.8634-0.15559z" filter="url(#filter49)"/>
  <path transform="matrix(1.3333 0 0 1.3333 516.87 82.102)" d="m3.175 0h7.4965c0.9317 0 1.4907 0 1.8634 0.15559 0.5372 0.19554 0.9605 0.61876 1.156 1.156 0.1556 0.37268 0.1556 0.9317 0.1556 1.8634v7.4965c0 0.9317 0 1.4907-0.1556 1.8634-0.1955 0.5372-0.6188 0.9605-1.156 1.156-0.3727 0.1556-0.9317 0.1556-1.8634 0.1556h-7.4965c-0.9317 0-1.4907 0-1.8634-0.1556-0.53724-0.1955-0.96046-0.6188-1.156-1.156-0.15559-0.3727-0.15559-0.9317-0.15559-1.8634v-7.4965c0-0.9317 0-1.4907 0.15559-1.8634 0.19554-0.53724 0.61876-0.96046 1.156-1.156 0.37268-0.15559 0.9317-0.15559 1.8634-0.15559z" filter="url(#filter49)"/>
  <path transform="matrix(1.3333 0 0 1.3333 550.81 82.102)" d="m3.175 0h7.4965c0.9317 0 1.4907 0 1.8634 0.15559 0.5372 0.19554 0.9605 0.61876 1.156 1.156 0.1556 0.37268 0.1556 0.9317 0.1556 1.8634v7.4965c0 0.9317 0 1.4907-0.1556 1.8634-0.1955 0.5372-0.6188 0.9605-1.156 1.156-0.3727 0.1556-0.9317 0.1556-1.8634 0.1556h-7.4965c-0.9317 0-1.4907 0-1.8634-0.1556-0.53724-0.1955-0.96046-0.6188-1.156-1.156-0.15559-0.3727-0.15559-0.9317-0.15559-1.8634v-7.4965c0-0.9317 0-1.4907 0.15559-1.8634 0.19554-0.53724 0.61876-0.96046 1.156-1.156 0.37268-0.15559 0.9317-0.15559 1.8634-0.15559z" filter="url(#filter49)"/>
  <path transform="matrix(1.3333 0 0 1.3333 584.76 82.102)" d="m3.175 0h7.4965c0.9317 0 1.4907 0 1.8634 0.15559 0.5372 0.19554 0.9605 0.61876 1.156 1.156 0.1556 0.37268 0.1556 0.9317 0.1556 1.8634v7.4965c0 0.9317 0 1.4907-0.1556 1.8634-0.1955 0.5372-0.6188 0.9605-1.156 1.156-0.3727 0.1556-0.9317 0.1556-1.8634 0.1556h-7.4965c-0.9317 0-1.4907 0-1.8634-0.1556-0.53724-0.1955-0.96046-0.6188-1.156-1.156-0.15559-0.3727-0.15559-0.9317-0.15559-1.8634v-7.4965c0-0.9317 0-1.4907 0.15559-1.8634 0.19554-0.53724 0.61876-0.96046 1.156-1.156 0.37268-0.15559 0.9317-0.15559 1.8634-0.15559z" filter="url(#filter49)"/>
  <path transform="matrix(1.3333 0 0 1.3333 618.7 82.102)" d="m3.175 0h7.4965c0.9317 0 1.4907 0 1.8634 0.15559 0.5372 0.19554 0.9605 0.61876 1.156 1.156 0.1556 0.37268 0.1556 0.9317 0.1556 1.8634v7.4965c0 0.9317 0 1.4907-0.1556 1.8634-0.1955 0.5372-0.6188 0.9605-1.156 1.156-0.3727 0.1556-0.9317 0.1556-1.8634 0.1556h-7.4965c-0.9317 0-1.4907 0-1.8634-0.1556-0.53724-0.1955-0.96046-0.6188-1.156-1.156-0.15559-0.3727-0.15559-0.9317-0.15559-1.8634v-7.4965c0-0.9317 0-1.4907 0.15559-1.8634 0.19554-0.53724 0.61876-0.96046 1.156-1.156 0.37268-0.15559 0.9317-0.15559 1.8634-0.15559z" filter="url(#filter49)"/>
  <path transform="matrix(1.3333 0 0 1.3333 652.64 82.102)" d="m3.175 0h7.4965c0.9317 0 1.4907 0 1.8634 0.15559 0.5372 0.19554 0.9605 0.61876 1.156 1.156 0.1556 0.37268 0.1556 0.9317 0.1556 1.8634v7.4965c0 0.9317 0 1.4907-0.1556 1.8634-0.1955 0.5372-0.6188 0.9605-1.156 1.156-0.3727 0.1556-0.9317 0.1556-1.8634 0.1556h-7.4965c-0.9317 0-1.4907 0-1.8634-0.1556-0.53724-0.1955-0.96046-0.6188-1.156-1.156-0.15559-0.3727-0.15559-0.9317-0.15559-1.8634v-7.4965c0-0.9317 0-1.4907 0.15559-1.8634 0.19554-0.53724 0.61876-0.96046 1.156-1.156 0.37268-0.15559 0.9317-0.15559 1.8634-0.15559z" filter="url(#filter49)"/>
 </g>
 <path transform="matrix(1.3333 0 0 1.3333 759.49 91.799)" d="m33.089-3.8993v3.1494h-33.089v1.5h33.089v3.1494l7.8003-3.8994z" color="#000000" fill="#909090" filter="url(#filter512)" stroke-linejoin="round" style="-inkscape-stroke:none"/>
</svg>
